G04 #@! TF.FileFunction,Paste,Top*
%FSLAX46Y46*%
G04 Gerber Fmt 4.6, Leading zero omitted, Abs format (unit mm)*
G04 Created by KiCad (PCBNEW 4.0.4-stable) date 11/09/16 23:44:31*
%MOMM*%
%LPD*%
G01*
G04 APERTURE LIST*
%ADD10C,0.150000*%
%ADD11R,1.100000X0.800000*%
%ADD12R,2.500000X1.200000*%
G04 APERTURE END LIST*
D10*
D11*
X1640000Y-71290000D03*
X7140000Y-71290000D03*
X1640000Y-70020000D03*
X7140000Y-70020000D03*
X1640000Y-68750000D03*
X7140000Y-68750000D03*
X1640000Y-67480000D03*
X7140000Y-67480000D03*
X1640000Y-66210000D03*
X7140000Y-66210000D03*
X1640000Y-64940000D03*
X7140000Y-64940000D03*
X1640000Y-63670000D03*
X7140000Y-63670000D03*
X1640000Y-62400000D03*
X7140000Y-62400000D03*
X1640000Y-61130000D03*
X7140000Y-61130000D03*
X1640000Y-59860000D03*
X7140000Y-59860000D03*
X1640000Y-58590000D03*
X7140000Y-58590000D03*
X1640000Y-57320000D03*
X7140000Y-57320000D03*
X1640000Y-56050000D03*
X7140000Y-56050000D03*
X1640000Y-54780000D03*
X7140000Y-54780000D03*
X1640000Y-53510000D03*
X7140000Y-53510000D03*
X1640000Y-52240000D03*
X7140000Y-52240000D03*
X1640000Y-50970000D03*
X7140000Y-50970000D03*
X1640000Y-49700000D03*
X7140000Y-49700000D03*
X1640000Y-48430000D03*
X7140000Y-48430000D03*
X1640000Y-47160000D03*
X7140000Y-47160000D03*
X1640000Y-45890000D03*
X7140000Y-45890000D03*
X1640000Y-44620000D03*
X7140000Y-44620000D03*
X1640000Y-43350000D03*
X7140000Y-43350000D03*
X1640000Y-42080000D03*
X7140000Y-42080000D03*
X1640000Y-40810000D03*
X7140000Y-40810000D03*
X1640000Y-39540000D03*
X7140000Y-39540000D03*
X1640000Y-38270000D03*
X7140000Y-38270000D03*
X1640000Y-37000000D03*
X7140000Y-37000000D03*
X1640000Y-35730000D03*
X7140000Y-35730000D03*
X1640000Y-34460000D03*
X7140000Y-34460000D03*
X1640000Y-33190000D03*
X7140000Y-33190000D03*
X1640000Y-31920000D03*
X7140000Y-31920000D03*
D12*
X1840000Y-29410000D03*
X6940000Y-29410000D03*
X1840000Y-73700000D03*
X6940000Y-73700000D03*
D11*
X13070000Y-71290000D03*
X18570000Y-71290000D03*
X13070000Y-70020000D03*
X18570000Y-70020000D03*
X13070000Y-68750000D03*
X18570000Y-68750000D03*
X13070000Y-67480000D03*
X18570000Y-67480000D03*
X13070000Y-66210000D03*
X18570000Y-66210000D03*
X13070000Y-64940000D03*
X18570000Y-64940000D03*
X13070000Y-63670000D03*
X18570000Y-63670000D03*
X13070000Y-62400000D03*
X18570000Y-62400000D03*
X13070000Y-61130000D03*
X18570000Y-61130000D03*
X13070000Y-59860000D03*
X18570000Y-59860000D03*
X13070000Y-58590000D03*
X18570000Y-58590000D03*
X13070000Y-57320000D03*
X18570000Y-57320000D03*
X13070000Y-56050000D03*
X18570000Y-56050000D03*
X13070000Y-54780000D03*
X18570000Y-54780000D03*
X13070000Y-53510000D03*
X18570000Y-53510000D03*
X13070000Y-52240000D03*
X18570000Y-52240000D03*
X13070000Y-50970000D03*
X18570000Y-50970000D03*
X13070000Y-49700000D03*
X18570000Y-49700000D03*
X13070000Y-48430000D03*
X18570000Y-48430000D03*
X13070000Y-47160000D03*
X18570000Y-47160000D03*
X13070000Y-45890000D03*
X18570000Y-45890000D03*
X13070000Y-44620000D03*
X18570000Y-44620000D03*
X13070000Y-43350000D03*
X18570000Y-43350000D03*
X13070000Y-42080000D03*
X18570000Y-42080000D03*
X13070000Y-40810000D03*
X18570000Y-40810000D03*
X13070000Y-39540000D03*
X18570000Y-39540000D03*
X13070000Y-38270000D03*
X18570000Y-38270000D03*
X13070000Y-37000000D03*
X18570000Y-37000000D03*
X13070000Y-35730000D03*
X18570000Y-35730000D03*
X13070000Y-34460000D03*
X18570000Y-34460000D03*
X13070000Y-33190000D03*
X18570000Y-33190000D03*
X13070000Y-31920000D03*
X18570000Y-31920000D03*
D12*
X13270000Y-29410000D03*
X18370000Y-29410000D03*
X13270000Y-73700000D03*
X18370000Y-73700000D03*
M02*
