G04 #@! TF.FileFunction,Legend,Top*
%FSLAX46Y46*%
G04 Gerber Fmt 4.6, Leading zero omitted, Abs format (unit mm)*
G04 Created by KiCad (PCBNEW 4.0.4-stable) date 11/09/16 23:44:31*
%MOMM*%
%LPD*%
G01*
G04 APERTURE LIST*
%ADD10C,0.150000*%
G04 APERTURE END LIST*
D10*
X16550000Y-6450000D02*
X16550000Y-8000000D01*
X13450000Y-8000000D02*
X13450000Y-6450000D01*
X13450000Y-6450000D02*
X16550000Y-6450000D01*
X13730000Y-9270000D02*
X16270000Y-9270000D01*
X24790000Y-10270000D02*
X24790000Y-91550000D01*
X29870000Y-89010000D02*
X29870000Y-10270000D01*
X24790000Y-10270000D02*
X29870000Y-10270000D01*
X24790000Y-91550000D02*
X27330000Y-91550000D01*
X28600000Y-91830000D02*
X30150000Y-91830000D01*
X27330000Y-91550000D02*
X27330000Y-89010000D01*
X27330000Y-89010000D02*
X29870000Y-89010000D01*
X30150000Y-91830000D02*
X30150000Y-90280000D01*
X116000Y-28110000D02*
X8752000Y-28110000D01*
X8752000Y-28110000D02*
X8752000Y-74846000D01*
X8752000Y-74846000D02*
X116000Y-74846000D01*
X116000Y-74846000D02*
X116000Y-28110000D01*
X11546000Y-28110000D02*
X20182000Y-28110000D01*
X20182000Y-28110000D02*
X20182000Y-74846000D01*
X20182000Y-74846000D02*
X11546000Y-74846000D01*
X11546000Y-74846000D02*
X11546000Y-28110000D01*
X16550000Y-90450000D02*
X16550000Y-92000000D01*
X13450000Y-92000000D02*
X13450000Y-90450000D01*
X13450000Y-90450000D02*
X16550000Y-90450000D01*
X13730000Y-93270000D02*
X16270000Y-93270000D01*
X14261905Y-3352381D02*
X14261905Y-2352381D01*
X14642858Y-2352381D01*
X14738096Y-2400000D01*
X14785715Y-2447619D01*
X14833334Y-2542857D01*
X14833334Y-2685714D01*
X14785715Y-2780952D01*
X14738096Y-2828571D01*
X14642858Y-2876190D01*
X14261905Y-2876190D01*
X15214286Y-2447619D02*
X15261905Y-2400000D01*
X15357143Y-2352381D01*
X15595239Y-2352381D01*
X15690477Y-2400000D01*
X15738096Y-2447619D01*
X15785715Y-2542857D01*
X15785715Y-2638095D01*
X15738096Y-2780952D01*
X15166667Y-3352381D01*
X15785715Y-3352381D01*
X22261905Y-92452381D02*
X22261905Y-91452381D01*
X22642858Y-91452381D01*
X22738096Y-91500000D01*
X22785715Y-91547619D01*
X22833334Y-91642857D01*
X22833334Y-91785714D01*
X22785715Y-91880952D01*
X22738096Y-91928571D01*
X22642858Y-91976190D01*
X22261905Y-91976190D01*
X23785715Y-92452381D02*
X23214286Y-92452381D01*
X23500000Y-92452381D02*
X23500000Y-91452381D01*
X23404762Y-91595238D01*
X23309524Y-91690476D01*
X23214286Y-91738095D01*
X3866571Y-53636857D02*
X5080857Y-53636857D01*
X5223714Y-53565429D01*
X5295143Y-53494000D01*
X5366571Y-53351143D01*
X5366571Y-53065429D01*
X5295143Y-52922571D01*
X5223714Y-52851143D01*
X5080857Y-52779714D01*
X3866571Y-52779714D01*
X5366571Y-51279714D02*
X5366571Y-52136857D01*
X5366571Y-51708285D02*
X3866571Y-51708285D01*
X4080857Y-51851142D01*
X4223714Y-51994000D01*
X4295143Y-52136857D01*
X10954571Y-46857428D02*
X9454571Y-46857428D01*
X10168857Y-46857428D02*
X10168857Y-46000285D01*
X10954571Y-46000285D02*
X9454571Y-46000285D01*
X10526000Y-45357428D02*
X10526000Y-44643142D01*
X10954571Y-45500285D02*
X9454571Y-45000285D01*
X10954571Y-44500285D01*
X10954571Y-43143142D02*
X10240286Y-43643142D01*
X10954571Y-44000285D02*
X9454571Y-44000285D01*
X9454571Y-43428857D01*
X9526000Y-43285999D01*
X9597429Y-43214571D01*
X9740286Y-43143142D01*
X9954571Y-43143142D01*
X10097429Y-43214571D01*
X10168857Y-43285999D01*
X10240286Y-43428857D01*
X10240286Y-44000285D01*
X10168857Y-42000285D02*
X10168857Y-42500285D01*
X10954571Y-42500285D02*
X9454571Y-42500285D01*
X9454571Y-41785999D01*
X10954571Y-40500285D02*
X10954571Y-41214571D01*
X9454571Y-41214571D01*
X10168857Y-40000285D02*
X10168857Y-39500285D01*
X10954571Y-39285999D02*
X10954571Y-40000285D01*
X9454571Y-40000285D01*
X9454571Y-39285999D01*
X9454571Y-38785999D02*
X10954571Y-37785999D01*
X9454571Y-37785999D02*
X10954571Y-38785999D01*
X10383143Y-37214571D02*
X10383143Y-36071714D01*
X9454571Y-34714571D02*
X9454571Y-35000285D01*
X9526000Y-35143142D01*
X9597429Y-35214571D01*
X9811714Y-35357428D01*
X10097429Y-35428857D01*
X10668857Y-35428857D01*
X10811714Y-35357428D01*
X10883143Y-35286000D01*
X10954571Y-35143142D01*
X10954571Y-34857428D01*
X10883143Y-34714571D01*
X10811714Y-34643142D01*
X10668857Y-34571714D01*
X10311714Y-34571714D01*
X10168857Y-34643142D01*
X10097429Y-34714571D01*
X10026000Y-34857428D01*
X10026000Y-35143142D01*
X10097429Y-35286000D01*
X10168857Y-35357428D01*
X10311714Y-35428857D01*
X9954571Y-33286000D02*
X10954571Y-33286000D01*
X9383143Y-33643143D02*
X10454571Y-34000286D01*
X10454571Y-33071714D01*
X10954571Y-32500286D02*
X9454571Y-32500286D01*
X9454571Y-31928858D01*
X9526000Y-31786000D01*
X9597429Y-31714572D01*
X9740286Y-31643143D01*
X9954571Y-31643143D01*
X10097429Y-31714572D01*
X10168857Y-31786000D01*
X10240286Y-31928858D01*
X10240286Y-32500286D01*
X15296571Y-53636857D02*
X16510857Y-53636857D01*
X16653714Y-53565429D01*
X16725143Y-53494000D01*
X16796571Y-53351143D01*
X16796571Y-53065429D01*
X16725143Y-52922571D01*
X16653714Y-52851143D01*
X16510857Y-52779714D01*
X15296571Y-52779714D01*
X15439429Y-52136857D02*
X15368000Y-52065428D01*
X15296571Y-51922571D01*
X15296571Y-51565428D01*
X15368000Y-51422571D01*
X15439429Y-51351142D01*
X15582286Y-51279714D01*
X15725143Y-51279714D01*
X15939429Y-51351142D01*
X16796571Y-52208285D01*
X16796571Y-51279714D01*
X22384571Y-46857428D02*
X20884571Y-46857428D01*
X21598857Y-46857428D02*
X21598857Y-46000285D01*
X22384571Y-46000285D02*
X20884571Y-46000285D01*
X21956000Y-45357428D02*
X21956000Y-44643142D01*
X22384571Y-45500285D02*
X20884571Y-45000285D01*
X22384571Y-44500285D01*
X22384571Y-43143142D02*
X21670286Y-43643142D01*
X22384571Y-44000285D02*
X20884571Y-44000285D01*
X20884571Y-43428857D01*
X20956000Y-43285999D01*
X21027429Y-43214571D01*
X21170286Y-43143142D01*
X21384571Y-43143142D01*
X21527429Y-43214571D01*
X21598857Y-43285999D01*
X21670286Y-43428857D01*
X21670286Y-44000285D01*
X21598857Y-42000285D02*
X21598857Y-42500285D01*
X22384571Y-42500285D02*
X20884571Y-42500285D01*
X20884571Y-41785999D01*
X22384571Y-40500285D02*
X22384571Y-41214571D01*
X20884571Y-41214571D01*
X21598857Y-40000285D02*
X21598857Y-39500285D01*
X22384571Y-39285999D02*
X22384571Y-40000285D01*
X20884571Y-40000285D01*
X20884571Y-39285999D01*
X20884571Y-38785999D02*
X22384571Y-37785999D01*
X20884571Y-37785999D02*
X22384571Y-38785999D01*
X21813143Y-37214571D02*
X21813143Y-36071714D01*
X20884571Y-34714571D02*
X20884571Y-35000285D01*
X20956000Y-35143142D01*
X21027429Y-35214571D01*
X21241714Y-35357428D01*
X21527429Y-35428857D01*
X22098857Y-35428857D01*
X22241714Y-35357428D01*
X22313143Y-35286000D01*
X22384571Y-35143142D01*
X22384571Y-34857428D01*
X22313143Y-34714571D01*
X22241714Y-34643142D01*
X22098857Y-34571714D01*
X21741714Y-34571714D01*
X21598857Y-34643142D01*
X21527429Y-34714571D01*
X21456000Y-34857428D01*
X21456000Y-35143142D01*
X21527429Y-35286000D01*
X21598857Y-35357428D01*
X21741714Y-35428857D01*
X21384571Y-33286000D02*
X22384571Y-33286000D01*
X20813143Y-33643143D02*
X21884571Y-34000286D01*
X21884571Y-33071714D01*
X22384571Y-32500286D02*
X20884571Y-32500286D01*
X20884571Y-31928858D01*
X20956000Y-31786000D01*
X21027429Y-31714572D01*
X21170286Y-31643143D01*
X21384571Y-31643143D01*
X21527429Y-31714572D01*
X21598857Y-31786000D01*
X21670286Y-31928858D01*
X21670286Y-32500286D01*
X14261905Y-87352381D02*
X14261905Y-86352381D01*
X14642858Y-86352381D01*
X14738096Y-86400000D01*
X14785715Y-86447619D01*
X14833334Y-86542857D01*
X14833334Y-86685714D01*
X14785715Y-86780952D01*
X14738096Y-86828571D01*
X14642858Y-86876190D01*
X14261905Y-86876190D01*
X15166667Y-86352381D02*
X15785715Y-86352381D01*
X15452381Y-86733333D01*
X15595239Y-86733333D01*
X15690477Y-86780952D01*
X15738096Y-86828571D01*
X15785715Y-86923810D01*
X15785715Y-87161905D01*
X15738096Y-87257143D01*
X15690477Y-87304762D01*
X15595239Y-87352381D01*
X15309524Y-87352381D01*
X15214286Y-87304762D01*
X15166667Y-87257143D01*
M02*
