M48
;DRILL file {KiCad 4.0.4-stable} date 11/09/16 23:44:34
;FORMAT={-:-/ absolute / metric / decimal}
FMAT,2
METRIC,TZ
T1C0.300
T2C0.635
T3C1.016
T4C1.600
T5C5.100
%
G90
G05
M71
T1
X2.82Y-44.57
X2.82Y-57.28
X2.84Y-38.34
X2.84Y-68.74
X2.85Y-47.21
X2.85Y-54.77
X2.86Y-39.51
X2.87Y-58.58
X2.87Y-70.01
X2.88Y-40.79
X2.88Y-43.35
X2.88Y-45.87
X2.89Y-56.1
X2.89Y-61.14
X2.9Y-31.91
X2.91Y-35.75
X2.91Y-59.86
X2.92Y-36.99
X2.92Y-42.1
X2.92Y-71.34
X2.93Y-48.53
X2.93Y-52.23
X2.93Y-53.56
X2.93Y-64.94
X2.93Y-66.22
X2.93Y-67.48
X2.94Y-49.72
X2.94Y-51.02
X2.95Y-34.46
X2.96Y-33.12
X2.96Y-63.66
X3.Y-62.4
X8.22Y-38.94
X8.28Y-41.47
X8.29Y-31.61
X8.35Y-32.81
X8.37Y-42.75
X8.46Y-40.08
X8.48Y-46.51
X8.49Y-35.52
X8.49Y-47.77
X8.5Y-34.1
X8.51Y-49.1
X8.51Y-56.67
X8.51Y-65.51
X8.52Y-36.67
X8.52Y-45.2
X8.53Y-50.29
X8.54Y-57.85
X8.54Y-59.14
X8.54Y-66.8
X8.55Y-43.91
X8.57Y-68.09
X8.58Y-51.61
X8.58Y-55.34
X8.58Y-64.23
X8.6Y-52.81
X8.6Y-61.78
X8.61Y-54.17
X8.61Y-63.
X8.61Y-70.6
X8.62Y-69.31
X8.63Y-60.44
X9.08Y-37.8
X11.65Y-37.3
X11.65Y-39.59
X11.68Y-38.44
X11.68Y-40.81
X11.69Y-34.74
X11.69Y-57.33
X11.71Y-58.58
X11.72Y-42.15
X11.72Y-45.91
X11.73Y-32.2
X11.73Y-36.1
X11.74Y-47.23
X11.74Y-59.82
X11.78Y-43.35
X11.78Y-53.51
X11.78Y-56.09
X11.78Y-64.9
X11.8Y-33.35
X11.8Y-44.6
X11.8Y-48.51
X11.8Y-54.91
X11.8Y-61.06
X11.8Y-62.4
X11.8Y-63.59
X11.8Y-66.15
X11.82Y-49.7
X11.82Y-67.52
X11.85Y-71.31
X11.89Y-68.71
X11.89Y-69.95
X11.9Y-51.04
X11.9Y-52.28
X15.936Y-64.25
X16.39Y-65.75
X16.516Y-45.131
X16.569Y-49.06
X16.616Y-46.406
X16.621Y-63.343
X16.682Y-52.96
X16.691Y-47.731
X16.824Y-50.466
X16.864Y-56.912
X16.953Y-44.04
X17.027Y-62.158
X17.11Y-66.95
X17.115Y-55.55
X17.116Y-54.35
X17.118Y-42.94
X17.172Y-61.058
X17.18Y-59.25
X17.25Y-31.223
X17.262Y-68.585
X17.27Y-32.773
X17.276Y-51.65
X17.3Y-34.1
X17.32Y-40.74
X17.327Y-58.03
X17.346Y-41.84
X17.35Y-35.76
X17.36Y-39.28
X17.38Y-38.14
X17.39Y-36.97
X17.42Y-71.31
X17.554Y-69.95
T2
X14.7Y-31.8
X24.611Y-52.599
T3
X26.06Y-11.54
X26.06Y-14.08
X26.06Y-16.62
X26.06Y-19.16
X26.06Y-21.7
X26.06Y-24.24
X26.06Y-26.78
X26.06Y-29.32
X26.06Y-31.86
X26.06Y-34.4
X26.06Y-36.94
X26.06Y-39.48
X26.06Y-42.02
X26.06Y-44.56
X26.06Y-47.1
X26.06Y-49.64
X26.06Y-52.18
X26.06Y-54.72
X26.06Y-57.26
X26.06Y-59.8
X26.06Y-62.34
X26.06Y-64.88
X26.06Y-67.42
X26.06Y-69.96
X26.06Y-72.5
X26.06Y-75.04
X26.06Y-77.58
X26.06Y-80.12
X26.06Y-82.66
X26.06Y-85.2
X26.06Y-87.74
X26.06Y-90.28
X28.6Y-11.54
X28.6Y-14.08
X28.6Y-16.62
X28.6Y-19.16
X28.6Y-21.7
X28.6Y-24.24
X28.6Y-26.78
X28.6Y-29.32
X28.6Y-31.86
X28.6Y-34.4
X28.6Y-36.94
X28.6Y-39.48
X28.6Y-42.02
X28.6Y-44.56
X28.6Y-47.1
X28.6Y-49.64
X28.6Y-52.18
X28.6Y-54.72
X28.6Y-57.26
X28.6Y-59.8
X28.6Y-62.34
X28.6Y-64.88
X28.6Y-67.42
X28.6Y-69.96
X28.6Y-72.5
X28.6Y-75.04
X28.6Y-77.58
X28.6Y-80.12
X28.6Y-82.66
X28.6Y-85.2
X28.6Y-87.74
X28.6Y-90.28
T4
X4.39Y-29.71
X4.39Y-73.5
X15.82Y-29.71
X15.82Y-73.5
T5
X15.Y-8.
X15.Y-92.
T0
M30
