G04 #@! TF.FileFunction,Copper,L2,Bot,Signal*
%FSLAX46Y46*%
G04 Gerber Fmt 4.6, Leading zero omitted, Abs format (unit mm)*
G04 Created by KiCad (PCBNEW 4.0.4-stable) date 11/09/16 23:44:31*
%MOMM*%
%LPD*%
G01*
G04 APERTURE LIST*
%ADD10C,0.150000*%
%ADD11C,5.200000*%
%ADD12R,1.727200X1.727200*%
%ADD13O,1.727200X1.727200*%
%ADD14C,1.600000*%
%ADD15C,0.500000*%
%ADD16C,0.889000*%
%ADD17C,0.200000*%
%ADD18C,0.254000*%
G04 APERTURE END LIST*
D10*
D11*
X15000000Y-8000000D03*
D12*
X28600000Y-90280000D03*
D13*
X26060000Y-90280000D03*
X28600000Y-87740000D03*
X26060000Y-87740000D03*
X28600000Y-85200000D03*
X26060000Y-85200000D03*
X28600000Y-82660000D03*
X26060000Y-82660000D03*
X28600000Y-80120000D03*
X26060000Y-80120000D03*
X28600000Y-77580000D03*
X26060000Y-77580000D03*
X28600000Y-75040000D03*
X26060000Y-75040000D03*
X28600000Y-72500000D03*
X26060000Y-72500000D03*
X28600000Y-69960000D03*
X26060000Y-69960000D03*
X28600000Y-67420000D03*
X26060000Y-67420000D03*
X28600000Y-64880000D03*
X26060000Y-64880000D03*
X28600000Y-62340000D03*
X26060000Y-62340000D03*
X28600000Y-59800000D03*
X26060000Y-59800000D03*
X28600000Y-57260000D03*
X26060000Y-57260000D03*
X28600000Y-54720000D03*
X26060000Y-54720000D03*
X28600000Y-52180000D03*
X26060000Y-52180000D03*
X28600000Y-49640000D03*
X26060000Y-49640000D03*
X28600000Y-47100000D03*
X26060000Y-47100000D03*
X28600000Y-44560000D03*
X26060000Y-44560000D03*
X28600000Y-42020000D03*
X26060000Y-42020000D03*
X28600000Y-39480000D03*
X26060000Y-39480000D03*
X28600000Y-36940000D03*
X26060000Y-36940000D03*
X28600000Y-34400000D03*
X26060000Y-34400000D03*
X28600000Y-31860000D03*
X26060000Y-31860000D03*
X28600000Y-29320000D03*
X26060000Y-29320000D03*
X28600000Y-26780000D03*
X26060000Y-26780000D03*
X28600000Y-24240000D03*
X26060000Y-24240000D03*
X28600000Y-21700000D03*
X26060000Y-21700000D03*
X28600000Y-19160000D03*
X26060000Y-19160000D03*
X28600000Y-16620000D03*
X26060000Y-16620000D03*
X28600000Y-14080000D03*
X26060000Y-14080000D03*
X28600000Y-11540000D03*
X26060000Y-11540000D03*
D14*
X4390000Y-29710000D03*
X4390000Y-73500000D03*
X15820000Y-29710000D03*
X15820000Y-73500000D03*
D11*
X15000000Y-92000000D03*
D15*
X2920000Y-71340000D03*
X11850000Y-71310000D03*
X16389647Y-65749990D03*
X8510000Y-65510000D03*
X2930000Y-64940000D03*
X11780000Y-64900000D03*
X15935901Y-64249990D03*
X8580000Y-64230000D03*
X2960000Y-63660000D03*
X11800000Y-63590000D03*
X16620874Y-63343129D03*
X8610000Y-63000000D03*
X3000000Y-62400000D03*
X11800000Y-62400000D03*
X17027216Y-62157636D03*
X8600000Y-61780000D03*
X2890000Y-61140000D03*
X11800000Y-61060000D03*
X17171930Y-61057624D03*
X8630000Y-60440000D03*
X2910000Y-59860000D03*
X11740000Y-59820000D03*
X17420000Y-71310000D03*
X8610000Y-70600000D03*
X17180000Y-59249990D03*
X8540000Y-59140000D03*
X2870000Y-58580000D03*
X11710000Y-58580000D03*
X17326636Y-58029990D03*
X8540000Y-57850000D03*
X2820000Y-57280000D03*
X11690000Y-57330000D03*
X16864258Y-56911752D03*
X8510000Y-56670000D03*
X2890000Y-56100000D03*
X11780000Y-56090000D03*
X17114850Y-55549990D03*
X8580000Y-55340000D03*
X2850000Y-54770000D03*
X11800000Y-54910000D03*
X17116324Y-54349990D03*
X8610000Y-54170000D03*
X2930000Y-53560000D03*
X11780000Y-53510000D03*
X2870000Y-70010000D03*
X11890000Y-69950000D03*
X16682319Y-52959990D03*
X8600000Y-52810000D03*
D16*
X24611296Y-52599091D03*
D15*
X2930000Y-52230000D03*
X11900000Y-52280000D03*
X17276123Y-51649990D03*
X8580000Y-51610000D03*
X11900000Y-51040000D03*
X2940000Y-51020000D03*
X16823657Y-50466389D03*
X8530000Y-50290000D03*
X2940000Y-49720000D03*
X11820000Y-49700000D03*
X16568629Y-49060010D03*
X8510000Y-49100000D03*
X2930000Y-48530000D03*
X11800000Y-48510000D03*
X16691084Y-47731084D03*
X8490000Y-47770000D03*
X2850000Y-47210000D03*
X11740000Y-47230000D03*
X17553643Y-69949990D03*
X8620000Y-69310000D03*
X16616084Y-46406084D03*
X8480000Y-46510000D03*
X2880000Y-45870000D03*
X11720000Y-45910000D03*
X16516080Y-45131092D03*
X8520000Y-45200000D03*
X11800000Y-44600000D03*
X2820000Y-44570000D03*
X16953319Y-44039915D03*
X8550000Y-43910000D03*
X2880000Y-43350000D03*
X11780000Y-43350000D03*
X17117873Y-42939903D03*
X8370000Y-42750000D03*
X2920000Y-42100000D03*
X11720000Y-42150000D03*
X17345966Y-41839891D03*
X8280000Y-41470000D03*
X2880000Y-40790000D03*
X11680000Y-40810000D03*
X2840000Y-68740000D03*
X11890000Y-68710000D03*
X17320000Y-40739880D03*
X8460000Y-40080000D03*
X11650000Y-39590000D03*
X2860000Y-39510000D03*
X8220000Y-38940000D03*
X17360000Y-39280000D03*
X2840000Y-38340000D03*
X11680000Y-38440000D03*
X9080000Y-37800000D03*
X17380000Y-38140000D03*
X11650000Y-37300000D03*
X2920000Y-36990000D03*
X8520000Y-36670000D03*
X17390000Y-36970000D03*
X2910000Y-35750000D03*
X11730000Y-36100000D03*
X17350000Y-35760000D03*
X8490000Y-35520000D03*
X2950000Y-34460000D03*
X11690000Y-34740000D03*
X17262459Y-68584627D03*
X8570000Y-68090000D03*
X8500000Y-34100000D03*
X17300000Y-34100000D03*
X2960000Y-33120000D03*
X11800000Y-33350000D03*
X17270000Y-32772990D03*
X8350000Y-32810000D03*
D16*
X14700000Y-31800000D03*
D15*
X2900000Y-31910000D03*
X11730000Y-32200000D03*
X17250000Y-31222990D03*
X8290000Y-31610000D03*
X2930000Y-67480000D03*
X11820000Y-67520000D03*
X17110000Y-66949990D03*
X8540000Y-66800000D03*
X2930000Y-66220000D03*
X11800000Y-66150000D03*
D17*
X22599959Y-74899959D02*
X19700000Y-72000000D01*
X25557910Y-89000000D02*
X22599959Y-86042049D01*
X22599959Y-86042049D02*
X22599959Y-74899959D01*
X19700000Y-72000000D02*
X17200000Y-72000000D01*
D18*
X26500000Y-89000000D02*
X25557910Y-89000000D01*
X27618000Y-90118000D02*
X26500000Y-89000000D01*
X27618000Y-90210000D02*
X27618000Y-90118000D01*
D17*
X17200000Y-72000000D02*
X17100000Y-72000000D01*
X15710000Y-71310000D02*
X16400000Y-72000000D01*
X16400000Y-72000000D02*
X17200000Y-72000000D01*
X11850000Y-71310000D02*
X15710000Y-71310000D01*
X28580000Y-90210000D02*
X27618000Y-90210000D01*
X11820000Y-71340000D02*
X2920000Y-71340000D01*
X11850000Y-71310000D02*
X11820000Y-71340000D01*
X16149657Y-65510000D02*
X16389647Y-65749990D01*
X8510000Y-65510000D02*
X16149657Y-65510000D01*
X16500000Y-64900000D02*
X12133553Y-64900000D01*
X27370000Y-76300000D02*
X25300000Y-76300000D01*
X24600044Y-73465744D02*
X21099991Y-69965691D01*
X24600044Y-75600044D02*
X24600044Y-73465744D01*
X28580000Y-77510000D02*
X27370000Y-76300000D01*
X25300000Y-76300000D02*
X24600044Y-75600044D01*
X21099991Y-69965691D02*
X21099991Y-69499991D01*
X12133553Y-64900000D02*
X11780000Y-64900000D01*
X21099991Y-69499991D02*
X16500000Y-64900000D01*
X11740000Y-64940000D02*
X2930000Y-64940000D01*
X11780000Y-64900000D02*
X11740000Y-64940000D01*
X8580000Y-64230000D02*
X15915911Y-64230000D01*
X15915911Y-64230000D02*
X15935901Y-64249990D01*
X28580000Y-74970000D02*
X27410000Y-73800000D01*
X27410000Y-73800000D02*
X25500000Y-73800000D01*
X25500000Y-73800000D02*
X21500011Y-69800011D01*
X21500011Y-69800011D02*
X21500011Y-69334311D01*
X16485902Y-63985989D02*
X16089913Y-63590000D01*
X21500011Y-69334311D02*
X16485902Y-64320202D01*
X16485902Y-64320202D02*
X16485902Y-63985989D01*
X16089913Y-63590000D02*
X11800000Y-63590000D01*
X11730000Y-63660000D02*
X2960000Y-63660000D01*
X11800000Y-63590000D02*
X11730000Y-63660000D01*
X16520046Y-63343129D02*
X16620874Y-63343129D01*
X16176917Y-63000000D02*
X16520046Y-63343129D01*
X8610000Y-63000000D02*
X16176917Y-63000000D01*
X24800000Y-71200000D02*
X17170875Y-63570875D01*
X28600000Y-72500000D02*
X27300000Y-71200000D01*
X27300000Y-71200000D02*
X24800000Y-71200000D01*
X12253553Y-62300000D02*
X16391747Y-62300000D01*
X16391747Y-62300000D02*
X16884875Y-62793128D01*
X11800000Y-62400000D02*
X12153553Y-62400000D01*
X12153553Y-62400000D02*
X12253553Y-62300000D01*
X17170875Y-63079128D02*
X16884875Y-62793128D01*
X17170875Y-63570875D02*
X17170875Y-63079128D01*
X11800000Y-62400000D02*
X3000000Y-62400000D01*
X16830478Y-62157636D02*
X17027216Y-62157636D01*
X14205996Y-61780000D02*
X14235998Y-61749998D01*
X16422840Y-61749998D02*
X16830478Y-62157636D01*
X14235998Y-61749998D02*
X16422840Y-61749998D01*
X8600000Y-61780000D02*
X14205996Y-61780000D01*
X24000000Y-68700000D02*
X17577218Y-62277218D01*
X27400000Y-68700000D02*
X24000000Y-68700000D01*
X27517999Y-68817999D02*
X27400000Y-68700000D01*
X27517999Y-68827999D02*
X27517999Y-68817999D01*
X16846176Y-61607634D02*
X16298542Y-61060000D01*
X16298542Y-61060000D02*
X12153553Y-61060000D01*
X17577218Y-62277218D02*
X17577218Y-61893634D01*
X17291218Y-61607634D02*
X16846176Y-61607634D01*
X17577218Y-61893634D02*
X17291218Y-61607634D01*
X28580000Y-69890000D02*
X27517999Y-68827999D01*
X12153553Y-61060000D02*
X11800000Y-61060000D01*
X11720000Y-61140000D02*
X2890000Y-61140000D01*
X11800000Y-61060000D02*
X11720000Y-61140000D01*
X16921931Y-60807625D02*
X17171930Y-61057624D01*
X16554306Y-60440000D02*
X16921931Y-60807625D01*
X8630000Y-60440000D02*
X16554306Y-60440000D01*
X19000000Y-59820000D02*
X11740000Y-59820000D01*
X28580000Y-67350000D02*
X27486399Y-66256399D01*
X27486399Y-66256399D02*
X25436399Y-66256399D01*
X25436399Y-66256399D02*
X19000000Y-59820000D01*
X11700000Y-59860000D02*
X2910000Y-59860000D01*
X11740000Y-59820000D02*
X11700000Y-59860000D01*
X16894301Y-71060001D02*
X17170001Y-71060001D01*
X16434300Y-70600000D02*
X16894301Y-71060001D01*
X8610000Y-70600000D02*
X16434300Y-70600000D01*
X17170001Y-71060001D02*
X17420000Y-71310000D01*
X17070010Y-59140000D02*
X17180000Y-59249990D01*
X8540000Y-59140000D02*
X17070010Y-59140000D01*
X20080000Y-58580000D02*
X25100000Y-63600000D01*
X28600000Y-64880000D02*
X27736401Y-64016401D01*
X27716401Y-64016401D02*
X27300000Y-63600000D01*
X27736401Y-64016401D02*
X27716401Y-64016401D01*
X27300000Y-63600000D02*
X25100000Y-63600000D01*
X11710000Y-58580000D02*
X20080000Y-58580000D01*
X11710000Y-58580000D02*
X2870000Y-58580000D01*
X8893553Y-57850000D02*
X9073543Y-58029990D01*
X16973083Y-58029990D02*
X17326636Y-58029990D01*
X8540000Y-57850000D02*
X8893553Y-57850000D01*
X9073543Y-58029990D02*
X16973083Y-58029990D01*
X25038238Y-61100000D02*
X21400000Y-57461762D01*
X27676401Y-61476401D02*
X27300000Y-61100000D01*
X27300000Y-61100000D02*
X25038238Y-61100000D01*
X28600000Y-62340000D02*
X27736401Y-61476401D01*
X27736401Y-61476401D02*
X27676401Y-61476401D01*
X21400000Y-57461762D02*
X16461762Y-57461762D01*
X16461762Y-57461762D02*
X16330000Y-57330000D01*
X16330000Y-57330000D02*
X11690000Y-57330000D01*
X11640000Y-57280000D02*
X2820000Y-57280000D01*
X11690000Y-57330000D02*
X11640000Y-57280000D01*
X14335998Y-56649998D02*
X16602504Y-56649998D01*
X16614259Y-56661753D02*
X16864258Y-56911752D01*
X14315996Y-56670000D02*
X14335998Y-56649998D01*
X8510000Y-56670000D02*
X14315996Y-56670000D01*
X16602504Y-56649998D02*
X16614259Y-56661753D01*
X22900000Y-56100000D02*
X12143553Y-56100000D01*
X12143553Y-56100000D02*
X12133553Y-56090000D01*
X12133553Y-56090000D02*
X11780000Y-56090000D01*
X28580000Y-59730000D02*
X27350000Y-58500000D01*
X27350000Y-58500000D02*
X25300000Y-58500000D01*
X25300000Y-58500000D02*
X22900000Y-56100000D01*
X11770000Y-56100000D02*
X2890000Y-56100000D01*
X11780000Y-56090000D02*
X11770000Y-56100000D01*
X16761297Y-55549990D02*
X17114850Y-55549990D01*
X16731307Y-55520000D02*
X16761297Y-55549990D01*
X8580000Y-55340000D02*
X8933553Y-55340000D01*
X9113553Y-55520000D02*
X16731307Y-55520000D01*
X8933553Y-55340000D02*
X9113553Y-55520000D01*
X27100000Y-56000000D02*
X24700000Y-56000000D01*
X24700000Y-56000000D02*
X23600000Y-54900000D01*
X27496401Y-56396401D02*
X27100000Y-56000000D01*
X28600000Y-57260000D02*
X27736401Y-56396401D01*
X27736401Y-56396401D02*
X27496401Y-56396401D01*
X11800000Y-54910000D02*
X12153553Y-54910000D01*
X12153553Y-54910000D02*
X12163553Y-54900000D01*
X12163553Y-54900000D02*
X23600000Y-54900000D01*
X11660000Y-54770000D02*
X2850000Y-54770000D01*
X11800000Y-54910000D02*
X11660000Y-54770000D01*
X16936334Y-54170000D02*
X17116324Y-54349990D01*
X8610000Y-54170000D02*
X16936334Y-54170000D01*
X27736401Y-53856401D02*
X27436399Y-53556399D01*
X27436399Y-53556399D02*
X17336399Y-53556399D01*
X17336399Y-53556399D02*
X17290000Y-53510000D01*
X17290000Y-53510000D02*
X11780000Y-53510000D01*
X28600000Y-54720000D02*
X27736401Y-53856401D01*
X27736401Y-53856401D02*
X27736401Y-53836401D01*
X12133553Y-53510000D02*
X11780000Y-53510000D01*
X11730000Y-53560000D02*
X2930000Y-53560000D01*
X11780000Y-53510000D02*
X11730000Y-53560000D01*
X16350000Y-69950000D02*
X12243553Y-69950000D01*
X19371502Y-70500000D02*
X16900000Y-70500000D01*
X28600000Y-87740000D02*
X27260000Y-86400000D01*
X24896399Y-83784227D02*
X24500011Y-83387839D01*
X22999970Y-74128468D02*
X19371502Y-70500000D01*
X23299990Y-78797088D02*
X22999970Y-78497069D01*
X22999970Y-78497069D02*
X22999970Y-74128468D01*
X23299990Y-81987451D02*
X23299990Y-78797088D01*
X23534311Y-82221772D02*
X23299990Y-81987451D01*
X24500011Y-83065709D02*
X23656074Y-82221772D01*
X23656074Y-82221772D02*
X23534311Y-82221772D01*
X24500011Y-83387839D02*
X24500011Y-83065709D01*
X27260000Y-86400000D02*
X25537870Y-86400000D01*
X24896399Y-85758529D02*
X24896399Y-83784227D01*
X25537870Y-86400000D02*
X24896399Y-85758529D01*
X12243553Y-69950000D02*
X11890000Y-69950000D01*
X16900000Y-70500000D02*
X16350000Y-69950000D01*
X11830000Y-70010000D02*
X2870000Y-70010000D01*
X11890000Y-69950000D02*
X11830000Y-70010000D01*
X16328766Y-52959990D02*
X16682319Y-52959990D01*
X9103543Y-52959990D02*
X16328766Y-52959990D01*
X8600000Y-52810000D02*
X8953553Y-52810000D01*
X8953553Y-52810000D02*
X9103543Y-52959990D01*
X24292205Y-52280000D02*
X24611296Y-52599091D01*
X11900000Y-52280000D02*
X24292205Y-52280000D01*
X11850000Y-52230000D02*
X2930000Y-52230000D01*
X11900000Y-52280000D02*
X11850000Y-52230000D01*
X17236133Y-51610000D02*
X17276123Y-51649990D01*
X8580000Y-51610000D02*
X17236133Y-51610000D01*
X28600000Y-49640000D02*
X27223601Y-51016399D01*
X27223601Y-51016399D02*
X16083601Y-51016399D01*
X16083601Y-51016399D02*
X16060000Y-51040000D01*
X16067999Y-51047999D02*
X16060000Y-51040000D01*
X16060000Y-51040000D02*
X11900000Y-51040000D01*
X11880000Y-51020000D02*
X2940000Y-51020000D01*
X11900000Y-51040000D02*
X11880000Y-51020000D01*
X16647268Y-50290000D02*
X16823657Y-50466389D01*
X8530000Y-50290000D02*
X16647268Y-50290000D01*
X28600000Y-47100000D02*
X27400000Y-48300000D01*
X19636399Y-48263601D02*
X18200000Y-49700000D01*
X27400000Y-48300000D02*
X19672798Y-48300000D01*
X18200000Y-49700000D02*
X16600000Y-49700000D01*
X19672798Y-48300000D02*
X19636399Y-48263601D01*
X16710630Y-49700000D02*
X16600000Y-49700000D01*
X16600000Y-49700000D02*
X11820000Y-49700000D01*
X11800000Y-49720000D02*
X2940000Y-49720000D01*
X11820000Y-49700000D02*
X11800000Y-49720000D01*
X16528639Y-49100000D02*
X16568629Y-49060010D01*
X8510000Y-49100000D02*
X16528639Y-49100000D01*
X28600000Y-44560000D02*
X27223601Y-45936399D01*
X27223601Y-45936399D02*
X19263601Y-45936399D01*
X19263601Y-45936399D02*
X16690000Y-48510000D01*
X16690000Y-48510000D02*
X11800000Y-48510000D01*
X11780000Y-48530000D02*
X2930000Y-48530000D01*
X11800000Y-48510000D02*
X11780000Y-48530000D01*
X16337531Y-47731084D02*
X16691084Y-47731084D01*
X16137531Y-47931084D02*
X16337531Y-47731084D01*
X9004637Y-47931084D02*
X16137531Y-47931084D01*
X8490000Y-47770000D02*
X8843553Y-47770000D01*
X8843553Y-47770000D02*
X9004637Y-47931084D01*
X20600000Y-43200000D02*
X16640000Y-47160000D01*
X28600000Y-42020000D02*
X27436399Y-43183601D01*
X27436399Y-43183601D02*
X20616399Y-43183601D01*
X20616399Y-43183601D02*
X20600000Y-43200000D01*
X16640000Y-47160000D02*
X16460001Y-46980001D01*
X16460001Y-46980001D02*
X11989999Y-46980001D01*
X11989999Y-46980001D02*
X11740000Y-47230000D01*
X11720000Y-47210000D02*
X2850000Y-47210000D01*
X11740000Y-47230000D02*
X11720000Y-47210000D01*
X16575700Y-69310000D02*
X17215690Y-69949990D01*
X8620000Y-69310000D02*
X16575700Y-69310000D01*
X17215690Y-69949990D02*
X17553643Y-69949990D01*
X16512168Y-46510000D02*
X16616084Y-46406084D01*
X8480000Y-46510000D02*
X16512168Y-46510000D01*
D18*
X21901134Y-40600000D02*
X16793041Y-45708093D01*
D17*
X28600000Y-39480000D02*
X27436399Y-40643601D01*
X27436399Y-40643601D02*
X21944735Y-40643601D01*
X21944735Y-40643601D02*
X21901134Y-40600000D01*
D18*
X16793041Y-45708093D02*
X11921907Y-45708093D01*
X11921907Y-45708093D02*
X11720000Y-45910000D01*
D17*
X11680000Y-45870000D02*
X2880000Y-45870000D01*
X11720000Y-45910000D02*
X11680000Y-45870000D01*
X8520000Y-45200000D02*
X16447172Y-45200000D01*
X16447172Y-45200000D02*
X16516080Y-45131092D01*
X23675698Y-38200000D02*
X17865690Y-44010008D01*
X27100000Y-38200000D02*
X23675698Y-38200000D01*
X27496401Y-37803599D02*
X27100000Y-38200000D01*
X28600000Y-36940000D02*
X27736401Y-37803599D01*
X27736401Y-37803599D02*
X27496401Y-37803599D01*
X16327082Y-44581082D02*
X16308164Y-44600000D01*
X16308164Y-44600000D02*
X11800000Y-44600000D01*
X11800000Y-44600000D02*
X2850000Y-44600000D01*
X2850000Y-44600000D02*
X2820000Y-44570000D01*
X17824292Y-44010008D02*
X17234300Y-44600000D01*
X17865690Y-44010008D02*
X17824292Y-44010008D01*
X16874004Y-44600000D02*
X16855086Y-44581082D01*
X17234300Y-44600000D02*
X16874004Y-44600000D01*
X16855086Y-44581082D02*
X16327082Y-44581082D01*
X8550000Y-43910000D02*
X13037901Y-43910000D01*
X16589691Y-44049990D02*
X16599766Y-44039915D01*
X13037901Y-43910000D02*
X13177891Y-44049990D01*
X13177891Y-44049990D02*
X16589691Y-44049990D01*
X16599766Y-44039915D02*
X16953319Y-44039915D01*
X28600000Y-34400000D02*
X27300000Y-35700000D01*
X27300000Y-35700000D02*
X24780000Y-35700000D01*
X24780000Y-35700000D02*
X24300000Y-36180000D01*
X24300000Y-36180000D02*
X24300000Y-37010000D01*
X24300000Y-37010000D02*
X17700000Y-43610000D01*
X16689317Y-43489913D02*
X16549404Y-43350000D01*
X16549404Y-43350000D02*
X11780000Y-43350000D01*
X16689317Y-43489913D02*
X16679242Y-43499988D01*
X17579913Y-43489913D02*
X16689317Y-43489913D01*
X17700000Y-43610000D02*
X17579913Y-43489913D01*
X28580000Y-34330000D02*
X28580000Y-34450000D01*
X17700000Y-43610000D02*
X17630000Y-43610000D01*
X11780000Y-43350000D02*
X2880000Y-43350000D01*
X16764320Y-42939903D02*
X17117873Y-42939903D01*
X14164004Y-42750000D02*
X14353907Y-42939903D01*
X8370000Y-42750000D02*
X14164004Y-42750000D01*
X14353907Y-42939903D02*
X16764320Y-42939903D01*
X27400000Y-33100000D02*
X24290000Y-33100000D01*
X24290000Y-33100000D02*
X23790000Y-33600000D01*
X27736401Y-32763599D02*
X27400000Y-33100000D01*
X28600000Y-31860000D02*
X27736401Y-32723599D01*
X27736401Y-32723599D02*
X27736401Y-32763599D01*
X23790000Y-36680000D02*
X18080099Y-42389901D01*
X12073553Y-42150000D02*
X11720000Y-42150000D01*
X16843981Y-42389901D02*
X16604080Y-42150000D01*
X23790000Y-33600000D02*
X23790000Y-36680000D01*
X16604080Y-42150000D02*
X12073553Y-42150000D01*
X18080099Y-42389901D02*
X16843981Y-42389901D01*
X11670000Y-42100000D02*
X2920000Y-42100000D01*
X11720000Y-42150000D02*
X11670000Y-42100000D01*
X16992413Y-41839891D02*
X17345966Y-41839891D01*
X16940635Y-41839891D02*
X16992413Y-41839891D01*
X8280000Y-41470000D02*
X16570744Y-41470000D01*
X16570744Y-41470000D02*
X16940635Y-41839891D01*
X27280000Y-30500000D02*
X24070000Y-30500000D01*
X24070000Y-30500000D02*
X23190000Y-31380000D01*
X27290000Y-30510000D02*
X27280000Y-30500000D01*
X27320000Y-30510000D02*
X27290000Y-30510000D01*
X12033553Y-40810000D02*
X11680000Y-40810000D01*
X23190000Y-36010000D02*
X17910110Y-41289890D01*
X28580000Y-29250000D02*
X27320000Y-30510000D01*
X17910110Y-41289890D02*
X17072472Y-41289890D01*
X16592582Y-40810000D02*
X12033553Y-40810000D01*
X17072472Y-41289890D02*
X16592582Y-40810000D01*
X23190000Y-31380000D02*
X23190000Y-36010000D01*
X11660000Y-40790000D02*
X2880000Y-40790000D01*
X11680000Y-40810000D02*
X11660000Y-40790000D01*
X28600000Y-85200000D02*
X27230710Y-83830710D01*
X25508580Y-83830710D02*
X24900022Y-83222150D01*
X27230710Y-83830710D02*
X25508580Y-83830710D01*
X24900022Y-82900022D02*
X23700000Y-81700000D01*
X24900022Y-83222150D02*
X24900022Y-82900022D01*
X12243553Y-68710000D02*
X11890000Y-68710000D01*
X16610000Y-68710000D02*
X12243553Y-68710000D01*
X17299989Y-69399989D02*
X16610000Y-68710000D01*
X18837189Y-69399989D02*
X17299989Y-69399989D01*
X23399980Y-73962780D02*
X18837189Y-69399989D01*
X23399980Y-78331380D02*
X23399980Y-73962780D01*
X23700000Y-78631400D02*
X23399980Y-78331380D01*
X23700000Y-81700000D02*
X23700000Y-78631400D01*
X23700000Y-81821762D02*
X23700000Y-81700000D01*
X11860000Y-68740000D02*
X2840000Y-68740000D01*
X11890000Y-68710000D02*
X11860000Y-68740000D01*
X16730120Y-40150000D02*
X17070001Y-40489881D01*
X8460000Y-40080000D02*
X8813553Y-40080000D01*
X8813553Y-40080000D02*
X8883553Y-40150000D01*
X8883553Y-40150000D02*
X16730120Y-40150000D01*
X17070001Y-40489881D02*
X17320000Y-40739880D01*
X17599878Y-40189878D02*
X17379878Y-40189878D01*
X12003553Y-39590000D02*
X11650000Y-39590000D01*
X17610000Y-40200000D02*
X17599878Y-40189878D01*
X17379878Y-40189878D02*
X16780000Y-39590000D01*
X16780000Y-39590000D02*
X12003553Y-39590000D01*
X28580000Y-26710000D02*
X28360000Y-26710000D01*
X18230000Y-40200000D02*
X17610000Y-40200000D01*
X17610000Y-40200000D02*
X17600000Y-40200000D01*
X22600000Y-35830000D02*
X18230000Y-40200000D01*
X22600000Y-28670000D02*
X22600000Y-35830000D01*
X23240000Y-28030000D02*
X22600000Y-28670000D01*
X27040000Y-28030000D02*
X23240000Y-28030000D01*
X28360000Y-26710000D02*
X27040000Y-28030000D01*
X17600000Y-40200000D02*
X17590000Y-40210000D01*
X17590000Y-40210000D02*
X17590000Y-40170000D01*
X17590000Y-40170000D02*
X17600000Y-40180000D01*
X17600000Y-40180000D02*
X17600000Y-40200000D01*
X11650000Y-39590000D02*
X11570000Y-39510000D01*
X11570000Y-39510000D02*
X2860000Y-39510000D01*
X8290000Y-39010000D02*
X8220000Y-38940000D01*
X12030000Y-39010000D02*
X8290000Y-39010000D01*
X12080000Y-38960000D02*
X12030000Y-39010000D01*
X16670000Y-38960000D02*
X12080000Y-38960000D01*
X16850000Y-39140000D02*
X16670000Y-38960000D01*
X17220000Y-39140000D02*
X16850000Y-39140000D01*
X17360000Y-39280000D02*
X17220000Y-39140000D01*
X11680000Y-38440000D02*
X11760000Y-38520000D01*
X11760000Y-38520000D02*
X16950000Y-38520000D01*
X16950000Y-38520000D02*
X17150000Y-38720000D01*
X17150000Y-38720000D02*
X19120000Y-38720000D01*
X19120000Y-38720000D02*
X20060000Y-37780000D01*
X20060000Y-37780000D02*
X20060000Y-37250000D01*
X20060000Y-37250000D02*
X21910000Y-35400000D01*
X21910000Y-35400000D02*
X21910000Y-25790000D01*
X21910000Y-25790000D02*
X22200000Y-25500000D01*
X22200000Y-25500000D02*
X27340000Y-25500000D01*
X27340000Y-25500000D02*
X28600000Y-24240000D01*
X28580000Y-24170000D02*
X28580000Y-24260000D01*
D18*
X2860000Y-38360000D02*
X2840000Y-38340000D01*
X8670000Y-38360000D02*
X2860000Y-38360000D01*
X8780000Y-38470000D02*
X8670000Y-38360000D01*
X11650000Y-38470000D02*
X8780000Y-38470000D01*
X11680000Y-38440000D02*
X11650000Y-38470000D01*
D17*
X9140000Y-37860000D02*
X9080000Y-37800000D01*
X11910000Y-37860000D02*
X9140000Y-37860000D01*
X12140000Y-38090000D02*
X11910000Y-37860000D01*
X17330000Y-38090000D02*
X12140000Y-38090000D01*
X17380000Y-38140000D02*
X17330000Y-38090000D01*
X11650000Y-37300000D02*
X12060000Y-37300000D01*
X19510000Y-37570000D02*
X19550000Y-37530000D01*
X12330000Y-37570000D02*
X19510000Y-37570000D01*
X12060000Y-37300000D02*
X12330000Y-37570000D01*
X28580000Y-21630000D02*
X28420000Y-21630000D01*
X28420000Y-21630000D02*
X27120000Y-22930000D01*
X27120000Y-22930000D02*
X22030000Y-22930000D01*
X22030000Y-22930000D02*
X21400000Y-23560000D01*
X21400000Y-23560000D02*
X21400000Y-34990000D01*
X21400000Y-34990000D02*
X19550000Y-36840000D01*
X19550000Y-36840000D02*
X19550000Y-37530000D01*
X19550000Y-37530000D02*
X19560000Y-37530000D01*
X11590000Y-37240000D02*
X11650000Y-37300000D01*
X3170000Y-37240000D02*
X11590000Y-37240000D01*
X2920000Y-36990000D02*
X3170000Y-37240000D01*
D18*
X8550000Y-36700000D02*
X8520000Y-36670000D01*
X12150000Y-36700000D02*
X8550000Y-36700000D01*
X12500000Y-37050000D02*
X12150000Y-36700000D01*
X17310000Y-37050000D02*
X12500000Y-37050000D01*
X17390000Y-36970000D02*
X17310000Y-37050000D01*
X27160601Y-20509399D02*
X23594485Y-20509399D01*
X13150000Y-36390000D02*
X12860000Y-36100000D01*
X19170000Y-36390000D02*
X13150000Y-36390000D01*
X23594485Y-20509399D02*
X20954033Y-23149851D01*
X12083553Y-36100000D02*
X11730000Y-36100000D01*
X20954033Y-34605967D02*
X19170000Y-36390000D01*
X28580000Y-19090000D02*
X27160601Y-20509399D01*
X20954033Y-23149851D02*
X20954033Y-34605967D01*
X12860000Y-36100000D02*
X12083553Y-36100000D01*
D17*
X2910000Y-35760000D02*
X2910000Y-35750000D01*
X3250000Y-36100000D02*
X2910000Y-35760000D01*
X11730000Y-36100000D02*
X3250000Y-36100000D01*
X13760000Y-35760000D02*
X13520000Y-35520000D01*
X13520000Y-35520000D02*
X8490000Y-35520000D01*
X17350000Y-35760000D02*
X13760000Y-35760000D01*
X27346399Y-17783601D02*
X25716399Y-17783601D01*
X25716399Y-17783601D02*
X20527022Y-22972978D01*
X12043553Y-34740000D02*
X11690000Y-34740000D01*
X20527022Y-34042562D02*
X19829584Y-34740000D01*
X20527022Y-22972978D02*
X20527022Y-34042562D01*
X28580000Y-16550000D02*
X27346399Y-17783601D01*
X19829584Y-34740000D02*
X12043553Y-34740000D01*
D18*
X28580000Y-16550000D02*
X28520000Y-16550000D01*
X11900000Y-34950000D02*
X11690000Y-34740000D01*
D17*
X3360000Y-34870000D02*
X2950000Y-34460000D01*
X11560000Y-34870000D02*
X3360000Y-34870000D01*
X11690000Y-34740000D02*
X11560000Y-34870000D01*
X16767832Y-68090000D02*
X17012460Y-68334628D01*
X8570000Y-68090000D02*
X16767832Y-68090000D01*
X17012460Y-68334628D02*
X17262459Y-68584627D01*
X17300000Y-34100000D02*
X8500000Y-34100000D01*
X20054011Y-20863899D02*
X25517910Y-15400000D01*
X25517910Y-15400000D02*
X27300000Y-15400000D01*
X27300000Y-15400000D02*
X27409399Y-15290601D01*
X27409399Y-15290601D02*
X27409399Y-15270601D01*
D18*
X12153553Y-33350000D02*
X11800000Y-33350000D01*
X20054011Y-31945989D02*
X18650000Y-33350000D01*
X28600000Y-14080000D02*
X27409399Y-15270601D01*
X18650000Y-33350000D02*
X12153553Y-33350000D01*
X20054011Y-20863899D02*
X20054011Y-31945989D01*
D17*
X3220000Y-33380000D02*
X2960000Y-33120000D01*
X11770000Y-33380000D02*
X3220000Y-33380000D01*
X11800000Y-33350000D02*
X11770000Y-33380000D01*
X8350000Y-32810000D02*
X8703553Y-32810000D01*
X8740563Y-32772990D02*
X13771126Y-32772990D01*
X13771126Y-32772990D02*
X13842638Y-32844502D01*
X13842638Y-32844502D02*
X16844935Y-32844502D01*
X16844935Y-32844502D02*
X16916447Y-32772990D01*
X16916447Y-32772990D02*
X17270000Y-32772990D01*
X8703553Y-32810000D02*
X8740563Y-32772990D01*
X27409399Y-12730601D02*
X27369399Y-12730601D01*
X27369399Y-12730601D02*
X27300000Y-12800000D01*
X27300000Y-12800000D02*
X25577910Y-12800000D01*
X25577910Y-12800000D02*
X19600000Y-18777910D01*
D18*
X19600000Y-31300000D02*
X19100000Y-31800000D01*
X19100000Y-31800000D02*
X14700000Y-31800000D01*
X19600000Y-18777910D02*
X19600000Y-31300000D01*
X28600000Y-11540000D02*
X27409399Y-12730601D01*
D17*
X3220000Y-32230000D02*
X2900000Y-31910000D01*
X11700000Y-32230000D02*
X3220000Y-32230000D01*
X11730000Y-32200000D02*
X11700000Y-32230000D01*
X8927009Y-30972991D02*
X17000001Y-30972991D01*
X8290000Y-31610000D02*
X8927009Y-30972991D01*
X17000001Y-30972991D02*
X17250000Y-31222990D01*
X12173553Y-67520000D02*
X11820000Y-67520000D01*
X20299969Y-70297069D02*
X20299969Y-70197069D01*
X25400000Y-81400000D02*
X24200000Y-80200000D01*
X23799991Y-73797091D02*
X20299969Y-70297069D01*
X27340000Y-81400000D02*
X25400000Y-81400000D01*
X17622900Y-67520000D02*
X12173553Y-67520000D01*
X20299969Y-70197069D02*
X17622900Y-67520000D01*
X24200000Y-78465700D02*
X23799991Y-78065691D01*
X28600000Y-82660000D02*
X27340000Y-81400000D01*
X23799991Y-78065691D02*
X23799991Y-73797091D01*
X24200000Y-80200000D02*
X24200000Y-78465700D01*
X11780000Y-67480000D02*
X2930000Y-67480000D01*
X11820000Y-67520000D02*
X11780000Y-67480000D01*
X8540000Y-66800000D02*
X16960010Y-66800000D01*
X16960010Y-66800000D02*
X17110000Y-66949990D01*
X24200033Y-73631433D02*
X20699980Y-70131380D01*
X14599988Y-66399988D02*
X14350000Y-66150000D01*
X12153553Y-66150000D02*
X11800000Y-66150000D01*
X17374002Y-66399988D02*
X14599988Y-66399988D01*
X14350000Y-66150000D02*
X12153553Y-66150000D01*
X17660002Y-66760002D02*
X17660002Y-66685988D01*
X20699980Y-69799980D02*
X17660002Y-66760002D01*
X20699980Y-70131380D02*
X20699980Y-69799980D01*
X24200033Y-77900033D02*
X24200033Y-73631433D01*
X25256399Y-78956399D02*
X24200033Y-77900033D01*
X27436399Y-78956399D02*
X25256399Y-78956399D01*
X28600000Y-80120000D02*
X27436399Y-78956399D01*
X17660002Y-66685988D02*
X17374002Y-66399988D01*
X11730000Y-66220000D02*
X2930000Y-66220000D01*
X11800000Y-66150000D02*
X11730000Y-66220000D01*
M02*
