G04 #@! TF.FileFunction,Copper,L1,Top,Signal*
%FSLAX46Y46*%
G04 Gerber Fmt 4.6, Leading zero omitted, Abs format (unit mm)*
G04 Created by KiCad (PCBNEW 4.0.4-stable) date 11/09/16 23:44:31*
%MOMM*%
%LPD*%
G01*
G04 APERTURE LIST*
%ADD10C,0.150000*%
%ADD11C,0.300000*%
%ADD12C,5.200000*%
%ADD13R,1.727200X1.727200*%
%ADD14O,1.727200X1.727200*%
%ADD15R,1.100000X0.800000*%
%ADD16R,2.500000X1.200000*%
%ADD17C,1.600000*%
%ADD18C,0.500000*%
%ADD19C,0.889000*%
%ADD20C,0.200000*%
%ADD21C,0.254000*%
G04 APERTURE END LIST*
D10*
D11*
X28071429Y-8078571D02*
X27785715Y-8078571D01*
X27642858Y-8150000D01*
X27571429Y-8221429D01*
X27428572Y-8435714D01*
X27357143Y-8721429D01*
X27357143Y-9292857D01*
X27428572Y-9435714D01*
X27500000Y-9507143D01*
X27642858Y-9578571D01*
X27928572Y-9578571D01*
X28071429Y-9507143D01*
X28142858Y-9435714D01*
X28214286Y-9292857D01*
X28214286Y-8935714D01*
X28142858Y-8792857D01*
X28071429Y-8721429D01*
X27928572Y-8650000D01*
X27642858Y-8650000D01*
X27500000Y-8721429D01*
X27428572Y-8792857D01*
X27357143Y-8935714D01*
X28714286Y-8078571D02*
X29642857Y-8078571D01*
X29142857Y-8650000D01*
X29357143Y-8650000D01*
X29500000Y-8721429D01*
X29571429Y-8792857D01*
X29642857Y-8935714D01*
X29642857Y-9292857D01*
X29571429Y-9435714D01*
X29500000Y-9507143D01*
X29357143Y-9578571D01*
X28928571Y-9578571D01*
X28785714Y-9507143D01*
X28714286Y-9435714D01*
X25971429Y-93221429D02*
X26042858Y-93150000D01*
X26185715Y-93078571D01*
X26542858Y-93078571D01*
X26685715Y-93150000D01*
X26757144Y-93221429D01*
X26828572Y-93364286D01*
X26828572Y-93507143D01*
X26757144Y-93721429D01*
X25900001Y-94578571D01*
X26828572Y-94578571D01*
X12471429Y-26078571D02*
X12185715Y-26078571D01*
X12042858Y-26150000D01*
X11971429Y-26221429D01*
X11828572Y-26435714D01*
X11757143Y-26721429D01*
X11757143Y-27292857D01*
X11828572Y-27435714D01*
X11900000Y-27507143D01*
X12042858Y-27578571D01*
X12328572Y-27578571D01*
X12471429Y-27507143D01*
X12542858Y-27435714D01*
X12614286Y-27292857D01*
X12614286Y-26935714D01*
X12542858Y-26792857D01*
X12471429Y-26721429D01*
X12328572Y-26650000D01*
X12042858Y-26650000D01*
X11900000Y-26721429D01*
X11828572Y-26792857D01*
X11757143Y-26935714D01*
X13114286Y-26078571D02*
X14042857Y-26078571D01*
X13542857Y-26650000D01*
X13757143Y-26650000D01*
X13900000Y-26721429D01*
X13971429Y-26792857D01*
X14042857Y-26935714D01*
X14042857Y-27292857D01*
X13971429Y-27435714D01*
X13900000Y-27507143D01*
X13757143Y-27578571D01*
X13328571Y-27578571D01*
X13185714Y-27507143D01*
X13114286Y-27435714D01*
X1071429Y-26078571D02*
X785715Y-26078571D01*
X642858Y-26150000D01*
X571429Y-26221429D01*
X428572Y-26435714D01*
X357143Y-26721429D01*
X357143Y-27292857D01*
X428572Y-27435714D01*
X500000Y-27507143D01*
X642858Y-27578571D01*
X928572Y-27578571D01*
X1071429Y-27507143D01*
X1142858Y-27435714D01*
X1214286Y-27292857D01*
X1214286Y-26935714D01*
X1142858Y-26792857D01*
X1071429Y-26721429D01*
X928572Y-26650000D01*
X642858Y-26650000D01*
X500000Y-26721429D01*
X428572Y-26792857D01*
X357143Y-26935714D01*
X1714286Y-26078571D02*
X2642857Y-26078571D01*
X2142857Y-26650000D01*
X2357143Y-26650000D01*
X2500000Y-26721429D01*
X2571429Y-26792857D01*
X2642857Y-26935714D01*
X2642857Y-27292857D01*
X2571429Y-27435714D01*
X2500000Y-27507143D01*
X2357143Y-27578571D01*
X1928571Y-27578571D01*
X1785714Y-27507143D01*
X1714286Y-27435714D01*
X6671429Y-75221429D02*
X6742858Y-75150000D01*
X6885715Y-75078571D01*
X7242858Y-75078571D01*
X7385715Y-75150000D01*
X7457144Y-75221429D01*
X7528572Y-75364286D01*
X7528572Y-75507143D01*
X7457144Y-75721429D01*
X6600001Y-76578571D01*
X7528572Y-76578571D01*
X18271429Y-75221429D02*
X18342858Y-75150000D01*
X18485715Y-75078571D01*
X18842858Y-75078571D01*
X18985715Y-75150000D01*
X19057144Y-75221429D01*
X19128572Y-75364286D01*
X19128572Y-75507143D01*
X19057144Y-75721429D01*
X18200001Y-76578571D01*
X19128572Y-76578571D01*
X22571429Y-10678571D02*
X22285715Y-10678571D01*
X22142858Y-10750000D01*
X22071429Y-10821429D01*
X21928572Y-11035714D01*
X21857143Y-11321429D01*
X21857143Y-11892857D01*
X21928572Y-12035714D01*
X22000000Y-12107143D01*
X22142858Y-12178571D01*
X22428572Y-12178571D01*
X22571429Y-12107143D01*
X22642858Y-12035714D01*
X22714286Y-11892857D01*
X22714286Y-11535714D01*
X22642858Y-11392857D01*
X22571429Y-11321429D01*
X22428572Y-11250000D01*
X22142858Y-11250000D01*
X22000000Y-11321429D01*
X21928572Y-11392857D01*
X21857143Y-11535714D01*
X24000000Y-11178571D02*
X24000000Y-12178571D01*
X23642857Y-10607143D02*
X23285714Y-11678571D01*
X24214286Y-11678571D01*
X29828572Y-94578571D02*
X28971429Y-94578571D01*
X29400001Y-94578571D02*
X29400001Y-93078571D01*
X29257144Y-93292857D01*
X29114286Y-93435714D01*
X28971429Y-93507143D01*
X13728572Y-76478571D02*
X12871429Y-76478571D01*
X13300001Y-76478571D02*
X13300001Y-74978571D01*
X13157144Y-75192857D01*
X13014286Y-75335714D01*
X12871429Y-75407143D01*
X2128572Y-76578571D02*
X1271429Y-76578571D01*
X1700001Y-76578571D02*
X1700001Y-75078571D01*
X1557144Y-75292857D01*
X1414286Y-75435714D01*
X1271429Y-75507143D01*
X18571429Y-26078571D02*
X18285715Y-26078571D01*
X18142858Y-26150000D01*
X18071429Y-26221429D01*
X17928572Y-26435714D01*
X17857143Y-26721429D01*
X17857143Y-27292857D01*
X17928572Y-27435714D01*
X18000000Y-27507143D01*
X18142858Y-27578571D01*
X18428572Y-27578571D01*
X18571429Y-27507143D01*
X18642858Y-27435714D01*
X18714286Y-27292857D01*
X18714286Y-26935714D01*
X18642858Y-26792857D01*
X18571429Y-26721429D01*
X18428572Y-26650000D01*
X18142858Y-26650000D01*
X18000000Y-26721429D01*
X17928572Y-26792857D01*
X17857143Y-26935714D01*
X20000000Y-26578571D02*
X20000000Y-27578571D01*
X19642857Y-26007143D02*
X19285714Y-27078571D01*
X20214286Y-27078571D01*
X7071429Y-26078571D02*
X6785715Y-26078571D01*
X6642858Y-26150000D01*
X6571429Y-26221429D01*
X6428572Y-26435714D01*
X6357143Y-26721429D01*
X6357143Y-27292857D01*
X6428572Y-27435714D01*
X6500000Y-27507143D01*
X6642858Y-27578571D01*
X6928572Y-27578571D01*
X7071429Y-27507143D01*
X7142858Y-27435714D01*
X7214286Y-27292857D01*
X7214286Y-26935714D01*
X7142858Y-26792857D01*
X7071429Y-26721429D01*
X6928572Y-26650000D01*
X6642858Y-26650000D01*
X6500000Y-26721429D01*
X6428572Y-26792857D01*
X6357143Y-26935714D01*
X8500000Y-26578571D02*
X8500000Y-27578571D01*
X8142857Y-26007143D02*
X7785714Y-27078571D01*
X8714286Y-27078571D01*
X3050000Y-14225000D02*
X3764286Y-14225000D01*
X2907143Y-14653571D02*
X3407143Y-13153571D01*
X3907143Y-14653571D01*
X5050000Y-14653571D02*
X5050000Y-13153571D01*
X5050000Y-14582143D02*
X4907143Y-14653571D01*
X4621429Y-14653571D01*
X4478571Y-14582143D01*
X4407143Y-14510714D01*
X4335714Y-14367857D01*
X4335714Y-13939286D01*
X4407143Y-13796429D01*
X4478571Y-13725000D01*
X4621429Y-13653571D01*
X4907143Y-13653571D01*
X5050000Y-13725000D01*
X6407143Y-14653571D02*
X6407143Y-13867857D01*
X6335714Y-13725000D01*
X6192857Y-13653571D01*
X5907143Y-13653571D01*
X5764286Y-13725000D01*
X6407143Y-14582143D02*
X6264286Y-14653571D01*
X5907143Y-14653571D01*
X5764286Y-14582143D01*
X5692857Y-14439286D01*
X5692857Y-14296429D01*
X5764286Y-14153571D01*
X5907143Y-14082143D01*
X6264286Y-14082143D01*
X6407143Y-14010714D01*
X7121429Y-13653571D02*
X7121429Y-15153571D01*
X7121429Y-13725000D02*
X7264286Y-13653571D01*
X7550000Y-13653571D01*
X7692857Y-13725000D01*
X7764286Y-13796429D01*
X7835715Y-13939286D01*
X7835715Y-14367857D01*
X7764286Y-14510714D01*
X7692857Y-14582143D01*
X7550000Y-14653571D01*
X7264286Y-14653571D01*
X7121429Y-14582143D01*
X8264286Y-13653571D02*
X8835715Y-13653571D01*
X8478572Y-13153571D02*
X8478572Y-14439286D01*
X8550000Y-14582143D01*
X8692858Y-14653571D01*
X8835715Y-14653571D01*
X9907143Y-14582143D02*
X9764286Y-14653571D01*
X9478572Y-14653571D01*
X9335715Y-14582143D01*
X9264286Y-14439286D01*
X9264286Y-13867857D01*
X9335715Y-13725000D01*
X9478572Y-13653571D01*
X9764286Y-13653571D01*
X9907143Y-13725000D01*
X9978572Y-13867857D01*
X9978572Y-14010714D01*
X9264286Y-14153571D01*
X10621429Y-14653571D02*
X10621429Y-13653571D01*
X10621429Y-13939286D02*
X10692857Y-13796429D01*
X10764286Y-13725000D01*
X10907143Y-13653571D01*
X11050000Y-13653571D01*
X11550000Y-14653571D02*
X11550000Y-13153571D01*
X11692857Y-14082143D02*
X12121428Y-14653571D01*
X12121428Y-13653571D02*
X11550000Y-14225000D01*
X13407143Y-14653571D02*
X13407143Y-13867857D01*
X13335714Y-13725000D01*
X13192857Y-13653571D01*
X12907143Y-13653571D01*
X12764286Y-13725000D01*
X13407143Y-14582143D02*
X13264286Y-14653571D01*
X12907143Y-14653571D01*
X12764286Y-14582143D01*
X12692857Y-14439286D01*
X12692857Y-14296429D01*
X12764286Y-14153571D01*
X12907143Y-14082143D01*
X13264286Y-14082143D01*
X13407143Y-14010714D01*
X14121429Y-14653571D02*
X14121429Y-13653571D01*
X14121429Y-13939286D02*
X14192857Y-13796429D01*
X14264286Y-13725000D01*
X14407143Y-13653571D01*
X14550000Y-13653571D01*
X14835714Y-13653571D02*
X15407143Y-13653571D01*
X15050000Y-13153571D02*
X15050000Y-14439286D01*
X15121428Y-14582143D01*
X15264286Y-14653571D01*
X15407143Y-14653571D01*
X16478571Y-14582143D02*
X16335714Y-14653571D01*
X16050000Y-14653571D01*
X15907143Y-14582143D01*
X15835714Y-14439286D01*
X15835714Y-13867857D01*
X15907143Y-13725000D01*
X16050000Y-13653571D01*
X16335714Y-13653571D01*
X16478571Y-13725000D01*
X16550000Y-13867857D01*
X16550000Y-14010714D01*
X15835714Y-14153571D01*
X5335715Y-17203571D02*
X5335715Y-15703571D01*
X5335715Y-16417857D02*
X6192858Y-16417857D01*
X6192858Y-17203571D02*
X6192858Y-15703571D01*
X6835715Y-16775000D02*
X7550001Y-16775000D01*
X6692858Y-17203571D02*
X7192858Y-15703571D01*
X7692858Y-17203571D01*
X9050001Y-17203571D02*
X8550001Y-16489286D01*
X8192858Y-17203571D02*
X8192858Y-15703571D01*
X8764286Y-15703571D01*
X8907144Y-15775000D01*
X8978572Y-15846429D01*
X9050001Y-15989286D01*
X9050001Y-16203571D01*
X8978572Y-16346429D01*
X8907144Y-16417857D01*
X8764286Y-16489286D01*
X8192858Y-16489286D01*
X10192858Y-16417857D02*
X9692858Y-16417857D01*
X9692858Y-17203571D02*
X9692858Y-15703571D01*
X10407144Y-15703571D01*
X11692858Y-17203571D02*
X10978572Y-17203571D01*
X10978572Y-15703571D01*
X12192858Y-16417857D02*
X12692858Y-16417857D01*
X12907144Y-17203571D02*
X12192858Y-17203571D01*
X12192858Y-15703571D01*
X12907144Y-15703571D01*
X13407144Y-15703571D02*
X14407144Y-17203571D01*
X14407144Y-15703571D02*
X13407144Y-17203571D01*
X7371429Y-19325000D02*
X8085715Y-19325000D01*
X7228572Y-19753571D02*
X7728572Y-18253571D01*
X8228572Y-19753571D01*
X8657143Y-19325000D02*
X9371429Y-19325000D01*
X8514286Y-19753571D02*
X9014286Y-18253571D01*
X9514286Y-19753571D01*
X10300000Y-18253571D02*
X10442857Y-18253571D01*
X10585714Y-18325000D01*
X10657143Y-18396429D01*
X10728572Y-18539286D01*
X10800000Y-18825000D01*
X10800000Y-19182143D01*
X10728572Y-19467857D01*
X10657143Y-19610714D01*
X10585714Y-19682143D01*
X10442857Y-19753571D01*
X10300000Y-19753571D01*
X10157143Y-19682143D01*
X10085714Y-19610714D01*
X10014286Y-19467857D01*
X9942857Y-19182143D01*
X9942857Y-18825000D01*
X10014286Y-18539286D01*
X10085714Y-18396429D01*
X10157143Y-18325000D01*
X10300000Y-18253571D01*
X12228571Y-19753571D02*
X11371428Y-19753571D01*
X11800000Y-19753571D02*
X11800000Y-18253571D01*
X11657143Y-18467857D01*
X11514285Y-18610714D01*
X11371428Y-18682143D01*
D12*
X15000000Y-8000000D03*
D13*
X28600000Y-90280000D03*
D14*
X26060000Y-90280000D03*
X28600000Y-87740000D03*
X26060000Y-87740000D03*
X28600000Y-85200000D03*
X26060000Y-85200000D03*
X28600000Y-82660000D03*
X26060000Y-82660000D03*
X28600000Y-80120000D03*
X26060000Y-80120000D03*
X28600000Y-77580000D03*
X26060000Y-77580000D03*
X28600000Y-75040000D03*
X26060000Y-75040000D03*
X28600000Y-72500000D03*
X26060000Y-72500000D03*
X28600000Y-69960000D03*
X26060000Y-69960000D03*
X28600000Y-67420000D03*
X26060000Y-67420000D03*
X28600000Y-64880000D03*
X26060000Y-64880000D03*
X28600000Y-62340000D03*
X26060000Y-62340000D03*
X28600000Y-59800000D03*
X26060000Y-59800000D03*
X28600000Y-57260000D03*
X26060000Y-57260000D03*
X28600000Y-54720000D03*
X26060000Y-54720000D03*
X28600000Y-52180000D03*
X26060000Y-52180000D03*
X28600000Y-49640000D03*
X26060000Y-49640000D03*
X28600000Y-47100000D03*
X26060000Y-47100000D03*
X28600000Y-44560000D03*
X26060000Y-44560000D03*
X28600000Y-42020000D03*
X26060000Y-42020000D03*
X28600000Y-39480000D03*
X26060000Y-39480000D03*
X28600000Y-36940000D03*
X26060000Y-36940000D03*
X28600000Y-34400000D03*
X26060000Y-34400000D03*
X28600000Y-31860000D03*
X26060000Y-31860000D03*
X28600000Y-29320000D03*
X26060000Y-29320000D03*
X28600000Y-26780000D03*
X26060000Y-26780000D03*
X28600000Y-24240000D03*
X26060000Y-24240000D03*
X28600000Y-21700000D03*
X26060000Y-21700000D03*
X28600000Y-19160000D03*
X26060000Y-19160000D03*
X28600000Y-16620000D03*
X26060000Y-16620000D03*
X28600000Y-14080000D03*
X26060000Y-14080000D03*
X28600000Y-11540000D03*
X26060000Y-11540000D03*
D15*
X1640000Y-71290000D03*
X7140000Y-71290000D03*
X1640000Y-70020000D03*
X7140000Y-70020000D03*
X1640000Y-68750000D03*
X7140000Y-68750000D03*
X1640000Y-67480000D03*
X7140000Y-67480000D03*
X1640000Y-66210000D03*
X7140000Y-66210000D03*
X1640000Y-64940000D03*
X7140000Y-64940000D03*
X1640000Y-63670000D03*
X7140000Y-63670000D03*
X1640000Y-62400000D03*
X7140000Y-62400000D03*
X1640000Y-61130000D03*
X7140000Y-61130000D03*
X1640000Y-59860000D03*
X7140000Y-59860000D03*
X1640000Y-58590000D03*
X7140000Y-58590000D03*
X1640000Y-57320000D03*
X7140000Y-57320000D03*
X1640000Y-56050000D03*
X7140000Y-56050000D03*
X1640000Y-54780000D03*
X7140000Y-54780000D03*
X1640000Y-53510000D03*
X7140000Y-53510000D03*
X1640000Y-52240000D03*
X7140000Y-52240000D03*
X1640000Y-50970000D03*
X7140000Y-50970000D03*
X1640000Y-49700000D03*
X7140000Y-49700000D03*
X1640000Y-48430000D03*
X7140000Y-48430000D03*
X1640000Y-47160000D03*
X7140000Y-47160000D03*
X1640000Y-45890000D03*
X7140000Y-45890000D03*
X1640000Y-44620000D03*
X7140000Y-44620000D03*
X1640000Y-43350000D03*
X7140000Y-43350000D03*
X1640000Y-42080000D03*
X7140000Y-42080000D03*
X1640000Y-40810000D03*
X7140000Y-40810000D03*
X1640000Y-39540000D03*
X7140000Y-39540000D03*
X1640000Y-38270000D03*
X7140000Y-38270000D03*
X1640000Y-37000000D03*
X7140000Y-37000000D03*
X1640000Y-35730000D03*
X7140000Y-35730000D03*
X1640000Y-34460000D03*
X7140000Y-34460000D03*
X1640000Y-33190000D03*
X7140000Y-33190000D03*
X1640000Y-31920000D03*
X7140000Y-31920000D03*
D16*
X1840000Y-29410000D03*
X6940000Y-29410000D03*
X1840000Y-73700000D03*
X6940000Y-73700000D03*
D17*
X4390000Y-29710000D03*
X4390000Y-73500000D03*
D15*
X13070000Y-71290000D03*
X18570000Y-71290000D03*
X13070000Y-70020000D03*
X18570000Y-70020000D03*
X13070000Y-68750000D03*
X18570000Y-68750000D03*
X13070000Y-67480000D03*
X18570000Y-67480000D03*
X13070000Y-66210000D03*
X18570000Y-66210000D03*
X13070000Y-64940000D03*
X18570000Y-64940000D03*
X13070000Y-63670000D03*
X18570000Y-63670000D03*
X13070000Y-62400000D03*
X18570000Y-62400000D03*
X13070000Y-61130000D03*
X18570000Y-61130000D03*
X13070000Y-59860000D03*
X18570000Y-59860000D03*
X13070000Y-58590000D03*
X18570000Y-58590000D03*
X13070000Y-57320000D03*
X18570000Y-57320000D03*
X13070000Y-56050000D03*
X18570000Y-56050000D03*
X13070000Y-54780000D03*
X18570000Y-54780000D03*
X13070000Y-53510000D03*
X18570000Y-53510000D03*
X13070000Y-52240000D03*
X18570000Y-52240000D03*
X13070000Y-50970000D03*
X18570000Y-50970000D03*
X13070000Y-49700000D03*
X18570000Y-49700000D03*
X13070000Y-48430000D03*
X18570000Y-48430000D03*
X13070000Y-47160000D03*
X18570000Y-47160000D03*
X13070000Y-45890000D03*
X18570000Y-45890000D03*
X13070000Y-44620000D03*
X18570000Y-44620000D03*
X13070000Y-43350000D03*
X18570000Y-43350000D03*
X13070000Y-42080000D03*
X18570000Y-42080000D03*
X13070000Y-40810000D03*
X18570000Y-40810000D03*
X13070000Y-39540000D03*
X18570000Y-39540000D03*
X13070000Y-38270000D03*
X18570000Y-38270000D03*
X13070000Y-37000000D03*
X18570000Y-37000000D03*
X13070000Y-35730000D03*
X18570000Y-35730000D03*
X13070000Y-34460000D03*
X18570000Y-34460000D03*
X13070000Y-33190000D03*
X18570000Y-33190000D03*
X13070000Y-31920000D03*
X18570000Y-31920000D03*
D16*
X13270000Y-29410000D03*
X18370000Y-29410000D03*
X13270000Y-73700000D03*
X18370000Y-73700000D03*
D17*
X15820000Y-29710000D03*
X15820000Y-73500000D03*
D12*
X15000000Y-92000000D03*
D18*
X2920000Y-71340000D03*
X11850000Y-71310000D03*
X16389647Y-65749990D03*
X8510000Y-65510000D03*
X2930000Y-64940000D03*
X11780000Y-64900000D03*
X15935901Y-64249990D03*
X8580000Y-64230000D03*
X2960000Y-63660000D03*
X11800000Y-63590000D03*
X16620874Y-63343129D03*
X8610000Y-63000000D03*
X3000000Y-62400000D03*
X11800000Y-62400000D03*
X17027216Y-62157636D03*
X8600000Y-61780000D03*
X2890000Y-61140000D03*
X11800000Y-61060000D03*
X17171930Y-61057624D03*
X8630000Y-60440000D03*
X2910000Y-59860000D03*
X11740000Y-59820000D03*
X17420000Y-71310000D03*
X8610000Y-70600000D03*
X17180000Y-59249990D03*
X8540000Y-59140000D03*
X2870000Y-58580000D03*
X11710000Y-58580000D03*
X17326636Y-58029990D03*
X8540000Y-57850000D03*
X2820000Y-57280000D03*
X11690000Y-57330000D03*
X16864258Y-56911752D03*
X8510000Y-56670000D03*
X2890000Y-56100000D03*
X11780000Y-56090000D03*
X17114850Y-55549990D03*
X8580000Y-55340000D03*
X2850000Y-54770000D03*
X11800000Y-54910000D03*
X17116324Y-54349990D03*
X8610000Y-54170000D03*
X2930000Y-53560000D03*
X11780000Y-53510000D03*
X2870000Y-70010000D03*
X11890000Y-69950000D03*
X16682319Y-52959990D03*
X8600000Y-52810000D03*
D19*
X24611296Y-52599091D03*
D18*
X2930000Y-52230000D03*
X11900000Y-52280000D03*
X17276123Y-51649990D03*
X8580000Y-51610000D03*
X11900000Y-51040000D03*
X2940000Y-51020000D03*
X16823657Y-50466389D03*
X8530000Y-50290000D03*
X2940000Y-49720000D03*
X11820000Y-49700000D03*
X16568629Y-49060010D03*
X8510000Y-49100000D03*
X2930000Y-48530000D03*
X11800000Y-48510000D03*
X16691084Y-47731084D03*
X8490000Y-47770000D03*
X2850000Y-47210000D03*
X11740000Y-47230000D03*
X17553643Y-69949990D03*
X8620000Y-69310000D03*
X16616084Y-46406084D03*
X8480000Y-46510000D03*
X2880000Y-45870000D03*
X11720000Y-45910000D03*
X16516080Y-45131092D03*
X8520000Y-45200000D03*
X11800000Y-44600000D03*
X2820000Y-44570000D03*
X16953319Y-44039915D03*
X8550000Y-43910000D03*
X2880000Y-43350000D03*
X11780000Y-43350000D03*
X17117873Y-42939903D03*
X8370000Y-42750000D03*
X2920000Y-42100000D03*
X11720000Y-42150000D03*
X17345966Y-41839891D03*
X8280000Y-41470000D03*
X2880000Y-40790000D03*
X11680000Y-40810000D03*
X2840000Y-68740000D03*
X11890000Y-68710000D03*
X17320000Y-40739880D03*
X8460000Y-40080000D03*
X11650000Y-39590000D03*
X2860000Y-39510000D03*
X8220000Y-38940000D03*
X17360000Y-39280000D03*
X2840000Y-38340000D03*
X11680000Y-38440000D03*
X9080000Y-37800000D03*
X17380000Y-38140000D03*
X11650000Y-37300000D03*
X2920000Y-36990000D03*
X8520000Y-36670000D03*
X17390000Y-36970000D03*
X2910000Y-35750000D03*
X11730000Y-36100000D03*
X17350000Y-35760000D03*
X8490000Y-35520000D03*
X2950000Y-34460000D03*
X11690000Y-34740000D03*
X17262459Y-68584627D03*
X8570000Y-68090000D03*
X8500000Y-34100000D03*
X17300000Y-34100000D03*
X2960000Y-33120000D03*
X11800000Y-33350000D03*
X17270000Y-32772990D03*
X8350000Y-32810000D03*
D19*
X14700000Y-31800000D03*
D18*
X2900000Y-31910000D03*
X11730000Y-32200000D03*
X17250000Y-31222990D03*
X8290000Y-31610000D03*
X2930000Y-67480000D03*
X11820000Y-67520000D03*
X17110000Y-66949990D03*
X8540000Y-66800000D03*
X2930000Y-66220000D03*
X11800000Y-66150000D03*
D20*
X13160000Y-71200000D02*
X13070000Y-71290000D01*
X13070000Y-71290000D02*
X11870000Y-71290000D01*
X2870000Y-71290000D02*
X1640000Y-71290000D01*
X2920000Y-71340000D02*
X2870000Y-71290000D01*
X11870000Y-71290000D02*
X11850000Y-71310000D01*
X18570000Y-66210000D02*
X19320000Y-66210000D01*
X19320000Y-66210000D02*
X23099989Y-69989989D01*
X23099989Y-69989989D02*
X23099989Y-75185689D01*
X23099989Y-75185689D02*
X23200000Y-75285700D01*
X23200000Y-75285700D02*
X23200000Y-77260000D01*
X23200000Y-77260000D02*
X26060000Y-80120000D01*
X18720000Y-66210000D02*
X18570000Y-66210000D01*
X16849657Y-66210000D02*
X16639646Y-65999989D01*
X18570000Y-66210000D02*
X16849657Y-66210000D01*
X16639646Y-65999989D02*
X16389647Y-65749990D01*
X7140000Y-66210000D02*
X7810000Y-66210000D01*
X7810000Y-66210000D02*
X8510000Y-65510000D01*
X13210000Y-64800000D02*
X13070000Y-64940000D01*
X13070000Y-64940000D02*
X11820000Y-64940000D01*
X2930000Y-64940000D02*
X1640000Y-64940000D01*
X11820000Y-64940000D02*
X11780000Y-64900000D01*
X23500000Y-68700000D02*
X19740000Y-64940000D01*
X19740000Y-64940000D02*
X18570000Y-64940000D01*
X23500000Y-75020000D02*
X23500000Y-68700000D01*
X26060000Y-77580000D02*
X23500000Y-75020000D01*
D21*
X18570000Y-64940000D02*
X18720000Y-64940000D01*
D20*
X16625911Y-64940000D02*
X16185900Y-64499989D01*
X16185900Y-64499989D02*
X15935901Y-64249990D01*
X18570000Y-64940000D02*
X16625911Y-64940000D01*
X7140000Y-64940000D02*
X7870000Y-64940000D01*
X7870000Y-64940000D02*
X8580000Y-64230000D01*
X13140000Y-63600000D02*
X13070000Y-63670000D01*
X13070000Y-63670000D02*
X11880000Y-63670000D01*
X2950000Y-63670000D02*
X1640000Y-63670000D01*
X2960000Y-63660000D02*
X2950000Y-63670000D01*
X11880000Y-63670000D02*
X11800000Y-63590000D01*
X19320000Y-63670000D02*
X18570000Y-63670000D01*
X23999989Y-68349989D02*
X19320000Y-63670000D01*
X23999989Y-72979989D02*
X23999989Y-68349989D01*
X26060000Y-75040000D02*
X23999989Y-72979989D01*
D21*
X18720000Y-63670000D02*
X18570000Y-63670000D01*
D20*
X18570000Y-63670000D02*
X16947745Y-63670000D01*
X16870873Y-63593128D02*
X16620874Y-63343129D01*
X16947745Y-63670000D02*
X16870873Y-63593128D01*
X7140000Y-63670000D02*
X7940000Y-63670000D01*
X7940000Y-63670000D02*
X8610000Y-63000000D01*
X13170000Y-62300000D02*
X13070000Y-62400000D01*
X13070000Y-62400000D02*
X11800000Y-62400000D01*
X3000000Y-62400000D02*
X1640000Y-62400000D01*
X18570000Y-62400000D02*
X19320000Y-62400000D01*
X19320000Y-62400000D02*
X24400000Y-67480000D01*
X24400000Y-67480000D02*
X24400000Y-70840000D01*
X24400000Y-70840000D02*
X26060000Y-72500000D01*
X18720000Y-62400000D02*
X18570000Y-62400000D01*
D21*
X26040000Y-72136444D02*
X26040000Y-72430000D01*
D20*
X17269580Y-62400000D02*
X17027216Y-62157636D01*
X18570000Y-62400000D02*
X17269580Y-62400000D01*
X7140000Y-62400000D02*
X7980000Y-62400000D01*
X7980000Y-62400000D02*
X8600000Y-61780000D01*
X13100000Y-61100000D02*
X13070000Y-61130000D01*
X13070000Y-61130000D02*
X11870000Y-61130000D01*
X2880000Y-61130000D02*
X1640000Y-61130000D01*
X2890000Y-61140000D02*
X2880000Y-61130000D01*
X11870000Y-61130000D02*
X11800000Y-61060000D01*
X24896399Y-66596399D02*
X19430000Y-61130000D01*
X19430000Y-61130000D02*
X18570000Y-61130000D01*
X26060000Y-69960000D02*
X24896399Y-68796399D01*
X24896399Y-68796399D02*
X24896399Y-66596399D01*
D21*
X18720000Y-61130000D02*
X18570000Y-61130000D01*
D20*
X17244306Y-61130000D02*
X17171930Y-61057624D01*
X18570000Y-61130000D02*
X17244306Y-61130000D01*
X7140000Y-61130000D02*
X7940000Y-61130000D01*
X7940000Y-61130000D02*
X8630000Y-60440000D01*
X13130000Y-59800000D02*
X13070000Y-59860000D01*
X13070000Y-59860000D02*
X11780000Y-59860000D01*
X2910000Y-59860000D02*
X1640000Y-59860000D01*
X11780000Y-59860000D02*
X11740000Y-59820000D01*
X19320000Y-71290000D02*
X18570000Y-71290000D01*
X20890000Y-71290000D02*
X19320000Y-71290000D01*
X21499945Y-71899945D02*
X20890000Y-71290000D01*
X21499945Y-85719945D02*
X21499945Y-71899945D01*
X26060000Y-90280000D02*
X21499945Y-85719945D01*
X7140000Y-71290000D02*
X7920000Y-71290000D01*
X17440000Y-71290000D02*
X18570000Y-71290000D01*
X17420000Y-71310000D02*
X17440000Y-71290000D01*
X7920000Y-71290000D02*
X8610000Y-70600000D01*
D21*
X26040000Y-67136116D02*
X26040000Y-67350000D01*
X19374000Y-60514000D02*
X19417884Y-60514000D01*
X18720000Y-59860000D02*
X19374000Y-60514000D01*
X18570000Y-59860000D02*
X18720000Y-59860000D01*
X19417884Y-60514000D02*
X26040000Y-67136116D01*
D20*
X17429999Y-59499989D02*
X17180000Y-59249990D01*
X18570000Y-59860000D02*
X17790010Y-59860000D01*
X17790010Y-59860000D02*
X17429999Y-59499989D01*
X7140000Y-59860000D02*
X7820000Y-59860000D01*
X7820000Y-59860000D02*
X8540000Y-59140000D01*
X13160000Y-58500000D02*
X13070000Y-58590000D01*
X13070000Y-58590000D02*
X11720000Y-58590000D01*
X2860000Y-58590000D02*
X1640000Y-58590000D01*
X2870000Y-58580000D02*
X2860000Y-58590000D01*
X11720000Y-58590000D02*
X11710000Y-58580000D01*
X17326636Y-58096636D02*
X17326636Y-58029990D01*
X17820000Y-58590000D02*
X17326636Y-58096636D01*
X18570000Y-58590000D02*
X17820000Y-58590000D01*
D21*
X18570000Y-58590000D02*
X19820000Y-58590000D01*
X19820000Y-58590000D02*
X26040000Y-64810000D01*
D20*
X7140000Y-58590000D02*
X7800000Y-58590000D01*
X7800000Y-58590000D02*
X8540000Y-57850000D01*
X13190000Y-57200000D02*
X13070000Y-57320000D01*
X13070000Y-57320000D02*
X11700000Y-57320000D01*
X2780000Y-57320000D02*
X1640000Y-57320000D01*
X2820000Y-57280000D02*
X2780000Y-57320000D01*
X11700000Y-57320000D02*
X11690000Y-57330000D01*
X17114257Y-57161751D02*
X16864258Y-56911752D01*
X17272506Y-57320000D02*
X17114257Y-57161751D01*
X18570000Y-57320000D02*
X17272506Y-57320000D01*
D21*
X18570000Y-57320000D02*
X21090000Y-57320000D01*
X21090000Y-57320000D02*
X26040000Y-62270000D01*
D20*
X7140000Y-57320000D02*
X7860000Y-57320000D01*
X7860000Y-57320000D02*
X8510000Y-56670000D01*
X13070000Y-56050000D02*
X11820000Y-56050000D01*
X2840000Y-56050000D02*
X1640000Y-56050000D01*
X2890000Y-56100000D02*
X2840000Y-56050000D01*
X11820000Y-56050000D02*
X11780000Y-56090000D01*
X17364849Y-55799989D02*
X17114850Y-55549990D01*
X17614860Y-56050000D02*
X17364849Y-55799989D01*
X18570000Y-56050000D02*
X17614860Y-56050000D01*
D21*
X18570000Y-56050000D02*
X22360000Y-56050000D01*
X22360000Y-56050000D02*
X26040000Y-59730000D01*
D20*
X7140000Y-56050000D02*
X7870000Y-56050000D01*
X7870000Y-56050000D02*
X8580000Y-55340000D01*
X13090000Y-54800000D02*
X13070000Y-54780000D01*
X13070000Y-54780000D02*
X11930000Y-54780000D01*
X2840000Y-54780000D02*
X1640000Y-54780000D01*
X2850000Y-54770000D02*
X2840000Y-54780000D01*
X11930000Y-54780000D02*
X11800000Y-54910000D01*
X17366323Y-54599989D02*
X17116324Y-54349990D01*
X17546334Y-54780000D02*
X17366323Y-54599989D01*
X18570000Y-54780000D02*
X17546334Y-54780000D01*
D21*
X18570000Y-54780000D02*
X23630000Y-54780000D01*
X23630000Y-54780000D02*
X26040000Y-57190000D01*
D20*
X7140000Y-54780000D02*
X8000000Y-54780000D01*
X8000000Y-54780000D02*
X8610000Y-54170000D01*
X13080000Y-53500000D02*
X13070000Y-53510000D01*
X13070000Y-53510000D02*
X11780000Y-53510000D01*
X2880000Y-53510000D02*
X1640000Y-53510000D01*
X2930000Y-53560000D02*
X2880000Y-53510000D01*
X13090000Y-70000000D02*
X13070000Y-70020000D01*
X13070000Y-70020000D02*
X11960000Y-70020000D01*
X2860000Y-70020000D02*
X1640000Y-70020000D01*
X2870000Y-70010000D02*
X2860000Y-70020000D01*
X11960000Y-70020000D02*
X11890000Y-69950000D01*
X16932318Y-53209989D02*
X16682319Y-52959990D01*
X17232329Y-53510000D02*
X16932318Y-53209989D01*
X18570000Y-53510000D02*
X17232329Y-53510000D01*
D21*
X24250366Y-53510000D02*
X19374000Y-53510000D01*
X25390366Y-54650000D02*
X24250366Y-53510000D01*
X19374000Y-53510000D02*
X18570000Y-53510000D01*
D20*
X7140000Y-53510000D02*
X7900000Y-53510000D01*
X7900000Y-53510000D02*
X8600000Y-52810000D01*
X28600000Y-52180000D02*
X27380000Y-53400000D01*
X27380000Y-53400000D02*
X25412205Y-53400000D01*
X25412205Y-53400000D02*
X25055795Y-53043590D01*
X25055795Y-53043590D02*
X24611296Y-52599091D01*
X28600000Y-52180000D02*
X28600000Y-52300000D01*
X13110000Y-52200000D02*
X13070000Y-52240000D01*
X13070000Y-52240000D02*
X11940000Y-52240000D01*
X2920000Y-52240000D02*
X1640000Y-52240000D01*
X2930000Y-52230000D02*
X2920000Y-52240000D01*
X11940000Y-52240000D02*
X11900000Y-52280000D01*
D21*
X19374000Y-52240000D02*
X18570000Y-52240000D01*
X23839795Y-52240000D02*
X19374000Y-52240000D01*
X25757590Y-51827590D02*
X24252205Y-51827590D01*
X24252205Y-51827590D02*
X23839795Y-52240000D01*
X26040000Y-52110000D02*
X25757590Y-51827590D01*
D20*
X17276123Y-51696123D02*
X17276123Y-51649990D01*
X17820000Y-52240000D02*
X17276123Y-51696123D01*
X18570000Y-52240000D02*
X17820000Y-52240000D01*
X7140000Y-52240000D02*
X7950000Y-52240000D01*
X7950000Y-52240000D02*
X8580000Y-51610000D01*
X13140000Y-50900000D02*
X13070000Y-50970000D01*
X13070000Y-50970000D02*
X11970000Y-50970000D01*
X2890000Y-50970000D02*
X1640000Y-50970000D01*
X2940000Y-51020000D02*
X2890000Y-50970000D01*
X11970000Y-50970000D02*
X11900000Y-51040000D01*
X17327268Y-50970000D02*
X17073656Y-50716388D01*
X18570000Y-50970000D02*
X17327268Y-50970000D01*
X17073656Y-50716388D02*
X16823657Y-50466389D01*
D21*
X18570000Y-50970000D02*
X24640000Y-50970000D01*
X24640000Y-50970000D02*
X26040000Y-49570000D01*
D20*
X7140000Y-50970000D02*
X7850000Y-50970000D01*
X7850000Y-50970000D02*
X8530000Y-50290000D01*
X13070000Y-49700000D02*
X11820000Y-49700000D01*
X2920000Y-49700000D02*
X1640000Y-49700000D01*
X2940000Y-49720000D02*
X2920000Y-49700000D01*
X18570000Y-49700000D02*
X17208619Y-49700000D01*
X16818628Y-49310009D02*
X16568629Y-49060010D01*
X17208619Y-49700000D02*
X16818628Y-49310009D01*
D21*
X18570000Y-49700000D02*
X23370000Y-49700000D01*
X23370000Y-49700000D02*
X26040000Y-47030000D01*
D20*
X7140000Y-49700000D02*
X7910000Y-49700000D01*
X7910000Y-49700000D02*
X8510000Y-49100000D01*
X13140000Y-48500000D02*
X13070000Y-48430000D01*
X13070000Y-48430000D02*
X11880000Y-48430000D01*
X2830000Y-48430000D02*
X1640000Y-48430000D01*
X2930000Y-48530000D02*
X2830000Y-48430000D01*
X11880000Y-48430000D02*
X11800000Y-48510000D01*
X16941083Y-47981083D02*
X16691084Y-47731084D01*
X17390000Y-48430000D02*
X16941083Y-47981083D01*
X18570000Y-48430000D02*
X17390000Y-48430000D01*
D21*
X18570000Y-48430000D02*
X22100000Y-48430000D01*
X22100000Y-48430000D02*
X26040000Y-44490000D01*
D20*
X7140000Y-48430000D02*
X7830000Y-48430000D01*
X7830000Y-48430000D02*
X8490000Y-47770000D01*
X13130000Y-47100000D02*
X13070000Y-47160000D01*
X13070000Y-47160000D02*
X11810000Y-47160000D01*
X2800000Y-47160000D02*
X1640000Y-47160000D01*
X2850000Y-47210000D02*
X2800000Y-47160000D01*
X11810000Y-47160000D02*
X11740000Y-47230000D01*
X25196401Y-86876401D02*
X26060000Y-87740000D01*
X21899978Y-79631378D02*
X21900011Y-79631411D01*
X21899956Y-75682756D02*
X21899978Y-75682778D01*
X21900011Y-79631411D02*
X21900011Y-83580011D01*
X21899956Y-71734256D02*
X21899956Y-75682756D01*
X18570000Y-70020000D02*
X20185700Y-70020000D01*
X20185700Y-70020000D02*
X21899956Y-71734256D01*
X21899978Y-75682778D02*
X21899978Y-79631378D01*
X21900011Y-83580011D02*
X25196401Y-86876401D01*
X17623653Y-70020000D02*
X17553643Y-69949990D01*
X18570000Y-70020000D02*
X17623653Y-70020000D01*
D21*
X18570000Y-70020000D02*
X18720000Y-70020000D01*
D20*
X7140000Y-70020000D02*
X7910000Y-70020000D01*
X7910000Y-70020000D02*
X8620000Y-69310000D01*
X16866083Y-46656083D02*
X16616084Y-46406084D01*
X17370000Y-47160000D02*
X16866083Y-46656083D01*
X18570000Y-47160000D02*
X17370000Y-47160000D01*
D21*
X18570000Y-47160000D02*
X20830000Y-47160000D01*
X20830000Y-47160000D02*
X26040000Y-41950000D01*
D20*
X7140000Y-47160000D02*
X7830000Y-47160000D01*
X7830000Y-47160000D02*
X8480000Y-46510000D01*
X13080000Y-45900000D02*
X13070000Y-45890000D01*
X13070000Y-45890000D02*
X11740000Y-45890000D01*
X2860000Y-45890000D02*
X1640000Y-45890000D01*
X2880000Y-45870000D02*
X2860000Y-45890000D01*
X11740000Y-45890000D02*
X11720000Y-45910000D01*
X16766079Y-45381091D02*
X16516080Y-45131092D01*
X18570000Y-45890000D02*
X17274988Y-45890000D01*
X17274988Y-45890000D02*
X16766079Y-45381091D01*
D21*
X18570000Y-45890000D02*
X19560000Y-45890000D01*
X19560000Y-45890000D02*
X26040000Y-39410000D01*
D20*
X7140000Y-45890000D02*
X7830000Y-45890000D01*
X7830000Y-45890000D02*
X8520000Y-45200000D01*
X13070000Y-44620000D02*
X11820000Y-44620000D01*
X11820000Y-44620000D02*
X11800000Y-44600000D01*
X13090000Y-44600000D02*
X13070000Y-44620000D01*
X2770000Y-44620000D02*
X1640000Y-44620000D01*
X2820000Y-44570000D02*
X2770000Y-44620000D01*
X26060000Y-36940000D02*
X25196401Y-37803599D01*
X25196401Y-37803599D02*
X25196401Y-38143599D01*
X25196401Y-38143599D02*
X18720000Y-44620000D01*
X18720000Y-44620000D02*
X18570000Y-44620000D01*
X17533404Y-44620000D02*
X17203318Y-44289914D01*
X18570000Y-44620000D02*
X17533404Y-44620000D01*
X17203318Y-44289914D02*
X16953319Y-44039915D01*
D21*
X26040000Y-37650000D02*
X26040000Y-36870000D01*
D20*
X7140000Y-44620000D02*
X7840000Y-44620000D01*
X7840000Y-44620000D02*
X8550000Y-43910000D01*
D21*
X13336534Y-43616534D02*
X13070000Y-43350000D01*
D20*
X13070000Y-43350000D02*
X11780000Y-43350000D01*
X2880000Y-43350000D02*
X1640000Y-43350000D01*
X17527970Y-43350000D02*
X17367872Y-43189902D01*
X18570000Y-43350000D02*
X17527970Y-43350000D01*
X17367872Y-43189902D02*
X17117873Y-42939903D01*
X7770000Y-43350000D02*
X7140000Y-43350000D01*
X8370000Y-42750000D02*
X7770000Y-43350000D01*
D21*
X19150000Y-43350000D02*
X18570000Y-43350000D01*
X24660000Y-37840000D02*
X19150000Y-43350000D01*
X24660000Y-36280000D02*
X24660000Y-37840000D01*
X26040000Y-34900000D02*
X24660000Y-36280000D01*
D20*
X13070000Y-42080000D02*
X11790000Y-42080000D01*
X2900000Y-42080000D02*
X1640000Y-42080000D01*
X2920000Y-42100000D02*
X2900000Y-42080000D01*
X11790000Y-42080000D02*
X11720000Y-42150000D01*
X18570000Y-42080000D02*
X17586075Y-42080000D01*
X17586075Y-42080000D02*
X17345966Y-41839891D01*
X7670000Y-42080000D02*
X7140000Y-42080000D01*
X8280000Y-41470000D02*
X7670000Y-42080000D01*
D21*
X18570000Y-42080000D02*
X19090000Y-42080000D01*
X23950000Y-33880000D02*
X26040000Y-31790000D01*
X23950000Y-37220000D02*
X23950000Y-33880000D01*
X19090000Y-42080000D02*
X23950000Y-37220000D01*
D20*
X13070000Y-40810000D02*
X11680000Y-40810000D01*
X2860000Y-40810000D02*
X1640000Y-40810000D01*
X2880000Y-40790000D02*
X2860000Y-40810000D01*
X13120000Y-68700000D02*
X13070000Y-68750000D01*
X13070000Y-68750000D02*
X11930000Y-68750000D01*
X2830000Y-68750000D02*
X1640000Y-68750000D01*
X2840000Y-68740000D02*
X2830000Y-68750000D01*
X11930000Y-68750000D02*
X11890000Y-68710000D01*
X18570000Y-40810000D02*
X17390120Y-40810000D01*
X17390120Y-40810000D02*
X17320000Y-40739880D01*
D21*
X19580000Y-40810000D02*
X18570000Y-40810000D01*
X23160000Y-37230000D02*
X19580000Y-40810000D01*
X23160000Y-32860000D02*
X23160000Y-37230000D01*
X26040000Y-29980000D02*
X23160000Y-32860000D01*
D20*
X7140000Y-40810000D02*
X7730000Y-40810000D01*
X7730000Y-40810000D02*
X8460000Y-40080000D01*
X13070000Y-39540000D02*
X11700000Y-39540000D01*
X11700000Y-39540000D02*
X11650000Y-39590000D01*
X2830000Y-39540000D02*
X1640000Y-39540000D01*
X2860000Y-39510000D02*
X2830000Y-39540000D01*
D21*
X19374000Y-39540000D02*
X22510000Y-36404000D01*
X26040000Y-27577910D02*
X26040000Y-26710000D01*
X24824066Y-29928343D02*
X24824066Y-28793844D01*
X18570000Y-39540000D02*
X19374000Y-39540000D01*
X22510000Y-36404000D02*
X22510000Y-32242409D01*
X22510000Y-32242409D02*
X24824066Y-29928343D01*
X24824066Y-28793844D02*
X26040000Y-27577910D01*
D20*
X18570000Y-39540000D02*
X17620000Y-39540000D01*
X7620000Y-39540000D02*
X7140000Y-39540000D01*
X8220000Y-38940000D02*
X7620000Y-39540000D01*
X17620000Y-39540000D02*
X17360000Y-39280000D01*
D21*
X13070000Y-38270000D02*
X11850000Y-38270000D01*
X2770000Y-38270000D02*
X1640000Y-38270000D01*
X2840000Y-38340000D02*
X2770000Y-38270000D01*
X11850000Y-38270000D02*
X11680000Y-38440000D01*
X24577497Y-28398348D02*
X24370055Y-28605790D01*
X21860000Y-36400000D02*
X19990000Y-38270000D01*
X24577497Y-26548707D02*
X24577497Y-28398348D01*
X26040000Y-24170000D02*
X26040000Y-25086204D01*
X26040000Y-25086204D02*
X24577497Y-26548707D01*
X21860000Y-33208272D02*
X21860000Y-36400000D01*
X24370055Y-29740285D02*
X21916044Y-32194296D01*
X21916044Y-32194296D02*
X21916044Y-33152228D01*
X21916044Y-33152228D02*
X21860000Y-33208272D01*
X19990000Y-38270000D02*
X19374000Y-38270000D01*
X19374000Y-38270000D02*
X18570000Y-38270000D01*
X24370055Y-28605790D02*
X24370055Y-29740285D01*
D20*
X18570000Y-38270000D02*
X17510000Y-38270000D01*
X8610000Y-38270000D02*
X7140000Y-38270000D01*
X9080000Y-37800000D02*
X8610000Y-38270000D01*
X17510000Y-38270000D02*
X17380000Y-38140000D01*
X1640000Y-37000000D02*
X2910000Y-37000000D01*
X11950000Y-37000000D02*
X13070000Y-37000000D01*
X11650000Y-37300000D02*
X11950000Y-37000000D01*
X2910000Y-37000000D02*
X2920000Y-36990000D01*
D21*
X21362033Y-33064171D02*
X21462033Y-32964171D01*
X18720000Y-37000000D02*
X21362033Y-34357967D01*
X24116044Y-26368092D02*
X24610000Y-25874136D01*
X21362033Y-34357967D02*
X21362033Y-33064171D01*
X18570000Y-37000000D02*
X18720000Y-37000000D01*
X23916044Y-29552227D02*
X23916044Y-28417733D01*
X23916044Y-28417733D02*
X24116044Y-28217733D01*
X24610000Y-25874136D02*
X24610000Y-23060000D01*
X24116044Y-28217733D02*
X24116044Y-26368092D01*
X24610000Y-23060000D02*
X26040000Y-21630000D01*
X21462033Y-32006238D02*
X23916044Y-29552227D01*
X21462033Y-32964171D02*
X21462033Y-32006238D01*
X18570000Y-37000000D02*
X17420000Y-37000000D01*
X8190000Y-37000000D02*
X7140000Y-37000000D01*
X8520000Y-36670000D02*
X8190000Y-37000000D01*
X17420000Y-37000000D02*
X17390000Y-36970000D01*
D20*
X13070000Y-35730000D02*
X12100000Y-35730000D01*
X2890000Y-35730000D02*
X1640000Y-35730000D01*
X2910000Y-35750000D02*
X2890000Y-35730000D01*
X12100000Y-35730000D02*
X11730000Y-36100000D01*
D21*
X18720000Y-35730000D02*
X20908022Y-33541978D01*
X20908022Y-32876114D02*
X21008022Y-32776114D01*
X21008022Y-32776114D02*
X21008022Y-31818180D01*
X23662031Y-26180037D02*
X23950000Y-25892068D01*
X18570000Y-35730000D02*
X18720000Y-35730000D01*
X23950000Y-21180000D02*
X26040000Y-19090000D01*
X23462033Y-28164171D02*
X23662030Y-27964172D01*
X21008022Y-31818180D02*
X23462033Y-29364169D01*
X23462033Y-29364169D02*
X23462033Y-28164171D01*
X23662030Y-27964172D02*
X23662031Y-27861068D01*
X23662031Y-27861068D02*
X23662031Y-26180037D01*
X23950000Y-25892068D02*
X23950000Y-21180000D01*
X20908022Y-33541978D02*
X20908022Y-32876114D01*
D20*
X7140000Y-35730000D02*
X8280000Y-35730000D01*
X17380000Y-35730000D02*
X18570000Y-35730000D01*
X17350000Y-35760000D02*
X17380000Y-35730000D01*
X8280000Y-35730000D02*
X8490000Y-35520000D01*
X13070000Y-34460000D02*
X12000000Y-34460000D01*
X2950000Y-34460000D02*
X1640000Y-34460000D01*
X11720000Y-34740000D02*
X11690000Y-34740000D01*
X12000000Y-34460000D02*
X11720000Y-34740000D01*
X22299967Y-75517067D02*
X22299967Y-71568567D01*
X19320000Y-68750000D02*
X18570000Y-68750000D01*
X19481400Y-68750000D02*
X19320000Y-68750000D01*
X22300022Y-81440022D02*
X22300022Y-79465722D01*
X22299967Y-71568567D02*
X19481400Y-68750000D01*
X22299989Y-79465689D02*
X22299989Y-75517089D01*
X22299989Y-75517089D02*
X22299967Y-75517067D01*
X22300022Y-79465722D02*
X22299989Y-79465689D01*
X26060000Y-85200000D02*
X22300022Y-81440022D01*
X17427832Y-68750000D02*
X17262459Y-68584627D01*
X18570000Y-68750000D02*
X17427832Y-68750000D01*
X7140000Y-68750000D02*
X7910000Y-68750000D01*
X7910000Y-68750000D02*
X8570000Y-68090000D01*
X18570000Y-34460000D02*
X17660000Y-34460000D01*
X8140000Y-34460000D02*
X7140000Y-34460000D01*
X8500000Y-34100000D02*
X8140000Y-34460000D01*
X17660000Y-34460000D02*
X17300000Y-34100000D01*
D21*
X18720000Y-34460000D02*
X18570000Y-34460000D01*
X20454011Y-32725989D02*
X18720000Y-34460000D01*
X20554011Y-32588057D02*
X20454011Y-32688057D01*
X20554011Y-31630125D02*
X20554011Y-32588057D01*
X23008021Y-29176115D02*
X20554011Y-31630125D01*
X26040000Y-16550000D02*
X26040000Y-17130000D01*
X23008021Y-27976115D02*
X23008021Y-29176115D01*
X23180000Y-27804136D02*
X23008021Y-27976115D01*
X23180000Y-19990000D02*
X23180000Y-27804136D01*
X20454011Y-32688057D02*
X20454011Y-32725989D01*
X26040000Y-17130000D02*
X23180000Y-19990000D01*
D20*
X13070000Y-33190000D02*
X11960000Y-33190000D01*
X2890000Y-33190000D02*
X1640000Y-33190000D01*
X2960000Y-33120000D02*
X2890000Y-33190000D01*
X11960000Y-33190000D02*
X11800000Y-33350000D01*
D21*
X20100000Y-31810000D02*
X18720000Y-33190000D01*
X20100000Y-31442068D02*
X20100000Y-31810000D01*
X22554011Y-28988057D02*
X20100000Y-31442068D01*
X22554011Y-17585989D02*
X22554011Y-28988057D01*
X26060000Y-14080000D02*
X22554011Y-17585989D01*
X18720000Y-33190000D02*
X18570000Y-33190000D01*
D20*
X17519999Y-33022989D02*
X17270000Y-32772990D01*
X17687010Y-33190000D02*
X17519999Y-33022989D01*
X18570000Y-33190000D02*
X17687010Y-33190000D01*
X7140000Y-33190000D02*
X7990000Y-33190000D01*
X8350000Y-32830000D02*
X8350000Y-32810000D01*
X7990000Y-33190000D02*
X8350000Y-32830000D01*
D21*
X14700000Y-31800000D02*
X13190000Y-31800000D01*
X13190000Y-31800000D02*
X13070000Y-31920000D01*
D20*
X13070000Y-31920000D02*
X12410000Y-31920000D01*
X2890000Y-31920000D02*
X1640000Y-31920000D01*
X2900000Y-31910000D02*
X2890000Y-31920000D01*
X12130000Y-32200000D02*
X11730000Y-32200000D01*
X12410000Y-31920000D02*
X12130000Y-32200000D01*
X17603553Y-31222990D02*
X17250000Y-31222990D01*
X18570000Y-31920000D02*
X18420000Y-31920000D01*
X18420000Y-31920000D02*
X17722990Y-31222990D01*
X17722990Y-31222990D02*
X17603553Y-31222990D01*
D21*
X22100001Y-28539999D02*
X22100001Y-15499999D01*
X22100001Y-15499999D02*
X26060000Y-11540000D01*
X18570000Y-31920000D02*
X18720000Y-31920000D01*
X18720000Y-31920000D02*
X22100001Y-28539999D01*
D20*
X7140000Y-31920000D02*
X7980000Y-31920000D01*
X7980000Y-31920000D02*
X8290000Y-31610000D01*
X13090000Y-67500000D02*
X13070000Y-67480000D01*
X13070000Y-67480000D02*
X11860000Y-67480000D01*
X2930000Y-67480000D02*
X1640000Y-67480000D01*
X11860000Y-67480000D02*
X11820000Y-67520000D01*
X22700000Y-79300000D02*
X22700000Y-75351400D01*
X22700000Y-75351400D02*
X22699978Y-75351378D01*
X22699978Y-75351378D02*
X22699978Y-70859978D01*
X26060000Y-82660000D02*
X22700000Y-79300000D01*
X22699978Y-70859978D02*
X19320000Y-67480000D01*
X19320000Y-67480000D02*
X18570000Y-67480000D01*
D21*
X18570000Y-67480000D02*
X18720000Y-67480000D01*
D20*
X18570000Y-67480000D02*
X17640010Y-67480000D01*
X17359999Y-67199989D02*
X17110000Y-66949990D01*
X17640010Y-67480000D02*
X17359999Y-67199989D01*
X7140000Y-67480000D02*
X7860000Y-67480000D01*
X7860000Y-67480000D02*
X8540000Y-66800000D01*
X13080000Y-66200000D02*
X13070000Y-66210000D01*
X13070000Y-66210000D02*
X11860000Y-66210000D01*
X2920000Y-66210000D02*
X1640000Y-66210000D01*
X2930000Y-66220000D02*
X2920000Y-66210000D01*
X11860000Y-66210000D02*
X11800000Y-66150000D01*
M02*
