M48
;DRILL file {Pcbnew (2012-01-19 BZR 3256)-stable} date 09.11.2015 16:39:12
;FORMAT={-:-/ absolute / metric / decimal}
FMAT,2
METRIC,TZ
T1C1.016
T2C6.101
%
G90
G05
M71
T1
X89.040Y-32.779
X89.215Y-42.400
X89.215Y-45.375
X89.240Y-48.351
X89.240Y-51.300
X89.416Y-64.326
X89.489Y-67.475
X91.580Y-32.779
X91.755Y-42.400
X91.755Y-45.375
X91.780Y-48.351
X91.780Y-51.300
X91.956Y-64.326
X92.029Y-67.475
X94.120Y-32.779
X94.295Y-42.400
X94.295Y-45.375
X94.320Y-48.351
X94.320Y-51.300
X94.496Y-64.326
X94.569Y-67.475
X96.660Y-32.779
X96.835Y-42.400
X96.835Y-45.375
X96.860Y-48.351
X96.860Y-51.300
X97.036Y-64.326
X97.109Y-67.475
T2
X92.921Y-57.849
T0
M30
