G04 (created by PCBNEW-RS274X (2012-01-19 BZR 3256)-stable) date 09.11.2015 16:39:03*
G01*
G70*
G90*
%MOIN*%
G04 Gerber Fmt 3.4, Leading zero omitted, Abs format*
%FSLAX34Y34*%
G04 APERTURE LIST*
%ADD10C,0.006000*%
%ADD11C,0.240200*%
%ADD12R,0.050000X0.015000*%
%ADD13R,0.035000X0.055000*%
%ADD14R,0.060000X0.060000*%
%ADD15C,0.060000*%
%ADD16C,0.008000*%
%ADD17C,0.015700*%
%ADD18C,0.010000*%
G04 APERTURE END LIST*
G54D10*
G54D11*
X36583Y-22775D03*
G54D12*
X36561Y-13948D03*
X36561Y-14204D03*
X36561Y-14460D03*
X36561Y-14716D03*
X38261Y-14716D03*
X38261Y-14460D03*
X38261Y-14204D03*
X38261Y-13948D03*
G54D13*
X35048Y-15523D03*
X35798Y-15523D03*
X35798Y-13948D03*
X35048Y-13948D03*
X35798Y-14736D03*
X35048Y-14736D03*
G54D14*
X35055Y-12905D03*
G54D15*
X36055Y-12905D03*
X37055Y-12905D03*
X38055Y-12905D03*
G54D14*
X38124Y-16693D03*
G54D15*
X37124Y-16693D03*
X36124Y-16693D03*
X35124Y-16693D03*
G54D14*
X35124Y-17864D03*
G54D15*
X36124Y-17864D03*
X37124Y-17864D03*
X38124Y-17864D03*
G54D14*
X35134Y-19036D03*
G54D15*
X36134Y-19036D03*
X37134Y-19036D03*
X38134Y-19036D03*
G54D14*
X35134Y-20197D03*
G54D15*
X36134Y-20197D03*
X37134Y-20197D03*
X38134Y-20197D03*
G54D14*
X35203Y-25325D03*
G54D15*
X36203Y-25325D03*
X37203Y-25325D03*
X38203Y-25325D03*
G54D14*
X35232Y-26565D03*
G54D15*
X36232Y-26565D03*
X37232Y-26565D03*
X38232Y-26565D03*
G54D16*
X36561Y-14204D02*
X36270Y-14204D01*
X35798Y-14676D02*
X35798Y-14736D01*
X35798Y-14736D02*
X35797Y-14736D01*
X35403Y-13253D02*
X35055Y-12905D01*
X35403Y-14342D02*
X35403Y-13253D01*
X35797Y-14736D02*
X35403Y-14342D01*
X36270Y-14204D02*
X35798Y-14676D01*
X35798Y-13948D02*
X35798Y-13162D01*
X35798Y-13162D02*
X36055Y-12905D01*
X36561Y-13948D02*
X35798Y-13948D01*
G54D17*
X35048Y-13948D02*
X35048Y-14736D01*
X35048Y-14736D02*
X35048Y-15523D01*
X38261Y-13111D02*
X38055Y-12905D01*
X38261Y-13948D02*
X38261Y-13111D01*
X38055Y-12722D02*
X37756Y-12423D01*
X37756Y-12423D02*
X34606Y-12423D01*
X34606Y-12423D02*
X34410Y-12619D01*
X34410Y-12619D02*
X34410Y-13624D01*
X34410Y-13624D02*
X34734Y-13948D01*
X34734Y-13948D02*
X35048Y-13948D01*
X38055Y-12905D02*
X38055Y-12722D01*
G54D10*
G36*
X39448Y-27322D02*
X38660Y-27322D01*
X38660Y-14052D01*
X38660Y-13993D01*
X38660Y-13843D01*
X38637Y-13788D01*
X38595Y-13746D01*
X38540Y-13724D01*
X38489Y-13724D01*
X38489Y-13111D01*
X38478Y-13056D01*
X38504Y-12995D01*
X38504Y-12816D01*
X38436Y-12651D01*
X38310Y-12525D01*
X38145Y-12456D01*
X38111Y-12456D01*
X37917Y-12262D01*
X37844Y-12212D01*
X37756Y-12195D01*
X34606Y-12195D01*
X34518Y-12212D01*
X34445Y-12262D01*
X34249Y-12458D01*
X34199Y-12531D01*
X34182Y-12619D01*
X34182Y-13624D01*
X34199Y-13712D01*
X34249Y-13785D01*
X34573Y-14109D01*
X34646Y-14159D01*
X34647Y-14159D01*
X34724Y-14174D01*
X34724Y-14253D01*
X34747Y-14308D01*
X34781Y-14342D01*
X34746Y-14377D01*
X34724Y-14432D01*
X34724Y-14491D01*
X34724Y-15041D01*
X34747Y-15096D01*
X34780Y-15129D01*
X34746Y-15164D01*
X34724Y-15219D01*
X34724Y-15278D01*
X34724Y-15828D01*
X34747Y-15883D01*
X34789Y-15925D01*
X34844Y-15947D01*
X34903Y-15947D01*
X35253Y-15947D01*
X35308Y-15924D01*
X35350Y-15882D01*
X35372Y-15827D01*
X35372Y-15768D01*
X35372Y-15218D01*
X35349Y-15163D01*
X35315Y-15129D01*
X35350Y-15095D01*
X35372Y-15040D01*
X35372Y-14981D01*
X35372Y-14579D01*
X35474Y-14681D01*
X35474Y-15041D01*
X35497Y-15096D01*
X35539Y-15138D01*
X35594Y-15160D01*
X35653Y-15160D01*
X36003Y-15160D01*
X36058Y-15137D01*
X36100Y-15095D01*
X36122Y-15040D01*
X36122Y-14981D01*
X36122Y-14620D01*
X36166Y-14575D01*
X36185Y-14620D01*
X36227Y-14662D01*
X36282Y-14684D01*
X36341Y-14684D01*
X36841Y-14684D01*
X36896Y-14661D01*
X36938Y-14619D01*
X36960Y-14564D01*
X36960Y-14505D01*
X36960Y-14355D01*
X36950Y-14332D01*
X36960Y-14308D01*
X36960Y-14249D01*
X36960Y-14099D01*
X36950Y-14076D01*
X36960Y-14052D01*
X36960Y-13993D01*
X36960Y-13843D01*
X36937Y-13788D01*
X36895Y-13746D01*
X36840Y-13724D01*
X36781Y-13724D01*
X36281Y-13724D01*
X36226Y-13747D01*
X36215Y-13758D01*
X36122Y-13758D01*
X36122Y-13643D01*
X36099Y-13588D01*
X36057Y-13546D01*
X36002Y-13524D01*
X35988Y-13524D01*
X35988Y-13354D01*
X36144Y-13354D01*
X36309Y-13286D01*
X36435Y-13160D01*
X36504Y-12995D01*
X36504Y-12816D01*
X36436Y-12651D01*
X37661Y-12651D01*
X37670Y-12660D01*
X37606Y-12815D01*
X37606Y-12994D01*
X37674Y-13159D01*
X37800Y-13285D01*
X37965Y-13354D01*
X38033Y-13354D01*
X38033Y-13724D01*
X37981Y-13724D01*
X37926Y-13747D01*
X37884Y-13789D01*
X37862Y-13844D01*
X37862Y-13903D01*
X37862Y-14053D01*
X37885Y-14108D01*
X37927Y-14150D01*
X37982Y-14172D01*
X38041Y-14172D01*
X38240Y-14172D01*
X38261Y-14176D01*
X38281Y-14172D01*
X38541Y-14172D01*
X38596Y-14149D01*
X38638Y-14107D01*
X38660Y-14052D01*
X38660Y-27322D01*
X37934Y-27322D01*
X37934Y-22508D01*
X37729Y-22011D01*
X37350Y-21631D01*
X36853Y-21425D01*
X36316Y-21424D01*
X35819Y-21629D01*
X35439Y-22008D01*
X35233Y-22505D01*
X35232Y-23042D01*
X35437Y-23539D01*
X35816Y-23919D01*
X36313Y-24125D01*
X36850Y-24126D01*
X37347Y-23921D01*
X37727Y-23542D01*
X37933Y-23045D01*
X37934Y-22508D01*
X37934Y-27322D01*
X33643Y-27322D01*
X33643Y-11674D01*
X39448Y-11674D01*
X39448Y-27322D01*
X39448Y-27322D01*
G37*
G54D18*
X39448Y-27322D02*
X38660Y-27322D01*
X38660Y-14052D01*
X38660Y-13993D01*
X38660Y-13843D01*
X38637Y-13788D01*
X38595Y-13746D01*
X38540Y-13724D01*
X38489Y-13724D01*
X38489Y-13111D01*
X38478Y-13056D01*
X38504Y-12995D01*
X38504Y-12816D01*
X38436Y-12651D01*
X38310Y-12525D01*
X38145Y-12456D01*
X38111Y-12456D01*
X37917Y-12262D01*
X37844Y-12212D01*
X37756Y-12195D01*
X34606Y-12195D01*
X34518Y-12212D01*
X34445Y-12262D01*
X34249Y-12458D01*
X34199Y-12531D01*
X34182Y-12619D01*
X34182Y-13624D01*
X34199Y-13712D01*
X34249Y-13785D01*
X34573Y-14109D01*
X34646Y-14159D01*
X34647Y-14159D01*
X34724Y-14174D01*
X34724Y-14253D01*
X34747Y-14308D01*
X34781Y-14342D01*
X34746Y-14377D01*
X34724Y-14432D01*
X34724Y-14491D01*
X34724Y-15041D01*
X34747Y-15096D01*
X34780Y-15129D01*
X34746Y-15164D01*
X34724Y-15219D01*
X34724Y-15278D01*
X34724Y-15828D01*
X34747Y-15883D01*
X34789Y-15925D01*
X34844Y-15947D01*
X34903Y-15947D01*
X35253Y-15947D01*
X35308Y-15924D01*
X35350Y-15882D01*
X35372Y-15827D01*
X35372Y-15768D01*
X35372Y-15218D01*
X35349Y-15163D01*
X35315Y-15129D01*
X35350Y-15095D01*
X35372Y-15040D01*
X35372Y-14981D01*
X35372Y-14579D01*
X35474Y-14681D01*
X35474Y-15041D01*
X35497Y-15096D01*
X35539Y-15138D01*
X35594Y-15160D01*
X35653Y-15160D01*
X36003Y-15160D01*
X36058Y-15137D01*
X36100Y-15095D01*
X36122Y-15040D01*
X36122Y-14981D01*
X36122Y-14620D01*
X36166Y-14575D01*
X36185Y-14620D01*
X36227Y-14662D01*
X36282Y-14684D01*
X36341Y-14684D01*
X36841Y-14684D01*
X36896Y-14661D01*
X36938Y-14619D01*
X36960Y-14564D01*
X36960Y-14505D01*
X36960Y-14355D01*
X36950Y-14332D01*
X36960Y-14308D01*
X36960Y-14249D01*
X36960Y-14099D01*
X36950Y-14076D01*
X36960Y-14052D01*
X36960Y-13993D01*
X36960Y-13843D01*
X36937Y-13788D01*
X36895Y-13746D01*
X36840Y-13724D01*
X36781Y-13724D01*
X36281Y-13724D01*
X36226Y-13747D01*
X36215Y-13758D01*
X36122Y-13758D01*
X36122Y-13643D01*
X36099Y-13588D01*
X36057Y-13546D01*
X36002Y-13524D01*
X35988Y-13524D01*
X35988Y-13354D01*
X36144Y-13354D01*
X36309Y-13286D01*
X36435Y-13160D01*
X36504Y-12995D01*
X36504Y-12816D01*
X36436Y-12651D01*
X37661Y-12651D01*
X37670Y-12660D01*
X37606Y-12815D01*
X37606Y-12994D01*
X37674Y-13159D01*
X37800Y-13285D01*
X37965Y-13354D01*
X38033Y-13354D01*
X38033Y-13724D01*
X37981Y-13724D01*
X37926Y-13747D01*
X37884Y-13789D01*
X37862Y-13844D01*
X37862Y-13903D01*
X37862Y-14053D01*
X37885Y-14108D01*
X37927Y-14150D01*
X37982Y-14172D01*
X38041Y-14172D01*
X38240Y-14172D01*
X38261Y-14176D01*
X38281Y-14172D01*
X38541Y-14172D01*
X38596Y-14149D01*
X38638Y-14107D01*
X38660Y-14052D01*
X38660Y-27322D01*
X37934Y-27322D01*
X37934Y-22508D01*
X37729Y-22011D01*
X37350Y-21631D01*
X36853Y-21425D01*
X36316Y-21424D01*
X35819Y-21629D01*
X35439Y-22008D01*
X35233Y-22505D01*
X35232Y-23042D01*
X35437Y-23539D01*
X35816Y-23919D01*
X36313Y-24125D01*
X36850Y-24126D01*
X37347Y-23921D01*
X37727Y-23542D01*
X37933Y-23045D01*
X37934Y-22508D01*
X37934Y-27322D01*
X33643Y-27322D01*
X33643Y-11674D01*
X39448Y-11674D01*
X39448Y-27322D01*
M02*
