G04 #@! TF.FileFunction,Copper,L1,Top,Signal*
%FSLAX46Y46*%
G04 Gerber Fmt 4.6, Leading zero omitted, Abs format (unit mm)*
G04 Created by KiCad (PCBNEW 4.0.5) date 04/03/17 22:13:47*
%MOMM*%
%LPD*%
G01*
G04 APERTURE LIST*
%ADD10C,0.100000*%
%ADD11R,1.100000X0.800000*%
%ADD12R,2.500000X1.200000*%
%ADD13C,1.600000*%
%ADD14C,4.064000*%
%ADD15C,5.300000*%
%ADD16C,1.000000*%
%ADD17C,0.500000*%
G04 APERTURE END LIST*
D10*
D11*
X96000000Y-81600000D03*
X90500000Y-81600000D03*
X96000000Y-82870000D03*
X90500000Y-82870000D03*
X96000000Y-84140000D03*
X90500000Y-84140000D03*
X96000000Y-85410000D03*
X90500000Y-85410000D03*
X96000000Y-86680000D03*
X90500000Y-86680000D03*
X96000000Y-87950000D03*
X90500000Y-87950000D03*
X96000000Y-89220000D03*
X90500000Y-89220000D03*
X96000000Y-90490000D03*
X90500000Y-90490000D03*
X96000000Y-91760000D03*
X90500000Y-91760000D03*
X96000000Y-93030000D03*
X90500000Y-93030000D03*
X96000000Y-94300000D03*
X90500000Y-94300000D03*
X96000000Y-95570000D03*
X90500000Y-95570000D03*
X96000000Y-96840000D03*
X90500000Y-96840000D03*
X96000000Y-98110000D03*
X90500000Y-98110000D03*
X96000000Y-99380000D03*
X90500000Y-99380000D03*
X96000000Y-100650000D03*
X90500000Y-100650000D03*
X96000000Y-101920000D03*
X90500000Y-101920000D03*
X96000000Y-103190000D03*
X90500000Y-103190000D03*
X96000000Y-104460000D03*
X90500000Y-104460000D03*
X96000000Y-105730000D03*
X90500000Y-105730000D03*
X96000000Y-107000000D03*
X90500000Y-107000000D03*
X96000000Y-108270000D03*
X90500000Y-108270000D03*
X96000000Y-109540000D03*
X90500000Y-109540000D03*
X96000000Y-110810000D03*
X90500000Y-110810000D03*
X96000000Y-112080000D03*
X90500000Y-112080000D03*
X96000000Y-113350000D03*
X90500000Y-113350000D03*
X96000000Y-114620000D03*
X90500000Y-114620000D03*
X96000000Y-115890000D03*
X90500000Y-115890000D03*
X96000000Y-117160000D03*
X90500000Y-117160000D03*
X96000000Y-118430000D03*
X90500000Y-118430000D03*
X96000000Y-119700000D03*
X90500000Y-119700000D03*
X96000000Y-120970000D03*
X90500000Y-120970000D03*
D12*
X95800000Y-123480000D03*
X90700000Y-123480000D03*
X95800000Y-79190000D03*
X90700000Y-79190000D03*
D13*
X93250000Y-123180000D03*
X93250000Y-79390000D03*
D11*
X127000000Y-81600000D03*
X121500000Y-81600000D03*
X127000000Y-82870000D03*
X121500000Y-82870000D03*
X127000000Y-84140000D03*
X121500000Y-84140000D03*
X127000000Y-85410000D03*
X121500000Y-85410000D03*
X127000000Y-86680000D03*
X121500000Y-86680000D03*
X127000000Y-87950000D03*
X121500000Y-87950000D03*
X127000000Y-89220000D03*
X121500000Y-89220000D03*
X127000000Y-90490000D03*
X121500000Y-90490000D03*
X127000000Y-91760000D03*
X121500000Y-91760000D03*
X127000000Y-93030000D03*
X121500000Y-93030000D03*
X127000000Y-94300000D03*
X121500000Y-94300000D03*
X127000000Y-95570000D03*
X121500000Y-95570000D03*
X127000000Y-96840000D03*
X121500000Y-96840000D03*
X127000000Y-98110000D03*
X121500000Y-98110000D03*
X127000000Y-99380000D03*
X121500000Y-99380000D03*
X127000000Y-100650000D03*
X121500000Y-100650000D03*
X127000000Y-101920000D03*
X121500000Y-101920000D03*
X127000000Y-103190000D03*
X121500000Y-103190000D03*
X127000000Y-104460000D03*
X121500000Y-104460000D03*
X127000000Y-105730000D03*
X121500000Y-105730000D03*
X127000000Y-107000000D03*
X121500000Y-107000000D03*
X127000000Y-108270000D03*
X121500000Y-108270000D03*
X127000000Y-109540000D03*
X121500000Y-109540000D03*
X127000000Y-110810000D03*
X121500000Y-110810000D03*
X127000000Y-112080000D03*
X121500000Y-112080000D03*
X127000000Y-113350000D03*
X121500000Y-113350000D03*
X127000000Y-114620000D03*
X121500000Y-114620000D03*
X127000000Y-115890000D03*
X121500000Y-115890000D03*
X127000000Y-117160000D03*
X121500000Y-117160000D03*
X127000000Y-118430000D03*
X121500000Y-118430000D03*
X127000000Y-119700000D03*
X121500000Y-119700000D03*
X127000000Y-120970000D03*
X121500000Y-120970000D03*
D12*
X126800000Y-123480000D03*
X121700000Y-123480000D03*
X126800000Y-79190000D03*
X121700000Y-79190000D03*
D13*
X124250000Y-123180000D03*
X124250000Y-79390000D03*
D14*
X92900000Y-131750000D03*
X99400000Y-131800000D03*
D15*
X108600000Y-131650000D03*
D16*
X97700000Y-80350000D03*
X127000000Y-81600000D03*
X98000000Y-82600000D03*
X127000000Y-82870000D03*
X115147299Y-78781280D03*
X94000000Y-81600000D03*
X101209618Y-81238106D03*
X127000000Y-84140000D03*
X114078544Y-80130656D03*
X94000000Y-83400000D03*
X100947924Y-82938117D03*
X127000000Y-85410000D03*
X117452232Y-81997768D03*
X94000000Y-85100000D03*
X100692567Y-84638128D03*
X127000000Y-86680000D03*
X112642028Y-82919017D03*
X93600000Y-86500000D03*
X100503677Y-86338139D03*
X127000000Y-87950000D03*
X115804443Y-83658623D03*
X93600000Y-88000000D03*
X100349031Y-88038150D03*
X127000000Y-89220000D03*
X114701976Y-85016256D03*
X93400000Y-89300000D03*
X100171879Y-89738161D03*
X127000000Y-90490000D03*
X115322893Y-86689171D03*
X93300000Y-90600000D03*
X100049709Y-91438172D03*
X127000000Y-91760000D03*
X115212290Y-88389183D03*
X93300000Y-91800000D03*
X99709905Y-93138183D03*
X127000000Y-93030000D03*
X115298813Y-90089195D03*
X93200000Y-93100000D03*
X99533375Y-94838194D03*
X127000000Y-94300000D03*
X115368349Y-91789207D03*
X93100000Y-94400000D03*
X100858597Y-96002555D03*
X127000000Y-95570000D03*
X115477841Y-93489218D03*
X93000000Y-95800000D03*
X102276701Y-97149989D03*
X127000000Y-96840000D03*
X115515653Y-95189230D03*
X93000000Y-97000000D03*
X98047304Y-97659935D03*
X127000000Y-98110000D03*
X115568653Y-96889242D03*
X93200000Y-98300000D03*
X97695274Y-99359947D03*
X127000000Y-99380000D03*
X115653238Y-98589253D03*
X93100000Y-99500000D03*
X98890614Y-100641170D03*
X127000000Y-100650000D03*
X115770572Y-100289264D03*
X93000001Y-100699999D03*
X98800000Y-102341181D03*
X127000000Y-101920000D03*
X115874875Y-101989276D03*
X93000000Y-101900000D03*
X98891991Y-104041192D03*
X127000000Y-103190000D03*
X115948840Y-103689287D03*
X93000000Y-103200000D03*
X99139750Y-105112939D03*
X127000000Y-104449977D03*
X116098504Y-105989309D03*
X93000000Y-104600000D03*
X98800000Y-107412961D03*
X127000000Y-105549990D03*
X117176381Y-106430928D03*
X93100000Y-105900000D03*
X98900000Y-109112972D03*
X127000000Y-107000000D03*
X116381126Y-108289332D03*
X93000000Y-107200000D03*
X99000000Y-110812983D03*
X127000000Y-108270000D03*
X116453058Y-109989344D03*
X92800000Y-108400000D03*
X99100317Y-112512994D03*
X127000000Y-109540000D03*
X116519396Y-111689355D03*
X92700000Y-109700000D03*
X101022118Y-113931395D03*
X127000000Y-110810000D03*
X117089277Y-113375643D03*
X92200000Y-111000000D03*
X99534894Y-114901950D03*
X127000000Y-112080000D03*
X117048185Y-115745025D03*
X92200000Y-112500000D03*
X101170315Y-116960628D03*
X127000000Y-113350000D03*
X115345859Y-115789411D03*
X92100000Y-113700000D03*
X99230692Y-117201972D03*
X127000000Y-114620000D03*
X115386220Y-117489423D03*
X92200000Y-114900000D03*
X100701633Y-119860662D03*
X127000000Y-115890000D03*
X115274808Y-119189435D03*
X92200000Y-116200000D03*
X100128374Y-121544455D03*
X127000000Y-117160000D03*
X115391274Y-120889447D03*
X92100000Y-117400000D03*
X101196586Y-123499969D03*
X127000000Y-118430000D03*
X114948032Y-122588729D03*
X92200000Y-118600000D03*
X99496574Y-123844478D03*
X127000000Y-119700000D03*
X114074580Y-124149979D03*
X92200000Y-120000000D03*
X97850000Y-123400000D03*
X127000000Y-120970000D03*
X98723952Y-125476048D03*
X92300000Y-121200000D03*
D17*
X97700000Y-80350000D02*
X97250000Y-80350000D01*
X97250000Y-80350000D02*
X96000000Y-81600000D01*
X96150000Y-81600000D02*
X96000000Y-81600000D01*
X98000000Y-82600000D02*
X96270000Y-82600000D01*
X96270000Y-82600000D02*
X96000000Y-82870000D01*
X96070000Y-82800000D02*
X96000000Y-82870000D01*
X115854405Y-78781280D02*
X115147299Y-78781280D01*
X121350000Y-81600000D02*
X118531280Y-78781280D01*
X118531280Y-78781280D02*
X115854405Y-78781280D01*
X121500000Y-81600000D02*
X121350000Y-81600000D01*
X90500000Y-82870000D02*
X92730000Y-82870000D01*
X92730000Y-82870000D02*
X94000000Y-81600000D01*
X90570000Y-82800000D02*
X90500000Y-82870000D01*
X98307724Y-84140000D02*
X100709619Y-81738105D01*
X100709619Y-81738105D02*
X101209618Y-81238106D01*
X96000000Y-84140000D02*
X98307724Y-84140000D01*
X120276389Y-82870000D02*
X117537045Y-80130656D01*
X121500000Y-82870000D02*
X120276389Y-82870000D01*
X114785650Y-80130656D02*
X114078544Y-80130656D01*
X117537045Y-80130656D02*
X114785650Y-80130656D01*
X90500000Y-84140000D02*
X93260000Y-84140000D01*
X93260000Y-84140000D02*
X94000000Y-83400000D01*
X96000000Y-85410000D02*
X98476041Y-85410000D01*
X98476041Y-85410000D02*
X100447925Y-83438116D01*
X100447925Y-83438116D02*
X100947924Y-82938117D01*
X119536573Y-84082109D02*
X117952231Y-82497767D01*
X119536573Y-84140000D02*
X119536573Y-84082109D01*
X117952231Y-82497767D02*
X117452232Y-81997768D01*
X119536573Y-84140000D02*
X119440000Y-84140000D01*
X121500000Y-84140000D02*
X119536573Y-84140000D01*
X94000000Y-85100000D02*
X90810000Y-85100000D01*
X90810000Y-85100000D02*
X90500000Y-85410000D01*
X98650695Y-86680000D02*
X100192568Y-85138127D01*
X100192568Y-85138127D02*
X100692567Y-84638128D01*
X96000000Y-86680000D02*
X98650695Y-86680000D01*
X116609918Y-82419018D02*
X113142027Y-82419018D01*
X113142027Y-82419018D02*
X112642028Y-82919017D01*
X119600900Y-85410000D02*
X116609918Y-82419018D01*
X121500000Y-85410000D02*
X119600900Y-85410000D01*
X93600000Y-86500000D02*
X90680000Y-86500000D01*
X90680000Y-86500000D02*
X90500000Y-86680000D01*
X96000000Y-87950000D02*
X98891816Y-87950000D01*
X100003678Y-86838138D02*
X100503677Y-86338139D01*
X98891816Y-87950000D02*
X100003678Y-86838138D01*
X121500000Y-86680000D02*
X118825820Y-86680000D01*
X118825820Y-86680000D02*
X116304442Y-84158622D01*
X116304442Y-84158622D02*
X115804443Y-83658623D01*
X93600000Y-88000000D02*
X90550000Y-88000000D01*
X90550000Y-88000000D02*
X90500000Y-87950000D01*
X99849032Y-88538149D02*
X100349031Y-88038150D01*
X96000000Y-89220000D02*
X99167181Y-89220000D01*
X99167181Y-89220000D02*
X99849032Y-88538149D01*
X115201975Y-85516255D02*
X114701976Y-85016256D01*
X115407981Y-85516255D02*
X115201975Y-85516255D01*
X121500000Y-87950000D02*
X117841726Y-87950000D01*
X117841726Y-87950000D02*
X115407981Y-85516255D01*
X93400000Y-89300000D02*
X90580000Y-89300000D01*
X90580000Y-89300000D02*
X90500000Y-89220000D01*
X99671880Y-90238160D02*
X100171879Y-89738161D01*
X99420040Y-90490000D02*
X99671880Y-90238160D01*
X96000000Y-90490000D02*
X99420040Y-90490000D01*
X117853722Y-89220000D02*
X115822892Y-87189170D01*
X115822892Y-87189170D02*
X115322893Y-86689171D01*
X121500000Y-89220000D02*
X117853722Y-89220000D01*
X93300000Y-90600000D02*
X90610000Y-90600000D01*
X90610000Y-90600000D02*
X90500000Y-90490000D01*
X99727881Y-91760000D02*
X100049709Y-91438172D01*
X96000000Y-91760000D02*
X99727881Y-91760000D01*
X115712289Y-88889182D02*
X115212290Y-88389183D01*
X117313107Y-90490000D02*
X115712289Y-88889182D01*
X121500000Y-90490000D02*
X117313107Y-90490000D01*
X93300000Y-91800000D02*
X90540000Y-91800000D01*
X90540000Y-91800000D02*
X90500000Y-91760000D01*
X96000000Y-93030000D02*
X99601722Y-93030000D01*
X99601722Y-93030000D02*
X99709905Y-93138183D01*
X116969618Y-91760000D02*
X115798812Y-90589194D01*
X115798812Y-90589194D02*
X115298813Y-90089195D01*
X121500000Y-91760000D02*
X116969618Y-91760000D01*
X93200000Y-93100000D02*
X90570000Y-93100000D01*
X90570000Y-93100000D02*
X90500000Y-93030000D01*
X96000000Y-94300000D02*
X98995181Y-94300000D01*
X99033376Y-94338195D02*
X99533375Y-94838194D01*
X98995181Y-94300000D02*
X99033376Y-94338195D01*
X115868348Y-92289206D02*
X115368349Y-91789207D01*
X116609142Y-93030000D02*
X115868348Y-92289206D01*
X121500000Y-93030000D02*
X116609142Y-93030000D01*
X93100000Y-94400000D02*
X90600000Y-94400000D01*
X90600000Y-94400000D02*
X90500000Y-94300000D01*
X97050000Y-95570000D02*
X97482555Y-96002555D01*
X97482555Y-96002555D02*
X100858597Y-96002555D01*
X96000000Y-95570000D02*
X97050000Y-95570000D01*
X121500000Y-94300000D02*
X116288623Y-94300000D01*
X116288623Y-94300000D02*
X115977840Y-93989217D01*
X115977840Y-93989217D02*
X115477841Y-93489218D01*
X93000000Y-95800000D02*
X90730000Y-95800000D01*
X90730000Y-95800000D02*
X90500000Y-95570000D01*
X97080067Y-96809933D02*
X98455306Y-96809933D01*
X98455306Y-96809933D02*
X98795362Y-97149989D01*
X98795362Y-97149989D02*
X101569595Y-97149989D01*
X101569595Y-97149989D02*
X102276701Y-97149989D01*
X96000000Y-96840000D02*
X97050000Y-96840000D01*
X97050000Y-96840000D02*
X97080067Y-96809933D01*
X115896423Y-95570000D02*
X115515653Y-95189230D01*
X121500000Y-95570000D02*
X115896423Y-95570000D01*
X93000000Y-97000000D02*
X90660000Y-97000000D01*
X90660000Y-97000000D02*
X90500000Y-96840000D01*
X97597239Y-98110000D02*
X98047304Y-97659935D01*
X96000000Y-98110000D02*
X97597239Y-98110000D01*
X115617895Y-96840000D02*
X115568653Y-96889242D01*
X121500000Y-96840000D02*
X115617895Y-96840000D01*
X93200000Y-98300000D02*
X90690000Y-98300000D01*
X90690000Y-98300000D02*
X90500000Y-98110000D01*
X96000000Y-99380000D02*
X97675221Y-99380000D01*
X97675221Y-99380000D02*
X97695274Y-99359947D01*
X116132491Y-98110000D02*
X115653238Y-98589253D01*
X121500000Y-98110000D02*
X116132491Y-98110000D01*
X93100000Y-99500000D02*
X90620000Y-99500000D01*
X90620000Y-99500000D02*
X90500000Y-99380000D01*
X96000000Y-100650000D02*
X98881784Y-100650000D01*
X98881784Y-100650000D02*
X98890614Y-100641170D01*
X116270571Y-99789265D02*
X115770572Y-100289264D01*
X121500000Y-99380000D02*
X116679836Y-99380000D01*
X116679836Y-99380000D02*
X116270571Y-99789265D01*
X90500000Y-100650000D02*
X92950002Y-100650000D01*
X92950002Y-100650000D02*
X93000001Y-100699999D01*
X96000000Y-101920000D02*
X98378819Y-101920000D01*
X98378819Y-101920000D02*
X98800000Y-102341181D01*
X116374874Y-101489277D02*
X115874875Y-101989276D01*
X117214151Y-100650000D02*
X116374874Y-101489277D01*
X121500000Y-100650000D02*
X117214151Y-100650000D01*
X93000000Y-101900000D02*
X90520000Y-101900000D01*
X90520000Y-101900000D02*
X90500000Y-101920000D01*
X98040799Y-103190000D02*
X98391992Y-103541193D01*
X96000000Y-103190000D02*
X98040799Y-103190000D01*
X98391992Y-103541193D02*
X98891991Y-104041192D01*
X121500000Y-101920000D02*
X117718127Y-101920000D01*
X117718127Y-101920000D02*
X116448839Y-103189288D01*
X116448839Y-103189288D02*
X115948840Y-103689287D01*
X93000000Y-103200000D02*
X90510000Y-103200000D01*
X90510000Y-103200000D02*
X90500000Y-103190000D01*
X97050000Y-104460000D02*
X97702939Y-105112939D01*
X98432644Y-105112939D02*
X99139750Y-105112939D01*
X96000000Y-104460000D02*
X97050000Y-104460000D01*
X97702939Y-105112939D02*
X98432644Y-105112939D01*
X118897813Y-103190000D02*
X116598503Y-105489310D01*
X121500000Y-103190000D02*
X118897813Y-103190000D01*
X116598503Y-105489310D02*
X116098504Y-105989309D01*
X93000000Y-104600000D02*
X90640000Y-104600000D01*
X90640000Y-104600000D02*
X90500000Y-104460000D01*
X98300001Y-106912962D02*
X98800000Y-107412961D01*
X97117039Y-105730000D02*
X98300001Y-106912962D01*
X96000000Y-105730000D02*
X97117039Y-105730000D01*
X119147309Y-104460000D02*
X117676380Y-105930929D01*
X117676380Y-105930929D02*
X117176381Y-106430928D01*
X121500000Y-104460000D02*
X119147309Y-104460000D01*
X93100000Y-105900000D02*
X90670000Y-105900000D01*
X90670000Y-105900000D02*
X90500000Y-105730000D01*
X96000000Y-107000000D02*
X97050000Y-107000000D01*
X98900000Y-108850000D02*
X98900000Y-109112972D01*
X97050000Y-107000000D02*
X98900000Y-108850000D01*
X119087513Y-105730000D02*
X117028180Y-107789333D01*
X117028180Y-107789333D02*
X116881125Y-107789333D01*
X121500000Y-105730000D02*
X119087513Y-105730000D01*
X116881125Y-107789333D02*
X116381126Y-108289332D01*
X93000000Y-107200000D02*
X90700000Y-107200000D01*
X90700000Y-107200000D02*
X90500000Y-107000000D01*
X96457017Y-108270000D02*
X98500001Y-110312984D01*
X96000000Y-108270000D02*
X96457017Y-108270000D01*
X98500001Y-110312984D02*
X99000000Y-110812983D01*
X121500000Y-107000000D02*
X119442402Y-107000000D01*
X119442402Y-107000000D02*
X116953057Y-109489345D01*
X116953057Y-109489345D02*
X116453058Y-109989344D01*
X92800000Y-108400000D02*
X90630000Y-108400000D01*
X90630000Y-108400000D02*
X90500000Y-108270000D01*
X98600318Y-111743202D02*
X98600318Y-112012995D01*
X96397116Y-109540000D02*
X98600318Y-111743202D01*
X96000000Y-109540000D02*
X96397116Y-109540000D01*
X98600318Y-112012995D02*
X99100317Y-112512994D01*
X121500000Y-108270000D02*
X119938751Y-108270000D01*
X119938751Y-108270000D02*
X117019395Y-111189356D01*
X117019395Y-111189356D02*
X116519396Y-111689355D01*
X92700000Y-109700000D02*
X90660000Y-109700000D01*
X90660000Y-109700000D02*
X90500000Y-109540000D01*
X100315012Y-113931395D02*
X101022118Y-113931395D01*
X99244238Y-113931395D02*
X100315012Y-113931395D01*
X96900001Y-111587158D02*
X99244238Y-113931395D01*
X96000000Y-110810000D02*
X96310002Y-110810000D01*
X96900001Y-111399999D02*
X96900001Y-111587158D01*
X96310002Y-110810000D02*
X96900001Y-111399999D01*
X117089277Y-112900723D02*
X117089277Y-113375643D01*
X120450000Y-109540000D02*
X117089277Y-112900723D01*
X121500000Y-109540000D02*
X120450000Y-109540000D01*
X92200000Y-111000000D02*
X90690000Y-111000000D01*
X90690000Y-111000000D02*
X90500000Y-110810000D01*
X99131952Y-114901950D02*
X99534894Y-114901950D01*
X96310002Y-112080000D02*
X99131952Y-114901950D01*
X96000000Y-112080000D02*
X96310002Y-112080000D01*
X121500000Y-110810000D02*
X121053644Y-110810000D01*
X117048185Y-114815459D02*
X117048185Y-115037919D01*
X121053644Y-110810000D02*
X117048185Y-114815459D01*
X117048185Y-115037919D02*
X117048185Y-115745025D01*
X92200000Y-112500000D02*
X91780000Y-112080000D01*
X91780000Y-112080000D02*
X90500000Y-112080000D01*
X96637892Y-113350000D02*
X100248520Y-116960628D01*
X100463209Y-116960628D02*
X101170315Y-116960628D01*
X96000000Y-113350000D02*
X96637892Y-113350000D01*
X100248520Y-116960628D02*
X100463209Y-116960628D01*
X117898187Y-116153027D02*
X117440250Y-116610964D01*
X117898187Y-114814000D02*
X117898187Y-116153027D01*
X120632187Y-112080000D02*
X117898187Y-114814000D01*
X116167412Y-116610964D02*
X115845858Y-116289410D01*
X121500000Y-112080000D02*
X120632187Y-112080000D01*
X117440250Y-116610964D02*
X116167412Y-116610964D01*
X115845858Y-116289410D02*
X115345859Y-115789411D01*
X92100000Y-113700000D02*
X90850000Y-113700000D01*
X90850000Y-113700000D02*
X90500000Y-113350000D01*
X97050000Y-114620000D02*
X99230692Y-116800692D01*
X99230692Y-116800692D02*
X99230692Y-117201972D01*
X96000000Y-114620000D02*
X97050000Y-114620000D01*
X116093326Y-117489423D02*
X115386220Y-117489423D01*
X117410334Y-117489423D02*
X116093326Y-117489423D01*
X118498198Y-116401559D02*
X117410334Y-117489423D01*
X118498198Y-115301802D02*
X118498198Y-116401559D01*
X120450000Y-113350000D02*
X118498198Y-115301802D01*
X121500000Y-113350000D02*
X120450000Y-113350000D01*
X92200000Y-114900000D02*
X90780000Y-114900000D01*
X90780000Y-114900000D02*
X90500000Y-114620000D01*
X96635627Y-115890000D02*
X100106290Y-119360663D01*
X100106290Y-119360663D02*
X100201634Y-119360663D01*
X96000000Y-115890000D02*
X96635627Y-115890000D01*
X100201634Y-119360663D02*
X100701633Y-119860662D01*
X121500000Y-114620000D02*
X121133839Y-114620000D01*
X116564404Y-119189435D02*
X115981914Y-119189435D01*
X115981914Y-119189435D02*
X115274808Y-119189435D01*
X121133839Y-114620000D02*
X116564404Y-119189435D01*
X92200000Y-116200000D02*
X90810000Y-116200000D01*
X90810000Y-116200000D02*
X90500000Y-115890000D01*
X99800022Y-120508997D02*
X100128374Y-120837349D01*
X97050000Y-117160000D02*
X99800022Y-119910022D01*
X99800022Y-119910022D02*
X99800022Y-120508997D01*
X100128374Y-120837349D02*
X100128374Y-121544455D01*
X96000000Y-117160000D02*
X97050000Y-117160000D01*
X115891273Y-120389448D02*
X115391274Y-120889447D01*
X121500000Y-115890000D02*
X120718741Y-115890000D01*
X120718741Y-115890000D02*
X116219293Y-120389448D01*
X116219293Y-120389448D02*
X115891273Y-120389448D01*
X92100000Y-117400000D02*
X90740000Y-117400000D01*
X90740000Y-117400000D02*
X90500000Y-117160000D01*
X99200011Y-120580011D02*
X99200011Y-122210500D01*
X97050000Y-118430000D02*
X99200011Y-120580011D01*
X96000000Y-118430000D02*
X97050000Y-118430000D01*
X99200011Y-122210500D02*
X100489480Y-123499969D01*
X100489480Y-123499969D02*
X101196586Y-123499969D01*
X121500000Y-117160000D02*
X120376761Y-117160000D01*
X120376761Y-117160000D02*
X115448031Y-122088730D01*
X115448031Y-122088730D02*
X114948032Y-122588729D01*
X92200000Y-118600000D02*
X90670000Y-118600000D01*
X90670000Y-118600000D02*
X90500000Y-118430000D01*
X98996575Y-123344479D02*
X99496574Y-123844478D01*
X97050000Y-119700000D02*
X98600000Y-121250000D01*
X98600000Y-122947904D02*
X98996575Y-123344479D01*
X98600000Y-121250000D02*
X98600000Y-122947904D01*
X96000000Y-119700000D02*
X97050000Y-119700000D01*
X96000000Y-119700000D02*
X95689998Y-119700000D01*
X115201478Y-123649980D02*
X114574579Y-123649980D01*
X120421458Y-118430000D02*
X115201478Y-123649980D01*
X114574579Y-123649980D02*
X114074580Y-124149979D01*
X121500000Y-118430000D02*
X120421458Y-118430000D01*
X92200000Y-120000000D02*
X90800000Y-120000000D01*
X90800000Y-120000000D02*
X90500000Y-119700000D01*
X97850000Y-123400000D02*
X97850000Y-122670000D01*
X97850000Y-122670000D02*
X96150000Y-120970000D01*
X96150000Y-120970000D02*
X96000000Y-120970000D01*
X121500000Y-119700000D02*
X120000000Y-119700000D01*
X120000000Y-119700000D02*
X114300000Y-125400000D01*
X114300000Y-125400000D02*
X98800000Y-125400000D01*
X98800000Y-125400000D02*
X98723952Y-125476048D01*
X121500000Y-119700000D02*
X121189998Y-119700000D01*
X92300000Y-121200000D02*
X90730000Y-121200000D01*
X90730000Y-121200000D02*
X90500000Y-120970000D01*
X90500000Y-81600000D02*
X89550000Y-81600000D01*
X89050000Y-127900000D02*
X92900000Y-131750000D01*
X89050000Y-122250000D02*
X89050000Y-127900000D01*
X89350000Y-121950000D02*
X89050000Y-122250000D01*
X89350000Y-81800000D02*
X89350000Y-121950000D01*
X89550000Y-81600000D02*
X89350000Y-81800000D01*
X121500000Y-120970000D02*
X120030000Y-120970000D01*
X99400000Y-127300000D02*
X99400000Y-131800000D01*
X100400000Y-126300000D02*
X99400000Y-127300000D01*
X114700000Y-126300000D02*
X100400000Y-126300000D01*
X120030000Y-120970000D02*
X114700000Y-126300000D01*
X121500000Y-120970000D02*
X121350000Y-120970000D01*
D10*
G36*
X128275000Y-126542224D02*
X119500000Y-126002978D01*
X119500000Y-126000320D01*
X119549331Y-122399171D01*
X123615001Y-122330261D01*
X123360372Y-122584446D01*
X123200182Y-122970226D01*
X123199818Y-123387942D01*
X123359334Y-123774000D01*
X123654446Y-124069628D01*
X124040226Y-124229818D01*
X124457942Y-124230182D01*
X124844000Y-124070666D01*
X125139628Y-123775554D01*
X125299818Y-123389774D01*
X125300182Y-122972058D01*
X125140666Y-122586000D01*
X124864237Y-122309088D01*
X128275000Y-122251278D01*
X128275000Y-126542224D01*
X128275000Y-126542224D01*
G37*
X128275000Y-126542224D02*
X119500000Y-126002978D01*
X119500000Y-126000320D01*
X119549331Y-122399171D01*
X123615001Y-122330261D01*
X123360372Y-122584446D01*
X123200182Y-122970226D01*
X123199818Y-123387942D01*
X123359334Y-123774000D01*
X123654446Y-124069628D01*
X124040226Y-124229818D01*
X124457942Y-124230182D01*
X124844000Y-124070666D01*
X125139628Y-123775554D01*
X125299818Y-123389774D01*
X125300182Y-122972058D01*
X125140666Y-122586000D01*
X124864237Y-122309088D01*
X128275000Y-122251278D01*
X128275000Y-126542224D01*
G36*
X95119782Y-127033616D02*
X89702872Y-124817608D01*
X89896006Y-122500000D01*
X89950000Y-122500000D01*
X89950368Y-122499999D01*
X92463478Y-122481520D01*
X92360372Y-122584446D01*
X92200182Y-122970226D01*
X92199818Y-123387942D01*
X92359334Y-123774000D01*
X92654446Y-124069628D01*
X93040226Y-124229818D01*
X93457942Y-124230182D01*
X93844000Y-124070666D01*
X94139628Y-123775554D01*
X94299818Y-123389774D01*
X94300182Y-122972058D01*
X94140666Y-122586000D01*
X94024908Y-122470039D01*
X96679986Y-122450517D01*
X95119782Y-127033616D01*
X95119782Y-127033616D01*
G37*
X95119782Y-127033616D02*
X89702872Y-124817608D01*
X89896006Y-122500000D01*
X89950000Y-122500000D01*
X89950368Y-122499999D01*
X92463478Y-122481520D01*
X92360372Y-122584446D01*
X92200182Y-122970226D01*
X92199818Y-123387942D01*
X92359334Y-123774000D01*
X92654446Y-124069628D01*
X93040226Y-124229818D01*
X93457942Y-124230182D01*
X93844000Y-124070666D01*
X94139628Y-123775554D01*
X94299818Y-123389774D01*
X94300182Y-122972058D01*
X94140666Y-122586000D01*
X94024908Y-122470039D01*
X96679986Y-122450517D01*
X95119782Y-127033616D01*
G36*
X127755455Y-80699607D02*
X122122295Y-80650194D01*
X121165703Y-79597942D01*
X123199818Y-79597942D01*
X123359334Y-79984000D01*
X123654446Y-80279628D01*
X124040226Y-80439818D01*
X124457942Y-80440182D01*
X124844000Y-80280666D01*
X125139628Y-79985554D01*
X125299818Y-79599774D01*
X125300182Y-79182058D01*
X125140666Y-78796000D01*
X124845554Y-78500372D01*
X124459774Y-78340182D01*
X124042058Y-78339818D01*
X123656000Y-78499334D01*
X123360372Y-78794446D01*
X123200182Y-79180226D01*
X123199818Y-79597942D01*
X121165703Y-79597942D01*
X119710120Y-77996802D01*
X125585753Y-77825000D01*
X128085328Y-77825000D01*
X127755455Y-80699607D01*
X127755455Y-80699607D01*
G37*
X127755455Y-80699607D02*
X122122295Y-80650194D01*
X121165703Y-79597942D01*
X123199818Y-79597942D01*
X123359334Y-79984000D01*
X123654446Y-80279628D01*
X124040226Y-80439818D01*
X124457942Y-80440182D01*
X124844000Y-80280666D01*
X125139628Y-79985554D01*
X125299818Y-79599774D01*
X125300182Y-79182058D01*
X125140666Y-78796000D01*
X124845554Y-78500372D01*
X124459774Y-78340182D01*
X124042058Y-78339818D01*
X123656000Y-78499334D01*
X123360372Y-78794446D01*
X123200182Y-79180226D01*
X123199818Y-79597942D01*
X121165703Y-79597942D01*
X119710120Y-77996802D01*
X125585753Y-77825000D01*
X128085328Y-77825000D01*
X127755455Y-80699607D01*
G36*
X95530864Y-80550582D02*
X89298998Y-80748419D01*
X89276440Y-79597942D01*
X92199818Y-79597942D01*
X92359334Y-79984000D01*
X92654446Y-80279628D01*
X93040226Y-80439818D01*
X93457942Y-80440182D01*
X93844000Y-80280666D01*
X94139628Y-79985554D01*
X94299818Y-79599774D01*
X94300182Y-79182058D01*
X94140666Y-78796000D01*
X93845554Y-78500372D01*
X93459774Y-78340182D01*
X93042058Y-78339818D01*
X92656000Y-78499334D01*
X92360372Y-78794446D01*
X92200182Y-79180226D01*
X92199818Y-79597942D01*
X89276440Y-79597942D01*
X89250990Y-78300000D01*
X98164524Y-78300000D01*
X95530864Y-80550582D01*
X95530864Y-80550582D01*
G37*
X95530864Y-80550582D02*
X89298998Y-80748419D01*
X89276440Y-79597942D01*
X92199818Y-79597942D01*
X92359334Y-79984000D01*
X92654446Y-80279628D01*
X93040226Y-80439818D01*
X93457942Y-80440182D01*
X93844000Y-80280666D01*
X94139628Y-79985554D01*
X94299818Y-79599774D01*
X94300182Y-79182058D01*
X94140666Y-78796000D01*
X93845554Y-78500372D01*
X93459774Y-78340182D01*
X93042058Y-78339818D01*
X92656000Y-78499334D01*
X92360372Y-78794446D01*
X92200182Y-79180226D01*
X92199818Y-79597942D01*
X89276440Y-79597942D01*
X89250990Y-78300000D01*
X98164524Y-78300000D01*
X95530864Y-80550582D01*
M02*
