M48
;DRILL file {KiCad 4.0.5} date 04/03/17 22:13:50
;FORMAT={-:-/ absolute / metric / decimal}
FMAT,2
METRIC,TZ
T1C0.900
T2C1.600
T3C3.048
T4C5.300
%
G90
G05
M71
T1
X92.1Y-113.7
X92.1Y-117.4
X92.2Y-111.
X92.2Y-112.5
X92.2Y-114.9
X92.2Y-116.2
X92.2Y-118.6
X92.2Y-120.
X92.3Y-121.2
X92.7Y-109.7
X92.8Y-108.4
X93.Y-95.8
X93.Y-97.
X93.Y-101.9
X93.Y-103.2
X93.Y-104.6
X93.Y-107.2
X93.Y-100.7
X93.1Y-94.4
X93.1Y-99.5
X93.1Y-105.9
X93.2Y-93.1
X93.2Y-98.3
X93.3Y-90.6
X93.3Y-91.8
X93.4Y-89.3
X93.6Y-86.5
X93.6Y-88.
X94.Y-81.6
X94.Y-83.4
X94.Y-85.1
X97.695Y-99.36
X97.7Y-80.35
X97.85Y-123.4
X98.Y-82.6
X98.047Y-97.66
X98.724Y-125.476
X98.8Y-102.341
X98.8Y-107.413
X98.891Y-100.641
X98.892Y-104.041
X98.9Y-109.113
X99.Y-110.813
X99.1Y-112.513
X99.14Y-105.113
X99.231Y-117.202
X99.497Y-123.844
X99.533Y-94.838
X99.535Y-114.902
X99.71Y-93.138
X100.05Y-91.438
X100.128Y-121.544
X100.172Y-89.738
X100.349Y-88.038
X100.504Y-86.338
X100.693Y-84.638
X100.702Y-119.861
X100.859Y-96.003
X100.948Y-82.938
X101.022Y-113.931
X101.17Y-116.961
X101.197Y-123.5
X101.21Y-81.238
X102.277Y-97.15
X112.642Y-82.919
X114.075Y-124.15
X114.079Y-80.131
X114.702Y-85.016
X114.948Y-122.589
X115.147Y-78.781
X115.212Y-88.389
X115.275Y-119.189
X115.299Y-90.089
X115.323Y-86.689
X115.346Y-115.789
X115.368Y-91.789
X115.386Y-117.489
X115.391Y-120.889
X115.478Y-93.489
X115.516Y-95.189
X115.569Y-96.889
X115.653Y-98.589
X115.771Y-100.289
X115.804Y-83.659
X115.875Y-101.989
X115.949Y-103.689
X116.099Y-105.989
X116.381Y-108.289
X116.453Y-109.989
X116.519Y-111.689
X117.048Y-115.745
X117.089Y-113.376
X117.176Y-106.431
X117.452Y-81.998
X127.Y-81.6
X127.Y-82.87
X127.Y-84.14
X127.Y-85.41
X127.Y-86.68
X127.Y-87.95
X127.Y-89.22
X127.Y-90.49
X127.Y-91.76
X127.Y-93.03
X127.Y-94.3
X127.Y-95.57
X127.Y-96.84
X127.Y-98.11
X127.Y-99.38
X127.Y-100.65
X127.Y-101.92
X127.Y-103.19
X127.Y-104.45
X127.Y-105.55
X127.Y-107.
X127.Y-108.27
X127.Y-109.54
X127.Y-110.81
X127.Y-112.08
X127.Y-113.35
X127.Y-114.62
X127.Y-115.89
X127.Y-117.16
X127.Y-118.43
X127.Y-119.7
X127.Y-120.97
T2
X93.25Y-79.39
X93.25Y-123.18
X124.25Y-79.39
X124.25Y-123.18
T3
X92.9Y-131.75
X99.4Y-131.8
T4
X108.6Y-131.65
T0
M30
