%FSLAX45Y45*%
G04 Gerber Fmt 4.5, Leading zero omitted, Abs format (unit mm)*
G04 Created by KiCad (PCBNEW 4.0.5) date 04/03/17 22:13:51*
%MOMM*%
%LPD*%
G01*
G04 APERTURE LIST*
%ADD10C,0.127000*%
%ADD11C,0.150000*%
%ADD12C,0.200000*%
%ADD13C,0.300000*%
G04 APERTURE END LIST*
D10*
D11*
X8860000Y-7765000D02*
X8860000Y-7750000D01*
X8860000Y-13750000D02*
X8860000Y-7755000D01*
X12860000Y-13750000D02*
X8860000Y-13750000D01*
X12860000Y-7750000D02*
X12860000Y-13750000D01*
X8860000Y-7750000D02*
X12860000Y-7750000D01*
D12*
X9165000Y-11325000D02*
X9255000Y-11415000D01*
X9255000Y-11325000D02*
X9165000Y-11415000D01*
X9165000Y-11695000D02*
X9255000Y-11785000D01*
X9255000Y-11695000D02*
X9165000Y-11785000D01*
X9175000Y-11055000D02*
X9265000Y-11145000D01*
X9265000Y-11055000D02*
X9175000Y-11145000D01*
X9175000Y-11205000D02*
X9265000Y-11295000D01*
X9265000Y-11205000D02*
X9175000Y-11295000D01*
X9175000Y-11445000D02*
X9265000Y-11535000D01*
X9265000Y-11445000D02*
X9175000Y-11535000D01*
X9175000Y-11575000D02*
X9265000Y-11665000D01*
X9265000Y-11575000D02*
X9175000Y-11665000D01*
X9175000Y-11815000D02*
X9265000Y-11905000D01*
X9265000Y-11815000D02*
X9175000Y-11905000D01*
X9175000Y-11955000D02*
X9265000Y-12045000D01*
X9265000Y-11955000D02*
X9175000Y-12045000D01*
X9185000Y-12075000D02*
X9275000Y-12165000D01*
X9275000Y-12075000D02*
X9185000Y-12165000D01*
X9225000Y-10925000D02*
X9315000Y-11015000D01*
X9315000Y-10925000D02*
X9225000Y-11015000D01*
X9235000Y-10795000D02*
X9325000Y-10885000D01*
X9325000Y-10795000D02*
X9235000Y-10885000D01*
X9255000Y-9535000D02*
X9345000Y-9625000D01*
X9345000Y-9535000D02*
X9255000Y-9625000D01*
X9255000Y-9655000D02*
X9345000Y-9745000D01*
X9345000Y-9655000D02*
X9255000Y-9745000D01*
X9255000Y-10145000D02*
X9345000Y-10235000D01*
X9345000Y-10145000D02*
X9255000Y-10235000D01*
X9255000Y-10275000D02*
X9345000Y-10365000D01*
X9345000Y-10275000D02*
X9255000Y-10365000D01*
X9255000Y-10415000D02*
X9345000Y-10505000D01*
X9345000Y-10415000D02*
X9255000Y-10505000D01*
X9255000Y-10675000D02*
X9345000Y-10765000D01*
X9345000Y-10675000D02*
X9255000Y-10765000D01*
X9255000Y-10025000D02*
X9345000Y-10115000D01*
X9345000Y-10025000D02*
X9255000Y-10115000D01*
X9265000Y-9395000D02*
X9355000Y-9485000D01*
X9355000Y-9395000D02*
X9265000Y-9485000D01*
X9265000Y-9905000D02*
X9355000Y-9995000D01*
X9355000Y-9905000D02*
X9265000Y-9995000D01*
X9265000Y-10545000D02*
X9355000Y-10635000D01*
X9355000Y-10545000D02*
X9265000Y-10635000D01*
X9275000Y-9265000D02*
X9365000Y-9355000D01*
X9365000Y-9265000D02*
X9275000Y-9355000D01*
X9275000Y-9785000D02*
X9365000Y-9875000D01*
X9365000Y-9785000D02*
X9275000Y-9875000D01*
X9285000Y-9015000D02*
X9375000Y-9105000D01*
X9375000Y-9015000D02*
X9285000Y-9105000D01*
X9285000Y-9135000D02*
X9375000Y-9225000D01*
X9375000Y-9135000D02*
X9285000Y-9225000D01*
X9295000Y-8885000D02*
X9385000Y-8975000D01*
X9385000Y-8885000D02*
X9295000Y-8975000D01*
X9315000Y-8605000D02*
X9405000Y-8695000D01*
X9405000Y-8605000D02*
X9315000Y-8695000D01*
X9315000Y-8755000D02*
X9405000Y-8845000D01*
X9405000Y-8755000D02*
X9315000Y-8845000D01*
X9355000Y-8115000D02*
X9445000Y-8205000D01*
X9445000Y-8115000D02*
X9355000Y-8205000D01*
X9355000Y-8295000D02*
X9445000Y-8385000D01*
X9445000Y-8295000D02*
X9355000Y-8385000D01*
X9355000Y-8465000D02*
X9445000Y-8555000D01*
X9445000Y-8465000D02*
X9355000Y-8555000D01*
X9724527Y-9890995D02*
X9814527Y-9980995D01*
X9814527Y-9890995D02*
X9724527Y-9980995D01*
X9725000Y-7990000D02*
X9815000Y-8080000D01*
X9815000Y-7990000D02*
X9725000Y-8080000D01*
X9740000Y-12295000D02*
X9830000Y-12385000D01*
X9830000Y-12295000D02*
X9740000Y-12385000D01*
X9755000Y-8215000D02*
X9845000Y-8305000D01*
X9845000Y-8215000D02*
X9755000Y-8305000D01*
X9759730Y-9720994D02*
X9849730Y-9810994D01*
X9849730Y-9720994D02*
X9759730Y-9810994D01*
X9827395Y-12502605D02*
X9917395Y-12592605D01*
X9917395Y-12502605D02*
X9827395Y-12592605D01*
X9835000Y-10189118D02*
X9925000Y-10279118D01*
X9925000Y-10189118D02*
X9835000Y-10279118D01*
X9835000Y-10696296D02*
X9925000Y-10786296D01*
X9925000Y-10696296D02*
X9835000Y-10786296D01*
X9844061Y-10019117D02*
X9934061Y-10109117D01*
X9934061Y-10019117D02*
X9844061Y-10109117D01*
X9844199Y-10359119D02*
X9934199Y-10449119D01*
X9934199Y-10359119D02*
X9844199Y-10449119D01*
X9845000Y-10866297D02*
X9935000Y-10956297D01*
X9935000Y-10866297D02*
X9845000Y-10956297D01*
X9855000Y-11036298D02*
X9945000Y-11126298D01*
X9945000Y-11036298D02*
X9855000Y-11126298D01*
X9865032Y-11206299D02*
X9955032Y-11296299D01*
X9955032Y-11206299D02*
X9865032Y-11296299D01*
X9868975Y-10466294D02*
X9958975Y-10556294D01*
X9958975Y-10466294D02*
X9868975Y-10556294D01*
X9878069Y-11675197D02*
X9968069Y-11765197D01*
X9968069Y-11675197D02*
X9878069Y-11765197D01*
X9904657Y-12339448D02*
X9994657Y-12429448D01*
X9994657Y-12339448D02*
X9904657Y-12429448D01*
X9908338Y-9438819D02*
X9998338Y-9528819D01*
X9998338Y-9438819D02*
X9908338Y-9528819D01*
X9908489Y-11445195D02*
X9998489Y-11535195D01*
X9998489Y-11445195D02*
X9908489Y-11535195D01*
X9925991Y-9268818D02*
X10015991Y-9358818D01*
X10015991Y-9268818D02*
X9925991Y-9358818D01*
X9959971Y-9098817D02*
X10049971Y-9188817D01*
X10049971Y-9098817D02*
X9959971Y-9188817D01*
X9967837Y-12109445D02*
X10057837Y-12199445D01*
X10057837Y-12109445D02*
X9967837Y-12199445D01*
X9972188Y-8928816D02*
X10062188Y-9018816D01*
X10062188Y-8928816D02*
X9972188Y-9018816D01*
X9989903Y-8758815D02*
X10079903Y-8848815D01*
X10079903Y-8758815D02*
X9989903Y-8848815D01*
X10005368Y-8588814D02*
X10095368Y-8678814D01*
X10095368Y-8588814D02*
X10005368Y-8678814D01*
X10024257Y-8418813D02*
X10114257Y-8508813D01*
X10114257Y-8418813D02*
X10024257Y-8508813D01*
X10025163Y-11941066D02*
X10115163Y-12031066D01*
X10115163Y-11941066D02*
X10025163Y-12031066D01*
X10040860Y-9555256D02*
X10130860Y-9645256D01*
X10130860Y-9555256D02*
X10040860Y-9645256D01*
X10049792Y-8248812D02*
X10139792Y-8338812D01*
X10139792Y-8248812D02*
X10049792Y-8338812D01*
X10057212Y-11348139D02*
X10147212Y-11438139D01*
X10147212Y-11348139D02*
X10057212Y-11438139D01*
X10072032Y-11651063D02*
X10162032Y-11741063D01*
X10162032Y-11651063D02*
X10072032Y-11741063D01*
X10074659Y-12304997D02*
X10164659Y-12394997D01*
X10164659Y-12304997D02*
X10074659Y-12394997D01*
X10075962Y-8078811D02*
X10165962Y-8168811D01*
X10165962Y-8078811D02*
X10075962Y-8168811D01*
X10182670Y-9669999D02*
X10272670Y-9759999D01*
X10272670Y-9669999D02*
X10182670Y-9759999D01*
X11219203Y-8246902D02*
X11309203Y-8336902D01*
X11309203Y-8246902D02*
X11219203Y-8336902D01*
X11362458Y-12369998D02*
X11452458Y-12459998D01*
X11452458Y-12369998D02*
X11362458Y-12459998D01*
X11362854Y-7968066D02*
X11452854Y-8058066D01*
X11452854Y-7968066D02*
X11362854Y-8058066D01*
X11425198Y-8456626D02*
X11515198Y-8546626D01*
X11515198Y-8456626D02*
X11425198Y-8546626D01*
X11449803Y-12213873D02*
X11539803Y-12303873D01*
X11539803Y-12213873D02*
X11449803Y-12303873D01*
X11469730Y-7833128D02*
X11559730Y-7923128D01*
X11559730Y-7833128D02*
X11469730Y-7923128D01*
X11476229Y-8793918D02*
X11566229Y-8883918D01*
X11566229Y-8793918D02*
X11476229Y-8883918D01*
X11482481Y-11873943D02*
X11572481Y-11963943D01*
X11572481Y-11873943D02*
X11482481Y-11963943D01*
X11484881Y-8963920D02*
X11574881Y-9053920D01*
X11574881Y-8963920D02*
X11484881Y-9053920D01*
X11487289Y-8623917D02*
X11577289Y-8713917D01*
X11577289Y-8623917D02*
X11487289Y-8713917D01*
X11489586Y-11533941D02*
X11579586Y-11623941D01*
X11579586Y-11533941D02*
X11489586Y-11623941D01*
X11491835Y-9133921D02*
X11581835Y-9223921D01*
X11581835Y-9133921D02*
X11491835Y-9223921D01*
X11493622Y-11703942D02*
X11583622Y-11793942D01*
X11583622Y-11703942D02*
X11493622Y-11793942D01*
X11494127Y-12043945D02*
X11584127Y-12133945D01*
X11584127Y-12043945D02*
X11494127Y-12133945D01*
X11502784Y-9303922D02*
X11592784Y-9393922D01*
X11592784Y-9303922D02*
X11502784Y-9393922D01*
X11506565Y-9473923D02*
X11596565Y-9563923D01*
X11596565Y-9473923D02*
X11506565Y-9563923D01*
X11511865Y-9643924D02*
X11601865Y-9733924D01*
X11601865Y-9643924D02*
X11511865Y-9733924D01*
X11520324Y-9813925D02*
X11610324Y-9903925D01*
X11610324Y-9813925D02*
X11520324Y-9903925D01*
X11532057Y-9983926D02*
X11622057Y-10073926D01*
X11622057Y-9983926D02*
X11532057Y-10073926D01*
X11535444Y-8320862D02*
X11625444Y-8410862D01*
X11625444Y-8320862D02*
X11535444Y-8410862D01*
X11542487Y-10153928D02*
X11632487Y-10243928D01*
X11632487Y-10153928D02*
X11542487Y-10243928D01*
X11549884Y-10323929D02*
X11639884Y-10413929D01*
X11639884Y-10323929D02*
X11549884Y-10413929D01*
X11564850Y-10553931D02*
X11654850Y-10643931D01*
X11654850Y-10553931D02*
X11564850Y-10643931D01*
X11593113Y-10783933D02*
X11683113Y-10873933D01*
X11683113Y-10783933D02*
X11593113Y-10873933D01*
X11600306Y-10953934D02*
X11690306Y-11043934D01*
X11690306Y-10953934D02*
X11600306Y-11043934D01*
X11606940Y-11123936D02*
X11696940Y-11213935D01*
X11696940Y-11123936D02*
X11606940Y-11213935D01*
X11659818Y-11529502D02*
X11749818Y-11619502D01*
X11749818Y-11529502D02*
X11659818Y-11619502D01*
X11663928Y-11292564D02*
X11753928Y-11382564D01*
X11753928Y-11292564D02*
X11663928Y-11382564D01*
X11672638Y-10598093D02*
X11762638Y-10688093D01*
X11762638Y-10598093D02*
X11672638Y-10688093D01*
X11700223Y-8154777D02*
X11790223Y-8244777D01*
X11790223Y-8154777D02*
X11700223Y-8244777D01*
X12655000Y-8115000D02*
X12745000Y-8205000D01*
X12745000Y-8115000D02*
X12655000Y-8205000D01*
X12655000Y-8242000D02*
X12745000Y-8332000D01*
X12745000Y-8242000D02*
X12655000Y-8332000D01*
X12655000Y-8369000D02*
X12745000Y-8459000D01*
X12745000Y-8369000D02*
X12655000Y-8459000D01*
X12655000Y-8496000D02*
X12745000Y-8586000D01*
X12745000Y-8496000D02*
X12655000Y-8586000D01*
X12655000Y-8623000D02*
X12745000Y-8713000D01*
X12745000Y-8623000D02*
X12655000Y-8713000D01*
X12655000Y-8750000D02*
X12745000Y-8840000D01*
X12745000Y-8750000D02*
X12655000Y-8840000D01*
X12655000Y-8877000D02*
X12745000Y-8967000D01*
X12745000Y-8877000D02*
X12655000Y-8967000D01*
X12655000Y-9004000D02*
X12745000Y-9094000D01*
X12745000Y-9004000D02*
X12655000Y-9094000D01*
X12655000Y-9131000D02*
X12745000Y-9221000D01*
X12745000Y-9131000D02*
X12655000Y-9221000D01*
X12655000Y-9258000D02*
X12745000Y-9348000D01*
X12745000Y-9258000D02*
X12655000Y-9348000D01*
X12655000Y-9385000D02*
X12745000Y-9475000D01*
X12745000Y-9385000D02*
X12655000Y-9475000D01*
X12655000Y-9512000D02*
X12745000Y-9602000D01*
X12745000Y-9512000D02*
X12655000Y-9602000D01*
X12655000Y-9639000D02*
X12745000Y-9729000D01*
X12745000Y-9639000D02*
X12655000Y-9729000D01*
X12655000Y-9766000D02*
X12745000Y-9856000D01*
X12745000Y-9766000D02*
X12655000Y-9856000D01*
X12655000Y-9893000D02*
X12745000Y-9983000D01*
X12745000Y-9893000D02*
X12655000Y-9983000D01*
X12655000Y-10020000D02*
X12745000Y-10110000D01*
X12745000Y-10020000D02*
X12655000Y-10110000D01*
X12655000Y-10147000D02*
X12745000Y-10237000D01*
X12745000Y-10147000D02*
X12655000Y-10237000D01*
X12655000Y-10274000D02*
X12745000Y-10364000D01*
X12745000Y-10274000D02*
X12655000Y-10364000D01*
X12655000Y-10399998D02*
X12745000Y-10489998D01*
X12745000Y-10399998D02*
X12655000Y-10489998D01*
X12655000Y-10509999D02*
X12745000Y-10599999D01*
X12745000Y-10509999D02*
X12655000Y-10599999D01*
X12655000Y-10655000D02*
X12745000Y-10745000D01*
X12745000Y-10655000D02*
X12655000Y-10745000D01*
X12655000Y-10782000D02*
X12745000Y-10872000D01*
X12745000Y-10782000D02*
X12655000Y-10872000D01*
X12655000Y-10909000D02*
X12745000Y-10999000D01*
X12745000Y-10909000D02*
X12655000Y-10999000D01*
X12655000Y-11036000D02*
X12745000Y-11126000D01*
X12745000Y-11036000D02*
X12655000Y-11126000D01*
X12655000Y-11163000D02*
X12745000Y-11253000D01*
X12745000Y-11163000D02*
X12655000Y-11253000D01*
X12655000Y-11290000D02*
X12745000Y-11380000D01*
X12745000Y-11290000D02*
X12655000Y-11380000D01*
X12655000Y-11417000D02*
X12745000Y-11507000D01*
X12745000Y-11417000D02*
X12655000Y-11507000D01*
X12655000Y-11544000D02*
X12745000Y-11634000D01*
X12745000Y-11544000D02*
X12655000Y-11634000D01*
X12655000Y-11671000D02*
X12745000Y-11761000D01*
X12745000Y-11671000D02*
X12655000Y-11761000D01*
X12655000Y-11798000D02*
X12745000Y-11888000D01*
X12745000Y-11798000D02*
X12655000Y-11888000D01*
X12655000Y-11925000D02*
X12745000Y-12015000D01*
X12745000Y-11925000D02*
X12655000Y-12015000D01*
X12655000Y-12052000D02*
X12745000Y-12142000D01*
X12745000Y-12052000D02*
X12655000Y-12142000D01*
X9405000Y-7939000D02*
G75*
G03X9405000Y-7939000I-80000J0D01*
G01*
X9405000Y-12318000D02*
G75*
G03X9405000Y-12318000I-80000J0D01*
G01*
X12505000Y-7939000D02*
G75*
G03X12505000Y-7939000I-80000J0D01*
G01*
X12505000Y-12318000D02*
G75*
G03X12505000Y-12318000I-80000J0D01*
G01*
X9290000Y-13022600D02*
X9290000Y-13327400D01*
X9137600Y-13175000D02*
X9442400Y-13175000D01*
X9940000Y-13027600D02*
X9940000Y-13332400D01*
X9787600Y-13180000D02*
X10092400Y-13180000D01*
X11047385Y-13352385D02*
X11047385Y-12977615D01*
X10672615Y-12977615D01*
X10672615Y-13352385D01*
X11047385Y-13352385D01*
D13*
X9123929Y-14223214D02*
X9123929Y-13923214D01*
X9195357Y-13923214D01*
X9238214Y-13937500D01*
X9266786Y-13966071D01*
X9281071Y-13994643D01*
X9295357Y-14051786D01*
X9295357Y-14094643D01*
X9281071Y-14151786D01*
X9266786Y-14180357D01*
X9238214Y-14208929D01*
X9195357Y-14223214D01*
X9123929Y-14223214D01*
X9423929Y-14223214D02*
X9423929Y-14023214D01*
X9423929Y-14080357D02*
X9438214Y-14051786D01*
X9452500Y-14037500D01*
X9481071Y-14023214D01*
X9509643Y-14023214D01*
X9609643Y-14223214D02*
X9609643Y-14023214D01*
X9609643Y-13923214D02*
X9595357Y-13937500D01*
X9609643Y-13951786D01*
X9623929Y-13937500D01*
X9609643Y-13923214D01*
X9609643Y-13951786D01*
X9795357Y-14223214D02*
X9766786Y-14208929D01*
X9752500Y-14180357D01*
X9752500Y-13923214D01*
X9952500Y-14223214D02*
X9923929Y-14208929D01*
X9909643Y-14180357D01*
X9909643Y-13923214D01*
X10295357Y-14223214D02*
X10295357Y-13923214D01*
X10395357Y-14137500D01*
X10495357Y-13923214D01*
X10495357Y-14223214D01*
X10766786Y-14223214D02*
X10766786Y-14066071D01*
X10752500Y-14037500D01*
X10723929Y-14023214D01*
X10666786Y-14023214D01*
X10638214Y-14037500D01*
X10766786Y-14208929D02*
X10738214Y-14223214D01*
X10666786Y-14223214D01*
X10638214Y-14208929D01*
X10623929Y-14180357D01*
X10623929Y-14151786D01*
X10638214Y-14123214D01*
X10666786Y-14108929D01*
X10738214Y-14108929D01*
X10766786Y-14094643D01*
X10909643Y-14023214D02*
X10909643Y-14323214D01*
X10909643Y-14037500D02*
X10938214Y-14023214D01*
X10995357Y-14023214D01*
X11023929Y-14037500D01*
X11038214Y-14051786D01*
X11052500Y-14080357D01*
X11052500Y-14166071D01*
X11038214Y-14194643D01*
X11023929Y-14208929D01*
X10995357Y-14223214D01*
X10938214Y-14223214D01*
X10909643Y-14208929D01*
X11181071Y-14194643D02*
X11195357Y-14208929D01*
X11181071Y-14223214D01*
X11166786Y-14208929D01*
X11181071Y-14194643D01*
X11181071Y-14223214D01*
X11181071Y-14037500D02*
X11195357Y-14051786D01*
X11181071Y-14066071D01*
X11166786Y-14051786D01*
X11181071Y-14037500D01*
X11181071Y-14066071D01*
X8762500Y-14672500D02*
X8852500Y-14762500D01*
X8852500Y-14672500D02*
X8762500Y-14762500D01*
X9181071Y-14553214D02*
X9209643Y-14553214D01*
X9238214Y-14567500D01*
X9252500Y-14581786D01*
X9266786Y-14610357D01*
X9281071Y-14667500D01*
X9281071Y-14738929D01*
X9266786Y-14796071D01*
X9252500Y-14824643D01*
X9238214Y-14838929D01*
X9209643Y-14853214D01*
X9181071Y-14853214D01*
X9152500Y-14838929D01*
X9138214Y-14824643D01*
X9123929Y-14796071D01*
X9109643Y-14738929D01*
X9109643Y-14667500D01*
X9123929Y-14610357D01*
X9138214Y-14581786D01*
X9152500Y-14567500D01*
X9181071Y-14553214D01*
X9409643Y-14824643D02*
X9423929Y-14838929D01*
X9409643Y-14853214D01*
X9395357Y-14838929D01*
X9409643Y-14824643D01*
X9409643Y-14853214D01*
X9566786Y-14853214D02*
X9623928Y-14853214D01*
X9652500Y-14838929D01*
X9666786Y-14824643D01*
X9695357Y-14781786D01*
X9709643Y-14724643D01*
X9709643Y-14610357D01*
X9695357Y-14581786D01*
X9681071Y-14567500D01*
X9652500Y-14553214D01*
X9595357Y-14553214D01*
X9566786Y-14567500D01*
X9552500Y-14581786D01*
X9538214Y-14610357D01*
X9538214Y-14681786D01*
X9552500Y-14710357D01*
X9566786Y-14724643D01*
X9595357Y-14738929D01*
X9652500Y-14738929D01*
X9681071Y-14724643D01*
X9695357Y-14710357D01*
X9709643Y-14681786D01*
X9895357Y-14553214D02*
X9923929Y-14553214D01*
X9952500Y-14567500D01*
X9966786Y-14581786D01*
X9981071Y-14610357D01*
X9995357Y-14667500D01*
X9995357Y-14738929D01*
X9981071Y-14796071D01*
X9966786Y-14824643D01*
X9952500Y-14838929D01*
X9923929Y-14853214D01*
X9895357Y-14853214D01*
X9866786Y-14838929D01*
X9852500Y-14824643D01*
X9838214Y-14796071D01*
X9823929Y-14738929D01*
X9823929Y-14667500D01*
X9838214Y-14610357D01*
X9852500Y-14581786D01*
X9866786Y-14567500D01*
X9895357Y-14553214D01*
X10123929Y-14853214D02*
X10123929Y-14653214D01*
X10123929Y-14681786D02*
X10138214Y-14667500D01*
X10166786Y-14653214D01*
X10209643Y-14653214D01*
X10238214Y-14667500D01*
X10252500Y-14696071D01*
X10252500Y-14853214D01*
X10252500Y-14696071D02*
X10266786Y-14667500D01*
X10295357Y-14653214D01*
X10338214Y-14653214D01*
X10366786Y-14667500D01*
X10381071Y-14696071D01*
X10381071Y-14853214D01*
X10523929Y-14853214D02*
X10523929Y-14653214D01*
X10523929Y-14681786D02*
X10538214Y-14667500D01*
X10566786Y-14653214D01*
X10609643Y-14653214D01*
X10638214Y-14667500D01*
X10652500Y-14696071D01*
X10652500Y-14853214D01*
X10652500Y-14696071D02*
X10666786Y-14667500D01*
X10695357Y-14653214D01*
X10738214Y-14653214D01*
X10766786Y-14667500D01*
X10781071Y-14696071D01*
X10781071Y-14853214D01*
X11366786Y-14538929D02*
X11109643Y-14924643D01*
X11752500Y-14553214D02*
X11781071Y-14553214D01*
X11809643Y-14567500D01*
X11823928Y-14581786D01*
X11838214Y-14610357D01*
X11852500Y-14667500D01*
X11852500Y-14738929D01*
X11838214Y-14796071D01*
X11823928Y-14824643D01*
X11809643Y-14838929D01*
X11781071Y-14853214D01*
X11752500Y-14853214D01*
X11723928Y-14838929D01*
X11709643Y-14824643D01*
X11695357Y-14796071D01*
X11681071Y-14738929D01*
X11681071Y-14667500D01*
X11695357Y-14610357D01*
X11709643Y-14581786D01*
X11723928Y-14567500D01*
X11752500Y-14553214D01*
X11981071Y-14824643D02*
X11995357Y-14838929D01*
X11981071Y-14853214D01*
X11966786Y-14838929D01*
X11981071Y-14824643D01*
X11981071Y-14853214D01*
X12181071Y-14553214D02*
X12209643Y-14553214D01*
X12238214Y-14567500D01*
X12252500Y-14581786D01*
X12266785Y-14610357D01*
X12281071Y-14667500D01*
X12281071Y-14738929D01*
X12266785Y-14796071D01*
X12252500Y-14824643D01*
X12238214Y-14838929D01*
X12209643Y-14853214D01*
X12181071Y-14853214D01*
X12152500Y-14838929D01*
X12138214Y-14824643D01*
X12123928Y-14796071D01*
X12109643Y-14738929D01*
X12109643Y-14667500D01*
X12123928Y-14610357D01*
X12138214Y-14581786D01*
X12152500Y-14567500D01*
X12181071Y-14553214D01*
X12381071Y-14553214D02*
X12566785Y-14553214D01*
X12466785Y-14667500D01*
X12509643Y-14667500D01*
X12538214Y-14681786D01*
X12552500Y-14696071D01*
X12566785Y-14724643D01*
X12566785Y-14796071D01*
X12552500Y-14824643D01*
X12538214Y-14838929D01*
X12509643Y-14853214D01*
X12423928Y-14853214D01*
X12395357Y-14838929D01*
X12381071Y-14824643D01*
X12838214Y-14553214D02*
X12695357Y-14553214D01*
X12681071Y-14696071D01*
X12695357Y-14681786D01*
X12723928Y-14667500D01*
X12795357Y-14667500D01*
X12823928Y-14681786D01*
X12838214Y-14696071D01*
X12852500Y-14724643D01*
X12852500Y-14796071D01*
X12838214Y-14824643D01*
X12823928Y-14838929D01*
X12795357Y-14853214D01*
X12723928Y-14853214D01*
X12695357Y-14838929D01*
X12681071Y-14824643D01*
X12966786Y-14553214D02*
X12966786Y-14610357D01*
X13081071Y-14553214D02*
X13081071Y-14610357D01*
X13523928Y-14967500D02*
X13509643Y-14953214D01*
X13481071Y-14910357D01*
X13466785Y-14881786D01*
X13452500Y-14838929D01*
X13438214Y-14767500D01*
X13438214Y-14710357D01*
X13452500Y-14638929D01*
X13466785Y-14596071D01*
X13481071Y-14567500D01*
X13509643Y-14524643D01*
X13523928Y-14510357D01*
X13795357Y-14853214D02*
X13623928Y-14853214D01*
X13709643Y-14853214D02*
X13709643Y-14553214D01*
X13681071Y-14596071D01*
X13652500Y-14624643D01*
X13623928Y-14638929D01*
X13909643Y-14581786D02*
X13923928Y-14567500D01*
X13952500Y-14553214D01*
X14023928Y-14553214D01*
X14052500Y-14567500D01*
X14066785Y-14581786D01*
X14081071Y-14610357D01*
X14081071Y-14638929D01*
X14066785Y-14681786D01*
X13895357Y-14853214D01*
X14081071Y-14853214D01*
X14338214Y-14553214D02*
X14281071Y-14553214D01*
X14252500Y-14567500D01*
X14238214Y-14581786D01*
X14209643Y-14624643D01*
X14195357Y-14681786D01*
X14195357Y-14796071D01*
X14209643Y-14824643D01*
X14223928Y-14838929D01*
X14252500Y-14853214D01*
X14309643Y-14853214D01*
X14338214Y-14838929D01*
X14352500Y-14824643D01*
X14366785Y-14796071D01*
X14366785Y-14724643D01*
X14352500Y-14696071D01*
X14338214Y-14681786D01*
X14309643Y-14667500D01*
X14252500Y-14667500D01*
X14223928Y-14681786D01*
X14209643Y-14696071D01*
X14195357Y-14724643D01*
X14723928Y-14853214D02*
X14723928Y-14553214D01*
X14852500Y-14853214D02*
X14852500Y-14696071D01*
X14838214Y-14667500D01*
X14809643Y-14653214D01*
X14766785Y-14653214D01*
X14738214Y-14667500D01*
X14723928Y-14681786D01*
X15038214Y-14853214D02*
X15009643Y-14838929D01*
X14995357Y-14824643D01*
X14981071Y-14796071D01*
X14981071Y-14710357D01*
X14995357Y-14681786D01*
X15009643Y-14667500D01*
X15038214Y-14653214D01*
X15081071Y-14653214D01*
X15109643Y-14667500D01*
X15123928Y-14681786D01*
X15138214Y-14710357D01*
X15138214Y-14796071D01*
X15123928Y-14824643D01*
X15109643Y-14838929D01*
X15081071Y-14853214D01*
X15038214Y-14853214D01*
X15309643Y-14853214D02*
X15281071Y-14838929D01*
X15266786Y-14810357D01*
X15266786Y-14553214D01*
X15538214Y-14838929D02*
X15509643Y-14853214D01*
X15452500Y-14853214D01*
X15423928Y-14838929D01*
X15409643Y-14810357D01*
X15409643Y-14696071D01*
X15423928Y-14667500D01*
X15452500Y-14653214D01*
X15509643Y-14653214D01*
X15538214Y-14667500D01*
X15552500Y-14696071D01*
X15552500Y-14724643D01*
X15409643Y-14753214D01*
X15666786Y-14838929D02*
X15695357Y-14853214D01*
X15752500Y-14853214D01*
X15781071Y-14838929D01*
X15795357Y-14810357D01*
X15795357Y-14796071D01*
X15781071Y-14767500D01*
X15752500Y-14753214D01*
X15709643Y-14753214D01*
X15681071Y-14738929D01*
X15666786Y-14710357D01*
X15666786Y-14696071D01*
X15681071Y-14667500D01*
X15709643Y-14653214D01*
X15752500Y-14653214D01*
X15781071Y-14667500D01*
X15895357Y-14967500D02*
X15909643Y-14953214D01*
X15938214Y-14910357D01*
X15952500Y-14881786D01*
X15966786Y-14838929D01*
X15981071Y-14767500D01*
X15981071Y-14710357D01*
X15966786Y-14638929D01*
X15952500Y-14596071D01*
X15938214Y-14567500D01*
X15909643Y-14524643D01*
X15895357Y-14510357D01*
X8852500Y-15113500D02*
G75*
G03X8852500Y-15113500I-80000J0D01*
G01*
X9281071Y-15249214D02*
X9109643Y-15249214D01*
X9195357Y-15249214D02*
X9195357Y-14949214D01*
X9166786Y-14992071D01*
X9138214Y-15020643D01*
X9109643Y-15034929D01*
X9409643Y-15220643D02*
X9423929Y-15234929D01*
X9409643Y-15249214D01*
X9395357Y-15234929D01*
X9409643Y-15220643D01*
X9409643Y-15249214D01*
X9681071Y-14949214D02*
X9623928Y-14949214D01*
X9595357Y-14963500D01*
X9581071Y-14977786D01*
X9552500Y-15020643D01*
X9538214Y-15077786D01*
X9538214Y-15192071D01*
X9552500Y-15220643D01*
X9566786Y-15234929D01*
X9595357Y-15249214D01*
X9652500Y-15249214D01*
X9681071Y-15234929D01*
X9695357Y-15220643D01*
X9709643Y-15192071D01*
X9709643Y-15120643D01*
X9695357Y-15092071D01*
X9681071Y-15077786D01*
X9652500Y-15063500D01*
X9595357Y-15063500D01*
X9566786Y-15077786D01*
X9552500Y-15092071D01*
X9538214Y-15120643D01*
X9895357Y-14949214D02*
X9923929Y-14949214D01*
X9952500Y-14963500D01*
X9966786Y-14977786D01*
X9981071Y-15006357D01*
X9995357Y-15063500D01*
X9995357Y-15134929D01*
X9981071Y-15192071D01*
X9966786Y-15220643D01*
X9952500Y-15234929D01*
X9923929Y-15249214D01*
X9895357Y-15249214D01*
X9866786Y-15234929D01*
X9852500Y-15220643D01*
X9838214Y-15192071D01*
X9823929Y-15134929D01*
X9823929Y-15063500D01*
X9838214Y-15006357D01*
X9852500Y-14977786D01*
X9866786Y-14963500D01*
X9895357Y-14949214D01*
X10123929Y-15249214D02*
X10123929Y-15049214D01*
X10123929Y-15077786D02*
X10138214Y-15063500D01*
X10166786Y-15049214D01*
X10209643Y-15049214D01*
X10238214Y-15063500D01*
X10252500Y-15092071D01*
X10252500Y-15249214D01*
X10252500Y-15092071D02*
X10266786Y-15063500D01*
X10295357Y-15049214D01*
X10338214Y-15049214D01*
X10366786Y-15063500D01*
X10381071Y-15092071D01*
X10381071Y-15249214D01*
X10523929Y-15249214D02*
X10523929Y-15049214D01*
X10523929Y-15077786D02*
X10538214Y-15063500D01*
X10566786Y-15049214D01*
X10609643Y-15049214D01*
X10638214Y-15063500D01*
X10652500Y-15092071D01*
X10652500Y-15249214D01*
X10652500Y-15092071D02*
X10666786Y-15063500D01*
X10695357Y-15049214D01*
X10738214Y-15049214D01*
X10766786Y-15063500D01*
X10781071Y-15092071D01*
X10781071Y-15249214D01*
X11366786Y-14934929D02*
X11109643Y-15320643D01*
X11752500Y-14949214D02*
X11781071Y-14949214D01*
X11809643Y-14963500D01*
X11823928Y-14977786D01*
X11838214Y-15006357D01*
X11852500Y-15063500D01*
X11852500Y-15134929D01*
X11838214Y-15192071D01*
X11823928Y-15220643D01*
X11809643Y-15234929D01*
X11781071Y-15249214D01*
X11752500Y-15249214D01*
X11723928Y-15234929D01*
X11709643Y-15220643D01*
X11695357Y-15192071D01*
X11681071Y-15134929D01*
X11681071Y-15063500D01*
X11695357Y-15006357D01*
X11709643Y-14977786D01*
X11723928Y-14963500D01*
X11752500Y-14949214D01*
X11981071Y-15220643D02*
X11995357Y-15234929D01*
X11981071Y-15249214D01*
X11966786Y-15234929D01*
X11981071Y-15220643D01*
X11981071Y-15249214D01*
X12181071Y-14949214D02*
X12209643Y-14949214D01*
X12238214Y-14963500D01*
X12252500Y-14977786D01*
X12266785Y-15006357D01*
X12281071Y-15063500D01*
X12281071Y-15134929D01*
X12266785Y-15192071D01*
X12252500Y-15220643D01*
X12238214Y-15234929D01*
X12209643Y-15249214D01*
X12181071Y-15249214D01*
X12152500Y-15234929D01*
X12138214Y-15220643D01*
X12123928Y-15192071D01*
X12109643Y-15134929D01*
X12109643Y-15063500D01*
X12123928Y-15006357D01*
X12138214Y-14977786D01*
X12152500Y-14963500D01*
X12181071Y-14949214D01*
X12538214Y-14949214D02*
X12481071Y-14949214D01*
X12452500Y-14963500D01*
X12438214Y-14977786D01*
X12409643Y-15020643D01*
X12395357Y-15077786D01*
X12395357Y-15192071D01*
X12409643Y-15220643D01*
X12423928Y-15234929D01*
X12452500Y-15249214D01*
X12509643Y-15249214D01*
X12538214Y-15234929D01*
X12552500Y-15220643D01*
X12566785Y-15192071D01*
X12566785Y-15120643D01*
X12552500Y-15092071D01*
X12538214Y-15077786D01*
X12509643Y-15063500D01*
X12452500Y-15063500D01*
X12423928Y-15077786D01*
X12409643Y-15092071D01*
X12395357Y-15120643D01*
X12666785Y-14949214D02*
X12852500Y-14949214D01*
X12752500Y-15063500D01*
X12795357Y-15063500D01*
X12823928Y-15077786D01*
X12838214Y-15092071D01*
X12852500Y-15120643D01*
X12852500Y-15192071D01*
X12838214Y-15220643D01*
X12823928Y-15234929D01*
X12795357Y-15249214D01*
X12709643Y-15249214D01*
X12681071Y-15234929D01*
X12666785Y-15220643D01*
X12966786Y-14949214D02*
X12966786Y-15006357D01*
X13081071Y-14949214D02*
X13081071Y-15006357D01*
X13523928Y-15363500D02*
X13509643Y-15349214D01*
X13481071Y-15306357D01*
X13466785Y-15277786D01*
X13452500Y-15234929D01*
X13438214Y-15163500D01*
X13438214Y-15106357D01*
X13452500Y-15034929D01*
X13466785Y-14992071D01*
X13481071Y-14963500D01*
X13509643Y-14920643D01*
X13523928Y-14906357D01*
X13766785Y-15049214D02*
X13766785Y-15249214D01*
X13695357Y-14934929D02*
X13623928Y-15149214D01*
X13809643Y-15149214D01*
X14152500Y-15249214D02*
X14152500Y-14949214D01*
X14281071Y-15249214D02*
X14281071Y-15092071D01*
X14266785Y-15063500D01*
X14238214Y-15049214D01*
X14195357Y-15049214D01*
X14166785Y-15063500D01*
X14152500Y-15077786D01*
X14466785Y-15249214D02*
X14438214Y-15234929D01*
X14423928Y-15220643D01*
X14409643Y-15192071D01*
X14409643Y-15106357D01*
X14423928Y-15077786D01*
X14438214Y-15063500D01*
X14466785Y-15049214D01*
X14509643Y-15049214D01*
X14538214Y-15063500D01*
X14552500Y-15077786D01*
X14566785Y-15106357D01*
X14566785Y-15192071D01*
X14552500Y-15220643D01*
X14538214Y-15234929D01*
X14509643Y-15249214D01*
X14466785Y-15249214D01*
X14738214Y-15249214D02*
X14709643Y-15234929D01*
X14695357Y-15206357D01*
X14695357Y-14949214D01*
X14966786Y-15234929D02*
X14938214Y-15249214D01*
X14881071Y-15249214D01*
X14852500Y-15234929D01*
X14838214Y-15206357D01*
X14838214Y-15092071D01*
X14852500Y-15063500D01*
X14881071Y-15049214D01*
X14938214Y-15049214D01*
X14966786Y-15063500D01*
X14981071Y-15092071D01*
X14981071Y-15120643D01*
X14838214Y-15149214D01*
X15095357Y-15234929D02*
X15123928Y-15249214D01*
X15181071Y-15249214D01*
X15209643Y-15234929D01*
X15223928Y-15206357D01*
X15223928Y-15192071D01*
X15209643Y-15163500D01*
X15181071Y-15149214D01*
X15138214Y-15149214D01*
X15109643Y-15134929D01*
X15095357Y-15106357D01*
X15095357Y-15092071D01*
X15109643Y-15063500D01*
X15138214Y-15049214D01*
X15181071Y-15049214D01*
X15209643Y-15063500D01*
X15323928Y-15363500D02*
X15338214Y-15349214D01*
X15366786Y-15306357D01*
X15381071Y-15277786D01*
X15395357Y-15234929D01*
X15409643Y-15163500D01*
X15409643Y-15106357D01*
X15395357Y-15034929D01*
X15381071Y-14992071D01*
X15366786Y-14963500D01*
X15338214Y-14920643D01*
X15323928Y-14906357D01*
X8700100Y-15357100D02*
X8700100Y-15661900D01*
X8547700Y-15509500D02*
X8852500Y-15509500D01*
X9095357Y-15345214D02*
X9281071Y-15345214D01*
X9181071Y-15459500D01*
X9223929Y-15459500D01*
X9252500Y-15473786D01*
X9266786Y-15488071D01*
X9281071Y-15516643D01*
X9281071Y-15588071D01*
X9266786Y-15616643D01*
X9252500Y-15630929D01*
X9223929Y-15645214D01*
X9138214Y-15645214D01*
X9109643Y-15630929D01*
X9095357Y-15616643D01*
X9409643Y-15616643D02*
X9423929Y-15630929D01*
X9409643Y-15645214D01*
X9395357Y-15630929D01*
X9409643Y-15616643D01*
X9409643Y-15645214D01*
X9609643Y-15345214D02*
X9638214Y-15345214D01*
X9666786Y-15359500D01*
X9681071Y-15373786D01*
X9695357Y-15402357D01*
X9709643Y-15459500D01*
X9709643Y-15530929D01*
X9695357Y-15588071D01*
X9681071Y-15616643D01*
X9666786Y-15630929D01*
X9638214Y-15645214D01*
X9609643Y-15645214D01*
X9581071Y-15630929D01*
X9566786Y-15616643D01*
X9552500Y-15588071D01*
X9538214Y-15530929D01*
X9538214Y-15459500D01*
X9552500Y-15402357D01*
X9566786Y-15373786D01*
X9581071Y-15359500D01*
X9609643Y-15345214D01*
X9981071Y-15345214D02*
X9838214Y-15345214D01*
X9823929Y-15488071D01*
X9838214Y-15473786D01*
X9866786Y-15459500D01*
X9938214Y-15459500D01*
X9966786Y-15473786D01*
X9981071Y-15488071D01*
X9995357Y-15516643D01*
X9995357Y-15588071D01*
X9981071Y-15616643D01*
X9966786Y-15630929D01*
X9938214Y-15645214D01*
X9866786Y-15645214D01*
X9838214Y-15630929D01*
X9823929Y-15616643D01*
X10123929Y-15645214D02*
X10123929Y-15445214D01*
X10123929Y-15473786D02*
X10138214Y-15459500D01*
X10166786Y-15445214D01*
X10209643Y-15445214D01*
X10238214Y-15459500D01*
X10252500Y-15488071D01*
X10252500Y-15645214D01*
X10252500Y-15488071D02*
X10266786Y-15459500D01*
X10295357Y-15445214D01*
X10338214Y-15445214D01*
X10366786Y-15459500D01*
X10381071Y-15488071D01*
X10381071Y-15645214D01*
X10523929Y-15645214D02*
X10523929Y-15445214D01*
X10523929Y-15473786D02*
X10538214Y-15459500D01*
X10566786Y-15445214D01*
X10609643Y-15445214D01*
X10638214Y-15459500D01*
X10652500Y-15488071D01*
X10652500Y-15645214D01*
X10652500Y-15488071D02*
X10666786Y-15459500D01*
X10695357Y-15445214D01*
X10738214Y-15445214D01*
X10766786Y-15459500D01*
X10781071Y-15488071D01*
X10781071Y-15645214D01*
X11366786Y-15330929D02*
X11109643Y-15716643D01*
X11752500Y-15345214D02*
X11781071Y-15345214D01*
X11809643Y-15359500D01*
X11823928Y-15373786D01*
X11838214Y-15402357D01*
X11852500Y-15459500D01*
X11852500Y-15530929D01*
X11838214Y-15588071D01*
X11823928Y-15616643D01*
X11809643Y-15630929D01*
X11781071Y-15645214D01*
X11752500Y-15645214D01*
X11723928Y-15630929D01*
X11709643Y-15616643D01*
X11695357Y-15588071D01*
X11681071Y-15530929D01*
X11681071Y-15459500D01*
X11695357Y-15402357D01*
X11709643Y-15373786D01*
X11723928Y-15359500D01*
X11752500Y-15345214D01*
X11981071Y-15616643D02*
X11995357Y-15630929D01*
X11981071Y-15645214D01*
X11966786Y-15630929D01*
X11981071Y-15616643D01*
X11981071Y-15645214D01*
X12281071Y-15645214D02*
X12109643Y-15645214D01*
X12195357Y-15645214D02*
X12195357Y-15345214D01*
X12166785Y-15388071D01*
X12138214Y-15416643D01*
X12109643Y-15430929D01*
X12395357Y-15373786D02*
X12409643Y-15359500D01*
X12438214Y-15345214D01*
X12509643Y-15345214D01*
X12538214Y-15359500D01*
X12552500Y-15373786D01*
X12566785Y-15402357D01*
X12566785Y-15430929D01*
X12552500Y-15473786D01*
X12381071Y-15645214D01*
X12566785Y-15645214D01*
X12752500Y-15345214D02*
X12781071Y-15345214D01*
X12809643Y-15359500D01*
X12823928Y-15373786D01*
X12838214Y-15402357D01*
X12852500Y-15459500D01*
X12852500Y-15530929D01*
X12838214Y-15588071D01*
X12823928Y-15616643D01*
X12809643Y-15630929D01*
X12781071Y-15645214D01*
X12752500Y-15645214D01*
X12723928Y-15630929D01*
X12709643Y-15616643D01*
X12695357Y-15588071D01*
X12681071Y-15530929D01*
X12681071Y-15459500D01*
X12695357Y-15402357D01*
X12709643Y-15373786D01*
X12723928Y-15359500D01*
X12752500Y-15345214D01*
X12966786Y-15345214D02*
X12966786Y-15402357D01*
X13081071Y-15345214D02*
X13081071Y-15402357D01*
X13523928Y-15759500D02*
X13509643Y-15745214D01*
X13481071Y-15702357D01*
X13466785Y-15673786D01*
X13452500Y-15630929D01*
X13438214Y-15559500D01*
X13438214Y-15502357D01*
X13452500Y-15430929D01*
X13466785Y-15388071D01*
X13481071Y-15359500D01*
X13509643Y-15316643D01*
X13523928Y-15302357D01*
X13623928Y-15373786D02*
X13638214Y-15359500D01*
X13666785Y-15345214D01*
X13738214Y-15345214D01*
X13766785Y-15359500D01*
X13781071Y-15373786D01*
X13795357Y-15402357D01*
X13795357Y-15430929D01*
X13781071Y-15473786D01*
X13609643Y-15645214D01*
X13795357Y-15645214D01*
X14152500Y-15645214D02*
X14152500Y-15345214D01*
X14281071Y-15645214D02*
X14281071Y-15488071D01*
X14266785Y-15459500D01*
X14238214Y-15445214D01*
X14195357Y-15445214D01*
X14166785Y-15459500D01*
X14152500Y-15473786D01*
X14466785Y-15645214D02*
X14438214Y-15630929D01*
X14423928Y-15616643D01*
X14409643Y-15588071D01*
X14409643Y-15502357D01*
X14423928Y-15473786D01*
X14438214Y-15459500D01*
X14466785Y-15445214D01*
X14509643Y-15445214D01*
X14538214Y-15459500D01*
X14552500Y-15473786D01*
X14566785Y-15502357D01*
X14566785Y-15588071D01*
X14552500Y-15616643D01*
X14538214Y-15630929D01*
X14509643Y-15645214D01*
X14466785Y-15645214D01*
X14738214Y-15645214D02*
X14709643Y-15630929D01*
X14695357Y-15602357D01*
X14695357Y-15345214D01*
X14966786Y-15630929D02*
X14938214Y-15645214D01*
X14881071Y-15645214D01*
X14852500Y-15630929D01*
X14838214Y-15602357D01*
X14838214Y-15488071D01*
X14852500Y-15459500D01*
X14881071Y-15445214D01*
X14938214Y-15445214D01*
X14966786Y-15459500D01*
X14981071Y-15488071D01*
X14981071Y-15516643D01*
X14838214Y-15545214D01*
X15095357Y-15630929D02*
X15123928Y-15645214D01*
X15181071Y-15645214D01*
X15209643Y-15630929D01*
X15223928Y-15602357D01*
X15223928Y-15588071D01*
X15209643Y-15559500D01*
X15181071Y-15545214D01*
X15138214Y-15545214D01*
X15109643Y-15530929D01*
X15095357Y-15502357D01*
X15095357Y-15488071D01*
X15109643Y-15459500D01*
X15138214Y-15445214D01*
X15181071Y-15445214D01*
X15209643Y-15459500D01*
X15323928Y-15759500D02*
X15338214Y-15745214D01*
X15366786Y-15702357D01*
X15381071Y-15673786D01*
X15395357Y-15630929D01*
X15409643Y-15559500D01*
X15409643Y-15502357D01*
X15395357Y-15430929D01*
X15381071Y-15388071D01*
X15366786Y-15359500D01*
X15338214Y-15316643D01*
X15323928Y-15302357D01*
X8774885Y-16131685D02*
X8774885Y-15756915D01*
X8400115Y-15756915D01*
X8400115Y-16131685D01*
X8774885Y-16131685D01*
X9266786Y-15780014D02*
X9123929Y-15780014D01*
X9109643Y-15922871D01*
X9123929Y-15908586D01*
X9152500Y-15894300D01*
X9223929Y-15894300D01*
X9252500Y-15908586D01*
X9266786Y-15922871D01*
X9281071Y-15951443D01*
X9281071Y-16022871D01*
X9266786Y-16051443D01*
X9252500Y-16065729D01*
X9223929Y-16080014D01*
X9152500Y-16080014D01*
X9123929Y-16065729D01*
X9109643Y-16051443D01*
X9409643Y-16051443D02*
X9423929Y-16065729D01*
X9409643Y-16080014D01*
X9395357Y-16065729D01*
X9409643Y-16051443D01*
X9409643Y-16080014D01*
X9523928Y-15780014D02*
X9709643Y-15780014D01*
X9609643Y-15894300D01*
X9652500Y-15894300D01*
X9681071Y-15908586D01*
X9695357Y-15922871D01*
X9709643Y-15951443D01*
X9709643Y-16022871D01*
X9695357Y-16051443D01*
X9681071Y-16065729D01*
X9652500Y-16080014D01*
X9566786Y-16080014D01*
X9538214Y-16065729D01*
X9523928Y-16051443D01*
X9895357Y-15780014D02*
X9923929Y-15780014D01*
X9952500Y-15794300D01*
X9966786Y-15808586D01*
X9981071Y-15837157D01*
X9995357Y-15894300D01*
X9995357Y-15965729D01*
X9981071Y-16022871D01*
X9966786Y-16051443D01*
X9952500Y-16065729D01*
X9923929Y-16080014D01*
X9895357Y-16080014D01*
X9866786Y-16065729D01*
X9852500Y-16051443D01*
X9838214Y-16022871D01*
X9823929Y-15965729D01*
X9823929Y-15894300D01*
X9838214Y-15837157D01*
X9852500Y-15808586D01*
X9866786Y-15794300D01*
X9895357Y-15780014D01*
X10123929Y-16080014D02*
X10123929Y-15880014D01*
X10123929Y-15908586D02*
X10138214Y-15894300D01*
X10166786Y-15880014D01*
X10209643Y-15880014D01*
X10238214Y-15894300D01*
X10252500Y-15922871D01*
X10252500Y-16080014D01*
X10252500Y-15922871D02*
X10266786Y-15894300D01*
X10295357Y-15880014D01*
X10338214Y-15880014D01*
X10366786Y-15894300D01*
X10381071Y-15922871D01*
X10381071Y-16080014D01*
X10523929Y-16080014D02*
X10523929Y-15880014D01*
X10523929Y-15908586D02*
X10538214Y-15894300D01*
X10566786Y-15880014D01*
X10609643Y-15880014D01*
X10638214Y-15894300D01*
X10652500Y-15922871D01*
X10652500Y-16080014D01*
X10652500Y-15922871D02*
X10666786Y-15894300D01*
X10695357Y-15880014D01*
X10738214Y-15880014D01*
X10766786Y-15894300D01*
X10781071Y-15922871D01*
X10781071Y-16080014D01*
X11366786Y-15765729D02*
X11109643Y-16151443D01*
X11752500Y-15780014D02*
X11781071Y-15780014D01*
X11809643Y-15794300D01*
X11823928Y-15808586D01*
X11838214Y-15837157D01*
X11852500Y-15894300D01*
X11852500Y-15965729D01*
X11838214Y-16022871D01*
X11823928Y-16051443D01*
X11809643Y-16065729D01*
X11781071Y-16080014D01*
X11752500Y-16080014D01*
X11723928Y-16065729D01*
X11709643Y-16051443D01*
X11695357Y-16022871D01*
X11681071Y-15965729D01*
X11681071Y-15894300D01*
X11695357Y-15837157D01*
X11709643Y-15808586D01*
X11723928Y-15794300D01*
X11752500Y-15780014D01*
X11981071Y-16051443D02*
X11995357Y-16065729D01*
X11981071Y-16080014D01*
X11966786Y-16065729D01*
X11981071Y-16051443D01*
X11981071Y-16080014D01*
X12109643Y-15808586D02*
X12123928Y-15794300D01*
X12152500Y-15780014D01*
X12223928Y-15780014D01*
X12252500Y-15794300D01*
X12266785Y-15808586D01*
X12281071Y-15837157D01*
X12281071Y-15865729D01*
X12266785Y-15908586D01*
X12095357Y-16080014D01*
X12281071Y-16080014D01*
X12466785Y-15780014D02*
X12495357Y-15780014D01*
X12523928Y-15794300D01*
X12538214Y-15808586D01*
X12552500Y-15837157D01*
X12566785Y-15894300D01*
X12566785Y-15965729D01*
X12552500Y-16022871D01*
X12538214Y-16051443D01*
X12523928Y-16065729D01*
X12495357Y-16080014D01*
X12466785Y-16080014D01*
X12438214Y-16065729D01*
X12423928Y-16051443D01*
X12409643Y-16022871D01*
X12395357Y-15965729D01*
X12395357Y-15894300D01*
X12409643Y-15837157D01*
X12423928Y-15808586D01*
X12438214Y-15794300D01*
X12466785Y-15780014D01*
X12709643Y-16080014D02*
X12766785Y-16080014D01*
X12795357Y-16065729D01*
X12809643Y-16051443D01*
X12838214Y-16008586D01*
X12852500Y-15951443D01*
X12852500Y-15837157D01*
X12838214Y-15808586D01*
X12823928Y-15794300D01*
X12795357Y-15780014D01*
X12738214Y-15780014D01*
X12709643Y-15794300D01*
X12695357Y-15808586D01*
X12681071Y-15837157D01*
X12681071Y-15908586D01*
X12695357Y-15937157D01*
X12709643Y-15951443D01*
X12738214Y-15965729D01*
X12795357Y-15965729D01*
X12823928Y-15951443D01*
X12838214Y-15937157D01*
X12852500Y-15908586D01*
X12966786Y-15780014D02*
X12966786Y-15837157D01*
X13081071Y-15780014D02*
X13081071Y-15837157D01*
X13523928Y-16194300D02*
X13509643Y-16180014D01*
X13481071Y-16137157D01*
X13466785Y-16108586D01*
X13452500Y-16065729D01*
X13438214Y-15994300D01*
X13438214Y-15937157D01*
X13452500Y-15865729D01*
X13466785Y-15822871D01*
X13481071Y-15794300D01*
X13509643Y-15751443D01*
X13523928Y-15737157D01*
X13795357Y-16080014D02*
X13623928Y-16080014D01*
X13709643Y-16080014D02*
X13709643Y-15780014D01*
X13681071Y-15822871D01*
X13652500Y-15851443D01*
X13623928Y-15865729D01*
X14152500Y-16080014D02*
X14152500Y-15780014D01*
X14281071Y-16080014D02*
X14281071Y-15922871D01*
X14266785Y-15894300D01*
X14238214Y-15880014D01*
X14195357Y-15880014D01*
X14166785Y-15894300D01*
X14152500Y-15908586D01*
X14466785Y-16080014D02*
X14438214Y-16065729D01*
X14423928Y-16051443D01*
X14409643Y-16022871D01*
X14409643Y-15937157D01*
X14423928Y-15908586D01*
X14438214Y-15894300D01*
X14466785Y-15880014D01*
X14509643Y-15880014D01*
X14538214Y-15894300D01*
X14552500Y-15908586D01*
X14566785Y-15937157D01*
X14566785Y-16022871D01*
X14552500Y-16051443D01*
X14538214Y-16065729D01*
X14509643Y-16080014D01*
X14466785Y-16080014D01*
X14738214Y-16080014D02*
X14709643Y-16065729D01*
X14695357Y-16037157D01*
X14695357Y-15780014D01*
X14966786Y-16065729D02*
X14938214Y-16080014D01*
X14881071Y-16080014D01*
X14852500Y-16065729D01*
X14838214Y-16037157D01*
X14838214Y-15922871D01*
X14852500Y-15894300D01*
X14881071Y-15880014D01*
X14938214Y-15880014D01*
X14966786Y-15894300D01*
X14981071Y-15922871D01*
X14981071Y-15951443D01*
X14838214Y-15980014D01*
X15081071Y-16194300D02*
X15095357Y-16180014D01*
X15123928Y-16137157D01*
X15138214Y-16108586D01*
X15152500Y-16065729D01*
X15166786Y-15994300D01*
X15166786Y-15937157D01*
X15152500Y-15865729D01*
X15138214Y-15822871D01*
X15123928Y-15794300D01*
X15095357Y-15751443D01*
X15081071Y-15737157D01*
M02*
