G04 #@! TF.FileFunction,Copper,L2,Bot,Signal*
%FSLAX46Y46*%
G04 Gerber Fmt 4.6, Leading zero omitted, Abs format (unit mm)*
G04 Created by KiCad (PCBNEW 4.0.5) date 04/03/17 22:13:47*
%MOMM*%
%LPD*%
G01*
G04 APERTURE LIST*
%ADD10C,0.100000*%
%ADD11C,1.600000*%
%ADD12C,4.064000*%
%ADD13C,5.300000*%
%ADD14C,1.000000*%
%ADD15C,0.500000*%
G04 APERTURE END LIST*
D10*
D11*
X93250000Y-123180000D03*
X93250000Y-79390000D03*
X124250000Y-123180000D03*
X124250000Y-79390000D03*
D12*
X92900000Y-131750000D03*
X99400000Y-131800000D03*
D13*
X108600000Y-131650000D03*
D14*
X97700000Y-80350000D03*
X127000000Y-81600000D03*
X98000000Y-82600000D03*
X127000000Y-82870000D03*
X115147299Y-78781280D03*
X94000000Y-81600000D03*
X101209618Y-81238106D03*
X127000000Y-84140000D03*
X114078544Y-80130656D03*
X94000000Y-83400000D03*
X100947924Y-82938117D03*
X127000000Y-85410000D03*
X117452232Y-81997768D03*
X94000000Y-85100000D03*
X100692567Y-84638128D03*
X127000000Y-86680000D03*
X112642028Y-82919017D03*
X93600000Y-86500000D03*
X100503677Y-86338139D03*
X127000000Y-87950000D03*
X115804443Y-83658623D03*
X93600000Y-88000000D03*
X100349031Y-88038150D03*
X127000000Y-89220000D03*
X114701976Y-85016256D03*
X93400000Y-89300000D03*
X100171879Y-89738161D03*
X127000000Y-90490000D03*
X115322893Y-86689171D03*
X93300000Y-90600000D03*
X100049709Y-91438172D03*
X127000000Y-91760000D03*
X115212290Y-88389183D03*
X93300000Y-91800000D03*
X99709905Y-93138183D03*
X127000000Y-93030000D03*
X115298813Y-90089195D03*
X93200000Y-93100000D03*
X99533375Y-94838194D03*
X127000000Y-94300000D03*
X115368349Y-91789207D03*
X93100000Y-94400000D03*
X100858597Y-96002555D03*
X127000000Y-95570000D03*
X115477841Y-93489218D03*
X93000000Y-95800000D03*
X102276701Y-97149989D03*
X127000000Y-96840000D03*
X115515653Y-95189230D03*
X93000000Y-97000000D03*
X98047304Y-97659935D03*
X127000000Y-98110000D03*
X115568653Y-96889242D03*
X93200000Y-98300000D03*
X97695274Y-99359947D03*
X127000000Y-99380000D03*
X115653238Y-98589253D03*
X93100000Y-99500000D03*
X98890614Y-100641170D03*
X127000000Y-100650000D03*
X115770572Y-100289264D03*
X93000001Y-100699999D03*
X98800000Y-102341181D03*
X127000000Y-101920000D03*
X115874875Y-101989276D03*
X93000000Y-101900000D03*
X98891991Y-104041192D03*
X127000000Y-103190000D03*
X115948840Y-103689287D03*
X93000000Y-103200000D03*
X99139750Y-105112939D03*
X127000000Y-104449977D03*
X116098504Y-105989309D03*
X93000000Y-104600000D03*
X98800000Y-107412961D03*
X127000000Y-105549990D03*
X117176381Y-106430928D03*
X93100000Y-105900000D03*
X98900000Y-109112972D03*
X127000000Y-107000000D03*
X116381126Y-108289332D03*
X93000000Y-107200000D03*
X99000000Y-110812983D03*
X127000000Y-108270000D03*
X116453058Y-109989344D03*
X92800000Y-108400000D03*
X99100317Y-112512994D03*
X127000000Y-109540000D03*
X116519396Y-111689355D03*
X92700000Y-109700000D03*
X101022118Y-113931395D03*
X127000000Y-110810000D03*
X117089277Y-113375643D03*
X92200000Y-111000000D03*
X99534894Y-114901950D03*
X127000000Y-112080000D03*
X117048185Y-115745025D03*
X92200000Y-112500000D03*
X101170315Y-116960628D03*
X127000000Y-113350000D03*
X115345859Y-115789411D03*
X92100000Y-113700000D03*
X99230692Y-117201972D03*
X127000000Y-114620000D03*
X115386220Y-117489423D03*
X92200000Y-114900000D03*
X100701633Y-119860662D03*
X127000000Y-115890000D03*
X115274808Y-119189435D03*
X92200000Y-116200000D03*
X100128374Y-121544455D03*
X127000000Y-117160000D03*
X115391274Y-120889447D03*
X92100000Y-117400000D03*
X101196586Y-123499969D03*
X127000000Y-118430000D03*
X114948032Y-122588729D03*
X92200000Y-118600000D03*
X99496574Y-123844478D03*
X127000000Y-119700000D03*
X114074580Y-124149979D03*
X92200000Y-120000000D03*
X97850000Y-123400000D03*
X127000000Y-120970000D03*
X98723952Y-125476048D03*
X92300000Y-121200000D03*
D15*
X117454222Y-77931279D02*
X121122943Y-81600000D01*
X97700000Y-80350000D02*
X100099998Y-77950002D01*
X114720575Y-77950002D02*
X114739298Y-77931279D01*
X121122943Y-81600000D02*
X125950000Y-81600000D01*
X100099998Y-77950002D02*
X114720575Y-77950002D01*
X114739298Y-77931279D02*
X117454222Y-77931279D01*
X125950000Y-81600000D02*
X127000000Y-81600000D01*
X98600000Y-81797084D02*
X98600000Y-82000000D01*
X98600000Y-82000000D02*
X98000000Y-82600000D01*
X114313944Y-79150022D02*
X101247062Y-79150022D01*
X127000000Y-82870000D02*
X121544401Y-82870000D01*
X121544401Y-82870000D02*
X118324413Y-79650012D01*
X114813934Y-79650012D02*
X114313944Y-79150022D01*
X101247062Y-79150022D02*
X98600000Y-81797084D01*
X118324413Y-79650012D02*
X114813934Y-79650012D01*
X97948542Y-81600000D02*
X100998532Y-78550010D01*
X94000000Y-81600000D02*
X97948542Y-81600000D01*
X114916029Y-78550010D02*
X115147299Y-78781280D01*
X100998532Y-78550010D02*
X114916029Y-78550010D01*
X120805258Y-84140000D02*
X117673846Y-81008588D01*
X113729614Y-81008588D02*
X113459133Y-80738107D01*
X117673846Y-81008588D02*
X113729614Y-81008588D01*
X127000000Y-84140000D02*
X120805258Y-84140000D01*
X101709617Y-80738107D02*
X101209618Y-81238106D01*
X113459133Y-80738107D02*
X101709617Y-80738107D01*
X94499999Y-83899999D02*
X98440243Y-83899999D01*
X94000000Y-83400000D02*
X94499999Y-83899999D01*
X99455080Y-82885162D02*
X99455080Y-81790546D01*
X98440243Y-83899999D02*
X99455080Y-82885162D01*
X113371438Y-80130656D02*
X114078544Y-80130656D01*
X101114970Y-80130656D02*
X113371438Y-80130656D01*
X99455080Y-81790546D02*
X101114970Y-80130656D01*
X115124304Y-82232215D02*
X113213230Y-82232215D01*
X101655030Y-82938117D02*
X100947924Y-82938117D01*
X127000000Y-85410000D02*
X119662367Y-85410000D01*
X113050030Y-82069015D02*
X112234026Y-82069015D01*
X112234026Y-82069015D02*
X111364924Y-82938117D01*
X119662367Y-85410000D02*
X116460977Y-82208610D01*
X111364924Y-82938117D02*
X101655030Y-82938117D01*
X115147909Y-82208610D02*
X115124304Y-82232215D01*
X113213230Y-82232215D02*
X113050030Y-82069015D01*
X116460977Y-82208610D02*
X115147909Y-82208610D01*
X94000000Y-85100000D02*
X98090796Y-85100000D01*
X113481082Y-81608599D02*
X117063063Y-81608599D01*
X111985494Y-81469004D02*
X113341487Y-81469004D01*
X117063063Y-81608599D02*
X117452232Y-81997768D01*
X111366391Y-82088107D02*
X111985494Y-81469004D01*
X100506459Y-82088107D02*
X111366391Y-82088107D01*
X100095763Y-82498803D02*
X100506459Y-82088107D01*
X100095763Y-83095033D02*
X100095763Y-82498803D01*
X98090796Y-85100000D02*
X100095763Y-83095033D01*
X113341487Y-81469004D02*
X113481082Y-81608599D01*
X115396441Y-82808621D02*
X115238830Y-82966232D01*
X127000000Y-86680000D02*
X120083824Y-86680000D01*
X113796910Y-82966232D02*
X112422583Y-84340559D01*
X101399673Y-84638128D02*
X100692567Y-84638128D01*
X111773865Y-84638128D02*
X101399673Y-84638128D01*
X116212445Y-82808621D02*
X115396441Y-82808621D01*
X112422583Y-84340559D02*
X112071434Y-84340559D01*
X115238830Y-82966232D02*
X113796910Y-82966232D01*
X120083824Y-86680000D02*
X116212445Y-82808621D01*
X112071434Y-84340559D02*
X111773865Y-84638128D01*
X93600000Y-86500000D02*
X97539339Y-86500000D01*
X112142029Y-83419016D02*
X112642028Y-82919017D01*
X111772927Y-83788118D02*
X112142029Y-83419016D01*
X100251221Y-83788118D02*
X111772927Y-83788118D01*
X97539339Y-86500000D02*
X100251221Y-83788118D01*
X118893724Y-87950000D02*
X115109978Y-84166254D01*
X114293974Y-84166254D02*
X112919647Y-85540581D01*
X101210783Y-86338139D02*
X100503677Y-86338139D01*
X111770940Y-86338139D02*
X101210783Y-86338139D01*
X112568498Y-85540581D02*
X111770940Y-86338139D01*
X115109978Y-84166254D02*
X114293974Y-84166254D01*
X112919647Y-85540581D02*
X112568498Y-85540581D01*
X127000000Y-87950000D02*
X118893724Y-87950000D01*
X93600000Y-88000000D02*
X97552501Y-88000000D01*
X112319966Y-84940570D02*
X112671115Y-84940570D01*
X112671115Y-84940570D02*
X114045442Y-83566243D01*
X114045442Y-83566243D02*
X115712063Y-83566243D01*
X111772407Y-85488129D02*
X112319966Y-84940570D01*
X97552501Y-88000000D02*
X100064372Y-85488129D01*
X100064372Y-85488129D02*
X111772407Y-85488129D01*
X115712063Y-83566243D02*
X115804443Y-83658623D01*
X114914891Y-85839169D02*
X114664900Y-86089160D01*
X115730895Y-85839169D02*
X114914891Y-85839169D01*
X101056137Y-88038150D02*
X100349031Y-88038150D01*
X113905780Y-86740603D02*
X113065562Y-86740603D01*
X114557223Y-86089160D02*
X113905780Y-86740603D01*
X119111726Y-89220000D02*
X115730895Y-85839169D01*
X113065562Y-86740603D02*
X111768015Y-88038150D01*
X127000000Y-89220000D02*
X119111726Y-89220000D01*
X111768015Y-88038150D02*
X101056137Y-88038150D01*
X114664900Y-86089160D02*
X114557223Y-86089160D01*
X113577640Y-86140592D02*
X114201977Y-85516255D01*
X114201977Y-85516255D02*
X114701976Y-85016256D01*
X112817030Y-86140592D02*
X113577640Y-86140592D01*
X111769482Y-87188140D02*
X112817030Y-86140592D01*
X97797866Y-89300000D02*
X99909726Y-87188140D01*
X99909726Y-87188140D02*
X111769482Y-87188140D01*
X93400000Y-89300000D02*
X97797866Y-89300000D01*
X118571111Y-90490000D02*
X115620292Y-87539181D01*
X113526153Y-87977098D02*
X111765090Y-89738161D01*
X127000000Y-90490000D02*
X118571111Y-90490000D01*
X100878985Y-89738161D02*
X100171879Y-89738161D01*
X115620292Y-87539181D02*
X114804288Y-87539181D01*
X111765090Y-89738161D02*
X100878985Y-89738161D01*
X114804288Y-87539181D02*
X114366371Y-87977098D01*
X114366371Y-87977098D02*
X113526153Y-87977098D01*
X111766557Y-88888151D02*
X113314094Y-87340614D01*
X93300000Y-90600000D02*
X98020725Y-90600000D01*
X98020725Y-90600000D02*
X99732574Y-88888151D01*
X113314094Y-87340614D02*
X114154313Y-87340614D01*
X99732574Y-88888151D02*
X111766557Y-88888151D01*
X114154313Y-87340614D02*
X114805756Y-86689171D01*
X114805756Y-86689171D02*
X115322893Y-86689171D01*
X118227622Y-91760000D02*
X115706815Y-89239193D01*
X127000000Y-91760000D02*
X118227622Y-91760000D01*
X115706815Y-89239193D02*
X114067841Y-89239193D01*
X100756815Y-91438172D02*
X100049709Y-91438172D01*
X114067841Y-89239193D02*
X111868862Y-91438172D01*
X111868862Y-91438172D02*
X100756815Y-91438172D01*
X98398566Y-91800000D02*
X99610404Y-90588162D01*
X114990229Y-88611244D02*
X115212290Y-88389183D01*
X113847247Y-88611244D02*
X114990229Y-88611244D01*
X111870329Y-90588162D02*
X113847247Y-88611244D01*
X93300000Y-91800000D02*
X98398566Y-91800000D01*
X99610404Y-90588162D02*
X111870329Y-90588162D01*
X115776351Y-90939205D02*
X114226878Y-90939205D01*
X114226878Y-90939205D02*
X112066116Y-93099967D01*
X112066116Y-93099967D02*
X99748121Y-93099967D01*
X117867146Y-93030000D02*
X115776351Y-90939205D01*
X99748121Y-93099967D02*
X99709905Y-93138183D01*
X127000000Y-93030000D02*
X117867146Y-93030000D01*
X114176648Y-90089195D02*
X114591707Y-90089195D01*
X114591707Y-90089195D02*
X115298813Y-90089195D01*
X93200000Y-93100000D02*
X98456691Y-93100000D01*
X111977670Y-92288173D02*
X114176648Y-90089195D01*
X99268518Y-92288173D02*
X111977670Y-92288173D01*
X98456691Y-93100000D02*
X99268518Y-92288173D01*
X127000000Y-94300000D02*
X117546625Y-94300000D01*
X115885842Y-92639217D02*
X114332759Y-92639217D01*
X100654644Y-94299989D02*
X100366438Y-94588195D01*
X100366438Y-94588195D02*
X99783374Y-94588195D01*
X117546625Y-94300000D02*
X115885842Y-92639217D01*
X114332759Y-92639217D02*
X112671987Y-94299989D01*
X112671987Y-94299989D02*
X100654644Y-94299989D01*
X99783374Y-94588195D02*
X99533375Y-94838194D01*
X93807106Y-94400000D02*
X94218922Y-93988184D01*
X100117906Y-93988184D02*
X100406112Y-93699978D01*
X114661243Y-91789207D02*
X115368349Y-91789207D01*
X94218922Y-93988184D02*
X100117906Y-93988184D01*
X93100000Y-94400000D02*
X93807106Y-94400000D01*
X112371759Y-93699978D02*
X114282530Y-91789207D01*
X114282530Y-91789207D02*
X114661243Y-91789207D01*
X100406112Y-93699978D02*
X112371759Y-93699978D01*
X127000000Y-95570000D02*
X117154427Y-95570000D01*
X114335344Y-94339228D02*
X113172016Y-95502556D01*
X113172016Y-95502556D02*
X101358596Y-95502556D01*
X117154427Y-95570000D02*
X115923655Y-94339228D01*
X101358596Y-95502556D02*
X100858597Y-96002555D01*
X115923655Y-94339228D02*
X114335344Y-94339228D01*
X100903176Y-94900000D02*
X112926029Y-94900000D01*
X93499999Y-95300001D02*
X98642460Y-95300001D01*
X98642460Y-95300001D02*
X99030655Y-95688196D01*
X99941377Y-95688196D02*
X100441367Y-95188206D01*
X114770735Y-93489218D02*
X115477841Y-93489218D01*
X112926029Y-94900000D02*
X114336811Y-93489218D01*
X100614970Y-95188206D02*
X100903176Y-94900000D01*
X99030655Y-95688196D02*
X99941377Y-95688196D01*
X93000000Y-95800000D02*
X93499999Y-95300001D01*
X114336811Y-93489218D02*
X114770735Y-93489218D01*
X100441367Y-95188206D02*
X100614970Y-95188206D01*
X114361422Y-96039240D02*
X113250673Y-97149989D01*
X113250673Y-97149989D02*
X102983807Y-97149989D01*
X115976655Y-96039240D02*
X114361422Y-96039240D01*
X116777415Y-96840000D02*
X115976655Y-96039240D01*
X127000000Y-96840000D02*
X116777415Y-96840000D01*
X102983807Y-97149989D02*
X102276701Y-97149989D01*
X101316130Y-96852556D02*
X101928697Y-96239989D01*
X93000000Y-97000000D02*
X96600692Y-97000000D01*
X114808547Y-95189230D02*
X115515653Y-95189230D01*
X100450596Y-96852556D02*
X101316130Y-96852556D01*
X100361948Y-96763908D02*
X100450596Y-96852556D01*
X114362889Y-95189230D02*
X114808547Y-95189230D01*
X113312130Y-96239989D02*
X114362889Y-95189230D01*
X101928697Y-96239989D02*
X113312130Y-96239989D01*
X99257824Y-96763908D02*
X100361948Y-96763908D01*
X97390770Y-96209922D02*
X98703838Y-96209922D01*
X98703838Y-96209922D02*
X99257824Y-96763908D01*
X96600692Y-97000000D02*
X97390770Y-96209922D01*
X98405804Y-97963930D02*
X98101809Y-97659935D01*
X116431987Y-98110000D02*
X116061239Y-97739252D01*
X98101809Y-97659935D02*
X98047304Y-97659935D01*
X99953532Y-98052578D02*
X99864884Y-97963930D01*
X99864884Y-97963930D02*
X98405804Y-97963930D01*
X100143600Y-98052578D02*
X99953532Y-98052578D01*
X100691031Y-98600010D02*
X100143600Y-98052578D01*
X116061239Y-97739252D02*
X114389741Y-97739252D01*
X127000000Y-98110000D02*
X116431987Y-98110000D01*
X114389741Y-97739252D02*
X113528983Y-98600010D01*
X113528983Y-98600010D02*
X100691031Y-98600010D01*
X93200000Y-98300000D02*
X96149235Y-98300000D01*
X98437300Y-96809933D02*
X98991286Y-97363919D01*
X100939563Y-97999999D02*
X113280451Y-97999999D01*
X100392132Y-97452567D02*
X100939563Y-97999999D01*
X114861547Y-96889242D02*
X115568653Y-96889242D01*
X113280451Y-97999999D02*
X114391208Y-96889242D01*
X100202064Y-97452567D02*
X100392132Y-97452567D01*
X100113416Y-97363919D02*
X100202064Y-97452567D01*
X96149235Y-98300000D02*
X97639302Y-96809933D01*
X98991286Y-97363919D02*
X100113416Y-97363919D01*
X114391208Y-96889242D02*
X114861547Y-96889242D01*
X97639302Y-96809933D02*
X98437300Y-96809933D01*
X99367820Y-99163952D02*
X97891269Y-99163952D01*
X97891269Y-99163952D02*
X97695274Y-99359947D01*
X99646536Y-99252600D02*
X99456468Y-99252600D01*
X100293549Y-99899613D02*
X99646536Y-99252600D01*
X115199480Y-99439263D02*
X114739130Y-99899613D01*
X116251367Y-99512057D02*
X116178573Y-99439263D01*
X114739130Y-99899613D02*
X100293549Y-99899613D01*
X116178573Y-99439263D02*
X115199480Y-99439263D01*
X125817943Y-99512057D02*
X116251367Y-99512057D01*
X125950000Y-99380000D02*
X125817943Y-99512057D01*
X99456468Y-99252600D02*
X99367820Y-99163952D01*
X127000000Y-99380000D02*
X125950000Y-99380000D01*
X98157272Y-98563941D02*
X99616352Y-98563941D01*
X114946132Y-98589253D02*
X115653238Y-98589253D01*
X99705000Y-98652589D02*
X99895068Y-98652589D01*
X114294694Y-99240691D02*
X114946132Y-98589253D01*
X100483170Y-99240691D02*
X114294694Y-99240691D01*
X97287272Y-98509945D02*
X98103276Y-98509945D01*
X99616352Y-98563941D02*
X99705000Y-98652589D01*
X93100000Y-99500000D02*
X96297217Y-99500000D01*
X96297217Y-99500000D02*
X97287272Y-98509945D01*
X99895068Y-98652589D02*
X100483170Y-99240691D01*
X98103276Y-98509945D02*
X98157272Y-98563941D01*
X116355671Y-101212068D02*
X116282877Y-101139274D01*
X125950000Y-100650000D02*
X125387932Y-101212068D01*
X99233741Y-100641170D02*
X98890614Y-100641170D01*
X116282877Y-101139274D02*
X114757181Y-101139274D01*
X125387932Y-101212068D02*
X116355671Y-101212068D01*
X114717895Y-101099988D02*
X99692559Y-101099988D01*
X127000000Y-100650000D02*
X125950000Y-100650000D01*
X114757181Y-101139274D02*
X114717895Y-101099988D01*
X99692559Y-101099988D02*
X99233741Y-100641170D01*
X93000001Y-100699999D02*
X97557318Y-100699999D01*
X99119288Y-99763963D02*
X99207936Y-99852611D01*
X99207936Y-99852611D02*
X99361992Y-99852611D01*
X97557318Y-100699999D02*
X98493354Y-99763963D01*
X115559859Y-100499977D02*
X115770572Y-100289264D01*
X100009358Y-100499977D02*
X115559859Y-100499977D01*
X99361992Y-99852611D02*
X100009358Y-100499977D01*
X98493354Y-99763963D02*
X99119288Y-99763963D01*
X127000000Y-101920000D02*
X117276127Y-101920000D01*
X99507106Y-102341181D02*
X98800000Y-102341181D01*
X114229952Y-102341181D02*
X99507106Y-102341181D01*
X114728057Y-102839286D02*
X114229952Y-102341181D01*
X117276127Y-101920000D02*
X116356841Y-102839286D01*
X116356841Y-102839286D02*
X114728057Y-102839286D01*
X114726589Y-101989276D02*
X115167769Y-101989276D01*
X114437573Y-101700260D02*
X114726589Y-101989276D01*
X93707106Y-101900000D02*
X94115935Y-101491171D01*
X99235199Y-101491171D02*
X99444288Y-101700260D01*
X115167769Y-101989276D02*
X115874875Y-101989276D01*
X93000000Y-101900000D02*
X93707106Y-101900000D01*
X94115935Y-101491171D02*
X99235199Y-101491171D01*
X99444288Y-101700260D02*
X114437573Y-101700260D01*
X127000000Y-103190000D02*
X118104334Y-103190000D01*
X118104334Y-103190000D02*
X116755037Y-104539297D01*
X116755037Y-104539297D02*
X100097202Y-104539297D01*
X99599097Y-104041192D02*
X98891991Y-104041192D01*
X100097202Y-104539297D02*
X99599097Y-104041192D01*
X115241734Y-103689287D02*
X115948840Y-103689287D01*
X114231409Y-103191182D02*
X114729514Y-103689287D01*
X93707106Y-103200000D02*
X93715924Y-103191182D01*
X93000000Y-103200000D02*
X93707106Y-103200000D01*
X93715924Y-103191182D02*
X114231409Y-103191182D01*
X114729514Y-103689287D02*
X115241734Y-103689287D01*
X99846856Y-105112939D02*
X99139750Y-105112939D01*
X99873225Y-105139308D02*
X99846856Y-105112939D01*
X117951750Y-104449977D02*
X117262419Y-105139308D01*
X127000000Y-104449977D02*
X117951750Y-104449977D01*
X117262419Y-105139308D02*
X99873225Y-105139308D01*
X98731749Y-105962940D02*
X115365029Y-105962940D01*
X115391398Y-105989309D02*
X116098504Y-105989309D01*
X115365029Y-105962940D02*
X115391398Y-105989309D01*
X93000000Y-104600000D02*
X97368809Y-104600000D01*
X97368809Y-104600000D02*
X98731749Y-105962940D01*
X99533475Y-107439330D02*
X99507106Y-107412961D01*
X119275821Y-105549990D02*
X117386481Y-107439330D01*
X127000000Y-105549990D02*
X119275821Y-105549990D01*
X117386481Y-107439330D02*
X99533475Y-107439330D01*
X99507106Y-107412961D02*
X98800000Y-107412961D01*
X93762951Y-106562951D02*
X114361818Y-106562951D01*
X114638186Y-106839319D02*
X116767990Y-106839319D01*
X114361818Y-106562951D02*
X114638186Y-106839319D01*
X116767990Y-106839319D02*
X117176381Y-106430928D01*
X93100000Y-105900000D02*
X93762951Y-106562951D01*
X119000402Y-107000000D02*
X116861060Y-109139342D01*
X99633476Y-109139342D02*
X99607106Y-109112972D01*
X116861060Y-109139342D02*
X99633476Y-109139342D01*
X127000000Y-107000000D02*
X119000402Y-107000000D01*
X99607106Y-109112972D02*
X98900000Y-109112972D01*
X115647650Y-108262962D02*
X115674020Y-108289332D01*
X93000000Y-107200000D02*
X94062962Y-108262962D01*
X115674020Y-108289332D02*
X116381126Y-108289332D01*
X94062962Y-108262962D02*
X115647650Y-108262962D01*
X99707106Y-110812983D02*
X99000000Y-110812983D01*
X99733477Y-110839354D02*
X99707106Y-110812983D01*
X119496751Y-108270000D02*
X116927397Y-110839354D01*
X127000000Y-108270000D02*
X119496751Y-108270000D01*
X116927397Y-110839354D02*
X99733477Y-110839354D01*
X115745952Y-109989344D02*
X116453058Y-109989344D01*
X94362973Y-109962973D02*
X115719581Y-109962973D01*
X92800000Y-108400000D02*
X94362973Y-109962973D01*
X115719581Y-109962973D02*
X115745952Y-109989344D01*
X115331586Y-112450024D02*
X99870393Y-112450024D01*
X117497279Y-112525641D02*
X116681275Y-112525641D01*
X116667551Y-112539365D02*
X115420927Y-112539365D01*
X99807423Y-112512994D02*
X99100317Y-112512994D01*
X99870393Y-112450024D02*
X99807423Y-112512994D01*
X116681275Y-112525641D02*
X116667551Y-112539365D01*
X127000000Y-109540000D02*
X120482921Y-109540000D01*
X115420927Y-112539365D02*
X115331586Y-112450024D01*
X120482921Y-109540000D02*
X117497279Y-112525641D01*
X115785919Y-111662984D02*
X115812290Y-111689355D01*
X94662984Y-111662984D02*
X115785919Y-111662984D01*
X92700000Y-109700000D02*
X94662984Y-111662984D01*
X115812290Y-111689355D02*
X116519396Y-111689355D01*
X116250925Y-113739387D02*
X101214126Y-113739387D01*
X117203612Y-114692074D02*
X116250925Y-113739387D01*
X101214126Y-113739387D02*
X101022118Y-113931395D01*
X121085696Y-110810000D02*
X117203612Y-114692074D01*
X127000000Y-110810000D02*
X121085696Y-110810000D01*
X115172395Y-113139376D02*
X116853010Y-113139376D01*
X116853010Y-113139376D02*
X117089277Y-113375643D01*
X94562995Y-113362995D02*
X99882162Y-113362995D01*
X92200000Y-111000000D02*
X94562995Y-113362995D01*
X115083054Y-113050035D02*
X115172395Y-113139376D01*
X100195122Y-113050035D02*
X115083054Y-113050035D01*
X99882162Y-113362995D02*
X100195122Y-113050035D01*
X114981144Y-114939409D02*
X114250183Y-115670370D01*
X127000000Y-112080000D02*
X121971214Y-112080000D01*
X100494422Y-115510615D02*
X99885757Y-114901950D01*
X114250183Y-115670370D02*
X101986604Y-115670370D01*
X115753861Y-114939409D02*
X114981144Y-114939409D01*
X116195861Y-115381409D02*
X115753861Y-114939409D01*
X116195861Y-116152857D02*
X116195861Y-115381409D01*
X121971214Y-112080000D02*
X117456187Y-116595027D01*
X101826849Y-115510615D02*
X100494422Y-115510615D01*
X99885757Y-114901950D02*
X99534894Y-114901950D01*
X116638031Y-116595027D02*
X116195861Y-116152857D01*
X117456187Y-116595027D02*
X116638031Y-116595027D01*
X101986604Y-115670370D02*
X101826849Y-115510615D01*
X102075381Y-114910604D02*
X102235136Y-115070359D01*
X99942896Y-114051948D02*
X100384896Y-114493948D01*
X116002393Y-114339398D02*
X117048185Y-115385190D01*
X102235136Y-115070359D02*
X113958364Y-115070359D01*
X100384896Y-114552545D02*
X100742954Y-114910604D01*
X93751948Y-114051948D02*
X99942896Y-114051948D01*
X114689325Y-114339398D02*
X116002393Y-114339398D01*
X92200000Y-112500000D02*
X93751948Y-114051948D01*
X100384896Y-114493948D02*
X100384896Y-114552545D01*
X117048185Y-115385190D02*
X117048185Y-115745025D01*
X100742954Y-114910604D02*
X102075381Y-114910604D01*
X113958364Y-115070359D02*
X114689325Y-114339398D01*
X101877421Y-116960628D02*
X101170315Y-116960628D01*
X114978218Y-116639421D02*
X114728227Y-116889412D01*
X115794222Y-116639421D02*
X114978218Y-116639421D01*
X117662782Y-117236975D02*
X116391776Y-117236975D01*
X127000000Y-113350000D02*
X121549757Y-113350000D01*
X121549757Y-113350000D02*
X117662782Y-117236975D01*
X116391776Y-117236975D02*
X115794222Y-116639421D01*
X114728227Y-116889412D02*
X101948637Y-116889412D01*
X101948637Y-116889412D02*
X101877421Y-116960628D01*
X92100000Y-113700000D02*
X92258004Y-113700000D01*
X99887225Y-115751960D02*
X100245891Y-116110626D01*
X101578317Y-116110626D02*
X101757092Y-116289401D01*
X114979685Y-115789411D02*
X115345859Y-115789411D01*
X101757092Y-116289401D02*
X114479695Y-116289401D01*
X94309964Y-115751960D02*
X99887225Y-115751960D01*
X92258004Y-113700000D02*
X94309964Y-115751960D01*
X114479695Y-116289401D02*
X114979685Y-115789411D01*
X100245891Y-116110626D02*
X101578317Y-116110626D01*
X114542379Y-118663860D02*
X101611378Y-118663860D01*
X99732263Y-118410649D02*
X99230692Y-117909078D01*
X99230692Y-117909078D02*
X99230692Y-117201972D01*
X121135905Y-114620000D02*
X117416472Y-118339433D01*
X127000000Y-114620000D02*
X121135905Y-114620000D01*
X101611378Y-118663860D02*
X101358167Y-118410649D01*
X101358167Y-118410649D02*
X99732263Y-118410649D01*
X114866806Y-118339433D02*
X114542379Y-118663860D01*
X117416472Y-118339433D02*
X114866806Y-118339433D01*
X114123847Y-118044690D02*
X114679114Y-117489423D01*
X101606699Y-117810638D02*
X101840751Y-118044690D01*
X100603540Y-117810638D02*
X101606699Y-117810638D01*
X100080693Y-116793971D02*
X100080693Y-117287791D01*
X93651971Y-116351971D02*
X99638693Y-116351971D01*
X92200000Y-114900000D02*
X93651971Y-116351971D01*
X99638693Y-116351971D02*
X100080693Y-116793971D01*
X100080693Y-117287791D02*
X100603540Y-117810638D01*
X101840751Y-118044690D02*
X114123847Y-118044690D01*
X114679114Y-117489423D02*
X115386220Y-117489423D01*
X101057340Y-119999945D02*
X100840916Y-119999945D01*
X100840916Y-119999945D02*
X100701633Y-119860662D01*
X120786762Y-115890000D02*
X116637317Y-120039445D01*
X127000000Y-115890000D02*
X120786762Y-115890000D01*
X116637317Y-120039445D02*
X101096840Y-120039445D01*
X101096840Y-120039445D02*
X101057340Y-119999945D01*
X101057340Y-119999945D02*
X100886548Y-120170737D01*
X95944147Y-117399978D02*
X97554829Y-119010660D01*
X92200000Y-116200000D02*
X93399978Y-117399978D01*
X97554829Y-119010660D02*
X101109635Y-119010660D01*
X93399978Y-117399978D02*
X95944147Y-117399978D01*
X115200372Y-119263871D02*
X115274808Y-119189435D01*
X101362846Y-119263871D02*
X115200372Y-119263871D01*
X101109635Y-119010660D02*
X101362846Y-119263871D01*
X100322646Y-121738727D02*
X100128374Y-121544455D01*
X115356034Y-121738727D02*
X100322646Y-121738727D01*
X116043362Y-121911011D02*
X115528318Y-121911011D01*
X127000000Y-117160000D02*
X120794373Y-117160000D01*
X115528318Y-121911011D02*
X115356034Y-121738727D01*
X120794373Y-117160000D02*
X116043362Y-121911011D01*
X114684168Y-120889447D02*
X115391274Y-120889447D01*
X92857993Y-117999989D02*
X95695616Y-117999989D01*
X98390080Y-120694453D02*
X100536376Y-120694453D01*
X114602592Y-120971023D02*
X114684168Y-120889447D01*
X100812946Y-120971023D02*
X114602592Y-120971023D01*
X100536376Y-120694453D02*
X100812946Y-120971023D01*
X92258004Y-117400000D02*
X92857993Y-117999989D01*
X92100000Y-117400000D02*
X92258004Y-117400000D01*
X95695616Y-117999989D02*
X98390080Y-120694453D01*
X101903692Y-123499969D02*
X101196586Y-123499969D01*
X102103684Y-123299977D02*
X101903692Y-123499969D01*
X114482582Y-123299977D02*
X102103684Y-123299977D01*
X120372916Y-118430000D02*
X115060939Y-123741977D01*
X114924582Y-123741977D02*
X114482582Y-123299977D01*
X115060939Y-123741977D02*
X114924582Y-123741977D01*
X127000000Y-118430000D02*
X120372916Y-118430000D01*
X114240926Y-122588729D02*
X114948032Y-122588729D01*
X100433110Y-122394465D02*
X100627374Y-122588729D01*
X99241551Y-122394465D02*
X100433110Y-122394465D01*
X95447086Y-118600000D02*
X99241551Y-122394465D01*
X92200000Y-118600000D02*
X95447086Y-118600000D01*
X100627374Y-122588729D02*
X114240926Y-122588729D01*
X114651468Y-124999989D02*
X100298531Y-124999989D01*
X100298531Y-124999989D02*
X99496574Y-124198032D01*
X119951457Y-119700000D02*
X114651468Y-124999989D01*
X127000000Y-119700000D02*
X119951457Y-119700000D01*
X99496574Y-124198032D02*
X99496574Y-123844478D01*
X113367474Y-124149979D02*
X114074580Y-124149979D01*
X113167474Y-124349979D02*
X113367474Y-124149979D01*
X100346576Y-124199492D02*
X100497063Y-124349979D01*
X100346576Y-123436476D02*
X100346576Y-124199492D01*
X98993019Y-122994476D02*
X99904576Y-122994476D01*
X99904576Y-122994476D02*
X100346576Y-123436476D01*
X95998543Y-120000000D02*
X98993019Y-122994476D01*
X92200000Y-120000000D02*
X95998543Y-120000000D01*
X100497063Y-124349979D02*
X113167474Y-124349979D01*
X114900000Y-125600000D02*
X100050000Y-125600000D01*
X100050000Y-125600000D02*
X97850000Y-123400000D01*
X119530000Y-120970000D02*
X114900000Y-125600000D01*
X121896231Y-120970000D02*
X119530000Y-120970000D01*
X127000000Y-120970000D02*
X121896231Y-120970000D01*
X98223953Y-124976049D02*
X98723952Y-125476048D01*
X94447904Y-121200000D02*
X98223953Y-124976049D01*
X92300000Y-121200000D02*
X94447904Y-121200000D01*
M02*
