G04 #@! TF.FileFunction,Soldermask,Top*
%FSLAX46Y46*%
G04 Gerber Fmt 4.6, Leading zero omitted, Abs format (unit mm)*
G04 Created by KiCad (PCBNEW 4.0.5) date 04/03/17 22:13:47*
%MOMM*%
%LPD*%
G01*
G04 APERTURE LIST*
%ADD10C,0.100000*%
%ADD11R,1.500000X1.200000*%
%ADD12R,2.900000X1.600000*%
%ADD13C,2.000000*%
%ADD14C,4.464000*%
%ADD15C,5.700000*%
G04 APERTURE END LIST*
D10*
D11*
X96000000Y-81600000D03*
X90500000Y-81600000D03*
X96000000Y-82870000D03*
X90500000Y-82870000D03*
X96000000Y-84140000D03*
X90500000Y-84140000D03*
X96000000Y-85410000D03*
X90500000Y-85410000D03*
X96000000Y-86680000D03*
X90500000Y-86680000D03*
X96000000Y-87950000D03*
X90500000Y-87950000D03*
X96000000Y-89220000D03*
X90500000Y-89220000D03*
X96000000Y-90490000D03*
X90500000Y-90490000D03*
X96000000Y-91760000D03*
X90500000Y-91760000D03*
X96000000Y-93030000D03*
X90500000Y-93030000D03*
X96000000Y-94300000D03*
X90500000Y-94300000D03*
X96000000Y-95570000D03*
X90500000Y-95570000D03*
X96000000Y-96840000D03*
X90500000Y-96840000D03*
X96000000Y-98110000D03*
X90500000Y-98110000D03*
X96000000Y-99380000D03*
X90500000Y-99380000D03*
X96000000Y-100650000D03*
X90500000Y-100650000D03*
X96000000Y-101920000D03*
X90500000Y-101920000D03*
X96000000Y-103190000D03*
X90500000Y-103190000D03*
X96000000Y-104460000D03*
X90500000Y-104460000D03*
X96000000Y-105730000D03*
X90500000Y-105730000D03*
X96000000Y-107000000D03*
X90500000Y-107000000D03*
X96000000Y-108270000D03*
X90500000Y-108270000D03*
X96000000Y-109540000D03*
X90500000Y-109540000D03*
X96000000Y-110810000D03*
X90500000Y-110810000D03*
X96000000Y-112080000D03*
X90500000Y-112080000D03*
X96000000Y-113350000D03*
X90500000Y-113350000D03*
X96000000Y-114620000D03*
X90500000Y-114620000D03*
X96000000Y-115890000D03*
X90500000Y-115890000D03*
X96000000Y-117160000D03*
X90500000Y-117160000D03*
X96000000Y-118430000D03*
X90500000Y-118430000D03*
X96000000Y-119700000D03*
X90500000Y-119700000D03*
X96000000Y-120970000D03*
X90500000Y-120970000D03*
D12*
X95800000Y-123480000D03*
X90700000Y-123480000D03*
X95800000Y-79190000D03*
X90700000Y-79190000D03*
D13*
X93250000Y-123180000D03*
X93250000Y-79390000D03*
D11*
X127000000Y-81600000D03*
X121500000Y-81600000D03*
X127000000Y-82870000D03*
X121500000Y-82870000D03*
X127000000Y-84140000D03*
X121500000Y-84140000D03*
X127000000Y-85410000D03*
X121500000Y-85410000D03*
X127000000Y-86680000D03*
X121500000Y-86680000D03*
X127000000Y-87950000D03*
X121500000Y-87950000D03*
X127000000Y-89220000D03*
X121500000Y-89220000D03*
X127000000Y-90490000D03*
X121500000Y-90490000D03*
X127000000Y-91760000D03*
X121500000Y-91760000D03*
X127000000Y-93030000D03*
X121500000Y-93030000D03*
X127000000Y-94300000D03*
X121500000Y-94300000D03*
X127000000Y-95570000D03*
X121500000Y-95570000D03*
X127000000Y-96840000D03*
X121500000Y-96840000D03*
X127000000Y-98110000D03*
X121500000Y-98110000D03*
X127000000Y-99380000D03*
X121500000Y-99380000D03*
X127000000Y-100650000D03*
X121500000Y-100650000D03*
X127000000Y-101920000D03*
X121500000Y-101920000D03*
X127000000Y-103190000D03*
X121500000Y-103190000D03*
X127000000Y-104460000D03*
X121500000Y-104460000D03*
X127000000Y-105730000D03*
X121500000Y-105730000D03*
X127000000Y-107000000D03*
X121500000Y-107000000D03*
X127000000Y-108270000D03*
X121500000Y-108270000D03*
X127000000Y-109540000D03*
X121500000Y-109540000D03*
X127000000Y-110810000D03*
X121500000Y-110810000D03*
X127000000Y-112080000D03*
X121500000Y-112080000D03*
X127000000Y-113350000D03*
X121500000Y-113350000D03*
X127000000Y-114620000D03*
X121500000Y-114620000D03*
X127000000Y-115890000D03*
X121500000Y-115890000D03*
X127000000Y-117160000D03*
X121500000Y-117160000D03*
X127000000Y-118430000D03*
X121500000Y-118430000D03*
X127000000Y-119700000D03*
X121500000Y-119700000D03*
X127000000Y-120970000D03*
X121500000Y-120970000D03*
D12*
X126800000Y-123480000D03*
X121700000Y-123480000D03*
X126800000Y-79190000D03*
X121700000Y-79190000D03*
D13*
X124250000Y-123180000D03*
X124250000Y-79390000D03*
D14*
X92900000Y-131750000D03*
X99400000Y-131800000D03*
D15*
X108600000Y-131650000D03*
M02*
