G04 #@! TF.FileFunction,Copper,L1,Top,Signal*
%FSLAX46Y46*%
G04 Gerber Fmt 4.6, Leading zero omitted, Abs format (unit mm)*
G04 Created by KiCad (PCBNEW 4.0.5) date 01/06/17 14:54:28*
%MOMM*%
%LPD*%
G01*
G04 APERTURE LIST*
%ADD10C,0.100000*%
%ADD11R,1.450000X0.450000*%
%ADD12R,1.250000X1.500000*%
%ADD13R,1.500000X1.250000*%
%ADD14C,1.524000*%
%ADD15C,2.999740*%
%ADD16C,1.998980*%
%ADD17R,1.500000X1.300000*%
%ADD18R,1.300000X1.500000*%
%ADD19R,1.600000X1.600000*%
%ADD20O,1.600000X1.600000*%
%ADD21R,1.000000X1.000000*%
%ADD22O,1.000000X1.000000*%
%ADD23R,1.700000X1.700000*%
%ADD24O,1.700000X1.700000*%
%ADD25R,2.200000X1.000000*%
%ADD26R,1.600000X2.000000*%
%ADD27R,1.500000X2.700000*%
%ADD28C,0.300000*%
%ADD29C,0.250000*%
%ADD30C,0.254000*%
G04 APERTURE END LIST*
D10*
D11*
X55000800Y-58905500D03*
X55000800Y-59555500D03*
X55000800Y-60205500D03*
X55000800Y-60855500D03*
X59400800Y-60855500D03*
X59400800Y-60205500D03*
X59400800Y-59555500D03*
X59400800Y-58905500D03*
D12*
X50101500Y-52011900D03*
X50101500Y-49511900D03*
D13*
X64369000Y-59093100D03*
X61869000Y-59093100D03*
X52532600Y-68211700D03*
X50032600Y-68211700D03*
D14*
X109842300Y-32512000D03*
X112382300Y-32512000D03*
X107302300Y-32512000D03*
X113652300Y-29972000D03*
X111112300Y-29972000D03*
X108572300Y-29972000D03*
D15*
X103746300Y-27940000D03*
X117208300Y-27940000D03*
D14*
X92824300Y-32512000D03*
X95364300Y-32512000D03*
X90284300Y-32512000D03*
X96634300Y-29972000D03*
X94094300Y-29972000D03*
X91554300Y-29972000D03*
D15*
X86728300Y-27940000D03*
X100190300Y-27940000D03*
D16*
X28905200Y-54523640D03*
X28905200Y-51023520D03*
X28905200Y-58023760D03*
X28905200Y-61523880D03*
X80871060Y-25603200D03*
X77370940Y-25603200D03*
D17*
X92091500Y-38709600D03*
X89391500Y-38709600D03*
D18*
X52438300Y-56887100D03*
X52438300Y-54187100D03*
X50097600Y-56902000D03*
X50097600Y-54202000D03*
D17*
X64545200Y-61201300D03*
X61845200Y-61201300D03*
D19*
X97142300Y-49403000D03*
D20*
X89522300Y-44323000D03*
X97142300Y-46863000D03*
X89522300Y-46863000D03*
X97142300Y-44323000D03*
X89522300Y-49403000D03*
D12*
X47752000Y-54401400D03*
X47752000Y-56901400D03*
D21*
X32283400Y-79794100D03*
D22*
X30283400Y-79794100D03*
D13*
X52509100Y-94665800D03*
X55009100Y-94665800D03*
X41053700Y-100977700D03*
X43553700Y-100977700D03*
X49765900Y-108407200D03*
X52265900Y-108407200D03*
X45409800Y-94322900D03*
X47909800Y-94322900D03*
D23*
X31775400Y-83540600D03*
D24*
X29235400Y-83540600D03*
D16*
X28968700Y-71831200D03*
X28968700Y-68331080D03*
X28968700Y-75331320D03*
D17*
X49665900Y-99910900D03*
X52365900Y-99910900D03*
X54758600Y-103212900D03*
X57458600Y-103212900D03*
X58047900Y-98298000D03*
X60747900Y-98298000D03*
D25*
X44607300Y-81871000D03*
X44607300Y-83671000D03*
X39307300Y-81871000D03*
X39307300Y-83671000D03*
D11*
X54962700Y-82146500D03*
X54962700Y-82796500D03*
X54962700Y-83446500D03*
X54962700Y-84096500D03*
X59362700Y-84096500D03*
X59362700Y-83446500D03*
X59362700Y-82796500D03*
X59362700Y-82146500D03*
D26*
X47637700Y-61639700D03*
X47637700Y-65639700D03*
X47802800Y-88169500D03*
X47802800Y-84169500D03*
D25*
X44518400Y-61500200D03*
X44518400Y-63300200D03*
X39218400Y-61500200D03*
X39218400Y-63300200D03*
D27*
X54787500Y-65354200D03*
X49987500Y-65354200D03*
X54318200Y-88569800D03*
X59118200Y-88569800D03*
D28*
X56413400Y-58547000D03*
X57150000Y-58547000D03*
X57861200Y-58534300D03*
X57899300Y-60756800D03*
X57086500Y-60744100D03*
X56464200Y-60706000D03*
X57073800Y-60198000D03*
X57061100Y-59651900D03*
X57188100Y-59080400D03*
X57861200Y-59651900D03*
X56451500Y-59664600D03*
X56464200Y-60210700D03*
X56451500Y-59067700D03*
X57899300Y-60210700D03*
X57861200Y-59067700D03*
D29*
X50101500Y-52011900D02*
X50101500Y-54198100D01*
X50101500Y-54198100D02*
X50097600Y-54202000D01*
X57162700Y-58547000D02*
X57150000Y-58547000D01*
X57150000Y-58547000D02*
X57162700Y-58547000D01*
X57086500Y-60744100D02*
X57099200Y-60744100D01*
X57061100Y-59677300D02*
X57061100Y-59651900D01*
X56413400Y-59664600D02*
X56451500Y-59664600D01*
X56451500Y-59664600D02*
X56413400Y-59664600D01*
X56438800Y-60185300D02*
X56464200Y-60210700D01*
X56464200Y-60210700D02*
X56464200Y-60198000D01*
X56426100Y-59067700D02*
X56451500Y-59067700D01*
X57873900Y-59080400D02*
X57861200Y-59067700D01*
X52438300Y-54187100D02*
X52438300Y-55187100D01*
X52438300Y-55187100D02*
X52024800Y-55600600D01*
X52024800Y-55600600D02*
X37566600Y-55600600D01*
X37566600Y-55600600D02*
X37401500Y-55765700D01*
X37401500Y-55765700D02*
X37401500Y-63004700D01*
X37401500Y-63004700D02*
X37697000Y-63300200D01*
X37697000Y-63300200D02*
X39218400Y-63300200D01*
X38618400Y-63300200D02*
X39218400Y-63300200D01*
X55095800Y-58905500D02*
X54456700Y-58905500D01*
X55095800Y-59555500D02*
X54414300Y-59555500D01*
X54414300Y-59555500D02*
X54406800Y-59563000D01*
X55095800Y-60855500D02*
X54346200Y-60855500D01*
X54346200Y-60855500D02*
X54330600Y-60871100D01*
X55095800Y-60205500D02*
X54196100Y-60205500D01*
X54196100Y-60205500D02*
X54178200Y-60223400D01*
X47752000Y-56901400D02*
X47752000Y-58343800D01*
X47752000Y-58343800D02*
X47879000Y-58470800D01*
D30*
G36*
X46228000Y-63004700D02*
X46228081Y-63009233D01*
X46240781Y-63364833D01*
X46252544Y-63413854D01*
X46282452Y-63454437D01*
X46325793Y-63480187D01*
X46367700Y-63487300D01*
X50824613Y-63487300D01*
X50812702Y-65416916D01*
X50812700Y-65417700D01*
X50812700Y-66598800D01*
X41414700Y-66598800D01*
X41414700Y-62585600D01*
X46228000Y-62585600D01*
X46228000Y-63004700D01*
X46228000Y-63004700D01*
G37*
X46228000Y-63004700D02*
X46228081Y-63009233D01*
X46240781Y-63364833D01*
X46252544Y-63413854D01*
X46282452Y-63454437D01*
X46325793Y-63480187D01*
X46367700Y-63487300D01*
X50824613Y-63487300D01*
X50812702Y-65416916D01*
X50812700Y-65417700D01*
X50812700Y-66598800D01*
X41414700Y-66598800D01*
X41414700Y-62585600D01*
X46228000Y-62585600D01*
X46228000Y-63004700D01*
G36*
X46748096Y-48755299D02*
X65633678Y-48894071D01*
X65646221Y-69151051D01*
X51511200Y-69101148D01*
X51511200Y-61934881D01*
X51527249Y-61923587D01*
X51542469Y-61899202D01*
X55982309Y-61874398D01*
X56031663Y-61864116D01*
X56073128Y-61835443D01*
X56100171Y-61792897D01*
X56108600Y-61747400D01*
X56108600Y-58826400D01*
X58293000Y-58826400D01*
X58293000Y-62395100D01*
X58303006Y-62444510D01*
X58331447Y-62486135D01*
X58373841Y-62513415D01*
X58420000Y-62522100D01*
X63322200Y-62522100D01*
X63371610Y-62512094D01*
X63413235Y-62483653D01*
X63440515Y-62441259D01*
X63449199Y-62395470D01*
X63461899Y-58039370D01*
X63452038Y-57989931D01*
X63423718Y-57948224D01*
X63381404Y-57920821D01*
X63334900Y-57912000D01*
X58432700Y-57912000D01*
X58383290Y-57922006D01*
X58341665Y-57950447D01*
X58314385Y-57992841D01*
X58305717Y-58036952D01*
X58293017Y-58824352D01*
X58293000Y-58826400D01*
X56108600Y-58826400D01*
X56108600Y-58458100D01*
X56098594Y-58408690D01*
X56070153Y-58367065D01*
X56027759Y-58339785D01*
X55982937Y-58331107D01*
X53695600Y-58307030D01*
X53695600Y-50520600D01*
X53685594Y-50471190D01*
X53657153Y-50429565D01*
X53614759Y-50402285D01*
X53567245Y-50393607D01*
X48804745Y-50444407D01*
X48755445Y-50454939D01*
X48714126Y-50483823D01*
X48687300Y-50526505D01*
X48679100Y-50571400D01*
X48679100Y-55029400D01*
X37376345Y-55167238D01*
X37388559Y-48742770D01*
X46748096Y-48755299D01*
X46748096Y-48755299D01*
G37*
X46748096Y-48755299D02*
X65633678Y-48894071D01*
X65646221Y-69151051D01*
X51511200Y-69101148D01*
X51511200Y-61934881D01*
X51527249Y-61923587D01*
X51542469Y-61899202D01*
X55982309Y-61874398D01*
X56031663Y-61864116D01*
X56073128Y-61835443D01*
X56100171Y-61792897D01*
X56108600Y-61747400D01*
X56108600Y-58826400D01*
X58293000Y-58826400D01*
X58293000Y-62395100D01*
X58303006Y-62444510D01*
X58331447Y-62486135D01*
X58373841Y-62513415D01*
X58420000Y-62522100D01*
X63322200Y-62522100D01*
X63371610Y-62512094D01*
X63413235Y-62483653D01*
X63440515Y-62441259D01*
X63449199Y-62395470D01*
X63461899Y-58039370D01*
X63452038Y-57989931D01*
X63423718Y-57948224D01*
X63381404Y-57920821D01*
X63334900Y-57912000D01*
X58432700Y-57912000D01*
X58383290Y-57922006D01*
X58341665Y-57950447D01*
X58314385Y-57992841D01*
X58305717Y-58036952D01*
X58293017Y-58824352D01*
X58293000Y-58826400D01*
X56108600Y-58826400D01*
X56108600Y-58458100D01*
X56098594Y-58408690D01*
X56070153Y-58367065D01*
X56027759Y-58339785D01*
X55982937Y-58331107D01*
X53695600Y-58307030D01*
X53695600Y-50520600D01*
X53685594Y-50471190D01*
X53657153Y-50429565D01*
X53614759Y-50402285D01*
X53567245Y-50393607D01*
X48804745Y-50444407D01*
X48755445Y-50454939D01*
X48714126Y-50483823D01*
X48687300Y-50526505D01*
X48679100Y-50571400D01*
X48679100Y-55029400D01*
X37376345Y-55167238D01*
X37388559Y-48742770D01*
X46748096Y-48755299D01*
G36*
X62738000Y-59769111D02*
X62723165Y-59779247D01*
X62707044Y-59804300D01*
X61010800Y-59804300D01*
X61010800Y-59778900D01*
X61000794Y-59729490D01*
X60972353Y-59687865D01*
X60929959Y-59660585D01*
X60883800Y-59651900D01*
X58953400Y-59651900D01*
X58953400Y-59460920D01*
X60884604Y-59448697D01*
X60933950Y-59438379D01*
X60975393Y-59409675D01*
X61002404Y-59367109D01*
X61010800Y-59321700D01*
X61010800Y-58331100D01*
X62738000Y-58331100D01*
X62738000Y-59769111D01*
X62738000Y-59769111D01*
G37*
X62738000Y-59769111D02*
X62723165Y-59779247D01*
X62707044Y-59804300D01*
X61010800Y-59804300D01*
X61010800Y-59778900D01*
X61000794Y-59729490D01*
X60972353Y-59687865D01*
X60929959Y-59660585D01*
X60883800Y-59651900D01*
X58953400Y-59651900D01*
X58953400Y-59460920D01*
X60884604Y-59448697D01*
X60933950Y-59438379D01*
X60975393Y-59409675D01*
X61002404Y-59367109D01*
X61010800Y-59321700D01*
X61010800Y-58331100D01*
X62738000Y-58331100D01*
X62738000Y-59769111D01*
G36*
X60857910Y-60400831D02*
X60903337Y-60422692D01*
X60934600Y-60426600D01*
X62865000Y-60426600D01*
X62865000Y-61940811D01*
X62850165Y-61950947D01*
X62834044Y-61976000D01*
X61036200Y-61976000D01*
X61036200Y-60871100D01*
X61026194Y-60821690D01*
X61005626Y-60788449D01*
X60624626Y-60343949D01*
X60584873Y-60312946D01*
X60528200Y-60299600D01*
X58956786Y-60299600D01*
X58961799Y-60109100D01*
X60472825Y-60109100D01*
X60857910Y-60400831D01*
X60857910Y-60400831D01*
G37*
X60857910Y-60400831D02*
X60903337Y-60422692D01*
X60934600Y-60426600D01*
X62865000Y-60426600D01*
X62865000Y-61940811D01*
X62850165Y-61950947D01*
X62834044Y-61976000D01*
X61036200Y-61976000D01*
X61036200Y-60871100D01*
X61026194Y-60821690D01*
X61005626Y-60788449D01*
X60624626Y-60343949D01*
X60584873Y-60312946D01*
X60528200Y-60299600D01*
X58956786Y-60299600D01*
X58961799Y-60109100D01*
X60472825Y-60109100D01*
X60857910Y-60400831D01*
G36*
X40919400Y-67081051D02*
X40929271Y-67130489D01*
X40957597Y-67172191D01*
X40999916Y-67199587D01*
X41046400Y-67208400D01*
X50788719Y-67208400D01*
X50800000Y-68212415D01*
X50800000Y-69088125D01*
X38074475Y-69100700D01*
X37388800Y-69100700D01*
X37388800Y-63785352D01*
X38019598Y-62585600D01*
X40931750Y-62585600D01*
X40919400Y-67081051D01*
X40919400Y-67081051D01*
G37*
X40919400Y-67081051D02*
X40929271Y-67130489D01*
X40957597Y-67172191D01*
X40999916Y-67199587D01*
X41046400Y-67208400D01*
X50788719Y-67208400D01*
X50800000Y-68212415D01*
X50800000Y-69088125D01*
X38074475Y-69100700D01*
X37388800Y-69100700D01*
X37388800Y-63785352D01*
X38019598Y-62585600D01*
X40931750Y-62585600D01*
X40919400Y-67081051D01*
G36*
X55067200Y-60947300D02*
X50939700Y-60947300D01*
X50890290Y-60957306D01*
X50848665Y-60985747D01*
X50821385Y-61028141D01*
X50812700Y-61074300D01*
X50812700Y-62941200D01*
X46861318Y-62941200D01*
X46850289Y-62114007D01*
X46839625Y-62064734D01*
X46810632Y-62023493D01*
X46767878Y-61996781D01*
X46723300Y-61988700D01*
X41414700Y-61988700D01*
X41414700Y-60756800D01*
X55067200Y-60756800D01*
X55067200Y-60947300D01*
X55067200Y-60947300D01*
G37*
X55067200Y-60947300D02*
X50939700Y-60947300D01*
X50890290Y-60957306D01*
X50848665Y-60985747D01*
X50821385Y-61028141D01*
X50812700Y-61074300D01*
X50812700Y-62941200D01*
X46861318Y-62941200D01*
X46850289Y-62114007D01*
X46839625Y-62064734D01*
X46810632Y-62023493D01*
X46767878Y-61996781D01*
X46723300Y-61988700D01*
X41414700Y-61988700D01*
X41414700Y-60756800D01*
X55067200Y-60756800D01*
X55067200Y-60947300D01*
G36*
X50248500Y-52138900D02*
X50228500Y-52138900D01*
X50228500Y-52971850D01*
X50224600Y-52975750D01*
X50224600Y-53898800D01*
X49970600Y-53898800D01*
X49970600Y-53242050D01*
X49974500Y-53238150D01*
X49974500Y-52138900D01*
X49954500Y-52138900D01*
X49954500Y-51981100D01*
X50248500Y-51981100D01*
X50248500Y-52138900D01*
X50248500Y-52138900D01*
G37*
X50248500Y-52138900D02*
X50228500Y-52138900D01*
X50228500Y-52971850D01*
X50224600Y-52975750D01*
X50224600Y-53898800D01*
X49970600Y-53898800D01*
X49970600Y-53242050D01*
X49974500Y-53238150D01*
X49974500Y-52138900D01*
X49954500Y-52138900D01*
X49954500Y-51981100D01*
X50248500Y-51981100D01*
X50248500Y-52138900D01*
G36*
X50248500Y-52138900D02*
X50228500Y-52138900D01*
X50228500Y-52971850D01*
X50224600Y-52975750D01*
X50224600Y-53898800D01*
X49970600Y-53898800D01*
X49970600Y-53242050D01*
X49974500Y-53238150D01*
X49974500Y-52138900D01*
X49954500Y-52138900D01*
X49954500Y-51981100D01*
X50248500Y-51981100D01*
X50248500Y-52138900D01*
X50248500Y-52138900D01*
G37*
X50248500Y-52138900D02*
X50228500Y-52138900D01*
X50228500Y-52971850D01*
X50224600Y-52975750D01*
X50224600Y-53898800D01*
X49970600Y-53898800D01*
X49970600Y-53242050D01*
X49974500Y-53238150D01*
X49974500Y-52138900D01*
X49954500Y-52138900D01*
X49954500Y-51981100D01*
X50248500Y-51981100D01*
X50248500Y-52138900D01*
G36*
X51079400Y-59334400D02*
X51089406Y-59383810D01*
X51117847Y-59425435D01*
X51160241Y-59452715D01*
X51206400Y-59461400D01*
X55041800Y-59461400D01*
X55041800Y-59639200D01*
X49187100Y-59639200D01*
X49187100Y-56029489D01*
X49201935Y-56019353D01*
X49218056Y-55994300D01*
X51079400Y-55994300D01*
X51079400Y-59334400D01*
X51079400Y-59334400D01*
G37*
X51079400Y-59334400D02*
X51089406Y-59383810D01*
X51117847Y-59425435D01*
X51160241Y-59452715D01*
X51206400Y-59461400D01*
X55041800Y-59461400D01*
X55041800Y-59639200D01*
X49187100Y-59639200D01*
X49187100Y-56029489D01*
X49201935Y-56019353D01*
X49218056Y-55994300D01*
X51079400Y-55994300D01*
X51079400Y-59334400D01*
G36*
X52959000Y-58674000D02*
X52969006Y-58723410D01*
X52997447Y-58765035D01*
X53039841Y-58792315D01*
X53086000Y-58801000D01*
X54495700Y-58801000D01*
X54495700Y-59004200D01*
X51917600Y-59004200D01*
X51917600Y-57632600D01*
X52959000Y-57632600D01*
X52959000Y-58674000D01*
X52959000Y-58674000D01*
G37*
X52959000Y-58674000D02*
X52969006Y-58723410D01*
X52997447Y-58765035D01*
X53039841Y-58792315D01*
X53086000Y-58801000D01*
X54495700Y-58801000D01*
X54495700Y-59004200D01*
X51917600Y-59004200D01*
X51917600Y-57632600D01*
X52959000Y-57632600D01*
X52959000Y-58674000D01*
G36*
X48704500Y-59982100D02*
X48714506Y-60031510D01*
X48742947Y-60073135D01*
X48785341Y-60100415D01*
X48831500Y-60109100D01*
X55041800Y-60109100D01*
X55041800Y-60299600D01*
X46870904Y-60299600D01*
X46802552Y-60291056D01*
X46752283Y-60294856D01*
X46742834Y-60299530D01*
X41046682Y-60286900D01*
X40997249Y-60296797D01*
X40955562Y-60325145D01*
X40928188Y-60367479D01*
X40919400Y-60413900D01*
X40919400Y-62060320D01*
X40898060Y-62103000D01*
X38011100Y-62103000D01*
X38011100Y-56057800D01*
X46613065Y-56057800D01*
X46639041Y-56074515D01*
X46685200Y-56083200D01*
X46736000Y-56083200D01*
X46785410Y-56073194D01*
X46827035Y-56044753D01*
X46843156Y-56019700D01*
X48704500Y-56019700D01*
X48704500Y-59982100D01*
X48704500Y-59982100D01*
G37*
X48704500Y-59982100D02*
X48714506Y-60031510D01*
X48742947Y-60073135D01*
X48785341Y-60100415D01*
X48831500Y-60109100D01*
X55041800Y-60109100D01*
X55041800Y-60299600D01*
X46870904Y-60299600D01*
X46802552Y-60291056D01*
X46752283Y-60294856D01*
X46742834Y-60299530D01*
X41046682Y-60286900D01*
X40997249Y-60296797D01*
X40955562Y-60325145D01*
X40928188Y-60367479D01*
X40919400Y-60413900D01*
X40919400Y-62060320D01*
X40898060Y-62103000D01*
X38011100Y-62103000D01*
X38011100Y-56057800D01*
X46613065Y-56057800D01*
X46639041Y-56074515D01*
X46685200Y-56083200D01*
X46736000Y-56083200D01*
X46785410Y-56073194D01*
X46827035Y-56044753D01*
X46843156Y-56019700D01*
X48704500Y-56019700D01*
X48704500Y-59982100D01*
G36*
X32218094Y-52108100D02*
X23787100Y-52108100D01*
X23787100Y-52008306D01*
X27952700Y-47842706D01*
X32218094Y-52108100D01*
X32218094Y-52108100D01*
G37*
X32218094Y-52108100D02*
X23787100Y-52108100D01*
X23787100Y-52008306D01*
X27952700Y-47842706D01*
X32218094Y-52108100D01*
M02*
