M48
;DRILL file {KiCad 4.0.5} date 01/06/17 14:55:20
;FORMAT={-:-/ absolute / inch / decimal}
FMAT,2
INCH,TZ
T1C0.008
T2C0.031
T3C0.032
T4C0.039
T5C0.047
%
G90
G05
M72
T1
X2.221Y-2.305
X2.2225Y-2.3255
X2.2225Y-2.349
X2.223Y-2.3705
X2.223Y-2.39
X2.2465Y-2.3485
X2.247Y-2.37
X2.2475Y-2.3915
X2.25Y-2.305
X2.2515Y-2.326
X2.278Y-2.3045
X2.278Y-2.3255
X2.278Y-2.3485
X2.2795Y-2.3705
X2.2795Y-2.392
T2
X3.5245Y-1.745
X3.5245Y-1.845
X3.5245Y-1.945
X3.8245Y-1.745
X3.8245Y-1.845
X3.8245Y-1.945
T3
X3.4145Y-1.1
X3.5545Y-1.28
X3.6045Y-1.18
X3.6545Y-1.28
X3.7045Y-1.18
X3.7545Y-1.28
X3.8045Y-1.18
X3.9445Y-1.1
X4.0845Y-1.1
X4.2245Y-1.28
X4.2745Y-1.18
X4.3245Y-1.28
X4.3745Y-1.18
X4.4245Y-1.28
X4.4745Y-1.18
X4.6145Y-1.1
T4
X1.151Y-3.289
X1.1923Y-3.1415
X1.251Y-3.289
X1.271Y-3.1415
T5
X1.138Y-2.0088
X1.138Y-2.1466
X1.138Y-2.2844
X1.138Y-2.4222
X1.1405Y-2.6902
X1.1405Y-2.828
X1.1405Y-2.9658
X3.0461Y-1.008
X3.1839Y-1.008
T0
M30
