G04 #@! TF.FileFunction,Legend,Top*
%FSLAX46Y46*%
G04 Gerber Fmt 4.6, Leading zero omitted, Abs format (unit mm)*
G04 Created by KiCad (PCBNEW 4.0.5) date 01/06/17 14:54:28*
%MOMM*%
%LPD*%
G01*
G04 APERTURE LIST*
%ADD10C,0.100000*%
%ADD11C,0.150000*%
%ADD12C,0.120000*%
G04 APERTURE END LIST*
D10*
D11*
X55525800Y-58205500D02*
X55525800Y-58380500D01*
X58875800Y-58205500D02*
X58875800Y-58455500D01*
X58875800Y-61555500D02*
X58875800Y-61305500D01*
X55525800Y-61555500D02*
X55525800Y-61305500D01*
X55525800Y-58205500D02*
X58875800Y-58205500D01*
X55525800Y-61555500D02*
X58875800Y-61555500D01*
X55525800Y-58380500D02*
X54275800Y-58380500D01*
X49251500Y-50261900D02*
X49251500Y-51261900D01*
X50951500Y-51261900D02*
X50951500Y-50261900D01*
X62619000Y-59943100D02*
X63619000Y-59943100D01*
X63619000Y-58243100D02*
X62619000Y-58243100D01*
X50782600Y-69061700D02*
X51782600Y-69061700D01*
X51782600Y-67361700D02*
X50782600Y-67361700D01*
X117208300Y-34544000D02*
X117208300Y-21336000D01*
X103746300Y-34544000D02*
X103746300Y-21336000D01*
X117208300Y-21336000D02*
X103746300Y-21336000D01*
X104508300Y-34544000D02*
X103746300Y-34544000D01*
X117208300Y-34544000D02*
X104508300Y-34544000D01*
X100190300Y-34544000D02*
X100190300Y-21336000D01*
X86728300Y-34544000D02*
X86728300Y-21336000D01*
X100190300Y-21336000D02*
X86728300Y-21336000D01*
X87490300Y-34544000D02*
X86728300Y-34544000D01*
X100190300Y-34544000D02*
X87490300Y-34544000D01*
X31356300Y-48023780D02*
X31356300Y-64523620D01*
X24655780Y-61523880D02*
X26454100Y-61523880D01*
X26454100Y-61523880D02*
X26454100Y-52524660D01*
X24655780Y-52524660D02*
X26454100Y-52524660D01*
X26454100Y-48023780D02*
X26454100Y-50523140D01*
X26454100Y-50523140D02*
X24704040Y-50523140D01*
X24655780Y-56273700D02*
X24655780Y-48023780D01*
X24655780Y-48023780D02*
X33154620Y-48023780D01*
X33154620Y-48023780D02*
X33154620Y-64523620D01*
X33154620Y-64523620D02*
X24655780Y-64523620D01*
X24655780Y-64523620D02*
X24655780Y-56273700D01*
X74371200Y-23352760D02*
X83870800Y-23352760D01*
X79369920Y-29852620D02*
X79369920Y-27853640D01*
X79369920Y-27853640D02*
X80871060Y-27853640D01*
X80871060Y-27853640D02*
X80871060Y-29852620D01*
X74371200Y-27853640D02*
X77370940Y-27853640D01*
X77370940Y-27853640D02*
X77370940Y-29804360D01*
X83870800Y-29852620D02*
X83870800Y-21353780D01*
X83870800Y-21353780D02*
X74371200Y-21353780D01*
X74371200Y-21353780D02*
X74371200Y-29852620D01*
X74371200Y-29852620D02*
X83870800Y-29852620D01*
X90141500Y-37834600D02*
X91341500Y-37834600D01*
X91341500Y-39584600D02*
X90141500Y-39584600D01*
X53313300Y-54937100D02*
X53313300Y-56137100D01*
X51563300Y-56137100D02*
X51563300Y-54937100D01*
X50972600Y-54952000D02*
X50972600Y-56152000D01*
X49222600Y-56152000D02*
X49222600Y-54952000D01*
X62595200Y-60326300D02*
X63795200Y-60326300D01*
X63795200Y-62076300D02*
X62595200Y-62076300D01*
D12*
X92332300Y-50793000D02*
G75*
G02X94332300Y-50793000I1000000J0D01*
G01*
X94332300Y-50793000D02*
X96102300Y-50793000D01*
X96102300Y-50793000D02*
X96102300Y-42933000D01*
X96102300Y-42933000D02*
X90562300Y-42933000D01*
X90562300Y-42933000D02*
X90562300Y-50793000D01*
X90562300Y-50793000D02*
X92332300Y-50793000D01*
D11*
X48602000Y-56151400D02*
X48602000Y-55151400D01*
X46902000Y-55151400D02*
X46902000Y-56151400D01*
D10*
X29283400Y-80794100D02*
X29283400Y-78794100D01*
X29283400Y-78794100D02*
X26283400Y-78794100D01*
X26283400Y-78794100D02*
X26283400Y-80794100D01*
X26283400Y-80794100D02*
X29283400Y-80794100D01*
X29283400Y-80794100D02*
X29283400Y-78794100D01*
X29283400Y-78794100D02*
X26283400Y-78794100D01*
X26283400Y-78794100D02*
X26283400Y-80794100D01*
X26283400Y-80794100D02*
X29283400Y-80794100D01*
X26283400Y-79794100D02*
X26283400Y-79794100D01*
X26283400Y-79794100D02*
X20283400Y-79794100D01*
X20283400Y-79794100D02*
X20283400Y-79794100D01*
X20283400Y-79794100D02*
X26283400Y-79794100D01*
X29283400Y-79794100D02*
X29283400Y-79794100D01*
X29283400Y-79794100D02*
X29283400Y-79794100D01*
X32283400Y-79794100D02*
X31283400Y-79794100D01*
X32283400Y-79794100D02*
X31283400Y-79794100D01*
X26283400Y-79794100D02*
X20283400Y-79794100D01*
X26283400Y-79794100D02*
X20283400Y-79794100D01*
X26283400Y-79794100D02*
X20283400Y-79794100D01*
X26283400Y-79794100D02*
X20283400Y-79794100D01*
X26283400Y-79794100D02*
X20283400Y-79794100D01*
X26283400Y-79794100D02*
X20283400Y-79794100D01*
X26283400Y-79794100D02*
X20283400Y-79794100D01*
X33283400Y-79794100D02*
X33283400Y-80794100D01*
X33283400Y-80794100D02*
X32283400Y-80794100D01*
D11*
X54259100Y-93815800D02*
X53259100Y-93815800D01*
X53259100Y-95515800D02*
X54259100Y-95515800D01*
X42803700Y-100127700D02*
X41803700Y-100127700D01*
X41803700Y-101827700D02*
X42803700Y-101827700D01*
X51515900Y-107557200D02*
X50515900Y-107557200D01*
X50515900Y-109257200D02*
X51515900Y-109257200D01*
X47159800Y-93472900D02*
X46159800Y-93472900D01*
X46159800Y-95172900D02*
X47159800Y-95172900D01*
D12*
X27955400Y-84930600D02*
X27955400Y-82150600D01*
X27955400Y-82150600D02*
X25215400Y-82150600D01*
X25215400Y-82150600D02*
X25215400Y-84930600D01*
X25215400Y-84930600D02*
X27955400Y-84930600D01*
X27955400Y-84930600D02*
X27955400Y-82270600D01*
X27955400Y-82270600D02*
X25215400Y-82270600D01*
X25215400Y-82270600D02*
X25215400Y-84930600D01*
X25215400Y-84930600D02*
X27955400Y-84930600D01*
X25215400Y-83980600D02*
X25215400Y-83100600D01*
X25215400Y-83100600D02*
X19215400Y-83100600D01*
X19215400Y-83100600D02*
X19215400Y-83980600D01*
X19215400Y-83980600D02*
X25215400Y-83980600D01*
X28265400Y-83980600D02*
X27955400Y-83980600D01*
X28265400Y-83100600D02*
X27955400Y-83100600D01*
X30805400Y-83980600D02*
X30205400Y-83980600D01*
X30805400Y-83100600D02*
X30205400Y-83100600D01*
X25215400Y-83860600D02*
X19215400Y-83860600D01*
X25215400Y-83740600D02*
X19215400Y-83740600D01*
X25215400Y-83620600D02*
X19215400Y-83620600D01*
X25215400Y-83500600D02*
X19215400Y-83500600D01*
X25215400Y-83380600D02*
X19215400Y-83380600D01*
X25215400Y-83260600D02*
X19215400Y-83260600D01*
X25215400Y-83140600D02*
X19215400Y-83140600D01*
X33045400Y-83540600D02*
X33045400Y-84810600D01*
X33045400Y-84810600D02*
X31775400Y-84810600D01*
D11*
X31419800Y-65331340D02*
X31419800Y-78331060D01*
X24719280Y-76832460D02*
X26517600Y-76832460D01*
X26517600Y-76832460D02*
X26517600Y-78331060D01*
X24719280Y-69832220D02*
X26517600Y-69832220D01*
X26517600Y-69832220D02*
X26517600Y-74830940D01*
X26517600Y-74830940D02*
X24719280Y-74830940D01*
X26517600Y-65331340D02*
X26517600Y-67830700D01*
X26517600Y-67830700D02*
X24719280Y-67830700D01*
X24719280Y-71831200D02*
X24719280Y-65331340D01*
X24719280Y-65331340D02*
X33218120Y-65331340D01*
X33218120Y-65331340D02*
X33218120Y-78331060D01*
X33218120Y-78331060D02*
X24719280Y-78331060D01*
X24719280Y-78331060D02*
X24719280Y-71831200D01*
X51615900Y-100785900D02*
X50415900Y-100785900D01*
X50415900Y-99035900D02*
X51615900Y-99035900D01*
X56708600Y-104087900D02*
X55508600Y-104087900D01*
X55508600Y-102337900D02*
X56708600Y-102337900D01*
X59997900Y-99173000D02*
X58797900Y-99173000D01*
X58797900Y-97423000D02*
X59997900Y-97423000D01*
X38207300Y-85771000D02*
G75*
G03X38757300Y-86421000I600000J-50000D01*
G01*
X38907300Y-86421000D02*
X38757300Y-86421000D01*
X39107300Y-79121000D02*
X38857300Y-79121000D01*
X38907300Y-86421000D02*
X39007300Y-86421000D01*
X45707300Y-85921000D02*
X45707300Y-85821000D01*
X45707300Y-79721000D02*
X45707300Y-79921000D01*
X45107300Y-79121000D02*
X45007300Y-79121000D01*
X45007300Y-79121000D02*
X44607300Y-79121000D01*
X45007300Y-79121000D02*
X39107300Y-79121000D01*
X45707300Y-79821000D02*
X45707300Y-85821000D01*
X39007300Y-86421000D02*
X45007300Y-86421000D01*
X38207300Y-79721000D02*
X38207300Y-85721000D01*
X38807300Y-79121000D02*
G75*
G03X38207300Y-79721000I0J-600000D01*
G01*
X45007300Y-86421000D02*
G75*
G03X45707300Y-85921000I100000J600000D01*
G01*
X45707300Y-79721000D02*
G75*
G03X45107300Y-79121000I-600000J0D01*
G01*
X55487700Y-81446500D02*
X55487700Y-81621500D01*
X58837700Y-81446500D02*
X58837700Y-81696500D01*
X58837700Y-84796500D02*
X58837700Y-84546500D01*
X55487700Y-84796500D02*
X55487700Y-84546500D01*
X55487700Y-81446500D02*
X58837700Y-81446500D01*
X55487700Y-84796500D02*
X58837700Y-84796500D01*
X55487700Y-81621500D02*
X54237700Y-81621500D01*
X48662700Y-64639700D02*
X48662700Y-62639700D01*
X46612700Y-62639700D02*
X46612700Y-64639700D01*
X46777800Y-85169500D02*
X46777800Y-87169500D01*
X48827800Y-87169500D02*
X48827800Y-85169500D01*
X38118400Y-65400200D02*
G75*
G03X38668400Y-66050200I600000J-50000D01*
G01*
X38818400Y-66050200D02*
X38668400Y-66050200D01*
X39018400Y-58750200D02*
X38768400Y-58750200D01*
X38818400Y-66050200D02*
X38918400Y-66050200D01*
X45618400Y-65550200D02*
X45618400Y-65450200D01*
X45618400Y-59350200D02*
X45618400Y-59550200D01*
X45018400Y-58750200D02*
X44918400Y-58750200D01*
X44918400Y-58750200D02*
X44518400Y-58750200D01*
X44918400Y-58750200D02*
X39018400Y-58750200D01*
X45618400Y-59450200D02*
X45618400Y-65450200D01*
X38918400Y-66050200D02*
X44918400Y-66050200D01*
X38118400Y-59350200D02*
X38118400Y-65350200D01*
X38718400Y-58750200D02*
G75*
G03X38118400Y-59350200I0J-600000D01*
G01*
X44918400Y-66050200D02*
G75*
G03X45618400Y-65550200I100000J600000D01*
G01*
X45618400Y-59350200D02*
G75*
G03X45018400Y-58750200I-600000J0D01*
G01*
D12*
X49987500Y-66854200D02*
X55687500Y-66854200D01*
X55687500Y-66854200D02*
X55687500Y-63854200D01*
X55687500Y-63854200D02*
X49987500Y-63854200D01*
X59118200Y-87069800D02*
X53418200Y-87069800D01*
X53418200Y-87069800D02*
X53418200Y-90069800D01*
X53418200Y-90069800D02*
X59118200Y-90069800D01*
D11*
X56438895Y-56732881D02*
X56438895Y-57542405D01*
X56486514Y-57637643D01*
X56534133Y-57685262D01*
X56629371Y-57732881D01*
X56819848Y-57732881D01*
X56915086Y-57685262D01*
X56962705Y-57637643D01*
X57010324Y-57542405D01*
X57010324Y-56732881D01*
X57438895Y-56828119D02*
X57486514Y-56780500D01*
X57581752Y-56732881D01*
X57819848Y-56732881D01*
X57915086Y-56780500D01*
X57962705Y-56828119D01*
X58010324Y-56923357D01*
X58010324Y-57018595D01*
X57962705Y-57161452D01*
X57391276Y-57732881D01*
X58010324Y-57732881D01*
X48358643Y-50928566D02*
X48406262Y-50976185D01*
X48453881Y-51119042D01*
X48453881Y-51214280D01*
X48406262Y-51357138D01*
X48311024Y-51452376D01*
X48215786Y-51499995D01*
X48025310Y-51547614D01*
X47882452Y-51547614D01*
X47691976Y-51499995D01*
X47596738Y-51452376D01*
X47501500Y-51357138D01*
X47453881Y-51214280D01*
X47453881Y-51119042D01*
X47501500Y-50976185D01*
X47549119Y-50928566D01*
X48453881Y-49976185D02*
X48453881Y-50547614D01*
X48453881Y-50261900D02*
X47453881Y-50261900D01*
X47596738Y-50357138D01*
X47691976Y-50452376D01*
X47739595Y-50547614D01*
X62952334Y-61550243D02*
X62904715Y-61597862D01*
X62761858Y-61645481D01*
X62666620Y-61645481D01*
X62523762Y-61597862D01*
X62428524Y-61502624D01*
X62380905Y-61407386D01*
X62333286Y-61216910D01*
X62333286Y-61074052D01*
X62380905Y-60883576D01*
X62428524Y-60788338D01*
X62523762Y-60693100D01*
X62666620Y-60645481D01*
X62761858Y-60645481D01*
X62904715Y-60693100D01*
X62952334Y-60740719D01*
X63333286Y-60740719D02*
X63380905Y-60693100D01*
X63476143Y-60645481D01*
X63714239Y-60645481D01*
X63809477Y-60693100D01*
X63857096Y-60740719D01*
X63904715Y-60835957D01*
X63904715Y-60931195D01*
X63857096Y-61074052D01*
X63285667Y-61645481D01*
X63904715Y-61645481D01*
X51115934Y-70668843D02*
X51068315Y-70716462D01*
X50925458Y-70764081D01*
X50830220Y-70764081D01*
X50687362Y-70716462D01*
X50592124Y-70621224D01*
X50544505Y-70525986D01*
X50496886Y-70335510D01*
X50496886Y-70192652D01*
X50544505Y-70002176D01*
X50592124Y-69906938D01*
X50687362Y-69811700D01*
X50830220Y-69764081D01*
X50925458Y-69764081D01*
X51068315Y-69811700D01*
X51115934Y-69859319D01*
X51973077Y-70097414D02*
X51973077Y-70764081D01*
X51734981Y-69716462D02*
X51496886Y-70430748D01*
X52115934Y-70430748D01*
X110016967Y-23074381D02*
X110016967Y-23788667D01*
X109969347Y-23931524D01*
X109874109Y-24026762D01*
X109731252Y-24074381D01*
X109636014Y-24074381D01*
X111016967Y-24074381D02*
X110445538Y-24074381D01*
X110731252Y-24074381D02*
X110731252Y-23074381D01*
X110636014Y-23217238D01*
X110540776Y-23312476D01*
X110445538Y-23360095D01*
X92998967Y-23074381D02*
X92998967Y-23788667D01*
X92951347Y-23931524D01*
X92856109Y-24026762D01*
X92713252Y-24074381D01*
X92618014Y-24074381D01*
X93427538Y-23169619D02*
X93475157Y-23122000D01*
X93570395Y-23074381D01*
X93808491Y-23074381D01*
X93903729Y-23122000D01*
X93951348Y-23169619D01*
X93998967Y-23264857D01*
X93998967Y-23360095D01*
X93951348Y-23502952D01*
X93379919Y-24074381D01*
X93998967Y-24074381D01*
X35707581Y-57011795D02*
X34707581Y-57011795D01*
X34707581Y-56630842D01*
X34755200Y-56535604D01*
X34802819Y-56487985D01*
X34898057Y-56440366D01*
X35040914Y-56440366D01*
X35136152Y-56487985D01*
X35183771Y-56535604D01*
X35231390Y-56630842D01*
X35231390Y-57011795D01*
X35707581Y-55487985D02*
X35707581Y-56059414D01*
X35707581Y-55773700D02*
X34707581Y-55773700D01*
X34850438Y-55868938D01*
X34945676Y-55964176D01*
X34993295Y-56059414D01*
X78382905Y-19705581D02*
X78382905Y-18705581D01*
X78763858Y-18705581D01*
X78859096Y-18753200D01*
X78906715Y-18800819D01*
X78954334Y-18896057D01*
X78954334Y-19038914D01*
X78906715Y-19134152D01*
X78859096Y-19181771D01*
X78763858Y-19229390D01*
X78382905Y-19229390D01*
X79335286Y-18800819D02*
X79382905Y-18753200D01*
X79478143Y-18705581D01*
X79716239Y-18705581D01*
X79811477Y-18753200D01*
X79859096Y-18800819D01*
X79906715Y-18896057D01*
X79906715Y-18991295D01*
X79859096Y-19134152D01*
X79287667Y-19705581D01*
X79906715Y-19705581D01*
X90574834Y-41261981D02*
X90241500Y-40785790D01*
X90003405Y-41261981D02*
X90003405Y-40261981D01*
X90384358Y-40261981D01*
X90479596Y-40309600D01*
X90527215Y-40357219D01*
X90574834Y-40452457D01*
X90574834Y-40595314D01*
X90527215Y-40690552D01*
X90479596Y-40738171D01*
X90384358Y-40785790D01*
X90003405Y-40785790D01*
X91527215Y-41261981D02*
X90955786Y-41261981D01*
X91241500Y-41261981D02*
X91241500Y-40261981D01*
X91146262Y-40404838D01*
X91051024Y-40500076D01*
X90955786Y-40547695D01*
X54414681Y-52274766D02*
X53938490Y-52608100D01*
X54414681Y-52846195D02*
X53414681Y-52846195D01*
X53414681Y-52465242D01*
X53462300Y-52370004D01*
X53509919Y-52322385D01*
X53605157Y-52274766D01*
X53748014Y-52274766D01*
X53843252Y-52322385D01*
X53890871Y-52370004D01*
X53938490Y-52465242D01*
X53938490Y-52846195D01*
X53509919Y-51893814D02*
X53462300Y-51846195D01*
X53414681Y-51750957D01*
X53414681Y-51512861D01*
X53462300Y-51417623D01*
X53509919Y-51370004D01*
X53605157Y-51322385D01*
X53700395Y-51322385D01*
X53843252Y-51370004D01*
X54414681Y-51941433D01*
X54414681Y-51322385D01*
X47975781Y-59234366D02*
X47499590Y-59567700D01*
X47975781Y-59805795D02*
X46975781Y-59805795D01*
X46975781Y-59424842D01*
X47023400Y-59329604D01*
X47071019Y-59281985D01*
X47166257Y-59234366D01*
X47309114Y-59234366D01*
X47404352Y-59281985D01*
X47451971Y-59329604D01*
X47499590Y-59424842D01*
X47499590Y-59805795D01*
X46975781Y-58901033D02*
X46975781Y-58281985D01*
X47356733Y-58615319D01*
X47356733Y-58472461D01*
X47404352Y-58377223D01*
X47451971Y-58329604D01*
X47547210Y-58281985D01*
X47785305Y-58281985D01*
X47880543Y-58329604D01*
X47928162Y-58377223D01*
X47975781Y-58472461D01*
X47975781Y-58758176D01*
X47928162Y-58853414D01*
X47880543Y-58901033D01*
X63028534Y-63753681D02*
X62695200Y-63277490D01*
X62457105Y-63753681D02*
X62457105Y-62753681D01*
X62838058Y-62753681D01*
X62933296Y-62801300D01*
X62980915Y-62848919D01*
X63028534Y-62944157D01*
X63028534Y-63087014D01*
X62980915Y-63182252D01*
X62933296Y-63229871D01*
X62838058Y-63277490D01*
X62457105Y-63277490D01*
X63885677Y-63087014D02*
X63885677Y-63753681D01*
X63647581Y-62706062D02*
X63409486Y-63420348D01*
X64028534Y-63420348D01*
X92570395Y-51245381D02*
X92570395Y-52054905D01*
X92618014Y-52150143D01*
X92665633Y-52197762D01*
X92760871Y-52245381D01*
X92951348Y-52245381D01*
X93046586Y-52197762D01*
X93094205Y-52150143D01*
X93141824Y-52054905D01*
X93141824Y-51245381D01*
X94141824Y-52245381D02*
X93570395Y-52245381D01*
X93856109Y-52245381D02*
X93856109Y-51245381D01*
X93760871Y-51388238D01*
X93665633Y-51483476D01*
X93570395Y-51531095D01*
X46508943Y-52452566D02*
X46556562Y-52500185D01*
X46604181Y-52643042D01*
X46604181Y-52738280D01*
X46556562Y-52881138D01*
X46461324Y-52976376D01*
X46366086Y-53023995D01*
X46175610Y-53071614D01*
X46032752Y-53071614D01*
X45842276Y-53023995D01*
X45747038Y-52976376D01*
X45651800Y-52881138D01*
X45604181Y-52738280D01*
X45604181Y-52643042D01*
X45651800Y-52500185D01*
X45699419Y-52452566D01*
X45604181Y-51547804D02*
X45604181Y-52023995D01*
X46080371Y-52071614D01*
X46032752Y-52023995D01*
X45985133Y-51928757D01*
X45985133Y-51690661D01*
X46032752Y-51595423D01*
X46080371Y-51547804D01*
X46175610Y-51500185D01*
X46413705Y-51500185D01*
X46508943Y-51547804D01*
X46556562Y-51595423D01*
X46604181Y-51690661D01*
X46604181Y-51928757D01*
X46556562Y-52023995D01*
X46508943Y-52071614D01*
X26450067Y-81246481D02*
X26450067Y-81960767D01*
X26402447Y-82103624D01*
X26307209Y-82198862D01*
X26164352Y-82246481D01*
X26069114Y-82246481D01*
X26926257Y-82246481D02*
X26926257Y-81246481D01*
X27307210Y-81246481D01*
X27402448Y-81294100D01*
X27450067Y-81341719D01*
X27497686Y-81436957D01*
X27497686Y-81579814D01*
X27450067Y-81675052D01*
X27402448Y-81722671D01*
X27307210Y-81770290D01*
X26926257Y-81770290D01*
X28450067Y-82246481D02*
X27878638Y-82246481D01*
X28164352Y-82246481D02*
X28164352Y-81246481D01*
X28069114Y-81389338D01*
X27973876Y-81484576D01*
X27878638Y-81532195D01*
X53592434Y-92922943D02*
X53544815Y-92970562D01*
X53401958Y-93018181D01*
X53306720Y-93018181D01*
X53163862Y-92970562D01*
X53068624Y-92875324D01*
X53021005Y-92780086D01*
X52973386Y-92589610D01*
X52973386Y-92446752D01*
X53021005Y-92256276D01*
X53068624Y-92161038D01*
X53163862Y-92065800D01*
X53306720Y-92018181D01*
X53401958Y-92018181D01*
X53544815Y-92065800D01*
X53592434Y-92113419D01*
X54449577Y-92018181D02*
X54259100Y-92018181D01*
X54163862Y-92065800D01*
X54116243Y-92113419D01*
X54021005Y-92256276D01*
X53973386Y-92446752D01*
X53973386Y-92827705D01*
X54021005Y-92922943D01*
X54068624Y-92970562D01*
X54163862Y-93018181D01*
X54354339Y-93018181D01*
X54449577Y-92970562D01*
X54497196Y-92922943D01*
X54544815Y-92827705D01*
X54544815Y-92589610D01*
X54497196Y-92494371D01*
X54449577Y-92446752D01*
X54354339Y-92399133D01*
X54163862Y-92399133D01*
X54068624Y-92446752D01*
X54021005Y-92494371D01*
X53973386Y-92589610D01*
X42137034Y-99234843D02*
X42089415Y-99282462D01*
X41946558Y-99330081D01*
X41851320Y-99330081D01*
X41708462Y-99282462D01*
X41613224Y-99187224D01*
X41565605Y-99091986D01*
X41517986Y-98901510D01*
X41517986Y-98758652D01*
X41565605Y-98568176D01*
X41613224Y-98472938D01*
X41708462Y-98377700D01*
X41851320Y-98330081D01*
X41946558Y-98330081D01*
X42089415Y-98377700D01*
X42137034Y-98425319D01*
X42470367Y-98330081D02*
X43137034Y-98330081D01*
X42708462Y-99330081D01*
X50849234Y-106664343D02*
X50801615Y-106711962D01*
X50658758Y-106759581D01*
X50563520Y-106759581D01*
X50420662Y-106711962D01*
X50325424Y-106616724D01*
X50277805Y-106521486D01*
X50230186Y-106331010D01*
X50230186Y-106188152D01*
X50277805Y-105997676D01*
X50325424Y-105902438D01*
X50420662Y-105807200D01*
X50563520Y-105759581D01*
X50658758Y-105759581D01*
X50801615Y-105807200D01*
X50849234Y-105854819D01*
X51325424Y-106759581D02*
X51515900Y-106759581D01*
X51611139Y-106711962D01*
X51658758Y-106664343D01*
X51753996Y-106521486D01*
X51801615Y-106331010D01*
X51801615Y-105950057D01*
X51753996Y-105854819D01*
X51706377Y-105807200D01*
X51611139Y-105759581D01*
X51420662Y-105759581D01*
X51325424Y-105807200D01*
X51277805Y-105854819D01*
X51230186Y-105950057D01*
X51230186Y-106188152D01*
X51277805Y-106283390D01*
X51325424Y-106331010D01*
X51420662Y-106378629D01*
X51611139Y-106378629D01*
X51706377Y-106331010D01*
X51753996Y-106283390D01*
X51801615Y-106188152D01*
X46016943Y-92580043D02*
X45969324Y-92627662D01*
X45826467Y-92675281D01*
X45731229Y-92675281D01*
X45588371Y-92627662D01*
X45493133Y-92532424D01*
X45445514Y-92437186D01*
X45397895Y-92246710D01*
X45397895Y-92103852D01*
X45445514Y-91913376D01*
X45493133Y-91818138D01*
X45588371Y-91722900D01*
X45731229Y-91675281D01*
X45826467Y-91675281D01*
X45969324Y-91722900D01*
X46016943Y-91770519D01*
X46969324Y-92675281D02*
X46397895Y-92675281D01*
X46683609Y-92675281D02*
X46683609Y-91675281D01*
X46588371Y-91818138D01*
X46493133Y-91913376D01*
X46397895Y-91960995D01*
X47588371Y-91675281D02*
X47683610Y-91675281D01*
X47778848Y-91722900D01*
X47826467Y-91770519D01*
X47874086Y-91865757D01*
X47921705Y-92056233D01*
X47921705Y-92294329D01*
X47874086Y-92484805D01*
X47826467Y-92580043D01*
X47778848Y-92627662D01*
X47683610Y-92675281D01*
X47588371Y-92675281D01*
X47493133Y-92627662D01*
X47445514Y-92580043D01*
X47397895Y-92484805D01*
X47350276Y-92294329D01*
X47350276Y-92056233D01*
X47397895Y-91865757D01*
X47445514Y-91770519D01*
X47493133Y-91722900D01*
X47588371Y-91675281D01*
X25357067Y-85262981D02*
X25357067Y-85977267D01*
X25309447Y-86120124D01*
X25214209Y-86215362D01*
X25071352Y-86262981D01*
X24976114Y-86262981D01*
X25833257Y-86262981D02*
X25833257Y-85262981D01*
X26214210Y-85262981D01*
X26309448Y-85310600D01*
X26357067Y-85358219D01*
X26404686Y-85453457D01*
X26404686Y-85596314D01*
X26357067Y-85691552D01*
X26309448Y-85739171D01*
X26214210Y-85786790D01*
X25833257Y-85786790D01*
X26785638Y-85358219D02*
X26833257Y-85310600D01*
X26928495Y-85262981D01*
X27166591Y-85262981D01*
X27261829Y-85310600D01*
X27309448Y-85358219D01*
X27357067Y-85453457D01*
X27357067Y-85548695D01*
X27309448Y-85691552D01*
X26738019Y-86262981D01*
X27357067Y-86262981D01*
X35771081Y-72569295D02*
X34771081Y-72569295D01*
X34771081Y-72188342D01*
X34818700Y-72093104D01*
X34866319Y-72045485D01*
X34961557Y-71997866D01*
X35104414Y-71997866D01*
X35199652Y-72045485D01*
X35247271Y-72093104D01*
X35294890Y-72188342D01*
X35294890Y-72569295D01*
X34771081Y-71664533D02*
X34771081Y-71045485D01*
X35152033Y-71378819D01*
X35152033Y-71235961D01*
X35199652Y-71140723D01*
X35247271Y-71093104D01*
X35342510Y-71045485D01*
X35580605Y-71045485D01*
X35675843Y-71093104D01*
X35723462Y-71140723D01*
X35771081Y-71235961D01*
X35771081Y-71521676D01*
X35723462Y-71616914D01*
X35675843Y-71664533D01*
X50849234Y-98263281D02*
X50515900Y-97787090D01*
X50277805Y-98263281D02*
X50277805Y-97263281D01*
X50658758Y-97263281D01*
X50753996Y-97310900D01*
X50801615Y-97358519D01*
X50849234Y-97453757D01*
X50849234Y-97596614D01*
X50801615Y-97691852D01*
X50753996Y-97739471D01*
X50658758Y-97787090D01*
X50277805Y-97787090D01*
X51753996Y-97263281D02*
X51277805Y-97263281D01*
X51230186Y-97739471D01*
X51277805Y-97691852D01*
X51373043Y-97644233D01*
X51611139Y-97644233D01*
X51706377Y-97691852D01*
X51753996Y-97739471D01*
X51801615Y-97834710D01*
X51801615Y-98072805D01*
X51753996Y-98168043D01*
X51706377Y-98215662D01*
X51611139Y-98263281D01*
X51373043Y-98263281D01*
X51277805Y-98215662D01*
X51230186Y-98168043D01*
X55941934Y-101565281D02*
X55608600Y-101089090D01*
X55370505Y-101565281D02*
X55370505Y-100565281D01*
X55751458Y-100565281D01*
X55846696Y-100612900D01*
X55894315Y-100660519D01*
X55941934Y-100755757D01*
X55941934Y-100898614D01*
X55894315Y-100993852D01*
X55846696Y-101041471D01*
X55751458Y-101089090D01*
X55370505Y-101089090D01*
X56799077Y-100565281D02*
X56608600Y-100565281D01*
X56513362Y-100612900D01*
X56465743Y-100660519D01*
X56370505Y-100803376D01*
X56322886Y-100993852D01*
X56322886Y-101374805D01*
X56370505Y-101470043D01*
X56418124Y-101517662D01*
X56513362Y-101565281D01*
X56703839Y-101565281D01*
X56799077Y-101517662D01*
X56846696Y-101470043D01*
X56894315Y-101374805D01*
X56894315Y-101136710D01*
X56846696Y-101041471D01*
X56799077Y-100993852D01*
X56703839Y-100946233D01*
X56513362Y-100946233D01*
X56418124Y-100993852D01*
X56370505Y-101041471D01*
X56322886Y-101136710D01*
X59231234Y-96650381D02*
X58897900Y-96174190D01*
X58659805Y-96650381D02*
X58659805Y-95650381D01*
X59040758Y-95650381D01*
X59135996Y-95698000D01*
X59183615Y-95745619D01*
X59231234Y-95840857D01*
X59231234Y-95983714D01*
X59183615Y-96078952D01*
X59135996Y-96126571D01*
X59040758Y-96174190D01*
X58659805Y-96174190D01*
X59564567Y-95650381D02*
X60231234Y-95650381D01*
X59802662Y-96650381D01*
X41395395Y-77673381D02*
X41966824Y-77673381D01*
X41681109Y-78673381D02*
X41681109Y-77673381D01*
X42252538Y-77768619D02*
X42300157Y-77721000D01*
X42395395Y-77673381D01*
X42633491Y-77673381D01*
X42728729Y-77721000D01*
X42776348Y-77768619D01*
X42823967Y-77863857D01*
X42823967Y-77959095D01*
X42776348Y-78101952D01*
X42204919Y-78673381D01*
X42823967Y-78673381D01*
X56400795Y-79973881D02*
X56400795Y-80783405D01*
X56448414Y-80878643D01*
X56496033Y-80926262D01*
X56591271Y-80973881D01*
X56781748Y-80973881D01*
X56876986Y-80926262D01*
X56924605Y-80878643D01*
X56972224Y-80783405D01*
X56972224Y-79973881D01*
X57353176Y-79973881D02*
X57972224Y-79973881D01*
X57638890Y-80354833D01*
X57781748Y-80354833D01*
X57876986Y-80402452D01*
X57924605Y-80450071D01*
X57972224Y-80545310D01*
X57972224Y-80783405D01*
X57924605Y-80878643D01*
X57876986Y-80926262D01*
X57781748Y-80973881D01*
X57496033Y-80973881D01*
X57400795Y-80926262D01*
X57353176Y-80878643D01*
X50294843Y-63806366D02*
X50342462Y-63853985D01*
X50390081Y-63996842D01*
X50390081Y-64092080D01*
X50342462Y-64234938D01*
X50247224Y-64330176D01*
X50151986Y-64377795D01*
X49961510Y-64425414D01*
X49818652Y-64425414D01*
X49628176Y-64377795D01*
X49532938Y-64330176D01*
X49437700Y-64234938D01*
X49390081Y-64092080D01*
X49390081Y-63996842D01*
X49437700Y-63853985D01*
X49485319Y-63806366D01*
X49390081Y-63473033D02*
X49390081Y-62853985D01*
X49771033Y-63187319D01*
X49771033Y-63044461D01*
X49818652Y-62949223D01*
X49866271Y-62901604D01*
X49961510Y-62853985D01*
X50199605Y-62853985D01*
X50294843Y-62901604D01*
X50342462Y-62949223D01*
X50390081Y-63044461D01*
X50390081Y-63330176D01*
X50342462Y-63425414D01*
X50294843Y-63473033D01*
X45859943Y-86336166D02*
X45907562Y-86383785D01*
X45955181Y-86526642D01*
X45955181Y-86621880D01*
X45907562Y-86764738D01*
X45812324Y-86859976D01*
X45717086Y-86907595D01*
X45526610Y-86955214D01*
X45383752Y-86955214D01*
X45193276Y-86907595D01*
X45098038Y-86859976D01*
X45002800Y-86764738D01*
X44955181Y-86621880D01*
X44955181Y-86526642D01*
X45002800Y-86383785D01*
X45050419Y-86336166D01*
X45383752Y-85764738D02*
X45336133Y-85859976D01*
X45288514Y-85907595D01*
X45193276Y-85955214D01*
X45145657Y-85955214D01*
X45050419Y-85907595D01*
X45002800Y-85859976D01*
X44955181Y-85764738D01*
X44955181Y-85574261D01*
X45002800Y-85479023D01*
X45050419Y-85431404D01*
X45145657Y-85383785D01*
X45193276Y-85383785D01*
X45288514Y-85431404D01*
X45336133Y-85479023D01*
X45383752Y-85574261D01*
X45383752Y-85764738D01*
X45431371Y-85859976D01*
X45478990Y-85907595D01*
X45574229Y-85955214D01*
X45764705Y-85955214D01*
X45859943Y-85907595D01*
X45907562Y-85859976D01*
X45955181Y-85764738D01*
X45955181Y-85574261D01*
X45907562Y-85479023D01*
X45859943Y-85431404D01*
X45764705Y-85383785D01*
X45574229Y-85383785D01*
X45478990Y-85431404D01*
X45431371Y-85479023D01*
X45383752Y-85574261D01*
X41306495Y-57302581D02*
X41877924Y-57302581D01*
X41592209Y-58302581D02*
X41592209Y-57302581D01*
X42735067Y-58302581D02*
X42163638Y-58302581D01*
X42449352Y-58302581D02*
X42449352Y-57302581D01*
X42354114Y-57445438D01*
X42258876Y-57540676D01*
X42163638Y-57588295D01*
X51649405Y-68346581D02*
X51649405Y-67346581D01*
X51887500Y-67346581D01*
X52030358Y-67394200D01*
X52125596Y-67489438D01*
X52173215Y-67584676D01*
X52220834Y-67775152D01*
X52220834Y-67918010D01*
X52173215Y-68108486D01*
X52125596Y-68203724D01*
X52030358Y-68298962D01*
X51887500Y-68346581D01*
X51649405Y-68346581D01*
X53173215Y-68346581D02*
X52601786Y-68346581D01*
X52887500Y-68346581D02*
X52887500Y-67346581D01*
X52792262Y-67489438D01*
X52697024Y-67584676D01*
X52601786Y-67632295D01*
X55980105Y-86482181D02*
X55980105Y-85482181D01*
X56218200Y-85482181D01*
X56361058Y-85529800D01*
X56456296Y-85625038D01*
X56503915Y-85720276D01*
X56551534Y-85910752D01*
X56551534Y-86053610D01*
X56503915Y-86244086D01*
X56456296Y-86339324D01*
X56361058Y-86434562D01*
X56218200Y-86482181D01*
X55980105Y-86482181D01*
X56932486Y-85577419D02*
X56980105Y-85529800D01*
X57075343Y-85482181D01*
X57313439Y-85482181D01*
X57408677Y-85529800D01*
X57456296Y-85577419D01*
X57503915Y-85672657D01*
X57503915Y-85767895D01*
X57456296Y-85910752D01*
X56884867Y-86482181D01*
X57503915Y-86482181D01*
M02*
