G04 #@! TF.FileFunction,Copper,L2,Bot,Signal*
%FSLAX46Y46*%
G04 Gerber Fmt 4.6, Leading zero omitted, Abs format (unit mm)*
G04 Created by KiCad (PCBNEW 4.0.5) date 01/06/17 14:54:28*
%MOMM*%
%LPD*%
G01*
G04 APERTURE LIST*
%ADD10C,0.100000*%
%ADD11C,1.524000*%
%ADD12C,2.999740*%
%ADD13C,1.998980*%
%ADD14R,1.600000X1.600000*%
%ADD15O,1.600000X1.600000*%
%ADD16R,1.000000X1.000000*%
%ADD17O,1.000000X1.000000*%
%ADD18R,1.700000X1.700000*%
%ADD19O,1.700000X1.700000*%
%ADD20C,0.300000*%
%ADD21C,0.254000*%
G04 APERTURE END LIST*
D10*
D11*
X109842300Y-32512000D03*
X112382300Y-32512000D03*
X107302300Y-32512000D03*
X113652300Y-29972000D03*
X111112300Y-29972000D03*
X108572300Y-29972000D03*
D12*
X103746300Y-27940000D03*
X117208300Y-27940000D03*
D11*
X92824300Y-32512000D03*
X95364300Y-32512000D03*
X90284300Y-32512000D03*
X96634300Y-29972000D03*
X94094300Y-29972000D03*
X91554300Y-29972000D03*
D12*
X86728300Y-27940000D03*
X100190300Y-27940000D03*
D13*
X28905200Y-54523640D03*
X28905200Y-51023520D03*
X28905200Y-58023760D03*
X28905200Y-61523880D03*
X80871060Y-25603200D03*
X77370940Y-25603200D03*
D14*
X97142300Y-49403000D03*
D15*
X89522300Y-44323000D03*
X97142300Y-46863000D03*
X89522300Y-46863000D03*
X97142300Y-44323000D03*
X89522300Y-49403000D03*
D16*
X32283400Y-79794100D03*
D17*
X30283400Y-79794100D03*
D18*
X31775400Y-83540600D03*
D19*
X29235400Y-83540600D03*
D13*
X28968700Y-71831200D03*
X28968700Y-68331080D03*
X28968700Y-75331320D03*
D20*
X56413400Y-58547000D03*
X57150000Y-58547000D03*
X57861200Y-58534300D03*
X57899300Y-60756800D03*
X57086500Y-60744100D03*
X56464200Y-60706000D03*
X57073800Y-60198000D03*
X57061100Y-59651900D03*
X57188100Y-59080400D03*
X57861200Y-59651900D03*
X56451500Y-59664600D03*
X56464200Y-60210700D03*
X56451500Y-59067700D03*
X57899300Y-60210700D03*
X57861200Y-59067700D03*
D21*
G36*
X65659154Y-69151500D02*
X37388954Y-69151500D01*
X37414046Y-48437800D01*
X65684246Y-48437800D01*
X65659154Y-69151500D01*
X65659154Y-69151500D01*
G37*
X65659154Y-69151500D02*
X37388954Y-69151500D01*
X37414046Y-48437800D01*
X65684246Y-48437800D01*
X65659154Y-69151500D01*
M02*
