G04 #@! TF.FileFunction,Copper,L1,Top,Signal*
%FSLAX46Y46*%
G04 Gerber Fmt 4.6, Leading zero omitted, Abs format (unit mm)*
G04 Created by KiCad (PCBNEW 4.0.5) date 10/06/17 09:47:02*
%MOMM*%
%LPD*%
G01*
G04 APERTURE LIST*
%ADD10C,0.100000*%
%ADD11C,1.998980*%
%ADD12R,2.700000X3.200000*%
%ADD13R,1.300000X0.700000*%
%ADD14R,0.700000X1.300000*%
%ADD15R,1.000000X1.250000*%
%ADD16R,1.000000X1.600000*%
%ADD17R,1.250000X1.000000*%
%ADD18R,1.600000X1.000000*%
%ADD19C,1.500000*%
%ADD20R,5.000000X5.000000*%
%ADD21R,10.000000X8.000000*%
%ADD22R,1.100000X0.285000*%
%ADD23R,0.800000X0.900000*%
%ADD24R,1.600000X2.000000*%
%ADD25C,0.500000*%
%ADD26R,0.700000X1.200000*%
%ADD27R,4.510000X3.400000*%
%ADD28C,0.600000*%
%ADD29C,0.250000*%
%ADD30C,0.254000*%
G04 APERTURE END LIST*
D10*
D11*
X169750060Y-115800000D03*
X173250180Y-115800000D03*
X166249940Y-115800000D03*
X162749820Y-115800000D03*
D12*
X150650000Y-90600000D03*
X158550000Y-90600000D03*
D13*
X158600000Y-116050000D03*
X158600000Y-114150000D03*
D14*
X156400001Y-105400000D03*
X154500001Y-105400000D03*
X154500001Y-107600000D03*
X156400001Y-107600000D03*
X156400000Y-112100000D03*
X154500000Y-112100000D03*
D13*
X150300000Y-109500001D03*
X150300000Y-107600001D03*
X150300000Y-104200000D03*
X150300000Y-106100000D03*
D14*
X143250000Y-102800000D03*
X141350000Y-102800000D03*
X137800000Y-105500000D03*
X135900000Y-105500000D03*
D13*
X129000000Y-111150000D03*
X129000000Y-113050000D03*
X129000000Y-107750000D03*
X129000000Y-109650000D03*
X125500000Y-111150000D03*
X125500000Y-113050000D03*
X125500000Y-107750000D03*
X125500000Y-109650000D03*
D14*
X136150000Y-110100000D03*
X138050000Y-110100000D03*
D15*
X156600000Y-109800000D03*
X154600000Y-109800000D03*
D16*
X152300000Y-96600000D03*
X155300000Y-96600000D03*
D15*
X149700000Y-116700000D03*
X151700000Y-116700000D03*
X138900000Y-116600000D03*
X136900000Y-116600000D03*
X135200000Y-116600000D03*
X133200000Y-116600000D03*
D17*
X150300000Y-100200000D03*
X150300000Y-102200000D03*
X139500000Y-101000000D03*
X139500000Y-103000000D03*
D15*
X135700000Y-103400000D03*
X137700000Y-103400000D03*
D18*
X131000000Y-100000000D03*
X131000000Y-103000000D03*
X128400000Y-100000000D03*
X128400000Y-103000000D03*
D17*
X123000000Y-111200000D03*
X123000000Y-113200000D03*
D15*
X131500000Y-111300000D03*
X133500000Y-111300000D03*
D12*
X158650000Y-79800000D03*
X150750000Y-79800000D03*
X164450000Y-98300000D03*
X172350000Y-98300000D03*
D19*
X147600000Y-102900000D03*
X145300000Y-102900000D03*
X133100000Y-106200000D03*
X157500000Y-75200000D03*
X135000000Y-98000000D03*
D11*
X181500000Y-86450060D03*
X181500000Y-82949940D03*
X181500000Y-98150060D03*
X181500000Y-94649940D03*
D20*
X133100000Y-76700000D03*
X124100000Y-76700000D03*
X128600000Y-93700000D03*
D21*
X168800000Y-79000000D03*
X168850000Y-91000000D03*
D22*
X141550000Y-105100000D03*
X141550000Y-105600000D03*
X141550000Y-106100000D03*
X141550000Y-106600000D03*
X141550000Y-107100000D03*
X141550000Y-107600000D03*
X141550000Y-108100000D03*
X141550000Y-108600000D03*
X141550000Y-109100000D03*
X141550000Y-109600000D03*
X141550000Y-110100000D03*
X141550000Y-110600000D03*
X141550000Y-111100000D03*
X141550000Y-111600000D03*
X141550000Y-112100000D03*
X141550000Y-112600000D03*
X141550000Y-113100000D03*
X141550000Y-113600000D03*
X141550000Y-114100000D03*
X147250000Y-114100000D03*
X147250000Y-113600000D03*
X147250000Y-113100000D03*
X147250000Y-112600000D03*
X147250000Y-112100000D03*
X147250000Y-111600000D03*
X147250000Y-111100000D03*
X147250000Y-110600000D03*
X147250000Y-110100000D03*
X147250000Y-109600000D03*
X147250000Y-109100000D03*
X147250000Y-108600000D03*
X147250000Y-108100000D03*
X147250000Y-107600000D03*
X147250000Y-107100000D03*
X147250000Y-106600000D03*
X147250000Y-106100000D03*
X147250000Y-105600000D03*
X147250000Y-105100000D03*
D23*
X140550000Y-116700000D03*
X142650000Y-116700000D03*
X148100000Y-116800000D03*
X146000000Y-116800000D03*
D24*
X125700000Y-100500000D03*
X125700000Y-104500000D03*
D25*
X178640000Y-90040000D03*
X178005000Y-90040000D03*
X177370000Y-90040000D03*
X176735000Y-90040000D03*
X176100000Y-90040000D03*
X178640000Y-89405000D03*
X178005000Y-89405000D03*
X177370000Y-89405000D03*
X176735000Y-89405000D03*
X176100000Y-89405000D03*
X178640000Y-88770000D03*
X178005000Y-88770000D03*
X177370000Y-88770000D03*
X176100000Y-88770000D03*
X178640000Y-88135000D03*
X178005000Y-88135000D03*
X177370000Y-88135000D03*
X176735000Y-88135000D03*
X176100000Y-88135000D03*
X178640000Y-87500000D03*
X178005000Y-87500000D03*
X177370000Y-87500000D03*
X176735000Y-87500000D03*
X176100000Y-87500000D03*
X176735000Y-88770000D03*
X170140000Y-92440000D03*
X169505000Y-92440000D03*
X168870000Y-92440000D03*
X168235000Y-92440000D03*
X167600000Y-92440000D03*
X170140000Y-91805000D03*
X169505000Y-91805000D03*
X168870000Y-91805000D03*
X168235000Y-91805000D03*
X167600000Y-91805000D03*
X170140000Y-91170000D03*
X169505000Y-91170000D03*
X168870000Y-91170000D03*
X167600000Y-91170000D03*
X170140000Y-90535000D03*
X169505000Y-90535000D03*
X168870000Y-90535000D03*
X168235000Y-90535000D03*
X167600000Y-90535000D03*
X170140000Y-89900000D03*
X169505000Y-89900000D03*
X168870000Y-89900000D03*
X168235000Y-89900000D03*
X167600000Y-89900000D03*
X168235000Y-91170000D03*
X153340000Y-76340000D03*
X152705000Y-76340000D03*
X152070000Y-76340000D03*
X151435000Y-76340000D03*
X150800000Y-76340000D03*
X153340000Y-75705000D03*
X152705000Y-75705000D03*
X152070000Y-75705000D03*
X151435000Y-75705000D03*
X150800000Y-75705000D03*
X153340000Y-75070000D03*
X152705000Y-75070000D03*
X152070000Y-75070000D03*
X150800000Y-75070000D03*
X153340000Y-74435000D03*
X152705000Y-74435000D03*
X152070000Y-74435000D03*
X151435000Y-74435000D03*
X150800000Y-74435000D03*
X153340000Y-73800000D03*
X152705000Y-73800000D03*
X152070000Y-73800000D03*
X151435000Y-73800000D03*
X150800000Y-73800000D03*
X151435000Y-75070000D03*
X147040000Y-76340000D03*
X146405000Y-76340000D03*
X145770000Y-76340000D03*
X145135000Y-76340000D03*
X144500000Y-76340000D03*
X147040000Y-75705000D03*
X146405000Y-75705000D03*
X145770000Y-75705000D03*
X145135000Y-75705000D03*
X144500000Y-75705000D03*
X147040000Y-75070000D03*
X146405000Y-75070000D03*
X145770000Y-75070000D03*
X144500000Y-75070000D03*
X147040000Y-74435000D03*
X146405000Y-74435000D03*
X145770000Y-74435000D03*
X145135000Y-74435000D03*
X144500000Y-74435000D03*
X147040000Y-73800000D03*
X146405000Y-73800000D03*
X145770000Y-73800000D03*
X145135000Y-73800000D03*
X144500000Y-73800000D03*
X145135000Y-75070000D03*
X150240000Y-76340000D03*
X149605000Y-76340000D03*
X148970000Y-76340000D03*
X148335000Y-76340000D03*
X147700000Y-76340000D03*
X150240000Y-75705000D03*
X149605000Y-75705000D03*
X148970000Y-75705000D03*
X148335000Y-75705000D03*
X147700000Y-75705000D03*
X150240000Y-75070000D03*
X149605000Y-75070000D03*
X148970000Y-75070000D03*
X147700000Y-75070000D03*
X150240000Y-74435000D03*
X149605000Y-74435000D03*
X148970000Y-74435000D03*
X148335000Y-74435000D03*
X147700000Y-74435000D03*
X150240000Y-73800000D03*
X149605000Y-73800000D03*
X148970000Y-73800000D03*
X148335000Y-73800000D03*
X147700000Y-73800000D03*
X148335000Y-75070000D03*
X134040000Y-82940000D03*
X133405000Y-82940000D03*
X132770000Y-82940000D03*
X132135000Y-82940000D03*
X131500000Y-82940000D03*
X134040000Y-82305000D03*
X133405000Y-82305000D03*
X132770000Y-82305000D03*
X132135000Y-82305000D03*
X131500000Y-82305000D03*
X134040000Y-81670000D03*
X133405000Y-81670000D03*
X132770000Y-81670000D03*
X131500000Y-81670000D03*
X134040000Y-81035000D03*
X133405000Y-81035000D03*
X132770000Y-81035000D03*
X132135000Y-81035000D03*
X131500000Y-81035000D03*
X134040000Y-80400000D03*
X133405000Y-80400000D03*
X132770000Y-80400000D03*
X132135000Y-80400000D03*
X131500000Y-80400000D03*
X132135000Y-81670000D03*
X134040000Y-77940000D03*
X133405000Y-77940000D03*
X132770000Y-77940000D03*
X132135000Y-77940000D03*
X131500000Y-77940000D03*
X134040000Y-77305000D03*
X133405000Y-77305000D03*
X132770000Y-77305000D03*
X132135000Y-77305000D03*
X131500000Y-77305000D03*
X134040000Y-76670000D03*
X133405000Y-76670000D03*
X132770000Y-76670000D03*
X131500000Y-76670000D03*
X134040000Y-76035000D03*
X133405000Y-76035000D03*
X132770000Y-76035000D03*
X132135000Y-76035000D03*
X131500000Y-76035000D03*
X134040000Y-75400000D03*
X133405000Y-75400000D03*
X132770000Y-75400000D03*
X132135000Y-75400000D03*
X131500000Y-75400000D03*
X132135000Y-76670000D03*
X134040000Y-89340000D03*
X133405000Y-89340000D03*
X132770000Y-89340000D03*
X132135000Y-89340000D03*
X131500000Y-89340000D03*
X134040000Y-88705000D03*
X133405000Y-88705000D03*
X132770000Y-88705000D03*
X132135000Y-88705000D03*
X131500000Y-88705000D03*
X134040000Y-88070000D03*
X133405000Y-88070000D03*
X132770000Y-88070000D03*
X131500000Y-88070000D03*
X134040000Y-87435000D03*
X133405000Y-87435000D03*
X132770000Y-87435000D03*
X132135000Y-87435000D03*
X131500000Y-87435000D03*
X134040000Y-86800000D03*
X133405000Y-86800000D03*
X132770000Y-86800000D03*
X132135000Y-86800000D03*
X131500000Y-86800000D03*
X132135000Y-88070000D03*
X134040000Y-86140000D03*
X133405000Y-86140000D03*
X132770000Y-86140000D03*
X132135000Y-86140000D03*
X131500000Y-86140000D03*
X134040000Y-85505000D03*
X133405000Y-85505000D03*
X132770000Y-85505000D03*
X132135000Y-85505000D03*
X131500000Y-85505000D03*
X134040000Y-84870000D03*
X133405000Y-84870000D03*
X132770000Y-84870000D03*
X131500000Y-84870000D03*
X134040000Y-84235000D03*
X133405000Y-84235000D03*
X132770000Y-84235000D03*
X132135000Y-84235000D03*
X131500000Y-84235000D03*
X134040000Y-83600000D03*
X133405000Y-83600000D03*
X132770000Y-83600000D03*
X132135000Y-83600000D03*
X131500000Y-83600000D03*
X132135000Y-84870000D03*
X125640000Y-83040000D03*
X125005000Y-83040000D03*
X124370000Y-83040000D03*
X123735000Y-83040000D03*
X123100000Y-83040000D03*
X125640000Y-82405000D03*
X125005000Y-82405000D03*
X124370000Y-82405000D03*
X123735000Y-82405000D03*
X123100000Y-82405000D03*
X125640000Y-81770000D03*
X125005000Y-81770000D03*
X124370000Y-81770000D03*
X123100000Y-81770000D03*
X125640000Y-81135000D03*
X125005000Y-81135000D03*
X124370000Y-81135000D03*
X123735000Y-81135000D03*
X123100000Y-81135000D03*
X125640000Y-80500000D03*
X125005000Y-80500000D03*
X124370000Y-80500000D03*
X123735000Y-80500000D03*
X123100000Y-80500000D03*
X123735000Y-81770000D03*
X125640000Y-78040000D03*
X125005000Y-78040000D03*
X124370000Y-78040000D03*
X123735000Y-78040000D03*
X123100000Y-78040000D03*
X125640000Y-77405000D03*
X125005000Y-77405000D03*
X124370000Y-77405000D03*
X123735000Y-77405000D03*
X123100000Y-77405000D03*
X125640000Y-76770000D03*
X125005000Y-76770000D03*
X124370000Y-76770000D03*
X123100000Y-76770000D03*
X125640000Y-76135000D03*
X125005000Y-76135000D03*
X124370000Y-76135000D03*
X123735000Y-76135000D03*
X123100000Y-76135000D03*
X125640000Y-75500000D03*
X125005000Y-75500000D03*
X124370000Y-75500000D03*
X123735000Y-75500000D03*
X123100000Y-75500000D03*
X123735000Y-76770000D03*
X125640000Y-89240000D03*
X125005000Y-89240000D03*
X124370000Y-89240000D03*
X123735000Y-89240000D03*
X123100000Y-89240000D03*
X125640000Y-88605000D03*
X125005000Y-88605000D03*
X124370000Y-88605000D03*
X123735000Y-88605000D03*
X123100000Y-88605000D03*
X125640000Y-87970000D03*
X125005000Y-87970000D03*
X124370000Y-87970000D03*
X123100000Y-87970000D03*
X125640000Y-87335000D03*
X125005000Y-87335000D03*
X124370000Y-87335000D03*
X123735000Y-87335000D03*
X123100000Y-87335000D03*
X125640000Y-86700000D03*
X125005000Y-86700000D03*
X124370000Y-86700000D03*
X123735000Y-86700000D03*
X123100000Y-86700000D03*
X123735000Y-87970000D03*
X141340000Y-94140000D03*
X140705000Y-94140000D03*
X140070000Y-94140000D03*
X139435000Y-94140000D03*
X138800000Y-94140000D03*
X141340000Y-93505000D03*
X140705000Y-93505000D03*
X140070000Y-93505000D03*
X139435000Y-93505000D03*
X138800000Y-93505000D03*
X141340000Y-92870000D03*
X140705000Y-92870000D03*
X140070000Y-92870000D03*
X138800000Y-92870000D03*
X141340000Y-92235000D03*
X140705000Y-92235000D03*
X140070000Y-92235000D03*
X139435000Y-92235000D03*
X138800000Y-92235000D03*
X141340000Y-91600000D03*
X140705000Y-91600000D03*
X140070000Y-91600000D03*
X139435000Y-91600000D03*
X138800000Y-91600000D03*
X139435000Y-92870000D03*
X121740000Y-93940000D03*
X121105000Y-93940000D03*
X120470000Y-93940000D03*
X119835000Y-93940000D03*
X119200000Y-93940000D03*
X121740000Y-93305000D03*
X121105000Y-93305000D03*
X120470000Y-93305000D03*
X119835000Y-93305000D03*
X119200000Y-93305000D03*
X121740000Y-92670000D03*
X121105000Y-92670000D03*
X120470000Y-92670000D03*
X119200000Y-92670000D03*
X121740000Y-92035000D03*
X121105000Y-92035000D03*
X120470000Y-92035000D03*
X119835000Y-92035000D03*
X119200000Y-92035000D03*
X121740000Y-91400000D03*
X121105000Y-91400000D03*
X120470000Y-91400000D03*
X119835000Y-91400000D03*
X119200000Y-91400000D03*
X119835000Y-92670000D03*
X161740000Y-99440000D03*
X161105000Y-99440000D03*
X160470000Y-99440000D03*
X159835000Y-99440000D03*
X159200000Y-99440000D03*
X161740000Y-98805000D03*
X161105000Y-98805000D03*
X160470000Y-98805000D03*
X159835000Y-98805000D03*
X159200000Y-98805000D03*
X161740000Y-98170000D03*
X161105000Y-98170000D03*
X160470000Y-98170000D03*
X159200000Y-98170000D03*
X161740000Y-97535000D03*
X161105000Y-97535000D03*
X160470000Y-97535000D03*
X159835000Y-97535000D03*
X159200000Y-97535000D03*
X161740000Y-96900000D03*
X161105000Y-96900000D03*
X160470000Y-96900000D03*
X159835000Y-96900000D03*
X159200000Y-96900000D03*
X159835000Y-98170000D03*
X125640000Y-86140000D03*
X125005000Y-86140000D03*
X124370000Y-86140000D03*
X123735000Y-86140000D03*
X123100000Y-86140000D03*
X125640000Y-85505000D03*
X125005000Y-85505000D03*
X124370000Y-85505000D03*
X123735000Y-85505000D03*
X123100000Y-85505000D03*
X125640000Y-84870000D03*
X125005000Y-84870000D03*
X124370000Y-84870000D03*
X123100000Y-84870000D03*
X125640000Y-84235000D03*
X125005000Y-84235000D03*
X124370000Y-84235000D03*
X123735000Y-84235000D03*
X123100000Y-84235000D03*
X125640000Y-83600000D03*
X125005000Y-83600000D03*
X124370000Y-83600000D03*
X123735000Y-83600000D03*
X123100000Y-83600000D03*
X123735000Y-84870000D03*
X118540000Y-93940000D03*
X117905000Y-93940000D03*
X117270000Y-93940000D03*
X116635000Y-93940000D03*
X116000000Y-93940000D03*
X118540000Y-93305000D03*
X117905000Y-93305000D03*
X117270000Y-93305000D03*
X116635000Y-93305000D03*
X116000000Y-93305000D03*
X118540000Y-92670000D03*
X117905000Y-92670000D03*
X117270000Y-92670000D03*
X116000000Y-92670000D03*
X118540000Y-92035000D03*
X117905000Y-92035000D03*
X117270000Y-92035000D03*
X116635000Y-92035000D03*
X116000000Y-92035000D03*
X118540000Y-91400000D03*
X117905000Y-91400000D03*
X117270000Y-91400000D03*
X116635000Y-91400000D03*
X116000000Y-91400000D03*
X116635000Y-92670000D03*
X152140000Y-86940000D03*
X151505000Y-86940000D03*
X150870000Y-86940000D03*
X150235000Y-86940000D03*
X149600000Y-86940000D03*
X152140000Y-86305000D03*
X151505000Y-86305000D03*
X150870000Y-86305000D03*
X150235000Y-86305000D03*
X149600000Y-86305000D03*
X152140000Y-85670000D03*
X151505000Y-85670000D03*
X150870000Y-85670000D03*
X149600000Y-85670000D03*
X152140000Y-85035000D03*
X151505000Y-85035000D03*
X150870000Y-85035000D03*
X150235000Y-85035000D03*
X149600000Y-85035000D03*
X152140000Y-84400000D03*
X151505000Y-84400000D03*
X150870000Y-84400000D03*
X150235000Y-84400000D03*
X149600000Y-84400000D03*
X150235000Y-85670000D03*
D26*
X110800000Y-91700000D03*
X112070000Y-91700000D03*
X113340000Y-91700000D03*
X114610000Y-91700000D03*
X114610000Y-86620000D03*
X113340000Y-86620000D03*
X112070000Y-86620000D03*
X110800000Y-86620000D03*
D27*
X112705000Y-88200000D03*
D25*
X110800000Y-87636000D03*
X111435000Y-87636000D03*
X112070000Y-87636000D03*
X112705000Y-87636000D03*
X113340000Y-87636000D03*
X113975000Y-87636000D03*
X114610000Y-87636000D03*
X110800000Y-88271000D03*
X111435000Y-88271000D03*
X112070000Y-88271000D03*
X112705000Y-88271000D03*
X113340000Y-88271000D03*
X113975000Y-88271000D03*
X114610000Y-88271000D03*
X110800000Y-88906000D03*
X111435000Y-88906000D03*
X112070000Y-88906000D03*
X112705000Y-88906000D03*
X113340000Y-88906000D03*
X113975000Y-88906000D03*
X114610000Y-88906000D03*
X110800000Y-89541000D03*
X111435000Y-89541000D03*
X112070000Y-89541000D03*
X112705000Y-89541000D03*
X113340000Y-89541000D03*
X113975000Y-89541000D03*
X114610000Y-89541000D03*
D26*
X110900000Y-84300000D03*
X112170000Y-84300000D03*
X113440000Y-84300000D03*
X114710000Y-84300000D03*
X114710000Y-79220000D03*
X113440000Y-79220000D03*
X112170000Y-79220000D03*
X110900000Y-79220000D03*
D27*
X112805000Y-80800000D03*
D25*
X110900000Y-80236000D03*
X111535000Y-80236000D03*
X112170000Y-80236000D03*
X112805000Y-80236000D03*
X113440000Y-80236000D03*
X114075000Y-80236000D03*
X114710000Y-80236000D03*
X110900000Y-80871000D03*
X111535000Y-80871000D03*
X112170000Y-80871000D03*
X112805000Y-80871000D03*
X113440000Y-80871000D03*
X114075000Y-80871000D03*
X114710000Y-80871000D03*
X110900000Y-81506000D03*
X111535000Y-81506000D03*
X112170000Y-81506000D03*
X112805000Y-81506000D03*
X113440000Y-81506000D03*
X114075000Y-81506000D03*
X114710000Y-81506000D03*
X110900000Y-82141000D03*
X111535000Y-82141000D03*
X112170000Y-82141000D03*
X112805000Y-82141000D03*
X113440000Y-82141000D03*
X114075000Y-82141000D03*
X114710000Y-82141000D03*
D26*
X142600000Y-84400000D03*
X143870000Y-84400000D03*
X145140000Y-84400000D03*
X146410000Y-84400000D03*
X146410000Y-79320000D03*
X145140000Y-79320000D03*
X143870000Y-79320000D03*
X142600000Y-79320000D03*
D27*
X144505000Y-80900000D03*
D25*
X142600000Y-80336000D03*
X143235000Y-80336000D03*
X143870000Y-80336000D03*
X144505000Y-80336000D03*
X145140000Y-80336000D03*
X145775000Y-80336000D03*
X146410000Y-80336000D03*
X142600000Y-80971000D03*
X143235000Y-80971000D03*
X143870000Y-80971000D03*
X144505000Y-80971000D03*
X145140000Y-80971000D03*
X145775000Y-80971000D03*
X146410000Y-80971000D03*
X142600000Y-81606000D03*
X143235000Y-81606000D03*
X143870000Y-81606000D03*
X144505000Y-81606000D03*
X145140000Y-81606000D03*
X145775000Y-81606000D03*
X146410000Y-81606000D03*
X142600000Y-82241000D03*
X143235000Y-82241000D03*
X143870000Y-82241000D03*
X144505000Y-82241000D03*
X145140000Y-82241000D03*
X145775000Y-82241000D03*
X146410000Y-82241000D03*
D26*
X142600000Y-91700000D03*
X143870000Y-91700000D03*
X145140000Y-91700000D03*
X146410000Y-91700000D03*
X146410000Y-86620000D03*
X145140000Y-86620000D03*
X143870000Y-86620000D03*
X142600000Y-86620000D03*
D27*
X144505000Y-88200000D03*
D25*
X142600000Y-87636000D03*
X143235000Y-87636000D03*
X143870000Y-87636000D03*
X144505000Y-87636000D03*
X145140000Y-87636000D03*
X145775000Y-87636000D03*
X146410000Y-87636000D03*
X142600000Y-88271000D03*
X143235000Y-88271000D03*
X143870000Y-88271000D03*
X144505000Y-88271000D03*
X145140000Y-88271000D03*
X145775000Y-88271000D03*
X146410000Y-88271000D03*
X142600000Y-88906000D03*
X143235000Y-88906000D03*
X143870000Y-88906000D03*
X144505000Y-88906000D03*
X145140000Y-88906000D03*
X145775000Y-88906000D03*
X146410000Y-88906000D03*
X142600000Y-89541000D03*
X143235000Y-89541000D03*
X143870000Y-89541000D03*
X144505000Y-89541000D03*
X145140000Y-89541000D03*
X145775000Y-89541000D03*
X146410000Y-89541000D03*
X117540000Y-76040000D03*
X116905000Y-76040000D03*
X116270000Y-76040000D03*
X115635000Y-76040000D03*
X115000000Y-76040000D03*
X117540000Y-75405000D03*
X116905000Y-75405000D03*
X116270000Y-75405000D03*
X115635000Y-75405000D03*
X115000000Y-75405000D03*
X117540000Y-74770000D03*
X116905000Y-74770000D03*
X116270000Y-74770000D03*
X115000000Y-74770000D03*
X117540000Y-74135000D03*
X116905000Y-74135000D03*
X116270000Y-74135000D03*
X115635000Y-74135000D03*
X115000000Y-74135000D03*
X117540000Y-73500000D03*
X116905000Y-73500000D03*
X116270000Y-73500000D03*
X115635000Y-73500000D03*
X115000000Y-73500000D03*
X115635000Y-74770000D03*
D28*
X142645143Y-110079744D03*
X149144106Y-113094294D03*
X131000000Y-107200000D03*
X139300000Y-109400000D03*
X149134016Y-109460773D03*
X148533971Y-114442873D03*
X123324502Y-114316010D03*
X139900000Y-112974990D03*
X131800000Y-116700000D03*
X148505961Y-107094816D03*
X149100000Y-103200000D03*
X137100000Y-102000000D03*
X156425010Y-103847196D03*
X156100000Y-102200000D03*
X127300000Y-113100000D03*
X128400000Y-104500000D03*
X134343652Y-106070680D03*
X135279767Y-108670725D03*
X125800000Y-98100000D03*
X131200000Y-98000000D03*
X128700000Y-98100000D03*
X124900000Y-113974990D03*
X121424989Y-110683182D03*
X145700009Y-113725010D03*
X145700000Y-111600000D03*
X149970787Y-110352552D03*
X153100000Y-112000000D03*
X123553520Y-103470320D03*
X139600000Y-111500000D03*
X149174617Y-110274237D03*
X142321580Y-102700698D03*
X150592748Y-110865128D03*
X151782780Y-111914940D03*
X144550113Y-111065603D03*
X142700000Y-114000000D03*
X144336013Y-109365572D03*
X139371705Y-107756327D03*
X145300000Y-104300000D03*
X147200000Y-104300000D03*
X153000000Y-104774990D03*
X148800000Y-104774990D03*
X148508667Y-107938425D03*
X158600000Y-107500000D03*
X149635037Y-113746165D03*
X142600026Y-108629611D03*
X159475170Y-106028490D03*
X142866008Y-105379445D03*
D29*
X155688589Y-107325000D02*
X155725000Y-107325000D01*
X131500000Y-111300000D02*
X131500000Y-111425000D01*
X134968333Y-108045723D02*
X136295723Y-108045723D01*
X132325001Y-112250001D02*
X134260001Y-112250001D01*
X131500000Y-111425000D02*
X132325001Y-112250001D01*
X134643333Y-108370723D02*
X134968333Y-108045723D01*
X136295723Y-108045723D02*
X138050000Y-109800000D01*
X134260001Y-112250001D02*
X134643333Y-111866669D01*
X134643333Y-111866669D02*
X134643333Y-108370723D01*
X138050000Y-109800000D02*
X138050000Y-110100000D01*
X141550000Y-110100000D02*
X138050000Y-110100000D01*
X141550000Y-109600000D02*
X142350000Y-109600000D01*
X142645143Y-109895143D02*
X142645143Y-110079744D01*
X142350000Y-109600000D02*
X142645143Y-109895143D01*
X136836452Y-107950042D02*
X137850042Y-107950042D01*
X134781933Y-107595712D02*
X136482123Y-107595712D01*
X133500000Y-108877645D02*
X134781933Y-107595712D01*
X133500000Y-111300000D02*
X133500000Y-108877645D01*
X137850042Y-107950042D02*
X139000001Y-109100001D01*
X136482123Y-107595712D02*
X136836452Y-107950042D01*
X139000001Y-109100001D02*
X139300000Y-109400000D01*
X172350000Y-98300000D02*
X171722320Y-98300000D01*
X158299998Y-108125002D02*
X158299998Y-111785004D01*
X149568370Y-113094294D02*
X149144106Y-113094294D01*
X171722320Y-98300000D02*
X168343141Y-101679179D01*
X157974998Y-105999998D02*
X157974998Y-107800002D01*
X168343141Y-101679179D02*
X162295817Y-101679179D01*
X162295817Y-101679179D02*
X157974998Y-105999998D01*
X157974998Y-107800002D02*
X158299998Y-108125002D01*
X158299998Y-111785004D02*
X156990708Y-113094294D01*
X156990708Y-113094294D02*
X149568370Y-113094294D01*
X141550000Y-109600000D02*
X139500000Y-109600000D01*
X130450000Y-107750000D02*
X129000000Y-107750000D01*
X131000000Y-107200000D02*
X130450000Y-107750000D01*
X139500000Y-109600000D02*
X139300000Y-109400000D01*
X125500000Y-107750000D02*
X129000000Y-107750000D01*
X139601832Y-107050020D02*
X137209252Y-107050020D01*
X134317290Y-106695690D02*
X133112980Y-107900000D01*
X141550000Y-109100000D02*
X140750000Y-109100000D01*
X140750000Y-109100000D02*
X139996706Y-108346706D01*
X139996706Y-108346706D02*
X139996706Y-107444894D01*
X139996706Y-107444894D02*
X139601832Y-107050020D01*
X137209252Y-107050020D02*
X136854923Y-106695690D01*
X136854923Y-106695690D02*
X134317290Y-106695690D01*
X133112980Y-107900000D02*
X133100000Y-107900000D01*
X127174988Y-108875012D02*
X126400000Y-109650000D01*
X126400000Y-109650000D02*
X125500000Y-109650000D01*
X133100000Y-107900000D02*
X132124988Y-108875012D01*
X132124988Y-108875012D02*
X127174988Y-108875012D01*
X125500000Y-111150000D02*
X123050000Y-111150000D01*
X123050000Y-111150000D02*
X123000000Y-111200000D01*
X133100000Y-106200000D02*
X133100000Y-107260660D01*
X133100000Y-107260660D02*
X133100000Y-107900000D01*
X125500000Y-109650000D02*
X125500000Y-111150000D01*
X150300000Y-109500001D02*
X149173244Y-109500001D01*
X149173244Y-109500001D02*
X149134016Y-109460773D01*
X147250000Y-109100000D02*
X148773243Y-109100000D01*
X148773243Y-109100000D02*
X149134016Y-109460773D01*
X146374999Y-109197499D02*
X146439999Y-109132499D01*
X146439999Y-109132499D02*
X147217501Y-109132499D01*
X147217501Y-109132499D02*
X147250000Y-109100000D01*
X150300000Y-109500001D02*
X150000000Y-109500001D01*
X147250000Y-110100000D02*
X146472498Y-110100000D01*
X146472498Y-110100000D02*
X146374999Y-110002501D01*
X146374999Y-110002501D02*
X146374999Y-109197499D01*
X158600000Y-116050000D02*
X162499820Y-116050000D01*
X162499820Y-116050000D02*
X162749820Y-115800000D01*
X148233972Y-114142874D02*
X148533971Y-114442873D01*
X148191098Y-114100000D02*
X148233972Y-114142874D01*
X147250000Y-114100000D02*
X148191098Y-114100000D01*
X123000000Y-113200000D02*
X123000000Y-113991508D01*
X123024503Y-114016011D02*
X123324502Y-114316010D01*
X123000000Y-113991508D02*
X123024503Y-114016011D01*
X140025010Y-113100000D02*
X139900000Y-112974990D01*
X141550000Y-113100000D02*
X140025010Y-113100000D01*
X133200000Y-116600000D02*
X131900000Y-116600000D01*
X131900000Y-116600000D02*
X131800000Y-116700000D01*
X148500777Y-107100000D02*
X148505961Y-107094816D01*
X147250000Y-107100000D02*
X148500777Y-107100000D01*
X150300000Y-100200000D02*
X150175000Y-100200000D01*
X150175000Y-100200000D02*
X149100000Y-101275000D01*
X149100000Y-101275000D02*
X149100000Y-101400000D01*
X149100000Y-101400000D02*
X149100000Y-103200000D01*
X150300000Y-100200000D02*
X149800000Y-100200000D01*
X137700000Y-101925000D02*
X137175000Y-101925000D01*
X137175000Y-101925000D02*
X137100000Y-102000000D01*
X139500000Y-101000000D02*
X138625000Y-101000000D01*
X138625000Y-101000000D02*
X137700000Y-101925000D01*
X137700000Y-101925000D02*
X137700000Y-102525000D01*
X137700000Y-102525000D02*
X137700000Y-103400000D01*
X156400001Y-105400000D02*
X156400001Y-103872205D01*
X156400001Y-103872205D02*
X156425010Y-103847196D01*
X156050000Y-96600000D02*
X156050000Y-102150000D01*
X156050000Y-102150000D02*
X156100000Y-102200000D01*
X155300000Y-96600000D02*
X156050000Y-96600000D01*
X131000000Y-103000000D02*
X128400000Y-103000000D01*
X129000000Y-113050000D02*
X127350000Y-113050000D01*
X127250000Y-113050000D02*
X127300000Y-113100000D01*
X127250000Y-113050000D02*
X125500000Y-113050000D01*
X127350000Y-113050000D02*
X127300000Y-113100000D01*
X125700000Y-104500000D02*
X128400000Y-104500000D01*
X128400000Y-104500000D02*
X128400000Y-103000000D01*
X134343652Y-105646416D02*
X134343652Y-106070680D01*
X134343652Y-101343652D02*
X134343652Y-105646416D01*
X133000000Y-100000000D02*
X134343652Y-101343652D01*
X135279767Y-108929767D02*
X135279767Y-108670725D01*
X136150000Y-109800000D02*
X135279767Y-108929767D01*
X136150000Y-110100000D02*
X136150000Y-109800000D01*
X125700000Y-100500000D02*
X125700000Y-98200000D01*
X125700000Y-98200000D02*
X125800000Y-98100000D01*
X131000000Y-100000000D02*
X131000000Y-98200000D01*
X131000000Y-98200000D02*
X131200000Y-98000000D01*
X128400000Y-100000000D02*
X128400000Y-98400000D01*
X128400000Y-98400000D02*
X128700000Y-98100000D01*
X128400000Y-100000000D02*
X126200000Y-100000000D01*
X126200000Y-100000000D02*
X125700000Y-100500000D01*
X131000000Y-100000000D02*
X128400000Y-100000000D01*
X131000000Y-100000000D02*
X133000000Y-100000000D01*
X133000000Y-100000000D02*
X135000000Y-98000000D01*
X141550000Y-110600000D02*
X139500000Y-110600000D01*
X137350000Y-111300000D02*
X136150000Y-110100000D01*
X138800000Y-111300000D02*
X137350000Y-111300000D01*
X139500000Y-110600000D02*
X138800000Y-111300000D01*
X143261001Y-107580134D02*
X143261001Y-109973177D01*
X143261001Y-109973177D02*
X143300000Y-110012176D01*
X143300000Y-110012176D02*
X143300000Y-110400000D01*
X144883132Y-105958003D02*
X143261001Y-107580134D01*
X143250000Y-102800000D02*
X143250000Y-103952069D01*
X143250000Y-103952069D02*
X144883132Y-105585201D01*
X144883132Y-105585201D02*
X144883132Y-105958003D01*
X143300000Y-110722248D02*
X143300000Y-110400000D01*
X144600000Y-111700000D02*
X144277752Y-111700000D01*
X144277752Y-111700000D02*
X143300000Y-110722248D01*
X146374999Y-108561088D02*
X145924988Y-109011099D01*
X145924988Y-109011099D02*
X145924988Y-110188901D01*
X145924988Y-110188901D02*
X146374999Y-110638912D01*
X146374999Y-112250005D02*
X146200002Y-112425002D01*
X146472498Y-108100000D02*
X146374999Y-108197499D01*
X147250000Y-108100000D02*
X146472498Y-108100000D01*
X146200002Y-112425002D02*
X145325002Y-112425002D01*
X145325002Y-112425002D02*
X144600000Y-111700000D01*
X146374999Y-110638912D02*
X146374999Y-112250005D01*
X146374999Y-108197499D02*
X146374999Y-108561088D01*
X135200000Y-116600000D02*
X135200000Y-117400000D01*
X135200000Y-117400000D02*
X135654128Y-117854128D01*
X135654128Y-117854128D02*
X142164595Y-117854128D01*
X142164595Y-117854128D02*
X142650000Y-117368723D01*
X142650000Y-117368723D02*
X142650000Y-116700000D01*
X144600000Y-115400000D02*
X144600000Y-111700000D01*
X146000000Y-116800000D02*
X145350000Y-116800000D01*
X145350000Y-116800000D02*
X144600000Y-116050000D01*
X144600000Y-116050000D02*
X144600000Y-115400000D01*
X142650000Y-116700000D02*
X143300000Y-116700000D01*
X143300000Y-116700000D02*
X144600000Y-115400000D01*
X143300000Y-110400000D02*
X142600000Y-111100000D01*
X142600000Y-111100000D02*
X141550000Y-111100000D01*
X144149990Y-115200000D02*
X144131828Y-115200000D01*
X144023095Y-112100000D02*
X144149990Y-112226895D01*
X144131828Y-115200000D02*
X143406829Y-115924999D01*
X141200000Y-116700000D02*
X140550000Y-116700000D01*
X143406829Y-115924999D02*
X141975001Y-115924999D01*
X141975001Y-115924999D02*
X141200000Y-116700000D01*
X141550000Y-112100000D02*
X144023095Y-112100000D01*
X144149990Y-112226895D02*
X144149990Y-115200000D01*
X138900000Y-116600000D02*
X140450000Y-116600000D01*
X140450000Y-116600000D02*
X140550000Y-116700000D01*
X140550000Y-116700000D02*
X140600000Y-116700000D01*
X124178522Y-107703598D02*
X121623202Y-110258918D01*
X109800000Y-88700000D02*
X108400000Y-90100000D01*
X112650011Y-100150011D02*
X122822917Y-100150011D01*
X108400000Y-95900000D02*
X112650011Y-100150011D01*
X122822917Y-100150011D02*
X124117562Y-101444656D01*
X124117562Y-101444656D02*
X124117562Y-102052718D01*
X108400000Y-90100000D02*
X108400000Y-95900000D01*
X124117562Y-102052718D02*
X124178522Y-102113678D01*
X124178522Y-102113678D02*
X124178522Y-107703598D01*
X121623202Y-110258918D02*
X121424989Y-110258918D01*
X121424989Y-110258918D02*
X121424989Y-110683182D01*
X141550000Y-112600000D02*
X143028433Y-112600000D01*
X143028433Y-112600000D02*
X143699980Y-113271547D01*
X143699980Y-113271547D02*
X143699980Y-113925022D01*
X143699980Y-113925022D02*
X142150012Y-115474990D01*
X142150012Y-115474990D02*
X137900010Y-115474990D01*
X137900010Y-115474990D02*
X136900000Y-116475000D01*
X136900000Y-116475000D02*
X136900000Y-116600000D01*
X131187485Y-113149989D02*
X130362485Y-113974990D01*
X133996424Y-113149989D02*
X131187485Y-113149989D01*
X134546413Y-112600000D02*
X133996424Y-113149989D01*
X139599998Y-112349988D02*
X139349986Y-112600000D01*
X140200002Y-112349988D02*
X139599998Y-112349988D01*
X141550000Y-112600000D02*
X140450014Y-112600000D01*
X125324264Y-113974990D02*
X124900000Y-113974990D01*
X130362485Y-113974990D02*
X125324264Y-113974990D01*
X140450014Y-112600000D02*
X140200002Y-112349988D01*
X139349986Y-112600000D02*
X134546413Y-112600000D01*
X145074999Y-114424999D02*
X145074999Y-113399999D01*
X145074999Y-113399999D02*
X145374998Y-113100000D01*
X148100000Y-116800000D02*
X147450000Y-116800000D01*
X147450000Y-116800000D02*
X145074999Y-114424999D01*
X145374998Y-113100000D02*
X146450000Y-113100000D01*
X146450000Y-113100000D02*
X147250000Y-113100000D01*
X149700000Y-116825000D02*
X149700000Y-116700000D01*
X148100000Y-116800000D02*
X149600000Y-116800000D01*
X149600000Y-116800000D02*
X149700000Y-116700000D01*
X151700000Y-116575000D02*
X151700000Y-116700000D01*
X150950000Y-115825000D02*
X151700000Y-116575000D01*
X148637027Y-113704142D02*
X148704142Y-113704142D01*
X148532885Y-113600000D02*
X148637027Y-113704142D01*
X147250000Y-113600000D02*
X148532885Y-113600000D01*
X148704142Y-113704142D02*
X150825000Y-115825000D01*
X150825000Y-115825000D02*
X150950000Y-115825000D01*
X145400001Y-111300001D02*
X145700000Y-111600000D01*
X146374999Y-107561088D02*
X145913530Y-108022557D01*
X145913530Y-108386146D02*
X145400001Y-108899675D01*
X146374999Y-104697499D02*
X146374999Y-107561088D01*
X147470421Y-100829579D02*
X146400000Y-101900000D01*
X146400000Y-101900000D02*
X146400000Y-104672498D01*
X146410000Y-89541000D02*
X147470421Y-90601421D01*
X146400000Y-104672498D02*
X146374999Y-104697499D01*
X145913530Y-108022557D02*
X145913530Y-108386146D01*
X147470421Y-90601421D02*
X147470421Y-100829579D01*
X145400001Y-108899675D02*
X145400001Y-111300001D01*
X145825019Y-113600000D02*
X145700009Y-113725010D01*
X147250000Y-113600000D02*
X145825019Y-113600000D01*
X152300000Y-110082880D02*
X152300000Y-110025004D01*
X148058280Y-111591720D02*
X150791160Y-111591720D01*
X150791160Y-111591720D02*
X152300000Y-110082880D01*
X148050000Y-111600000D02*
X148058280Y-111591720D01*
X147250000Y-111600000D02*
X148050000Y-111600000D01*
X150750000Y-79800000D02*
X150750000Y-81650000D01*
X150750000Y-81650000D02*
X151600000Y-82500000D01*
X151600000Y-82500000D02*
X152800000Y-82500000D01*
X152800000Y-82500000D02*
X153500000Y-83200000D01*
X153500000Y-83200000D02*
X153500000Y-96200000D01*
X153500000Y-96200000D02*
X153100000Y-96600000D01*
X153100000Y-96600000D02*
X152300000Y-96600000D01*
X154600000Y-109800000D02*
X153850000Y-109800000D01*
X153850000Y-109800000D02*
X153624996Y-110025004D01*
X153624996Y-110025004D02*
X152300000Y-110025004D01*
X152300000Y-97650000D02*
X152300000Y-96600000D01*
X152300000Y-110025004D02*
X152300000Y-97650000D01*
X149266254Y-111100000D02*
X149970787Y-110395467D01*
X147250000Y-111100000D02*
X149266254Y-111100000D01*
X149970787Y-110395467D02*
X149970787Y-110352552D01*
X153100000Y-112000000D02*
X154400000Y-112000000D01*
X154400000Y-112000000D02*
X154500000Y-112100000D01*
X154500000Y-112100000D02*
X154500000Y-111800000D01*
X154500000Y-111800000D02*
X156500000Y-109800000D01*
X156500000Y-109800000D02*
X156600000Y-109800000D01*
X150300000Y-104200000D02*
X150300000Y-102200000D01*
X157849987Y-109349986D02*
X157849987Y-110350013D01*
X157849987Y-110350013D02*
X156400000Y-111800000D01*
X156400001Y-107600000D02*
X156400001Y-107900000D01*
X156400001Y-107900000D02*
X157849987Y-109349986D01*
X156400000Y-111800000D02*
X156400000Y-112100000D01*
X155625013Y-106588603D02*
X156175010Y-107138600D01*
X154550010Y-102150010D02*
X155625013Y-103225013D01*
X155625013Y-103225013D02*
X155625013Y-106588603D01*
X156175010Y-107138600D02*
X156175010Y-107375009D01*
X156175010Y-107375009D02*
X156400001Y-107600000D01*
X154100000Y-84600000D02*
X154100000Y-98463590D01*
X154100000Y-98463590D02*
X154550010Y-98913600D01*
X154550010Y-98913600D02*
X154550010Y-102150010D01*
X158650000Y-79800000D02*
X158650000Y-80050000D01*
X158650000Y-80050000D02*
X154100000Y-84600000D01*
X122300000Y-100800000D02*
X122656698Y-100800000D01*
X122656698Y-100800000D02*
X123553520Y-101696822D01*
X123553520Y-101696822D02*
X123553520Y-102052713D01*
X123553520Y-102052713D02*
X123553520Y-103470320D01*
X114710000Y-84300000D02*
X114710000Y-83110000D01*
X107914651Y-84085349D02*
X107914651Y-96214651D01*
X114710000Y-83110000D02*
X114600000Y-83000000D01*
X114600000Y-83000000D02*
X109000000Y-83000000D01*
X107914651Y-96214651D02*
X112500000Y-100800000D01*
X109000000Y-83000000D02*
X107914651Y-84085349D01*
X112500000Y-100800000D02*
X122300000Y-100800000D01*
X139700000Y-111600000D02*
X141550000Y-111600000D01*
X139600000Y-111500000D02*
X139700000Y-111600000D01*
X122300000Y-100800000D02*
X122400000Y-100800000D01*
X148874618Y-110574236D02*
X149174617Y-110274237D01*
X148848854Y-110600000D02*
X148874618Y-110574236D01*
X147250000Y-110600000D02*
X148848854Y-110600000D01*
X142321580Y-95121580D02*
X142321580Y-102276434D01*
X142321580Y-102276434D02*
X142321580Y-102700698D01*
X141340000Y-94140000D02*
X142321580Y-95121580D01*
X131625001Y-107500001D02*
X130700001Y-108425001D01*
X132125001Y-102239999D02*
X132125001Y-103760001D01*
X114610000Y-91450000D02*
X113760000Y-90600000D01*
X124567573Y-101866318D02*
X131751320Y-101866318D01*
X114610000Y-91700000D02*
X114610000Y-91450000D01*
X140750000Y-113600000D02*
X141550000Y-113600000D01*
X123022027Y-114941012D02*
X123844643Y-114941012D01*
X131625001Y-104260001D02*
X131625001Y-107500001D01*
X113760000Y-90600000D02*
X109582236Y-90600000D01*
X109582236Y-90600000D02*
X108899803Y-91282433D01*
X113100000Y-99700000D02*
X123018299Y-99700000D01*
X124567573Y-101249274D02*
X124567573Y-101866318D01*
X131751320Y-101866318D02*
X132125001Y-102239999D01*
X122049999Y-110468532D02*
X122049999Y-113968985D01*
X130700001Y-108425001D02*
X124093529Y-108425001D01*
X108899803Y-91282433D02*
X108899803Y-95499803D01*
X132125001Y-103760001D02*
X131625001Y-104260001D01*
X124093529Y-108425001D02*
X122049999Y-110468532D01*
X123018299Y-99700000D02*
X124567573Y-101249274D01*
X108899803Y-95499803D02*
X113100000Y-99700000D01*
X122049999Y-113968985D02*
X123022027Y-114941012D01*
X123844643Y-114941012D02*
X124185655Y-114600000D01*
X131373885Y-113600000D02*
X140750000Y-113600000D01*
X124185655Y-114600000D02*
X130373885Y-114600000D01*
X130373885Y-114600000D02*
X131373885Y-113600000D01*
X151231725Y-112041731D02*
X151358516Y-111914940D01*
X148749081Y-112041731D02*
X151231725Y-112041731D01*
X147250000Y-112100000D02*
X148690812Y-112100000D01*
X151358516Y-111914940D02*
X151782780Y-111914940D01*
X148690812Y-112100000D02*
X148749081Y-112041731D01*
X146410000Y-84400000D02*
X146410000Y-84650000D01*
X146410000Y-84650000D02*
X147920432Y-86160432D01*
X150532865Y-110925011D02*
X150592748Y-110865128D01*
X150300000Y-110925011D02*
X150532865Y-110925011D01*
X147920432Y-86160432D02*
X147920432Y-98420432D01*
X150892747Y-110565129D02*
X150592748Y-110865128D01*
X148400000Y-98900000D02*
X151300000Y-98900000D01*
X151700000Y-109757876D02*
X150892747Y-110565129D01*
X151300000Y-98900000D02*
X151700000Y-99300000D01*
X151700000Y-99300000D02*
X151700000Y-109757876D01*
X147920432Y-98420432D02*
X148400000Y-98900000D01*
X144550113Y-110641339D02*
X144550113Y-111065603D01*
X143711012Y-109802238D02*
X144550113Y-110641339D01*
X145333143Y-105398801D02*
X145333143Y-106144403D01*
X144074998Y-104140656D02*
X145333143Y-105398801D01*
X143711012Y-107766534D02*
X143711012Y-109802238D01*
X145333143Y-106144403D02*
X143711012Y-107766534D01*
X144074998Y-102136817D02*
X144074998Y-104140656D01*
X146410000Y-99801815D02*
X144074998Y-102136817D01*
X146410000Y-91700000D02*
X146410000Y-99801815D01*
X142700000Y-114000000D02*
X142600000Y-114100000D01*
X142600000Y-114100000D02*
X141550000Y-114100000D01*
X144336013Y-108666037D02*
X144336013Y-108941308D01*
X145783154Y-107218896D02*
X144336013Y-108666037D01*
X145783154Y-104783154D02*
X145783154Y-107218896D01*
X144336013Y-108941308D02*
X144336013Y-109365572D01*
X145300000Y-104300000D02*
X145783154Y-104783154D01*
X136668523Y-107145701D02*
X137022852Y-107500031D01*
X138947441Y-107756327D02*
X139371705Y-107756327D01*
X132091234Y-109650000D02*
X134595533Y-107145701D01*
X138691145Y-107500031D02*
X138947441Y-107756327D01*
X137022852Y-107500031D02*
X138691145Y-107500031D01*
X134595533Y-107145701D02*
X136668523Y-107145701D01*
X129000000Y-109650000D02*
X132091234Y-109650000D01*
X145300000Y-104300000D02*
X145300000Y-102900000D01*
X145300000Y-104100000D02*
X145300000Y-102900000D01*
X147250000Y-105100000D02*
X147250000Y-104350000D01*
X147250000Y-104350000D02*
X147200000Y-104300000D01*
X129000000Y-109650000D02*
X129000000Y-111150000D01*
X141350000Y-102800000D02*
X141461521Y-102800000D01*
X141461521Y-102800000D02*
X144433123Y-105771602D01*
X144433123Y-105771602D02*
X143104725Y-107100000D01*
X143104725Y-107100000D02*
X141550000Y-107100000D01*
X147939362Y-106100000D02*
X147250000Y-106100000D01*
X148019559Y-106019803D02*
X147939362Y-106100000D01*
X149319803Y-106019803D02*
X148019559Y-106019803D01*
X149400000Y-106100000D02*
X149319803Y-106019803D01*
X150300000Y-106100000D02*
X149400000Y-106100000D01*
X148869813Y-106469814D02*
X148205959Y-106469814D01*
X148050000Y-106600000D02*
X147250000Y-106600000D01*
X150300000Y-107600001D02*
X150000000Y-107600001D01*
X148075773Y-106600000D02*
X148050000Y-106600000D01*
X150000000Y-107600001D02*
X148869813Y-106469814D01*
X148205959Y-106469814D02*
X148075773Y-106600000D01*
X148500001Y-105074989D02*
X148800000Y-104774990D01*
X148300000Y-105500000D02*
X148300000Y-105274990D01*
X153299999Y-105074989D02*
X153000000Y-104774990D01*
X153625010Y-105400000D02*
X153299999Y-105074989D01*
X148300000Y-105274990D02*
X148500001Y-105074989D01*
X154500001Y-105400000D02*
X153625010Y-105400000D01*
X148300000Y-105500000D02*
X148230208Y-105569792D01*
X148230208Y-105569792D02*
X147280208Y-105569792D01*
X147280208Y-105569792D02*
X147250000Y-105600000D01*
X148400000Y-105400000D02*
X148300000Y-105500000D01*
X154500001Y-105400000D02*
X154500001Y-107600000D01*
X147600000Y-102900000D02*
X147600000Y-103600000D01*
X147600000Y-103600000D02*
X148400000Y-104400000D01*
X148400000Y-104400000D02*
X148400000Y-105400000D01*
X148508667Y-107928483D02*
X148508667Y-107938425D01*
X148300001Y-107719817D02*
X148508667Y-107928483D01*
X169750060Y-115800000D02*
X169776494Y-115773566D01*
X169776494Y-115773566D02*
X169776494Y-113503374D01*
X169776494Y-113503374D02*
X163872395Y-107599275D01*
X163872395Y-107599275D02*
X159123539Y-107599275D01*
X159123539Y-107599275D02*
X159024264Y-107500000D01*
X159024264Y-107500000D02*
X158600000Y-107500000D01*
X148300001Y-107719817D02*
X148300001Y-107700001D01*
X147250000Y-107600000D02*
X148086143Y-107600000D01*
X148086143Y-107600000D02*
X148205960Y-107719817D01*
X148205960Y-107719817D02*
X148300001Y-107719817D01*
X149935036Y-114046164D02*
X149635037Y-113746165D01*
X150038872Y-114150000D02*
X149935036Y-114046164D01*
X158600000Y-114150000D02*
X150038872Y-114150000D01*
X141550000Y-108100000D02*
X142350000Y-108100000D01*
X142600026Y-108350026D02*
X142600026Y-108629611D01*
X142350000Y-108100000D02*
X142600026Y-108350026D01*
X166249940Y-115800000D02*
X164599940Y-114150000D01*
X164599940Y-114150000D02*
X158600000Y-114150000D01*
X166249940Y-115800000D02*
X165700000Y-115800000D01*
X140750000Y-105600000D02*
X141550000Y-105600000D01*
X139409251Y-105600000D02*
X140750000Y-105600000D01*
X138409242Y-106600009D02*
X139409251Y-105600000D01*
X137395652Y-106600009D02*
X138409242Y-106600009D01*
X136295643Y-105500000D02*
X137395652Y-106600009D01*
X135900000Y-105500000D02*
X136295643Y-105500000D01*
X135900000Y-105500000D02*
X135900000Y-103600000D01*
X135900000Y-103600000D02*
X135700000Y-103400000D01*
X136150000Y-103150000D02*
X135900000Y-102900000D01*
X159899434Y-106028490D02*
X159475170Y-106028490D01*
X173250180Y-115800000D02*
X163478670Y-106028490D01*
X163478670Y-106028490D02*
X159899434Y-106028490D01*
X140750000Y-107600000D02*
X140435287Y-107285287D01*
X140750000Y-106100000D02*
X141550000Y-106100000D01*
X141550000Y-107600000D02*
X140750000Y-107600000D01*
X140435287Y-107285287D02*
X140435287Y-106414713D01*
X140435287Y-106414713D02*
X140750000Y-106100000D01*
X142866008Y-105391720D02*
X142866008Y-105379445D01*
X142900000Y-105474998D02*
X142900000Y-105425712D01*
X142900000Y-105425712D02*
X142866008Y-105391720D01*
X139500000Y-103000000D02*
X139625000Y-103000000D01*
X139625000Y-103000000D02*
X141550000Y-104925000D01*
X141550000Y-104925000D02*
X141550000Y-105100000D01*
X141550000Y-105100000D02*
X138200000Y-105100000D01*
X138200000Y-105100000D02*
X137800000Y-105500000D01*
X142274998Y-106100000D02*
X141550000Y-106100000D01*
X142600000Y-105100000D02*
X142900000Y-105400000D01*
X142900000Y-105400000D02*
X142900000Y-105474998D01*
X141550000Y-105100000D02*
X142600000Y-105100000D01*
X142900000Y-105474998D02*
X142274998Y-106100000D01*
D30*
G36*
X128173000Y-90173000D02*
X113885685Y-90173000D01*
X113760000Y-90148000D01*
X109727000Y-90148000D01*
X109727000Y-83452000D01*
X114141531Y-83452000D01*
X114127526Y-83461012D01*
X114052862Y-83570286D01*
X114026594Y-83700000D01*
X114026594Y-84900000D01*
X114049395Y-85021179D01*
X114121012Y-85132474D01*
X114230286Y-85207138D01*
X114360000Y-85233406D01*
X115060000Y-85233406D01*
X115181179Y-85210605D01*
X115292474Y-85138988D01*
X115367138Y-85029714D01*
X115393406Y-84900000D01*
X115393406Y-83700000D01*
X115370605Y-83578821D01*
X115298988Y-83467526D01*
X115239676Y-83427000D01*
X115500000Y-83427000D01*
X115549410Y-83416994D01*
X115589803Y-83389803D01*
X120789803Y-78189803D01*
X120817666Y-78147789D01*
X120825290Y-78108750D01*
X120965000Y-78108750D01*
X120965000Y-79326310D01*
X121061673Y-79559699D01*
X121240302Y-79738327D01*
X121473691Y-79835000D01*
X122691250Y-79835000D01*
X122850000Y-79676250D01*
X122850000Y-77950000D01*
X125350000Y-77950000D01*
X125350000Y-79676250D01*
X125508750Y-79835000D01*
X126726309Y-79835000D01*
X126959698Y-79738327D01*
X127138327Y-79559699D01*
X127235000Y-79326310D01*
X127235000Y-78108750D01*
X127076250Y-77950000D01*
X125350000Y-77950000D01*
X122850000Y-77950000D01*
X121123750Y-77950000D01*
X120965000Y-78108750D01*
X120825290Y-78108750D01*
X120827000Y-78100000D01*
X120827000Y-74073690D01*
X120965000Y-74073690D01*
X120965000Y-75291250D01*
X121123750Y-75450000D01*
X122850000Y-75450000D01*
X122850000Y-73723750D01*
X125350000Y-73723750D01*
X125350000Y-75450000D01*
X127076250Y-75450000D01*
X127235000Y-75291250D01*
X127235000Y-74073690D01*
X127138327Y-73840301D01*
X126959698Y-73661673D01*
X126726309Y-73565000D01*
X125508750Y-73565000D01*
X125350000Y-73723750D01*
X122850000Y-73723750D01*
X122691250Y-73565000D01*
X121473691Y-73565000D01*
X121240302Y-73661673D01*
X121061673Y-73840301D01*
X120965000Y-74073690D01*
X120827000Y-74073690D01*
X120827000Y-70627000D01*
X128173000Y-70627000D01*
X128173000Y-90173000D01*
X128173000Y-90173000D01*
G37*
X128173000Y-90173000D02*
X113885685Y-90173000D01*
X113760000Y-90148000D01*
X109727000Y-90148000D01*
X109727000Y-83452000D01*
X114141531Y-83452000D01*
X114127526Y-83461012D01*
X114052862Y-83570286D01*
X114026594Y-83700000D01*
X114026594Y-84900000D01*
X114049395Y-85021179D01*
X114121012Y-85132474D01*
X114230286Y-85207138D01*
X114360000Y-85233406D01*
X115060000Y-85233406D01*
X115181179Y-85210605D01*
X115292474Y-85138988D01*
X115367138Y-85029714D01*
X115393406Y-84900000D01*
X115393406Y-83700000D01*
X115370605Y-83578821D01*
X115298988Y-83467526D01*
X115239676Y-83427000D01*
X115500000Y-83427000D01*
X115549410Y-83416994D01*
X115589803Y-83389803D01*
X120789803Y-78189803D01*
X120817666Y-78147789D01*
X120825290Y-78108750D01*
X120965000Y-78108750D01*
X120965000Y-79326310D01*
X121061673Y-79559699D01*
X121240302Y-79738327D01*
X121473691Y-79835000D01*
X122691250Y-79835000D01*
X122850000Y-79676250D01*
X122850000Y-77950000D01*
X125350000Y-77950000D01*
X125350000Y-79676250D01*
X125508750Y-79835000D01*
X126726309Y-79835000D01*
X126959698Y-79738327D01*
X127138327Y-79559699D01*
X127235000Y-79326310D01*
X127235000Y-78108750D01*
X127076250Y-77950000D01*
X125350000Y-77950000D01*
X122850000Y-77950000D01*
X121123750Y-77950000D01*
X120965000Y-78108750D01*
X120825290Y-78108750D01*
X120827000Y-78100000D01*
X120827000Y-74073690D01*
X120965000Y-74073690D01*
X120965000Y-75291250D01*
X121123750Y-75450000D01*
X122850000Y-75450000D01*
X122850000Y-73723750D01*
X125350000Y-73723750D01*
X125350000Y-75450000D01*
X127076250Y-75450000D01*
X127235000Y-75291250D01*
X127235000Y-74073690D01*
X127138327Y-73840301D01*
X126959698Y-73661673D01*
X126726309Y-73565000D01*
X125508750Y-73565000D01*
X125350000Y-73723750D01*
X122850000Y-73723750D01*
X122691250Y-73565000D01*
X121473691Y-73565000D01*
X121240302Y-73661673D01*
X121061673Y-73840301D01*
X120965000Y-74073690D01*
X120827000Y-74073690D01*
X120827000Y-70627000D01*
X128173000Y-70627000D01*
X128173000Y-90173000D01*
G36*
X180730741Y-85153300D02*
X181500000Y-85922558D01*
X182269259Y-85153300D01*
X182207143Y-85027000D01*
X185073000Y-85027000D01*
X185073000Y-91073000D01*
X174300000Y-91073000D01*
X174250590Y-91083006D01*
X174208965Y-91111447D01*
X174181685Y-91153841D01*
X174173000Y-91200000D01*
X174173000Y-92873000D01*
X170723000Y-92873000D01*
X170723000Y-92893000D01*
X166977000Y-92893000D01*
X166977000Y-92873000D01*
X163373750Y-92873000D01*
X163215000Y-93031750D01*
X163215000Y-95073000D01*
X154552000Y-95073000D01*
X154552000Y-91131750D01*
X156565000Y-91131750D01*
X156565000Y-92326310D01*
X156661673Y-92559699D01*
X156840302Y-92738327D01*
X157073691Y-92835000D01*
X158018250Y-92835000D01*
X158177000Y-92676250D01*
X158177000Y-90973000D01*
X158923000Y-90973000D01*
X158923000Y-92676250D01*
X159081750Y-92835000D01*
X160026309Y-92835000D01*
X160259698Y-92738327D01*
X160438327Y-92559699D01*
X160535000Y-92326310D01*
X160535000Y-91131750D01*
X160376250Y-90973000D01*
X158923000Y-90973000D01*
X158177000Y-90973000D01*
X156723750Y-90973000D01*
X156565000Y-91131750D01*
X154552000Y-91131750D01*
X154552000Y-88873690D01*
X156565000Y-88873690D01*
X156565000Y-90068250D01*
X156723750Y-90227000D01*
X158177000Y-90227000D01*
X158177000Y-88523750D01*
X158923000Y-88523750D01*
X158923000Y-90227000D01*
X160376250Y-90227000D01*
X160535000Y-90068250D01*
X160535000Y-88873690D01*
X160438327Y-88640301D01*
X160259698Y-88461673D01*
X160026309Y-88365000D01*
X159081750Y-88365000D01*
X158923000Y-88523750D01*
X158177000Y-88523750D01*
X158018250Y-88365000D01*
X157073691Y-88365000D01*
X156840302Y-88461673D01*
X156661673Y-88640301D01*
X156565000Y-88873690D01*
X154552000Y-88873690D01*
X154552000Y-86873691D01*
X163215000Y-86873691D01*
X163215000Y-88968250D01*
X163373750Y-89127000D01*
X166977000Y-89127000D01*
X166977000Y-86523750D01*
X170723000Y-86523750D01*
X170723000Y-89127000D01*
X174326250Y-89127000D01*
X174485000Y-88968250D01*
X174485000Y-87746820D01*
X180730741Y-87746820D01*
X180847063Y-87983336D01*
X181483524Y-88116490D01*
X182122494Y-87995946D01*
X182152937Y-87983336D01*
X182269259Y-87746820D01*
X181500000Y-86977562D01*
X180730741Y-87746820D01*
X174485000Y-87746820D01*
X174485000Y-86873691D01*
X174388327Y-86640302D01*
X174209699Y-86461673D01*
X174141887Y-86433584D01*
X179833570Y-86433584D01*
X179954114Y-87072554D01*
X179966724Y-87102997D01*
X180203240Y-87219319D01*
X180972498Y-86450060D01*
X182027502Y-86450060D01*
X182796760Y-87219319D01*
X183033276Y-87102997D01*
X183166430Y-86466536D01*
X183045886Y-85827566D01*
X183033276Y-85797123D01*
X182796760Y-85680801D01*
X182027502Y-86450060D01*
X180972498Y-86450060D01*
X180203240Y-85680801D01*
X179966724Y-85797123D01*
X179833570Y-86433584D01*
X174141887Y-86433584D01*
X173976310Y-86365000D01*
X170881750Y-86365000D01*
X170723000Y-86523750D01*
X166977000Y-86523750D01*
X166818250Y-86365000D01*
X163723690Y-86365000D01*
X163490301Y-86461673D01*
X163311673Y-86640302D01*
X163215000Y-86873691D01*
X154552000Y-86873691D01*
X154552000Y-85027000D01*
X180792857Y-85027000D01*
X180730741Y-85153300D01*
X180730741Y-85153300D01*
G37*
X180730741Y-85153300D02*
X181500000Y-85922558D01*
X182269259Y-85153300D01*
X182207143Y-85027000D01*
X185073000Y-85027000D01*
X185073000Y-91073000D01*
X174300000Y-91073000D01*
X174250590Y-91083006D01*
X174208965Y-91111447D01*
X174181685Y-91153841D01*
X174173000Y-91200000D01*
X174173000Y-92873000D01*
X170723000Y-92873000D01*
X170723000Y-92893000D01*
X166977000Y-92893000D01*
X166977000Y-92873000D01*
X163373750Y-92873000D01*
X163215000Y-93031750D01*
X163215000Y-95073000D01*
X154552000Y-95073000D01*
X154552000Y-91131750D01*
X156565000Y-91131750D01*
X156565000Y-92326310D01*
X156661673Y-92559699D01*
X156840302Y-92738327D01*
X157073691Y-92835000D01*
X158018250Y-92835000D01*
X158177000Y-92676250D01*
X158177000Y-90973000D01*
X158923000Y-90973000D01*
X158923000Y-92676250D01*
X159081750Y-92835000D01*
X160026309Y-92835000D01*
X160259698Y-92738327D01*
X160438327Y-92559699D01*
X160535000Y-92326310D01*
X160535000Y-91131750D01*
X160376250Y-90973000D01*
X158923000Y-90973000D01*
X158177000Y-90973000D01*
X156723750Y-90973000D01*
X156565000Y-91131750D01*
X154552000Y-91131750D01*
X154552000Y-88873690D01*
X156565000Y-88873690D01*
X156565000Y-90068250D01*
X156723750Y-90227000D01*
X158177000Y-90227000D01*
X158177000Y-88523750D01*
X158923000Y-88523750D01*
X158923000Y-90227000D01*
X160376250Y-90227000D01*
X160535000Y-90068250D01*
X160535000Y-88873690D01*
X160438327Y-88640301D01*
X160259698Y-88461673D01*
X160026309Y-88365000D01*
X159081750Y-88365000D01*
X158923000Y-88523750D01*
X158177000Y-88523750D01*
X158018250Y-88365000D01*
X157073691Y-88365000D01*
X156840302Y-88461673D01*
X156661673Y-88640301D01*
X156565000Y-88873690D01*
X154552000Y-88873690D01*
X154552000Y-86873691D01*
X163215000Y-86873691D01*
X163215000Y-88968250D01*
X163373750Y-89127000D01*
X166977000Y-89127000D01*
X166977000Y-86523750D01*
X170723000Y-86523750D01*
X170723000Y-89127000D01*
X174326250Y-89127000D01*
X174485000Y-88968250D01*
X174485000Y-87746820D01*
X180730741Y-87746820D01*
X180847063Y-87983336D01*
X181483524Y-88116490D01*
X182122494Y-87995946D01*
X182152937Y-87983336D01*
X182269259Y-87746820D01*
X181500000Y-86977562D01*
X180730741Y-87746820D01*
X174485000Y-87746820D01*
X174485000Y-86873691D01*
X174388327Y-86640302D01*
X174209699Y-86461673D01*
X174141887Y-86433584D01*
X179833570Y-86433584D01*
X179954114Y-87072554D01*
X179966724Y-87102997D01*
X180203240Y-87219319D01*
X180972498Y-86450060D01*
X182027502Y-86450060D01*
X182796760Y-87219319D01*
X183033276Y-87102997D01*
X183166430Y-86466536D01*
X183045886Y-85827566D01*
X183033276Y-85797123D01*
X182796760Y-85680801D01*
X182027502Y-86450060D01*
X180972498Y-86450060D01*
X180203240Y-85680801D01*
X179966724Y-85797123D01*
X179833570Y-86433584D01*
X174141887Y-86433584D01*
X173976310Y-86365000D01*
X170881750Y-86365000D01*
X170723000Y-86523750D01*
X166977000Y-86523750D01*
X166818250Y-86365000D01*
X163723690Y-86365000D01*
X163490301Y-86461673D01*
X163311673Y-86640302D01*
X163215000Y-86873691D01*
X154552000Y-86873691D01*
X154552000Y-85027000D01*
X180792857Y-85027000D01*
X180730741Y-85153300D01*
G36*
X185073000Y-96273000D02*
X181713416Y-96273000D01*
X182122494Y-96195826D01*
X182152937Y-96183216D01*
X182269259Y-95946700D01*
X181500000Y-95177442D01*
X180730741Y-95946700D01*
X180847063Y-96183216D01*
X181276220Y-96273000D01*
X179800000Y-96273000D01*
X179750590Y-96283006D01*
X179708965Y-96311447D01*
X179681685Y-96353841D01*
X179673000Y-96400000D01*
X179673000Y-100973000D01*
X169027000Y-100973000D01*
X169027000Y-98831750D01*
X170365000Y-98831750D01*
X170365000Y-100026310D01*
X170461673Y-100259699D01*
X170640302Y-100438327D01*
X170873691Y-100535000D01*
X171818250Y-100535000D01*
X171977000Y-100376250D01*
X171977000Y-98673000D01*
X172723000Y-98673000D01*
X172723000Y-100376250D01*
X172881750Y-100535000D01*
X173826309Y-100535000D01*
X174059698Y-100438327D01*
X174238327Y-100259699D01*
X174335000Y-100026310D01*
X174335000Y-98831750D01*
X174176250Y-98673000D01*
X172723000Y-98673000D01*
X171977000Y-98673000D01*
X170523750Y-98673000D01*
X170365000Y-98831750D01*
X169027000Y-98831750D01*
X169027000Y-96573690D01*
X170365000Y-96573690D01*
X170365000Y-97768250D01*
X170523750Y-97927000D01*
X171977000Y-97927000D01*
X171977000Y-96223750D01*
X172723000Y-96223750D01*
X172723000Y-97927000D01*
X174176250Y-97927000D01*
X174335000Y-97768250D01*
X174335000Y-96573690D01*
X174238327Y-96340301D01*
X174059698Y-96161673D01*
X173826309Y-96065000D01*
X172881750Y-96065000D01*
X172723000Y-96223750D01*
X171977000Y-96223750D01*
X171818250Y-96065000D01*
X170873691Y-96065000D01*
X170640302Y-96161673D01*
X170461673Y-96340301D01*
X170365000Y-96573690D01*
X169027000Y-96573690D01*
X169027000Y-95627000D01*
X174600000Y-95627000D01*
X174649410Y-95616994D01*
X174691035Y-95588553D01*
X174718315Y-95546159D01*
X174727000Y-95500000D01*
X174727000Y-94633464D01*
X179833570Y-94633464D01*
X179954114Y-95272434D01*
X179966724Y-95302877D01*
X180203240Y-95419199D01*
X180972498Y-94649940D01*
X182027502Y-94649940D01*
X182796760Y-95419199D01*
X183033276Y-95302877D01*
X183166430Y-94666416D01*
X183045886Y-94027446D01*
X183033276Y-93997003D01*
X182796760Y-93880681D01*
X182027502Y-94649940D01*
X180972498Y-94649940D01*
X180203240Y-93880681D01*
X179966724Y-93997003D01*
X179833570Y-94633464D01*
X174727000Y-94633464D01*
X174727000Y-93353180D01*
X180730741Y-93353180D01*
X181500000Y-94122438D01*
X182269259Y-93353180D01*
X182152937Y-93116664D01*
X181516476Y-92983510D01*
X180877506Y-93104054D01*
X180847063Y-93116664D01*
X180730741Y-93353180D01*
X174727000Y-93353180D01*
X174727000Y-91627000D01*
X185073000Y-91627000D01*
X185073000Y-96273000D01*
X185073000Y-96273000D01*
G37*
X185073000Y-96273000D02*
X181713416Y-96273000D01*
X182122494Y-96195826D01*
X182152937Y-96183216D01*
X182269259Y-95946700D01*
X181500000Y-95177442D01*
X180730741Y-95946700D01*
X180847063Y-96183216D01*
X181276220Y-96273000D01*
X179800000Y-96273000D01*
X179750590Y-96283006D01*
X179708965Y-96311447D01*
X179681685Y-96353841D01*
X179673000Y-96400000D01*
X179673000Y-100973000D01*
X169027000Y-100973000D01*
X169027000Y-98831750D01*
X170365000Y-98831750D01*
X170365000Y-100026310D01*
X170461673Y-100259699D01*
X170640302Y-100438327D01*
X170873691Y-100535000D01*
X171818250Y-100535000D01*
X171977000Y-100376250D01*
X171977000Y-98673000D01*
X172723000Y-98673000D01*
X172723000Y-100376250D01*
X172881750Y-100535000D01*
X173826309Y-100535000D01*
X174059698Y-100438327D01*
X174238327Y-100259699D01*
X174335000Y-100026310D01*
X174335000Y-98831750D01*
X174176250Y-98673000D01*
X172723000Y-98673000D01*
X171977000Y-98673000D01*
X170523750Y-98673000D01*
X170365000Y-98831750D01*
X169027000Y-98831750D01*
X169027000Y-96573690D01*
X170365000Y-96573690D01*
X170365000Y-97768250D01*
X170523750Y-97927000D01*
X171977000Y-97927000D01*
X171977000Y-96223750D01*
X172723000Y-96223750D01*
X172723000Y-97927000D01*
X174176250Y-97927000D01*
X174335000Y-97768250D01*
X174335000Y-96573690D01*
X174238327Y-96340301D01*
X174059698Y-96161673D01*
X173826309Y-96065000D01*
X172881750Y-96065000D01*
X172723000Y-96223750D01*
X171977000Y-96223750D01*
X171818250Y-96065000D01*
X170873691Y-96065000D01*
X170640302Y-96161673D01*
X170461673Y-96340301D01*
X170365000Y-96573690D01*
X169027000Y-96573690D01*
X169027000Y-95627000D01*
X174600000Y-95627000D01*
X174649410Y-95616994D01*
X174691035Y-95588553D01*
X174718315Y-95546159D01*
X174727000Y-95500000D01*
X174727000Y-94633464D01*
X179833570Y-94633464D01*
X179954114Y-95272434D01*
X179966724Y-95302877D01*
X180203240Y-95419199D01*
X180972498Y-94649940D01*
X182027502Y-94649940D01*
X182796760Y-95419199D01*
X183033276Y-95302877D01*
X183166430Y-94666416D01*
X183045886Y-94027446D01*
X183033276Y-93997003D01*
X182796760Y-93880681D01*
X182027502Y-94649940D01*
X180972498Y-94649940D01*
X180203240Y-93880681D01*
X179966724Y-93997003D01*
X179833570Y-94633464D01*
X174727000Y-94633464D01*
X174727000Y-93353180D01*
X180730741Y-93353180D01*
X181500000Y-94122438D01*
X182269259Y-93353180D01*
X182152937Y-93116664D01*
X181516476Y-92983510D01*
X180877506Y-93104054D01*
X180847063Y-93116664D01*
X180730741Y-93353180D01*
X174727000Y-93353180D01*
X174727000Y-91627000D01*
X185073000Y-91627000D01*
X185073000Y-96273000D01*
G36*
X167873000Y-100973000D02*
X158527000Y-100973000D01*
X158527000Y-98831750D01*
X162465000Y-98831750D01*
X162465000Y-100026310D01*
X162561673Y-100259699D01*
X162740302Y-100438327D01*
X162973691Y-100535000D01*
X163918250Y-100535000D01*
X164077000Y-100376250D01*
X164077000Y-98673000D01*
X164823000Y-98673000D01*
X164823000Y-100376250D01*
X164981750Y-100535000D01*
X165926309Y-100535000D01*
X166159698Y-100438327D01*
X166338327Y-100259699D01*
X166435000Y-100026310D01*
X166435000Y-98831750D01*
X166276250Y-98673000D01*
X164823000Y-98673000D01*
X164077000Y-98673000D01*
X162623750Y-98673000D01*
X162465000Y-98831750D01*
X158527000Y-98831750D01*
X158527000Y-96573690D01*
X162465000Y-96573690D01*
X162465000Y-97768250D01*
X162623750Y-97927000D01*
X164077000Y-97927000D01*
X164077000Y-96223750D01*
X164823000Y-96223750D01*
X164823000Y-97927000D01*
X166276250Y-97927000D01*
X166435000Y-97768250D01*
X166435000Y-96573690D01*
X166338327Y-96340301D01*
X166159698Y-96161673D01*
X165926309Y-96065000D01*
X164981750Y-96065000D01*
X164823000Y-96223750D01*
X164077000Y-96223750D01*
X163918250Y-96065000D01*
X162973691Y-96065000D01*
X162740302Y-96161673D01*
X162561673Y-96340301D01*
X162465000Y-96573690D01*
X158527000Y-96573690D01*
X158527000Y-95627000D01*
X167873000Y-95627000D01*
X167873000Y-100973000D01*
X167873000Y-100973000D01*
G37*
X167873000Y-100973000D02*
X158527000Y-100973000D01*
X158527000Y-98831750D01*
X162465000Y-98831750D01*
X162465000Y-100026310D01*
X162561673Y-100259699D01*
X162740302Y-100438327D01*
X162973691Y-100535000D01*
X163918250Y-100535000D01*
X164077000Y-100376250D01*
X164077000Y-98673000D01*
X164823000Y-98673000D01*
X164823000Y-100376250D01*
X164981750Y-100535000D01*
X165926309Y-100535000D01*
X166159698Y-100438327D01*
X166338327Y-100259699D01*
X166435000Y-100026310D01*
X166435000Y-98831750D01*
X166276250Y-98673000D01*
X164823000Y-98673000D01*
X164077000Y-98673000D01*
X162623750Y-98673000D01*
X162465000Y-98831750D01*
X158527000Y-98831750D01*
X158527000Y-96573690D01*
X162465000Y-96573690D01*
X162465000Y-97768250D01*
X162623750Y-97927000D01*
X164077000Y-97927000D01*
X164077000Y-96223750D01*
X164823000Y-96223750D01*
X164823000Y-97927000D01*
X166276250Y-97927000D01*
X166435000Y-97768250D01*
X166435000Y-96573690D01*
X166338327Y-96340301D01*
X166159698Y-96161673D01*
X165926309Y-96065000D01*
X164981750Y-96065000D01*
X164823000Y-96223750D01*
X164077000Y-96223750D01*
X163918250Y-96065000D01*
X162973691Y-96065000D01*
X162740302Y-96161673D01*
X162561673Y-96340301D01*
X162465000Y-96573690D01*
X158527000Y-96573690D01*
X158527000Y-95627000D01*
X167873000Y-95627000D01*
X167873000Y-100973000D01*
G36*
X145673000Y-94973000D02*
X131433406Y-94973000D01*
X131433406Y-91200000D01*
X131410605Y-91078821D01*
X131338988Y-90967526D01*
X131229714Y-90892862D01*
X131100000Y-90866594D01*
X126100000Y-90866594D01*
X125978821Y-90889395D01*
X125867526Y-90961012D01*
X125792862Y-91070286D01*
X125766594Y-91200000D01*
X125766594Y-94973000D01*
X109727000Y-94973000D01*
X109727000Y-91094460D01*
X109769460Y-91052000D01*
X113572776Y-91052000D01*
X113926594Y-91405819D01*
X113926594Y-92300000D01*
X113949395Y-92421179D01*
X114021012Y-92532474D01*
X114130286Y-92607138D01*
X114260000Y-92633406D01*
X114960000Y-92633406D01*
X115081179Y-92610605D01*
X115192474Y-92538988D01*
X115267138Y-92429714D01*
X115293406Y-92300000D01*
X115293406Y-91100000D01*
X115270605Y-90978821D01*
X115198988Y-90867526D01*
X115139676Y-90827000D01*
X145673000Y-90827000D01*
X145673000Y-94973000D01*
X145673000Y-94973000D01*
G37*
X145673000Y-94973000D02*
X131433406Y-94973000D01*
X131433406Y-91200000D01*
X131410605Y-91078821D01*
X131338988Y-90967526D01*
X131229714Y-90892862D01*
X131100000Y-90866594D01*
X126100000Y-90866594D01*
X125978821Y-90889395D01*
X125867526Y-90961012D01*
X125792862Y-91070286D01*
X125766594Y-91200000D01*
X125766594Y-94973000D01*
X109727000Y-94973000D01*
X109727000Y-91094460D01*
X109769460Y-91052000D01*
X113572776Y-91052000D01*
X113926594Y-91405819D01*
X113926594Y-92300000D01*
X113949395Y-92421179D01*
X114021012Y-92532474D01*
X114130286Y-92607138D01*
X114260000Y-92633406D01*
X114960000Y-92633406D01*
X115081179Y-92610605D01*
X115192474Y-92538988D01*
X115267138Y-92429714D01*
X115293406Y-92300000D01*
X115293406Y-91100000D01*
X115270605Y-90978821D01*
X115198988Y-90867526D01*
X115139676Y-90827000D01*
X145673000Y-90827000D01*
X145673000Y-94973000D01*
G36*
X152973000Y-95073000D02*
X148527000Y-95073000D01*
X148527000Y-91131750D01*
X148665000Y-91131750D01*
X148665000Y-92326310D01*
X148761673Y-92559699D01*
X148940302Y-92738327D01*
X149173691Y-92835000D01*
X150118250Y-92835000D01*
X150277000Y-92676250D01*
X150277000Y-90973000D01*
X151023000Y-90973000D01*
X151023000Y-92676250D01*
X151181750Y-92835000D01*
X152126309Y-92835000D01*
X152359698Y-92738327D01*
X152538327Y-92559699D01*
X152635000Y-92326310D01*
X152635000Y-91131750D01*
X152476250Y-90973000D01*
X151023000Y-90973000D01*
X150277000Y-90973000D01*
X148823750Y-90973000D01*
X148665000Y-91131750D01*
X148527000Y-91131750D01*
X148527000Y-88873690D01*
X148665000Y-88873690D01*
X148665000Y-90068250D01*
X148823750Y-90227000D01*
X150277000Y-90227000D01*
X150277000Y-88523750D01*
X151023000Y-88523750D01*
X151023000Y-90227000D01*
X152476250Y-90227000D01*
X152635000Y-90068250D01*
X152635000Y-88873690D01*
X152538327Y-88640301D01*
X152359698Y-88461673D01*
X152126309Y-88365000D01*
X151181750Y-88365000D01*
X151023000Y-88523750D01*
X150277000Y-88523750D01*
X150118250Y-88365000D01*
X149173691Y-88365000D01*
X148940302Y-88461673D01*
X148761673Y-88640301D01*
X148665000Y-88873690D01*
X148527000Y-88873690D01*
X148527000Y-83327000D01*
X152973000Y-83327000D01*
X152973000Y-95073000D01*
X152973000Y-95073000D01*
G37*
X152973000Y-95073000D02*
X148527000Y-95073000D01*
X148527000Y-91131750D01*
X148665000Y-91131750D01*
X148665000Y-92326310D01*
X148761673Y-92559699D01*
X148940302Y-92738327D01*
X149173691Y-92835000D01*
X150118250Y-92835000D01*
X150277000Y-92676250D01*
X150277000Y-90973000D01*
X151023000Y-90973000D01*
X151023000Y-92676250D01*
X151181750Y-92835000D01*
X152126309Y-92835000D01*
X152359698Y-92738327D01*
X152538327Y-92559699D01*
X152635000Y-92326310D01*
X152635000Y-91131750D01*
X152476250Y-90973000D01*
X151023000Y-90973000D01*
X150277000Y-90973000D01*
X148823750Y-90973000D01*
X148665000Y-91131750D01*
X148527000Y-91131750D01*
X148527000Y-88873690D01*
X148665000Y-88873690D01*
X148665000Y-90068250D01*
X148823750Y-90227000D01*
X150277000Y-90227000D01*
X150277000Y-88523750D01*
X151023000Y-88523750D01*
X151023000Y-90227000D01*
X152476250Y-90227000D01*
X152635000Y-90068250D01*
X152635000Y-88873690D01*
X152538327Y-88640301D01*
X152359698Y-88461673D01*
X152126309Y-88365000D01*
X151181750Y-88365000D01*
X151023000Y-88523750D01*
X150277000Y-88523750D01*
X150118250Y-88365000D01*
X149173691Y-88365000D01*
X148940302Y-88461673D01*
X148761673Y-88640301D01*
X148665000Y-88873690D01*
X148527000Y-88873690D01*
X148527000Y-83327000D01*
X152973000Y-83327000D01*
X152973000Y-95073000D01*
G36*
X120173000Y-78047394D02*
X115847394Y-82373000D01*
X106627000Y-82373000D01*
X106627000Y-75410160D01*
X108723840Y-75410160D01*
X109039387Y-76173843D01*
X109623164Y-76758639D01*
X110386295Y-77075519D01*
X111212600Y-77076240D01*
X111976283Y-76760693D01*
X112561079Y-76176916D01*
X112877959Y-75413785D01*
X112878680Y-74587480D01*
X112563133Y-73823797D01*
X111979356Y-73239001D01*
X111216225Y-72922121D01*
X110389920Y-72921400D01*
X109626237Y-73236947D01*
X109041441Y-73820724D01*
X108724561Y-74583855D01*
X108723840Y-75410160D01*
X106627000Y-75410160D01*
X106627000Y-70627000D01*
X120173000Y-70627000D01*
X120173000Y-78047394D01*
X120173000Y-78047394D01*
G37*
X120173000Y-78047394D02*
X115847394Y-82373000D01*
X106627000Y-82373000D01*
X106627000Y-75410160D01*
X108723840Y-75410160D01*
X109039387Y-76173843D01*
X109623164Y-76758639D01*
X110386295Y-77075519D01*
X111212600Y-77076240D01*
X111976283Y-76760693D01*
X112561079Y-76176916D01*
X112877959Y-75413785D01*
X112878680Y-74587480D01*
X112563133Y-73823797D01*
X111979356Y-73239001D01*
X111216225Y-72922121D01*
X110389920Y-72921400D01*
X109626237Y-73236947D01*
X109041441Y-73820724D01*
X108724561Y-74583855D01*
X108723840Y-75410160D01*
X106627000Y-75410160D01*
X106627000Y-70627000D01*
X120173000Y-70627000D01*
X120173000Y-78047394D01*
G36*
X136473000Y-78000000D02*
X136483006Y-78049410D01*
X136510197Y-78089803D01*
X141710197Y-83289803D01*
X141752211Y-83317666D01*
X141800000Y-83327000D01*
X147973000Y-83327000D01*
X147973000Y-85573775D01*
X147093406Y-84694182D01*
X147093406Y-83800000D01*
X147070605Y-83678821D01*
X146998988Y-83567526D01*
X146889714Y-83492862D01*
X146760000Y-83466594D01*
X146060000Y-83466594D01*
X145938821Y-83489395D01*
X145827526Y-83561012D01*
X145752862Y-83670286D01*
X145726594Y-83800000D01*
X145726594Y-85000000D01*
X145749395Y-85121179D01*
X145821012Y-85232474D01*
X145930286Y-85307138D01*
X146060000Y-85333406D01*
X146454182Y-85333406D01*
X147468432Y-86347657D01*
X147468432Y-90173000D01*
X128727000Y-90173000D01*
X128727000Y-78108750D01*
X129965000Y-78108750D01*
X129965000Y-79326310D01*
X130061673Y-79559699D01*
X130240302Y-79738327D01*
X130473691Y-79835000D01*
X131691250Y-79835000D01*
X131850000Y-79676250D01*
X131850000Y-77950000D01*
X134350000Y-77950000D01*
X134350000Y-79676250D01*
X134508750Y-79835000D01*
X135726309Y-79835000D01*
X135959698Y-79738327D01*
X136138327Y-79559699D01*
X136235000Y-79326310D01*
X136235000Y-78108750D01*
X136076250Y-77950000D01*
X134350000Y-77950000D01*
X131850000Y-77950000D01*
X130123750Y-77950000D01*
X129965000Y-78108750D01*
X128727000Y-78108750D01*
X128727000Y-74073690D01*
X129965000Y-74073690D01*
X129965000Y-75291250D01*
X130123750Y-75450000D01*
X131850000Y-75450000D01*
X131850000Y-73723750D01*
X134350000Y-73723750D01*
X134350000Y-75450000D01*
X136076250Y-75450000D01*
X136235000Y-75291250D01*
X136235000Y-74073690D01*
X136138327Y-73840301D01*
X135959698Y-73661673D01*
X135726309Y-73565000D01*
X134508750Y-73565000D01*
X134350000Y-73723750D01*
X131850000Y-73723750D01*
X131691250Y-73565000D01*
X130473691Y-73565000D01*
X130240302Y-73661673D01*
X130061673Y-73840301D01*
X129965000Y-74073690D01*
X128727000Y-74073690D01*
X128727000Y-70627000D01*
X136473000Y-70627000D01*
X136473000Y-78000000D01*
X136473000Y-78000000D01*
G37*
X136473000Y-78000000D02*
X136483006Y-78049410D01*
X136510197Y-78089803D01*
X141710197Y-83289803D01*
X141752211Y-83317666D01*
X141800000Y-83327000D01*
X147973000Y-83327000D01*
X147973000Y-85573775D01*
X147093406Y-84694182D01*
X147093406Y-83800000D01*
X147070605Y-83678821D01*
X146998988Y-83567526D01*
X146889714Y-83492862D01*
X146760000Y-83466594D01*
X146060000Y-83466594D01*
X145938821Y-83489395D01*
X145827526Y-83561012D01*
X145752862Y-83670286D01*
X145726594Y-83800000D01*
X145726594Y-85000000D01*
X145749395Y-85121179D01*
X145821012Y-85232474D01*
X145930286Y-85307138D01*
X146060000Y-85333406D01*
X146454182Y-85333406D01*
X147468432Y-86347657D01*
X147468432Y-90173000D01*
X128727000Y-90173000D01*
X128727000Y-78108750D01*
X129965000Y-78108750D01*
X129965000Y-79326310D01*
X130061673Y-79559699D01*
X130240302Y-79738327D01*
X130473691Y-79835000D01*
X131691250Y-79835000D01*
X131850000Y-79676250D01*
X131850000Y-77950000D01*
X134350000Y-77950000D01*
X134350000Y-79676250D01*
X134508750Y-79835000D01*
X135726309Y-79835000D01*
X135959698Y-79738327D01*
X136138327Y-79559699D01*
X136235000Y-79326310D01*
X136235000Y-78108750D01*
X136076250Y-77950000D01*
X134350000Y-77950000D01*
X131850000Y-77950000D01*
X130123750Y-77950000D01*
X129965000Y-78108750D01*
X128727000Y-78108750D01*
X128727000Y-74073690D01*
X129965000Y-74073690D01*
X129965000Y-75291250D01*
X130123750Y-75450000D01*
X131850000Y-75450000D01*
X131850000Y-73723750D01*
X134350000Y-73723750D01*
X134350000Y-75450000D01*
X136076250Y-75450000D01*
X136235000Y-75291250D01*
X136235000Y-74073690D01*
X136138327Y-73840301D01*
X135959698Y-73661673D01*
X135726309Y-73565000D01*
X134508750Y-73565000D01*
X134350000Y-73723750D01*
X131850000Y-73723750D01*
X131691250Y-73565000D01*
X130473691Y-73565000D01*
X130240302Y-73661673D01*
X130061673Y-73840301D01*
X129965000Y-74073690D01*
X128727000Y-74073690D01*
X128727000Y-70627000D01*
X136473000Y-70627000D01*
X136473000Y-78000000D01*
G36*
X153973000Y-82773000D02*
X141852606Y-82773000D01*
X139411356Y-80331750D01*
X148765000Y-80331750D01*
X148765000Y-81526310D01*
X148861673Y-81759699D01*
X149040302Y-81938327D01*
X149273691Y-82035000D01*
X150218250Y-82035000D01*
X150377000Y-81876250D01*
X150377000Y-80173000D01*
X151123000Y-80173000D01*
X151123000Y-81876250D01*
X151281750Y-82035000D01*
X152226309Y-82035000D01*
X152459698Y-81938327D01*
X152638327Y-81759699D01*
X152735000Y-81526310D01*
X152735000Y-80331750D01*
X152576250Y-80173000D01*
X151123000Y-80173000D01*
X150377000Y-80173000D01*
X148923750Y-80173000D01*
X148765000Y-80331750D01*
X139411356Y-80331750D01*
X137153296Y-78073690D01*
X148765000Y-78073690D01*
X148765000Y-79268250D01*
X148923750Y-79427000D01*
X150377000Y-79427000D01*
X150377000Y-77723750D01*
X151123000Y-77723750D01*
X151123000Y-79427000D01*
X152576250Y-79427000D01*
X152735000Y-79268250D01*
X152735000Y-78073690D01*
X152638327Y-77840301D01*
X152459698Y-77661673D01*
X152226309Y-77565000D01*
X151281750Y-77565000D01*
X151123000Y-77723750D01*
X150377000Y-77723750D01*
X150218250Y-77565000D01*
X149273691Y-77565000D01*
X149040302Y-77661673D01*
X148861673Y-77840301D01*
X148765000Y-78073690D01*
X137153296Y-78073690D01*
X137027000Y-77947394D01*
X137027000Y-70627000D01*
X153973000Y-70627000D01*
X153973000Y-82773000D01*
X153973000Y-82773000D01*
G37*
X153973000Y-82773000D02*
X141852606Y-82773000D01*
X139411356Y-80331750D01*
X148765000Y-80331750D01*
X148765000Y-81526310D01*
X148861673Y-81759699D01*
X149040302Y-81938327D01*
X149273691Y-82035000D01*
X150218250Y-82035000D01*
X150377000Y-81876250D01*
X150377000Y-80173000D01*
X151123000Y-80173000D01*
X151123000Y-81876250D01*
X151281750Y-82035000D01*
X152226309Y-82035000D01*
X152459698Y-81938327D01*
X152638327Y-81759699D01*
X152735000Y-81526310D01*
X152735000Y-80331750D01*
X152576250Y-80173000D01*
X151123000Y-80173000D01*
X150377000Y-80173000D01*
X148923750Y-80173000D01*
X148765000Y-80331750D01*
X139411356Y-80331750D01*
X137153296Y-78073690D01*
X148765000Y-78073690D01*
X148765000Y-79268250D01*
X148923750Y-79427000D01*
X150377000Y-79427000D01*
X150377000Y-77723750D01*
X151123000Y-77723750D01*
X151123000Y-79427000D01*
X152576250Y-79427000D01*
X152735000Y-79268250D01*
X152735000Y-78073690D01*
X152638327Y-77840301D01*
X152459698Y-77661673D01*
X152226309Y-77565000D01*
X151281750Y-77565000D01*
X151123000Y-77723750D01*
X150377000Y-77723750D01*
X150218250Y-77565000D01*
X149273691Y-77565000D01*
X149040302Y-77661673D01*
X148861673Y-77840301D01*
X148765000Y-78073690D01*
X137153296Y-78073690D01*
X137027000Y-77947394D01*
X137027000Y-70627000D01*
X153973000Y-70627000D01*
X153973000Y-82773000D01*
G36*
X185073000Y-84473000D02*
X182157961Y-84473000D01*
X182269259Y-84246700D01*
X181500000Y-83477442D01*
X180730741Y-84246700D01*
X180842039Y-84473000D01*
X154527000Y-84473000D01*
X154527000Y-80331750D01*
X156665000Y-80331750D01*
X156665000Y-81526310D01*
X156761673Y-81759699D01*
X156940302Y-81938327D01*
X157173691Y-82035000D01*
X158118250Y-82035000D01*
X158277000Y-81876250D01*
X158277000Y-80173000D01*
X159023000Y-80173000D01*
X159023000Y-81876250D01*
X159181750Y-82035000D01*
X160126309Y-82035000D01*
X160359698Y-81938327D01*
X160538327Y-81759699D01*
X160635000Y-81526310D01*
X160635000Y-81031750D01*
X163165000Y-81031750D01*
X163165000Y-83126309D01*
X163261673Y-83359698D01*
X163440301Y-83538327D01*
X163673690Y-83635000D01*
X166768250Y-83635000D01*
X166927000Y-83476250D01*
X166927000Y-80873000D01*
X170673000Y-80873000D01*
X170673000Y-83476250D01*
X170831750Y-83635000D01*
X173926310Y-83635000D01*
X174159699Y-83538327D01*
X174338327Y-83359698D01*
X174435000Y-83126309D01*
X174435000Y-82933464D01*
X179833570Y-82933464D01*
X179954114Y-83572434D01*
X179966724Y-83602877D01*
X180203240Y-83719199D01*
X180972498Y-82949940D01*
X182027502Y-82949940D01*
X182796760Y-83719199D01*
X183033276Y-83602877D01*
X183166430Y-82966416D01*
X183045886Y-82327446D01*
X183033276Y-82297003D01*
X182796760Y-82180681D01*
X182027502Y-82949940D01*
X180972498Y-82949940D01*
X180203240Y-82180681D01*
X179966724Y-82297003D01*
X179833570Y-82933464D01*
X174435000Y-82933464D01*
X174435000Y-81653180D01*
X180730741Y-81653180D01*
X181500000Y-82422438D01*
X182269259Y-81653180D01*
X182152937Y-81416664D01*
X181516476Y-81283510D01*
X180877506Y-81404054D01*
X180847063Y-81416664D01*
X180730741Y-81653180D01*
X174435000Y-81653180D01*
X174435000Y-81031750D01*
X174276250Y-80873000D01*
X170673000Y-80873000D01*
X166927000Y-80873000D01*
X163323750Y-80873000D01*
X163165000Y-81031750D01*
X160635000Y-81031750D01*
X160635000Y-80331750D01*
X160476250Y-80173000D01*
X159023000Y-80173000D01*
X158277000Y-80173000D01*
X156823750Y-80173000D01*
X156665000Y-80331750D01*
X154527000Y-80331750D01*
X154527000Y-78073690D01*
X156665000Y-78073690D01*
X156665000Y-79268250D01*
X156823750Y-79427000D01*
X158277000Y-79427000D01*
X158277000Y-77723750D01*
X159023000Y-77723750D01*
X159023000Y-79427000D01*
X160476250Y-79427000D01*
X160635000Y-79268250D01*
X160635000Y-78073690D01*
X160538327Y-77840301D01*
X160359698Y-77661673D01*
X160126309Y-77565000D01*
X159181750Y-77565000D01*
X159023000Y-77723750D01*
X158277000Y-77723750D01*
X158118250Y-77565000D01*
X157173691Y-77565000D01*
X156940302Y-77661673D01*
X156761673Y-77840301D01*
X156665000Y-78073690D01*
X154527000Y-78073690D01*
X154527000Y-76309872D01*
X156917630Y-76309872D01*
X157001211Y-76521110D01*
X157544746Y-76611425D01*
X157998789Y-76521110D01*
X158082370Y-76309872D01*
X157500000Y-75727502D01*
X156917630Y-76309872D01*
X154527000Y-76309872D01*
X154527000Y-75244746D01*
X156088575Y-75244746D01*
X156178890Y-75698789D01*
X156390128Y-75782370D01*
X156972498Y-75200000D01*
X158027502Y-75200000D01*
X158609872Y-75782370D01*
X158821110Y-75698789D01*
X158911425Y-75155254D01*
X158855419Y-74873691D01*
X163165000Y-74873691D01*
X163165000Y-76968250D01*
X163323750Y-77127000D01*
X166927000Y-77127000D01*
X166927000Y-74523750D01*
X170673000Y-74523750D01*
X170673000Y-77127000D01*
X174276250Y-77127000D01*
X174435000Y-76968250D01*
X174435000Y-75410160D01*
X178723700Y-75410160D01*
X179039247Y-76173843D01*
X179623024Y-76758639D01*
X180386155Y-77075519D01*
X181212460Y-77076240D01*
X181976143Y-76760693D01*
X182560939Y-76176916D01*
X182877819Y-75413785D01*
X182878540Y-74587480D01*
X182562993Y-73823797D01*
X181979216Y-73239001D01*
X181216085Y-72922121D01*
X180389780Y-72921400D01*
X179626097Y-73236947D01*
X179041301Y-73820724D01*
X178724421Y-74583855D01*
X178723700Y-75410160D01*
X174435000Y-75410160D01*
X174435000Y-74873691D01*
X174338327Y-74640302D01*
X174159699Y-74461673D01*
X173926310Y-74365000D01*
X170831750Y-74365000D01*
X170673000Y-74523750D01*
X166927000Y-74523750D01*
X166768250Y-74365000D01*
X163673690Y-74365000D01*
X163440301Y-74461673D01*
X163261673Y-74640302D01*
X163165000Y-74873691D01*
X158855419Y-74873691D01*
X158821110Y-74701211D01*
X158609872Y-74617630D01*
X158027502Y-75200000D01*
X156972498Y-75200000D01*
X156390128Y-74617630D01*
X156178890Y-74701211D01*
X156088575Y-75244746D01*
X154527000Y-75244746D01*
X154527000Y-74090128D01*
X156917630Y-74090128D01*
X157500000Y-74672498D01*
X158082370Y-74090128D01*
X157998789Y-73878890D01*
X157455254Y-73788575D01*
X157001211Y-73878890D01*
X156917630Y-74090128D01*
X154527000Y-74090128D01*
X154527000Y-70627000D01*
X185073000Y-70627000D01*
X185073000Y-84473000D01*
X185073000Y-84473000D01*
G37*
X185073000Y-84473000D02*
X182157961Y-84473000D01*
X182269259Y-84246700D01*
X181500000Y-83477442D01*
X180730741Y-84246700D01*
X180842039Y-84473000D01*
X154527000Y-84473000D01*
X154527000Y-80331750D01*
X156665000Y-80331750D01*
X156665000Y-81526310D01*
X156761673Y-81759699D01*
X156940302Y-81938327D01*
X157173691Y-82035000D01*
X158118250Y-82035000D01*
X158277000Y-81876250D01*
X158277000Y-80173000D01*
X159023000Y-80173000D01*
X159023000Y-81876250D01*
X159181750Y-82035000D01*
X160126309Y-82035000D01*
X160359698Y-81938327D01*
X160538327Y-81759699D01*
X160635000Y-81526310D01*
X160635000Y-81031750D01*
X163165000Y-81031750D01*
X163165000Y-83126309D01*
X163261673Y-83359698D01*
X163440301Y-83538327D01*
X163673690Y-83635000D01*
X166768250Y-83635000D01*
X166927000Y-83476250D01*
X166927000Y-80873000D01*
X170673000Y-80873000D01*
X170673000Y-83476250D01*
X170831750Y-83635000D01*
X173926310Y-83635000D01*
X174159699Y-83538327D01*
X174338327Y-83359698D01*
X174435000Y-83126309D01*
X174435000Y-82933464D01*
X179833570Y-82933464D01*
X179954114Y-83572434D01*
X179966724Y-83602877D01*
X180203240Y-83719199D01*
X180972498Y-82949940D01*
X182027502Y-82949940D01*
X182796760Y-83719199D01*
X183033276Y-83602877D01*
X183166430Y-82966416D01*
X183045886Y-82327446D01*
X183033276Y-82297003D01*
X182796760Y-82180681D01*
X182027502Y-82949940D01*
X180972498Y-82949940D01*
X180203240Y-82180681D01*
X179966724Y-82297003D01*
X179833570Y-82933464D01*
X174435000Y-82933464D01*
X174435000Y-81653180D01*
X180730741Y-81653180D01*
X181500000Y-82422438D01*
X182269259Y-81653180D01*
X182152937Y-81416664D01*
X181516476Y-81283510D01*
X180877506Y-81404054D01*
X180847063Y-81416664D01*
X180730741Y-81653180D01*
X174435000Y-81653180D01*
X174435000Y-81031750D01*
X174276250Y-80873000D01*
X170673000Y-80873000D01*
X166927000Y-80873000D01*
X163323750Y-80873000D01*
X163165000Y-81031750D01*
X160635000Y-81031750D01*
X160635000Y-80331750D01*
X160476250Y-80173000D01*
X159023000Y-80173000D01*
X158277000Y-80173000D01*
X156823750Y-80173000D01*
X156665000Y-80331750D01*
X154527000Y-80331750D01*
X154527000Y-78073690D01*
X156665000Y-78073690D01*
X156665000Y-79268250D01*
X156823750Y-79427000D01*
X158277000Y-79427000D01*
X158277000Y-77723750D01*
X159023000Y-77723750D01*
X159023000Y-79427000D01*
X160476250Y-79427000D01*
X160635000Y-79268250D01*
X160635000Y-78073690D01*
X160538327Y-77840301D01*
X160359698Y-77661673D01*
X160126309Y-77565000D01*
X159181750Y-77565000D01*
X159023000Y-77723750D01*
X158277000Y-77723750D01*
X158118250Y-77565000D01*
X157173691Y-77565000D01*
X156940302Y-77661673D01*
X156761673Y-77840301D01*
X156665000Y-78073690D01*
X154527000Y-78073690D01*
X154527000Y-76309872D01*
X156917630Y-76309872D01*
X157001211Y-76521110D01*
X157544746Y-76611425D01*
X157998789Y-76521110D01*
X158082370Y-76309872D01*
X157500000Y-75727502D01*
X156917630Y-76309872D01*
X154527000Y-76309872D01*
X154527000Y-75244746D01*
X156088575Y-75244746D01*
X156178890Y-75698789D01*
X156390128Y-75782370D01*
X156972498Y-75200000D01*
X158027502Y-75200000D01*
X158609872Y-75782370D01*
X158821110Y-75698789D01*
X158911425Y-75155254D01*
X158855419Y-74873691D01*
X163165000Y-74873691D01*
X163165000Y-76968250D01*
X163323750Y-77127000D01*
X166927000Y-77127000D01*
X166927000Y-74523750D01*
X170673000Y-74523750D01*
X170673000Y-77127000D01*
X174276250Y-77127000D01*
X174435000Y-76968250D01*
X174435000Y-75410160D01*
X178723700Y-75410160D01*
X179039247Y-76173843D01*
X179623024Y-76758639D01*
X180386155Y-77075519D01*
X181212460Y-77076240D01*
X181976143Y-76760693D01*
X182560939Y-76176916D01*
X182877819Y-75413785D01*
X182878540Y-74587480D01*
X182562993Y-73823797D01*
X181979216Y-73239001D01*
X181216085Y-72922121D01*
X180389780Y-72921400D01*
X179626097Y-73236947D01*
X179041301Y-73820724D01*
X178724421Y-74583855D01*
X178723700Y-75410160D01*
X174435000Y-75410160D01*
X174435000Y-74873691D01*
X174338327Y-74640302D01*
X174159699Y-74461673D01*
X173926310Y-74365000D01*
X170831750Y-74365000D01*
X170673000Y-74523750D01*
X166927000Y-74523750D01*
X166768250Y-74365000D01*
X163673690Y-74365000D01*
X163440301Y-74461673D01*
X163261673Y-74640302D01*
X163165000Y-74873691D01*
X158855419Y-74873691D01*
X158821110Y-74701211D01*
X158609872Y-74617630D01*
X158027502Y-75200000D01*
X156972498Y-75200000D01*
X156390128Y-74617630D01*
X156178890Y-74701211D01*
X156088575Y-75244746D01*
X154527000Y-75244746D01*
X154527000Y-74090128D01*
X156917630Y-74090128D01*
X157500000Y-74672498D01*
X158082370Y-74090128D01*
X157998789Y-73878890D01*
X157455254Y-73788575D01*
X157001211Y-73878890D01*
X156917630Y-74090128D01*
X154527000Y-74090128D01*
X154527000Y-70627000D01*
X185073000Y-70627000D01*
X185073000Y-84473000D01*
M02*
