G04 #@! TF.FileFunction,Copper,L2,Bot,Signal*
%FSLAX46Y46*%
G04 Gerber Fmt 4.6, Leading zero omitted, Abs format (unit mm)*
G04 Created by KiCad (PCBNEW 4.0.5) date 10/06/17 09:47:02*
%MOMM*%
%LPD*%
G01*
G04 APERTURE LIST*
%ADD10C,0.100000*%
%ADD11C,1.998980*%
%ADD12C,0.500000*%
%ADD13R,4.510000X3.400000*%
%ADD14C,0.600000*%
%ADD15C,0.250000*%
%ADD16C,0.254000*%
G04 APERTURE END LIST*
D10*
D11*
X169750060Y-115800000D03*
X173250180Y-115800000D03*
X166249940Y-115800000D03*
X162749820Y-115800000D03*
X181500000Y-86450060D03*
X181500000Y-82949940D03*
X181500000Y-98150060D03*
X181500000Y-94649940D03*
D12*
X178640000Y-90040000D03*
X178005000Y-90040000D03*
X177370000Y-90040000D03*
X176735000Y-90040000D03*
X176100000Y-90040000D03*
X178640000Y-89405000D03*
X178005000Y-89405000D03*
X177370000Y-89405000D03*
X176735000Y-89405000D03*
X176100000Y-89405000D03*
X178640000Y-88770000D03*
X178005000Y-88770000D03*
X177370000Y-88770000D03*
X176100000Y-88770000D03*
X178640000Y-88135000D03*
X178005000Y-88135000D03*
X177370000Y-88135000D03*
X176735000Y-88135000D03*
X176100000Y-88135000D03*
X178640000Y-87500000D03*
X178005000Y-87500000D03*
X177370000Y-87500000D03*
X176735000Y-87500000D03*
X176100000Y-87500000D03*
X176735000Y-88770000D03*
X170140000Y-92440000D03*
X169505000Y-92440000D03*
X168870000Y-92440000D03*
X168235000Y-92440000D03*
X167600000Y-92440000D03*
X170140000Y-91805000D03*
X169505000Y-91805000D03*
X168870000Y-91805000D03*
X168235000Y-91805000D03*
X167600000Y-91805000D03*
X170140000Y-91170000D03*
X169505000Y-91170000D03*
X168870000Y-91170000D03*
X167600000Y-91170000D03*
X170140000Y-90535000D03*
X169505000Y-90535000D03*
X168870000Y-90535000D03*
X168235000Y-90535000D03*
X167600000Y-90535000D03*
X170140000Y-89900000D03*
X169505000Y-89900000D03*
X168870000Y-89900000D03*
X168235000Y-89900000D03*
X167600000Y-89900000D03*
X168235000Y-91170000D03*
X153340000Y-76340000D03*
X152705000Y-76340000D03*
X152070000Y-76340000D03*
X151435000Y-76340000D03*
X150800000Y-76340000D03*
X153340000Y-75705000D03*
X152705000Y-75705000D03*
X152070000Y-75705000D03*
X151435000Y-75705000D03*
X150800000Y-75705000D03*
X153340000Y-75070000D03*
X152705000Y-75070000D03*
X152070000Y-75070000D03*
X150800000Y-75070000D03*
X153340000Y-74435000D03*
X152705000Y-74435000D03*
X152070000Y-74435000D03*
X151435000Y-74435000D03*
X150800000Y-74435000D03*
X153340000Y-73800000D03*
X152705000Y-73800000D03*
X152070000Y-73800000D03*
X151435000Y-73800000D03*
X150800000Y-73800000D03*
X151435000Y-75070000D03*
X147040000Y-76340000D03*
X146405000Y-76340000D03*
X145770000Y-76340000D03*
X145135000Y-76340000D03*
X144500000Y-76340000D03*
X147040000Y-75705000D03*
X146405000Y-75705000D03*
X145770000Y-75705000D03*
X145135000Y-75705000D03*
X144500000Y-75705000D03*
X147040000Y-75070000D03*
X146405000Y-75070000D03*
X145770000Y-75070000D03*
X144500000Y-75070000D03*
X147040000Y-74435000D03*
X146405000Y-74435000D03*
X145770000Y-74435000D03*
X145135000Y-74435000D03*
X144500000Y-74435000D03*
X147040000Y-73800000D03*
X146405000Y-73800000D03*
X145770000Y-73800000D03*
X145135000Y-73800000D03*
X144500000Y-73800000D03*
X145135000Y-75070000D03*
X150240000Y-76340000D03*
X149605000Y-76340000D03*
X148970000Y-76340000D03*
X148335000Y-76340000D03*
X147700000Y-76340000D03*
X150240000Y-75705000D03*
X149605000Y-75705000D03*
X148970000Y-75705000D03*
X148335000Y-75705000D03*
X147700000Y-75705000D03*
X150240000Y-75070000D03*
X149605000Y-75070000D03*
X148970000Y-75070000D03*
X147700000Y-75070000D03*
X150240000Y-74435000D03*
X149605000Y-74435000D03*
X148970000Y-74435000D03*
X148335000Y-74435000D03*
X147700000Y-74435000D03*
X150240000Y-73800000D03*
X149605000Y-73800000D03*
X148970000Y-73800000D03*
X148335000Y-73800000D03*
X147700000Y-73800000D03*
X148335000Y-75070000D03*
X134040000Y-82940000D03*
X133405000Y-82940000D03*
X132770000Y-82940000D03*
X132135000Y-82940000D03*
X131500000Y-82940000D03*
X134040000Y-82305000D03*
X133405000Y-82305000D03*
X132770000Y-82305000D03*
X132135000Y-82305000D03*
X131500000Y-82305000D03*
X134040000Y-81670000D03*
X133405000Y-81670000D03*
X132770000Y-81670000D03*
X131500000Y-81670000D03*
X134040000Y-81035000D03*
X133405000Y-81035000D03*
X132770000Y-81035000D03*
X132135000Y-81035000D03*
X131500000Y-81035000D03*
X134040000Y-80400000D03*
X133405000Y-80400000D03*
X132770000Y-80400000D03*
X132135000Y-80400000D03*
X131500000Y-80400000D03*
X132135000Y-81670000D03*
X134040000Y-77940000D03*
X133405000Y-77940000D03*
X132770000Y-77940000D03*
X132135000Y-77940000D03*
X131500000Y-77940000D03*
X134040000Y-77305000D03*
X133405000Y-77305000D03*
X132770000Y-77305000D03*
X132135000Y-77305000D03*
X131500000Y-77305000D03*
X134040000Y-76670000D03*
X133405000Y-76670000D03*
X132770000Y-76670000D03*
X131500000Y-76670000D03*
X134040000Y-76035000D03*
X133405000Y-76035000D03*
X132770000Y-76035000D03*
X132135000Y-76035000D03*
X131500000Y-76035000D03*
X134040000Y-75400000D03*
X133405000Y-75400000D03*
X132770000Y-75400000D03*
X132135000Y-75400000D03*
X131500000Y-75400000D03*
X132135000Y-76670000D03*
X134040000Y-89340000D03*
X133405000Y-89340000D03*
X132770000Y-89340000D03*
X132135000Y-89340000D03*
X131500000Y-89340000D03*
X134040000Y-88705000D03*
X133405000Y-88705000D03*
X132770000Y-88705000D03*
X132135000Y-88705000D03*
X131500000Y-88705000D03*
X134040000Y-88070000D03*
X133405000Y-88070000D03*
X132770000Y-88070000D03*
X131500000Y-88070000D03*
X134040000Y-87435000D03*
X133405000Y-87435000D03*
X132770000Y-87435000D03*
X132135000Y-87435000D03*
X131500000Y-87435000D03*
X134040000Y-86800000D03*
X133405000Y-86800000D03*
X132770000Y-86800000D03*
X132135000Y-86800000D03*
X131500000Y-86800000D03*
X132135000Y-88070000D03*
X134040000Y-86140000D03*
X133405000Y-86140000D03*
X132770000Y-86140000D03*
X132135000Y-86140000D03*
X131500000Y-86140000D03*
X134040000Y-85505000D03*
X133405000Y-85505000D03*
X132770000Y-85505000D03*
X132135000Y-85505000D03*
X131500000Y-85505000D03*
X134040000Y-84870000D03*
X133405000Y-84870000D03*
X132770000Y-84870000D03*
X131500000Y-84870000D03*
X134040000Y-84235000D03*
X133405000Y-84235000D03*
X132770000Y-84235000D03*
X132135000Y-84235000D03*
X131500000Y-84235000D03*
X134040000Y-83600000D03*
X133405000Y-83600000D03*
X132770000Y-83600000D03*
X132135000Y-83600000D03*
X131500000Y-83600000D03*
X132135000Y-84870000D03*
X125640000Y-83040000D03*
X125005000Y-83040000D03*
X124370000Y-83040000D03*
X123735000Y-83040000D03*
X123100000Y-83040000D03*
X125640000Y-82405000D03*
X125005000Y-82405000D03*
X124370000Y-82405000D03*
X123735000Y-82405000D03*
X123100000Y-82405000D03*
X125640000Y-81770000D03*
X125005000Y-81770000D03*
X124370000Y-81770000D03*
X123100000Y-81770000D03*
X125640000Y-81135000D03*
X125005000Y-81135000D03*
X124370000Y-81135000D03*
X123735000Y-81135000D03*
X123100000Y-81135000D03*
X125640000Y-80500000D03*
X125005000Y-80500000D03*
X124370000Y-80500000D03*
X123735000Y-80500000D03*
X123100000Y-80500000D03*
X123735000Y-81770000D03*
X125640000Y-78040000D03*
X125005000Y-78040000D03*
X124370000Y-78040000D03*
X123735000Y-78040000D03*
X123100000Y-78040000D03*
X125640000Y-77405000D03*
X125005000Y-77405000D03*
X124370000Y-77405000D03*
X123735000Y-77405000D03*
X123100000Y-77405000D03*
X125640000Y-76770000D03*
X125005000Y-76770000D03*
X124370000Y-76770000D03*
X123100000Y-76770000D03*
X125640000Y-76135000D03*
X125005000Y-76135000D03*
X124370000Y-76135000D03*
X123735000Y-76135000D03*
X123100000Y-76135000D03*
X125640000Y-75500000D03*
X125005000Y-75500000D03*
X124370000Y-75500000D03*
X123735000Y-75500000D03*
X123100000Y-75500000D03*
X123735000Y-76770000D03*
X125640000Y-89240000D03*
X125005000Y-89240000D03*
X124370000Y-89240000D03*
X123735000Y-89240000D03*
X123100000Y-89240000D03*
X125640000Y-88605000D03*
X125005000Y-88605000D03*
X124370000Y-88605000D03*
X123735000Y-88605000D03*
X123100000Y-88605000D03*
X125640000Y-87970000D03*
X125005000Y-87970000D03*
X124370000Y-87970000D03*
X123100000Y-87970000D03*
X125640000Y-87335000D03*
X125005000Y-87335000D03*
X124370000Y-87335000D03*
X123735000Y-87335000D03*
X123100000Y-87335000D03*
X125640000Y-86700000D03*
X125005000Y-86700000D03*
X124370000Y-86700000D03*
X123735000Y-86700000D03*
X123100000Y-86700000D03*
X123735000Y-87970000D03*
X141340000Y-94140000D03*
X140705000Y-94140000D03*
X140070000Y-94140000D03*
X139435000Y-94140000D03*
X138800000Y-94140000D03*
X141340000Y-93505000D03*
X140705000Y-93505000D03*
X140070000Y-93505000D03*
X139435000Y-93505000D03*
X138800000Y-93505000D03*
X141340000Y-92870000D03*
X140705000Y-92870000D03*
X140070000Y-92870000D03*
X138800000Y-92870000D03*
X141340000Y-92235000D03*
X140705000Y-92235000D03*
X140070000Y-92235000D03*
X139435000Y-92235000D03*
X138800000Y-92235000D03*
X141340000Y-91600000D03*
X140705000Y-91600000D03*
X140070000Y-91600000D03*
X139435000Y-91600000D03*
X138800000Y-91600000D03*
X139435000Y-92870000D03*
X121740000Y-93940000D03*
X121105000Y-93940000D03*
X120470000Y-93940000D03*
X119835000Y-93940000D03*
X119200000Y-93940000D03*
X121740000Y-93305000D03*
X121105000Y-93305000D03*
X120470000Y-93305000D03*
X119835000Y-93305000D03*
X119200000Y-93305000D03*
X121740000Y-92670000D03*
X121105000Y-92670000D03*
X120470000Y-92670000D03*
X119200000Y-92670000D03*
X121740000Y-92035000D03*
X121105000Y-92035000D03*
X120470000Y-92035000D03*
X119835000Y-92035000D03*
X119200000Y-92035000D03*
X121740000Y-91400000D03*
X121105000Y-91400000D03*
X120470000Y-91400000D03*
X119835000Y-91400000D03*
X119200000Y-91400000D03*
X119835000Y-92670000D03*
X161740000Y-99440000D03*
X161105000Y-99440000D03*
X160470000Y-99440000D03*
X159835000Y-99440000D03*
X159200000Y-99440000D03*
X161740000Y-98805000D03*
X161105000Y-98805000D03*
X160470000Y-98805000D03*
X159835000Y-98805000D03*
X159200000Y-98805000D03*
X161740000Y-98170000D03*
X161105000Y-98170000D03*
X160470000Y-98170000D03*
X159200000Y-98170000D03*
X161740000Y-97535000D03*
X161105000Y-97535000D03*
X160470000Y-97535000D03*
X159835000Y-97535000D03*
X159200000Y-97535000D03*
X161740000Y-96900000D03*
X161105000Y-96900000D03*
X160470000Y-96900000D03*
X159835000Y-96900000D03*
X159200000Y-96900000D03*
X159835000Y-98170000D03*
X125640000Y-86140000D03*
X125005000Y-86140000D03*
X124370000Y-86140000D03*
X123735000Y-86140000D03*
X123100000Y-86140000D03*
X125640000Y-85505000D03*
X125005000Y-85505000D03*
X124370000Y-85505000D03*
X123735000Y-85505000D03*
X123100000Y-85505000D03*
X125640000Y-84870000D03*
X125005000Y-84870000D03*
X124370000Y-84870000D03*
X123100000Y-84870000D03*
X125640000Y-84235000D03*
X125005000Y-84235000D03*
X124370000Y-84235000D03*
X123735000Y-84235000D03*
X123100000Y-84235000D03*
X125640000Y-83600000D03*
X125005000Y-83600000D03*
X124370000Y-83600000D03*
X123735000Y-83600000D03*
X123100000Y-83600000D03*
X123735000Y-84870000D03*
X118540000Y-93940000D03*
X117905000Y-93940000D03*
X117270000Y-93940000D03*
X116635000Y-93940000D03*
X116000000Y-93940000D03*
X118540000Y-93305000D03*
X117905000Y-93305000D03*
X117270000Y-93305000D03*
X116635000Y-93305000D03*
X116000000Y-93305000D03*
X118540000Y-92670000D03*
X117905000Y-92670000D03*
X117270000Y-92670000D03*
X116000000Y-92670000D03*
X118540000Y-92035000D03*
X117905000Y-92035000D03*
X117270000Y-92035000D03*
X116635000Y-92035000D03*
X116000000Y-92035000D03*
X118540000Y-91400000D03*
X117905000Y-91400000D03*
X117270000Y-91400000D03*
X116635000Y-91400000D03*
X116000000Y-91400000D03*
X116635000Y-92670000D03*
X152140000Y-86940000D03*
X151505000Y-86940000D03*
X150870000Y-86940000D03*
X150235000Y-86940000D03*
X149600000Y-86940000D03*
X152140000Y-86305000D03*
X151505000Y-86305000D03*
X150870000Y-86305000D03*
X150235000Y-86305000D03*
X149600000Y-86305000D03*
X152140000Y-85670000D03*
X151505000Y-85670000D03*
X150870000Y-85670000D03*
X149600000Y-85670000D03*
X152140000Y-85035000D03*
X151505000Y-85035000D03*
X150870000Y-85035000D03*
X150235000Y-85035000D03*
X149600000Y-85035000D03*
X152140000Y-84400000D03*
X151505000Y-84400000D03*
X150870000Y-84400000D03*
X150235000Y-84400000D03*
X149600000Y-84400000D03*
X150235000Y-85670000D03*
D13*
X112705000Y-88200000D03*
D12*
X110800000Y-87636000D03*
X111435000Y-87636000D03*
X112070000Y-87636000D03*
X112705000Y-87636000D03*
X113340000Y-87636000D03*
X113975000Y-87636000D03*
X114610000Y-87636000D03*
X110800000Y-88271000D03*
X111435000Y-88271000D03*
X112070000Y-88271000D03*
X112705000Y-88271000D03*
X113340000Y-88271000D03*
X113975000Y-88271000D03*
X114610000Y-88271000D03*
X110800000Y-88906000D03*
X111435000Y-88906000D03*
X112070000Y-88906000D03*
X112705000Y-88906000D03*
X113340000Y-88906000D03*
X113975000Y-88906000D03*
X114610000Y-88906000D03*
X110800000Y-89541000D03*
X111435000Y-89541000D03*
X112070000Y-89541000D03*
X112705000Y-89541000D03*
X113340000Y-89541000D03*
X113975000Y-89541000D03*
X114610000Y-89541000D03*
D13*
X112805000Y-80800000D03*
D12*
X110900000Y-80236000D03*
X111535000Y-80236000D03*
X112170000Y-80236000D03*
X112805000Y-80236000D03*
X113440000Y-80236000D03*
X114075000Y-80236000D03*
X114710000Y-80236000D03*
X110900000Y-80871000D03*
X111535000Y-80871000D03*
X112170000Y-80871000D03*
X112805000Y-80871000D03*
X113440000Y-80871000D03*
X114075000Y-80871000D03*
X114710000Y-80871000D03*
X110900000Y-81506000D03*
X111535000Y-81506000D03*
X112170000Y-81506000D03*
X112805000Y-81506000D03*
X113440000Y-81506000D03*
X114075000Y-81506000D03*
X114710000Y-81506000D03*
X110900000Y-82141000D03*
X111535000Y-82141000D03*
X112170000Y-82141000D03*
X112805000Y-82141000D03*
X113440000Y-82141000D03*
X114075000Y-82141000D03*
X114710000Y-82141000D03*
D13*
X144505000Y-80900000D03*
D12*
X142600000Y-80336000D03*
X143235000Y-80336000D03*
X143870000Y-80336000D03*
X144505000Y-80336000D03*
X145140000Y-80336000D03*
X145775000Y-80336000D03*
X146410000Y-80336000D03*
X142600000Y-80971000D03*
X143235000Y-80971000D03*
X143870000Y-80971000D03*
X144505000Y-80971000D03*
X145140000Y-80971000D03*
X145775000Y-80971000D03*
X146410000Y-80971000D03*
X142600000Y-81606000D03*
X143235000Y-81606000D03*
X143870000Y-81606000D03*
X144505000Y-81606000D03*
X145140000Y-81606000D03*
X145775000Y-81606000D03*
X146410000Y-81606000D03*
X142600000Y-82241000D03*
X143235000Y-82241000D03*
X143870000Y-82241000D03*
X144505000Y-82241000D03*
X145140000Y-82241000D03*
X145775000Y-82241000D03*
X146410000Y-82241000D03*
D13*
X144505000Y-88200000D03*
D12*
X142600000Y-87636000D03*
X143235000Y-87636000D03*
X143870000Y-87636000D03*
X144505000Y-87636000D03*
X145140000Y-87636000D03*
X145775000Y-87636000D03*
X146410000Y-87636000D03*
X142600000Y-88271000D03*
X143235000Y-88271000D03*
X143870000Y-88271000D03*
X144505000Y-88271000D03*
X145140000Y-88271000D03*
X145775000Y-88271000D03*
X146410000Y-88271000D03*
X142600000Y-88906000D03*
X143235000Y-88906000D03*
X143870000Y-88906000D03*
X144505000Y-88906000D03*
X145140000Y-88906000D03*
X145775000Y-88906000D03*
X146410000Y-88906000D03*
X142600000Y-89541000D03*
X143235000Y-89541000D03*
X143870000Y-89541000D03*
X144505000Y-89541000D03*
X145140000Y-89541000D03*
X145775000Y-89541000D03*
X146410000Y-89541000D03*
X117540000Y-76040000D03*
X116905000Y-76040000D03*
X116270000Y-76040000D03*
X115635000Y-76040000D03*
X115000000Y-76040000D03*
X117540000Y-75405000D03*
X116905000Y-75405000D03*
X116270000Y-75405000D03*
X115635000Y-75405000D03*
X115000000Y-75405000D03*
X117540000Y-74770000D03*
X116905000Y-74770000D03*
X116270000Y-74770000D03*
X115000000Y-74770000D03*
X117540000Y-74135000D03*
X116905000Y-74135000D03*
X116270000Y-74135000D03*
X115635000Y-74135000D03*
X115000000Y-74135000D03*
X117540000Y-73500000D03*
X116905000Y-73500000D03*
X116270000Y-73500000D03*
X115635000Y-73500000D03*
X115000000Y-73500000D03*
X115635000Y-74770000D03*
D14*
X142645143Y-110079744D03*
X149144106Y-113094294D03*
X131000000Y-107200000D03*
X139300000Y-109400000D03*
X149134016Y-109460773D03*
X148533971Y-114442873D03*
X123324502Y-114316010D03*
X139900000Y-112974990D03*
X131800000Y-116700000D03*
X148505961Y-107094816D03*
X149100000Y-103200000D03*
X137100000Y-102000000D03*
X156425010Y-103847196D03*
X156100000Y-102200000D03*
X127300000Y-113100000D03*
X128400000Y-104500000D03*
X134343652Y-106070680D03*
X135279767Y-108670725D03*
X125800000Y-98100000D03*
X131200000Y-98000000D03*
X128700000Y-98100000D03*
X124900000Y-113974990D03*
X121424989Y-110683182D03*
X145700009Y-113725010D03*
X145700000Y-111600000D03*
X149970787Y-110352552D03*
X153100000Y-112000000D03*
X123553520Y-103470320D03*
X139600000Y-111500000D03*
X149174617Y-110274237D03*
X142321580Y-102700698D03*
X150592748Y-110865128D03*
X151782780Y-111914940D03*
X144550113Y-111065603D03*
X142700000Y-114000000D03*
X144336013Y-109365572D03*
X139371705Y-107756327D03*
X145300000Y-104300000D03*
X147200000Y-104300000D03*
X153000000Y-104774990D03*
X148800000Y-104774990D03*
X148508667Y-107938425D03*
X158600000Y-107500000D03*
X149635037Y-113746165D03*
X142600026Y-108629611D03*
X159475170Y-106028490D03*
X142866008Y-105379445D03*
D15*
X143069407Y-110079744D02*
X142645143Y-110079744D01*
X143158569Y-109990582D02*
X143069407Y-110079744D01*
X149127788Y-113154997D02*
X148981103Y-113154997D01*
X148981103Y-113154997D02*
X145816688Y-109990582D01*
X145816688Y-109990582D02*
X143158569Y-109990582D01*
X149144106Y-113138679D02*
X149127788Y-113154997D01*
X149144106Y-113094294D02*
X149144106Y-113138679D01*
X139300000Y-109400000D02*
X138661751Y-110038249D01*
X138661751Y-110038249D02*
X133838249Y-110038249D01*
X133838249Y-110038249D02*
X131299999Y-107499999D01*
X131299999Y-107499999D02*
X131000000Y-107200000D01*
X134343652Y-107734610D02*
X134343652Y-106494944D01*
X134343652Y-106494944D02*
X134343652Y-106070680D01*
X135279767Y-108670725D02*
X134343652Y-107734610D01*
X131200000Y-98000000D02*
X131100000Y-97900000D01*
X131100000Y-97900000D02*
X130900000Y-97900000D01*
X124716797Y-113974990D02*
X124900000Y-113974990D01*
X121424989Y-110683182D02*
X124716797Y-113974990D01*
X145700000Y-111600000D02*
X145700000Y-113725001D01*
X145700000Y-113725001D02*
X145700009Y-113725010D01*
X151152553Y-110052553D02*
X150270786Y-110052553D01*
X153100000Y-112000000D02*
X151152553Y-110052553D01*
X150270786Y-110052553D02*
X149970787Y-110352552D01*
X139600000Y-111500000D02*
X131583200Y-111500000D01*
X123853519Y-103770319D02*
X123553520Y-103470320D01*
X131583200Y-111500000D02*
X123853519Y-103770319D01*
X142321580Y-102700698D02*
X142021581Y-103000697D01*
X142021581Y-103000697D02*
X142021581Y-106186334D01*
X142021581Y-106186334D02*
X142527853Y-106692606D01*
X142527853Y-106692606D02*
X144879487Y-106692606D01*
X144879487Y-106692606D02*
X148461118Y-110274237D01*
X148461118Y-110274237D02*
X148750353Y-110274237D01*
X148750353Y-110274237D02*
X149174617Y-110274237D01*
X150732968Y-110865128D02*
X150592748Y-110865128D01*
X151782780Y-111914940D02*
X150732968Y-110865128D01*
X144250114Y-111365602D02*
X144550113Y-111065603D01*
X142700000Y-114000000D02*
X142700000Y-112915716D01*
X142700000Y-112915716D02*
X144250114Y-111365602D01*
X139371705Y-107756327D02*
X142726768Y-107756327D01*
X142726768Y-107756327D02*
X144036014Y-109065573D01*
X144036014Y-109065573D02*
X144336013Y-109365572D01*
X147200000Y-104300000D02*
X145300000Y-104300000D01*
X152575736Y-104774990D02*
X148800000Y-104774990D01*
X153000000Y-104774990D02*
X152575736Y-104774990D01*
X158300001Y-107799999D02*
X148647093Y-107799999D01*
X148647093Y-107799999D02*
X148508667Y-107938425D01*
X158600000Y-107500000D02*
X158300001Y-107799999D01*
X149210773Y-113746165D02*
X149635037Y-113746165D01*
X148840669Y-113746165D02*
X149210773Y-113746165D01*
X145535097Y-110440593D02*
X148840669Y-113746165D01*
X144021306Y-110440593D02*
X145535097Y-110440593D01*
X143757153Y-110704746D02*
X144021306Y-110440593D01*
X142020141Y-110379746D02*
X142345141Y-110704746D01*
X142345141Y-110704746D02*
X143757153Y-110704746D01*
X142020141Y-109209496D02*
X142020141Y-110379746D01*
X142600026Y-108629611D02*
X142020141Y-109209496D01*
X159050906Y-106028490D02*
X159475170Y-106028490D01*
X142866008Y-105379445D02*
X143515053Y-106028490D01*
X143515053Y-106028490D02*
X159050906Y-106028490D01*
D16*
G36*
X153973000Y-82773000D02*
X141852606Y-82773000D01*
X137027000Y-77947394D01*
X137027000Y-70627000D01*
X153973000Y-70627000D01*
X153973000Y-82773000D01*
X153973000Y-82773000D01*
G37*
X153973000Y-82773000D02*
X141852606Y-82773000D01*
X137027000Y-77947394D01*
X137027000Y-70627000D01*
X153973000Y-70627000D01*
X153973000Y-82773000D01*
G36*
X128173000Y-90173000D02*
X109727000Y-90173000D01*
X109727000Y-83427000D01*
X115500000Y-83427000D01*
X115549410Y-83416994D01*
X115589803Y-83389803D01*
X120789803Y-78189803D01*
X120817666Y-78147789D01*
X120827000Y-78100000D01*
X120827000Y-70627000D01*
X128173000Y-70627000D01*
X128173000Y-90173000D01*
X128173000Y-90173000D01*
G37*
X128173000Y-90173000D02*
X109727000Y-90173000D01*
X109727000Y-83427000D01*
X115500000Y-83427000D01*
X115549410Y-83416994D01*
X115589803Y-83389803D01*
X120789803Y-78189803D01*
X120817666Y-78147789D01*
X120827000Y-78100000D01*
X120827000Y-70627000D01*
X128173000Y-70627000D01*
X128173000Y-90173000D01*
G36*
X152973000Y-95073000D02*
X109727000Y-95073000D01*
X109727000Y-90827000D01*
X148400000Y-90827000D01*
X148449410Y-90816994D01*
X148491035Y-90788553D01*
X148518315Y-90746159D01*
X148527000Y-90700000D01*
X148527000Y-83327000D01*
X152973000Y-83327000D01*
X152973000Y-95073000D01*
X152973000Y-95073000D01*
G37*
X152973000Y-95073000D02*
X109727000Y-95073000D01*
X109727000Y-90827000D01*
X148400000Y-90827000D01*
X148449410Y-90816994D01*
X148491035Y-90788553D01*
X148518315Y-90746159D01*
X148527000Y-90700000D01*
X148527000Y-83327000D01*
X152973000Y-83327000D01*
X152973000Y-95073000D01*
G36*
X185073000Y-119273000D02*
X106627000Y-119273000D01*
X106627000Y-117096760D01*
X161980561Y-117096760D01*
X162096883Y-117333276D01*
X162733344Y-117466430D01*
X163372314Y-117345886D01*
X163402757Y-117333276D01*
X163519079Y-117096760D01*
X162749820Y-116327502D01*
X161980561Y-117096760D01*
X106627000Y-117096760D01*
X106627000Y-115410080D01*
X108723840Y-115410080D01*
X109039387Y-116173763D01*
X109623164Y-116758559D01*
X110386295Y-117075439D01*
X111212600Y-117076160D01*
X111976283Y-116760613D01*
X112561079Y-116176836D01*
X112724396Y-115783524D01*
X161083390Y-115783524D01*
X161203934Y-116422494D01*
X161216544Y-116452937D01*
X161453060Y-116569259D01*
X162222318Y-115800000D01*
X163277322Y-115800000D01*
X164046580Y-116569259D01*
X164283096Y-116452937D01*
X164364738Y-116062697D01*
X164923221Y-116062697D01*
X165124741Y-116550414D01*
X165497563Y-116923887D01*
X165984927Y-117126259D01*
X166512637Y-117126719D01*
X167000354Y-116925199D01*
X167373827Y-116552377D01*
X167576199Y-116065013D01*
X167576201Y-116062697D01*
X168423341Y-116062697D01*
X168624861Y-116550414D01*
X168997683Y-116923887D01*
X169485047Y-117126259D01*
X170012757Y-117126719D01*
X170500474Y-116925199D01*
X170873947Y-116552377D01*
X171076319Y-116065013D01*
X171076321Y-116062697D01*
X171923461Y-116062697D01*
X172124981Y-116550414D01*
X172497803Y-116923887D01*
X172985167Y-117126259D01*
X173512877Y-117126719D01*
X174000594Y-116925199D01*
X174374067Y-116552377D01*
X174576439Y-116065013D01*
X174576899Y-115537303D01*
X174524332Y-115410080D01*
X178723700Y-115410080D01*
X179039247Y-116173763D01*
X179623024Y-116758559D01*
X180386155Y-117075439D01*
X181212460Y-117076160D01*
X181976143Y-116760613D01*
X182560939Y-116176836D01*
X182877819Y-115413705D01*
X182878540Y-114587400D01*
X182562993Y-113823717D01*
X181979216Y-113238921D01*
X181216085Y-112922041D01*
X180389780Y-112921320D01*
X179626097Y-113236867D01*
X179041301Y-113820644D01*
X178724421Y-114583775D01*
X178723700Y-115410080D01*
X174524332Y-115410080D01*
X174375379Y-115049586D01*
X174002557Y-114676113D01*
X173515193Y-114473741D01*
X172987483Y-114473281D01*
X172499766Y-114674801D01*
X172126293Y-115047623D01*
X171923921Y-115534987D01*
X171923461Y-116062697D01*
X171076321Y-116062697D01*
X171076779Y-115537303D01*
X170875259Y-115049586D01*
X170502437Y-114676113D01*
X170015073Y-114473741D01*
X169487363Y-114473281D01*
X168999646Y-114674801D01*
X168626173Y-115047623D01*
X168423801Y-115534987D01*
X168423341Y-116062697D01*
X167576201Y-116062697D01*
X167576659Y-115537303D01*
X167375139Y-115049586D01*
X167002317Y-114676113D01*
X166514953Y-114473741D01*
X165987243Y-114473281D01*
X165499526Y-114674801D01*
X165126053Y-115047623D01*
X164923681Y-115534987D01*
X164923221Y-116062697D01*
X164364738Y-116062697D01*
X164416250Y-115816476D01*
X164295706Y-115177506D01*
X164283096Y-115147063D01*
X164046580Y-115030741D01*
X163277322Y-115800000D01*
X162222318Y-115800000D01*
X161453060Y-115030741D01*
X161216544Y-115147063D01*
X161083390Y-115783524D01*
X112724396Y-115783524D01*
X112877959Y-115413705D01*
X112878680Y-114587400D01*
X112563133Y-113823717D01*
X111979356Y-113238921D01*
X111216225Y-112922041D01*
X110389920Y-112921320D01*
X109626237Y-113236867D01*
X109041441Y-113820644D01*
X108724561Y-114583775D01*
X108723840Y-115410080D01*
X106627000Y-115410080D01*
X106627000Y-110807353D01*
X120797880Y-110807353D01*
X120893134Y-111037885D01*
X121069358Y-111214417D01*
X121299724Y-111310073D01*
X121412755Y-111310172D01*
X124322989Y-114220407D01*
X124368145Y-114329693D01*
X124544369Y-114506225D01*
X124774735Y-114601881D01*
X125024171Y-114602099D01*
X125254703Y-114506845D01*
X125431235Y-114330621D01*
X125526891Y-114100255D01*
X125527109Y-113850819D01*
X125431855Y-113620287D01*
X125255631Y-113443755D01*
X125025265Y-113348099D01*
X124775829Y-113347881D01*
X124742630Y-113361598D01*
X122052000Y-110670969D01*
X122052098Y-110559011D01*
X121956844Y-110328479D01*
X121780620Y-110151947D01*
X121550254Y-110056291D01*
X121300818Y-110056073D01*
X121070286Y-110151327D01*
X120893754Y-110327551D01*
X120798098Y-110557917D01*
X120797880Y-110807353D01*
X106627000Y-110807353D01*
X106627000Y-103594491D01*
X122926411Y-103594491D01*
X123021665Y-103825023D01*
X123197889Y-104001555D01*
X123428255Y-104097211D01*
X123541286Y-104097310D01*
X131263588Y-111819612D01*
X131410227Y-111917594D01*
X131583200Y-111952000D01*
X139165272Y-111952000D01*
X139244369Y-112031235D01*
X139474735Y-112126891D01*
X139724171Y-112127109D01*
X139954703Y-112031855D01*
X140131235Y-111855631D01*
X140226891Y-111625265D01*
X140227109Y-111375829D01*
X140131855Y-111145297D01*
X139955631Y-110968765D01*
X139725265Y-110873109D01*
X139475829Y-110872891D01*
X139245297Y-110968145D01*
X139165302Y-111048000D01*
X131770424Y-111048000D01*
X128046595Y-107324171D01*
X130372891Y-107324171D01*
X130468145Y-107554703D01*
X130644369Y-107731235D01*
X130874735Y-107826891D01*
X130987766Y-107826990D01*
X133518637Y-110357862D01*
X133665276Y-110455843D01*
X133838249Y-110490249D01*
X138661751Y-110490249D01*
X138834724Y-110455843D01*
X138981363Y-110357861D01*
X139312213Y-110027011D01*
X139424171Y-110027109D01*
X139654703Y-109931855D01*
X139831235Y-109755631D01*
X139926891Y-109525265D01*
X139927109Y-109275829D01*
X139831855Y-109045297D01*
X139655631Y-108868765D01*
X139425265Y-108773109D01*
X139175829Y-108772891D01*
X138945297Y-108868145D01*
X138768765Y-109044369D01*
X138673109Y-109274735D01*
X138673010Y-109387765D01*
X138474527Y-109586249D01*
X134025474Y-109586249D01*
X131627011Y-107187787D01*
X131627109Y-107075829D01*
X131531855Y-106845297D01*
X131355631Y-106668765D01*
X131125265Y-106573109D01*
X130875829Y-106572891D01*
X130645297Y-106668145D01*
X130468765Y-106844369D01*
X130373109Y-107074735D01*
X130372891Y-107324171D01*
X128046595Y-107324171D01*
X126917275Y-106194851D01*
X133716543Y-106194851D01*
X133811797Y-106425383D01*
X133891652Y-106505378D01*
X133891652Y-107734610D01*
X133926058Y-107907583D01*
X134024040Y-108054222D01*
X134652756Y-108682939D01*
X134652658Y-108794896D01*
X134747912Y-109025428D01*
X134924136Y-109201960D01*
X135154502Y-109297616D01*
X135403938Y-109297834D01*
X135634470Y-109202580D01*
X135811002Y-109026356D01*
X135906658Y-108795990D01*
X135906876Y-108546554D01*
X135811622Y-108316022D01*
X135635398Y-108139490D01*
X135405032Y-108043834D01*
X135292002Y-108043735D01*
X135128765Y-107880498D01*
X138744596Y-107880498D01*
X138839850Y-108111030D01*
X139016074Y-108287562D01*
X139246440Y-108383218D01*
X139495876Y-108383436D01*
X139726408Y-108288182D01*
X139806403Y-108208327D01*
X142134559Y-108208327D01*
X142068791Y-108273980D01*
X141973135Y-108504346D01*
X141973036Y-108617377D01*
X141700529Y-108889884D01*
X141602547Y-109036523D01*
X141568141Y-109209496D01*
X141568141Y-110379746D01*
X141602547Y-110552719D01*
X141700529Y-110699358D01*
X142025528Y-111024358D01*
X142091060Y-111068145D01*
X142172168Y-111122340D01*
X142345141Y-111156746D01*
X143757153Y-111156746D01*
X143835288Y-111141204D01*
X142380388Y-112596104D01*
X142282406Y-112742743D01*
X142248000Y-112915716D01*
X142248000Y-113565272D01*
X142168765Y-113644369D01*
X142073109Y-113874735D01*
X142072891Y-114124171D01*
X142168145Y-114354703D01*
X142344369Y-114531235D01*
X142574735Y-114626891D01*
X142824171Y-114627109D01*
X143054703Y-114531855D01*
X143083368Y-114503240D01*
X161980561Y-114503240D01*
X162749820Y-115272498D01*
X163519079Y-114503240D01*
X163402757Y-114266724D01*
X162766296Y-114133570D01*
X162127326Y-114254114D01*
X162096883Y-114266724D01*
X161980561Y-114503240D01*
X143083368Y-114503240D01*
X143231235Y-114355631D01*
X143326891Y-114125265D01*
X143327109Y-113875829D01*
X143231855Y-113645297D01*
X143152000Y-113565302D01*
X143152000Y-113102940D01*
X144562326Y-111692614D01*
X144674284Y-111692712D01*
X144904816Y-111597458D01*
X145081348Y-111421234D01*
X145177004Y-111190868D01*
X145177222Y-110941432D01*
X145157042Y-110892593D01*
X145347873Y-110892593D01*
X145471344Y-111016064D01*
X145345297Y-111068145D01*
X145168765Y-111244369D01*
X145073109Y-111474735D01*
X145072891Y-111724171D01*
X145168145Y-111954703D01*
X145248000Y-112034698D01*
X145248000Y-113290291D01*
X145168774Y-113369379D01*
X145073118Y-113599745D01*
X145072900Y-113849181D01*
X145168154Y-114079713D01*
X145344378Y-114256245D01*
X145574744Y-114351901D01*
X145824180Y-114352119D01*
X146054712Y-114256865D01*
X146231244Y-114080641D01*
X146326900Y-113850275D01*
X146327118Y-113600839D01*
X146231864Y-113370307D01*
X146152000Y-113290303D01*
X146152000Y-112034728D01*
X146231235Y-111955631D01*
X146283953Y-111828673D01*
X148521057Y-114065777D01*
X148667696Y-114163759D01*
X148840669Y-114198165D01*
X149200309Y-114198165D01*
X149279406Y-114277400D01*
X149509772Y-114373056D01*
X149759208Y-114373274D01*
X149989740Y-114278020D01*
X150166272Y-114101796D01*
X150261928Y-113871430D01*
X150262146Y-113621994D01*
X150166892Y-113391462D01*
X149990668Y-113214930D01*
X149771081Y-113123750D01*
X149771215Y-112970123D01*
X149675961Y-112739591D01*
X149499737Y-112563059D01*
X149269371Y-112467403D01*
X149019935Y-112467185D01*
X148958076Y-112492745D01*
X146136300Y-109670970D01*
X145989661Y-109572988D01*
X145816688Y-109538582D01*
X144943079Y-109538582D01*
X144962904Y-109490837D01*
X144963122Y-109241401D01*
X144867868Y-109010869D01*
X144691644Y-108834337D01*
X144461278Y-108738681D01*
X144348248Y-108738582D01*
X143046380Y-107436715D01*
X142899741Y-107338733D01*
X142726768Y-107304327D01*
X139806433Y-107304327D01*
X139727336Y-107225092D01*
X139496970Y-107129436D01*
X139247534Y-107129218D01*
X139017002Y-107224472D01*
X138840470Y-107400696D01*
X138744814Y-107631062D01*
X138744596Y-107880498D01*
X135128765Y-107880498D01*
X134795652Y-107547386D01*
X134795652Y-106505408D01*
X134874887Y-106426311D01*
X134970543Y-106195945D01*
X134970761Y-105946509D01*
X134875507Y-105715977D01*
X134699283Y-105539445D01*
X134468917Y-105443789D01*
X134219481Y-105443571D01*
X133988949Y-105538825D01*
X133812417Y-105715049D01*
X133716761Y-105945415D01*
X133716543Y-106194851D01*
X126917275Y-106194851D01*
X124180531Y-103458107D01*
X124180629Y-103346149D01*
X124085375Y-103115617D01*
X123970656Y-103000697D01*
X141569581Y-103000697D01*
X141569581Y-106186334D01*
X141603987Y-106359307D01*
X141701969Y-106505946D01*
X142208241Y-107012218D01*
X142354880Y-107110200D01*
X142527853Y-107144606D01*
X144692263Y-107144606D01*
X148141506Y-110593849D01*
X148288145Y-110691831D01*
X148461118Y-110726237D01*
X148739889Y-110726237D01*
X148818986Y-110805472D01*
X149049352Y-110901128D01*
X149298788Y-110901346D01*
X149529320Y-110806092D01*
X149533466Y-110801954D01*
X149615156Y-110883787D01*
X149845522Y-110979443D01*
X149965648Y-110979548D01*
X149965639Y-110989299D01*
X150060893Y-111219831D01*
X150237117Y-111396363D01*
X150467483Y-111492019D01*
X150716919Y-111492237D01*
X150719703Y-111491087D01*
X151155769Y-111927154D01*
X151155671Y-112039111D01*
X151250925Y-112269643D01*
X151427149Y-112446175D01*
X151657515Y-112541831D01*
X151906951Y-112542049D01*
X152137483Y-112446795D01*
X152314015Y-112270571D01*
X152409671Y-112040205D01*
X152409751Y-111948975D01*
X152472989Y-112012213D01*
X152472891Y-112124171D01*
X152568145Y-112354703D01*
X152744369Y-112531235D01*
X152974735Y-112626891D01*
X153224171Y-112627109D01*
X153454703Y-112531855D01*
X153631235Y-112355631D01*
X153726891Y-112125265D01*
X153727109Y-111875829D01*
X153631855Y-111645297D01*
X153455631Y-111468765D01*
X153225265Y-111373109D01*
X153112234Y-111373010D01*
X151472165Y-109732941D01*
X151325526Y-109634959D01*
X151152553Y-109600553D01*
X150270786Y-109600553D01*
X150097813Y-109634959D01*
X149962243Y-109725544D01*
X149846616Y-109725443D01*
X149616084Y-109820697D01*
X149611938Y-109824835D01*
X149530248Y-109743002D01*
X149299882Y-109647346D01*
X149050446Y-109647128D01*
X148819914Y-109742382D01*
X148739919Y-109822237D01*
X148648342Y-109822237D01*
X146888701Y-108062596D01*
X147881558Y-108062596D01*
X147976812Y-108293128D01*
X148153036Y-108469660D01*
X148383402Y-108565316D01*
X148632838Y-108565534D01*
X148863370Y-108470280D01*
X149039902Y-108294056D01*
X149057366Y-108251999D01*
X158300001Y-108251999D01*
X158472974Y-108217593D01*
X158608543Y-108127008D01*
X158724171Y-108127109D01*
X158954703Y-108031855D01*
X159131235Y-107855631D01*
X159226891Y-107625265D01*
X159227109Y-107375829D01*
X159131855Y-107145297D01*
X158955631Y-106968765D01*
X158725265Y-106873109D01*
X158475829Y-106872891D01*
X158245297Y-106968145D01*
X158068765Y-107144369D01*
X157984211Y-107347999D01*
X148721750Y-107347999D01*
X148633932Y-107311534D01*
X148384496Y-107311316D01*
X148153964Y-107406570D01*
X147977432Y-107582794D01*
X147881776Y-107813160D01*
X147881558Y-108062596D01*
X146888701Y-108062596D01*
X145306595Y-106480490D01*
X159040442Y-106480490D01*
X159119539Y-106559725D01*
X159349905Y-106655381D01*
X159599341Y-106655599D01*
X159829873Y-106560345D01*
X160006405Y-106384121D01*
X160102061Y-106153755D01*
X160102279Y-105904319D01*
X160007025Y-105673787D01*
X159830801Y-105497255D01*
X159600435Y-105401599D01*
X159350999Y-105401381D01*
X159120467Y-105496635D01*
X159040472Y-105576490D01*
X143702277Y-105576490D01*
X143493019Y-105367232D01*
X143493117Y-105255274D01*
X143397863Y-105024742D01*
X143221639Y-104848210D01*
X142991273Y-104752554D01*
X142741837Y-104752336D01*
X142511305Y-104847590D01*
X142473581Y-104885248D01*
X142473581Y-104424171D01*
X144672891Y-104424171D01*
X144768145Y-104654703D01*
X144944369Y-104831235D01*
X145174735Y-104926891D01*
X145424171Y-104927109D01*
X145654703Y-104831855D01*
X145734698Y-104752000D01*
X146765272Y-104752000D01*
X146844369Y-104831235D01*
X147074735Y-104926891D01*
X147324171Y-104927109D01*
X147391810Y-104899161D01*
X148172891Y-104899161D01*
X148268145Y-105129693D01*
X148444369Y-105306225D01*
X148674735Y-105401881D01*
X148924171Y-105402099D01*
X149154703Y-105306845D01*
X149234698Y-105226990D01*
X152565272Y-105226990D01*
X152644369Y-105306225D01*
X152874735Y-105401881D01*
X153124171Y-105402099D01*
X153354703Y-105306845D01*
X153531235Y-105130621D01*
X153626891Y-104900255D01*
X153627109Y-104650819D01*
X153531855Y-104420287D01*
X153355631Y-104243755D01*
X153125265Y-104148099D01*
X152875829Y-104147881D01*
X152645297Y-104243135D01*
X152565302Y-104322990D01*
X149234728Y-104322990D01*
X149155631Y-104243755D01*
X148925265Y-104148099D01*
X148675829Y-104147881D01*
X148445297Y-104243135D01*
X148268765Y-104419359D01*
X148173109Y-104649725D01*
X148172891Y-104899161D01*
X147391810Y-104899161D01*
X147554703Y-104831855D01*
X147731235Y-104655631D01*
X147826891Y-104425265D01*
X147827109Y-104175829D01*
X147731855Y-103945297D01*
X147555631Y-103768765D01*
X147325265Y-103673109D01*
X147075829Y-103672891D01*
X146845297Y-103768145D01*
X146765302Y-103848000D01*
X145734728Y-103848000D01*
X145655631Y-103768765D01*
X145425265Y-103673109D01*
X145175829Y-103672891D01*
X144945297Y-103768145D01*
X144768765Y-103944369D01*
X144673109Y-104174735D01*
X144672891Y-104424171D01*
X142473581Y-104424171D01*
X142473581Y-103316308D01*
X142676283Y-103232553D01*
X142852815Y-103056329D01*
X142948471Y-102825963D01*
X142948689Y-102576527D01*
X142853435Y-102345995D01*
X142677211Y-102169463D01*
X142446845Y-102073807D01*
X142197409Y-102073589D01*
X141966877Y-102168843D01*
X141790345Y-102345067D01*
X141694689Y-102575433D01*
X141694587Y-102692133D01*
X141603987Y-102827724D01*
X141569581Y-103000697D01*
X123970656Y-103000697D01*
X123909151Y-102939085D01*
X123678785Y-102843429D01*
X123429349Y-102843211D01*
X123198817Y-102938465D01*
X123022285Y-103114689D01*
X122926629Y-103345055D01*
X122926411Y-103594491D01*
X106627000Y-103594491D01*
X106627000Y-101527000D01*
X168300000Y-101527000D01*
X168349410Y-101516994D01*
X168391035Y-101488553D01*
X168418315Y-101446159D01*
X168427000Y-101400000D01*
X168427000Y-99446820D01*
X180730741Y-99446820D01*
X180847063Y-99683336D01*
X181483524Y-99816490D01*
X182122494Y-99695946D01*
X182152937Y-99683336D01*
X182269259Y-99446820D01*
X181500000Y-98677562D01*
X180730741Y-99446820D01*
X168427000Y-99446820D01*
X168427000Y-98133584D01*
X179833570Y-98133584D01*
X179954114Y-98772554D01*
X179966724Y-98802997D01*
X180203240Y-98919319D01*
X180972498Y-98150060D01*
X182027502Y-98150060D01*
X182796760Y-98919319D01*
X183033276Y-98802997D01*
X183166430Y-98166536D01*
X183045886Y-97527566D01*
X183033276Y-97497123D01*
X182796760Y-97380801D01*
X182027502Y-98150060D01*
X180972498Y-98150060D01*
X180203240Y-97380801D01*
X179966724Y-97497123D01*
X179833570Y-98133584D01*
X168427000Y-98133584D01*
X168427000Y-96853300D01*
X180730741Y-96853300D01*
X181500000Y-97622558D01*
X182269259Y-96853300D01*
X182152937Y-96616784D01*
X181516476Y-96483630D01*
X180877506Y-96604174D01*
X180847063Y-96616784D01*
X180730741Y-96853300D01*
X168427000Y-96853300D01*
X168427000Y-95200000D01*
X168416994Y-95150590D01*
X168388553Y-95108965D01*
X168346159Y-95081685D01*
X168300000Y-95073000D01*
X154527000Y-95073000D01*
X154527000Y-94912637D01*
X180173281Y-94912637D01*
X180374801Y-95400354D01*
X180747623Y-95773827D01*
X181234987Y-95976199D01*
X181762697Y-95976659D01*
X182250414Y-95775139D01*
X182623887Y-95402317D01*
X182826259Y-94914953D01*
X182826719Y-94387243D01*
X182625199Y-93899526D01*
X182252377Y-93526053D01*
X181765013Y-93323681D01*
X181237303Y-93323221D01*
X180749586Y-93524741D01*
X180376113Y-93897563D01*
X180173741Y-94384927D01*
X180173281Y-94912637D01*
X154527000Y-94912637D01*
X154527000Y-87746820D01*
X180730741Y-87746820D01*
X180847063Y-87983336D01*
X181483524Y-88116490D01*
X182122494Y-87995946D01*
X182152937Y-87983336D01*
X182269259Y-87746820D01*
X181500000Y-86977562D01*
X180730741Y-87746820D01*
X154527000Y-87746820D01*
X154527000Y-86433584D01*
X179833570Y-86433584D01*
X179954114Y-87072554D01*
X179966724Y-87102997D01*
X180203240Y-87219319D01*
X180972498Y-86450060D01*
X182027502Y-86450060D01*
X182796760Y-87219319D01*
X183033276Y-87102997D01*
X183166430Y-86466536D01*
X183045886Y-85827566D01*
X183033276Y-85797123D01*
X182796760Y-85680801D01*
X182027502Y-86450060D01*
X180972498Y-86450060D01*
X180203240Y-85680801D01*
X179966724Y-85797123D01*
X179833570Y-86433584D01*
X154527000Y-86433584D01*
X154527000Y-85153300D01*
X180730741Y-85153300D01*
X181500000Y-85922558D01*
X182269259Y-85153300D01*
X182152937Y-84916784D01*
X181516476Y-84783630D01*
X180877506Y-84904174D01*
X180847063Y-84916784D01*
X180730741Y-85153300D01*
X154527000Y-85153300D01*
X154527000Y-83212637D01*
X180173281Y-83212637D01*
X180374801Y-83700354D01*
X180747623Y-84073827D01*
X181234987Y-84276199D01*
X181762697Y-84276659D01*
X182250414Y-84075139D01*
X182623887Y-83702317D01*
X182826259Y-83214953D01*
X182826719Y-82687243D01*
X182625199Y-82199526D01*
X182252377Y-81826053D01*
X181765013Y-81623681D01*
X181237303Y-81623221D01*
X180749586Y-81824741D01*
X180376113Y-82197563D01*
X180173741Y-82684927D01*
X180173281Y-83212637D01*
X154527000Y-83212637D01*
X154527000Y-75410160D01*
X178723700Y-75410160D01*
X179039247Y-76173843D01*
X179623024Y-76758639D01*
X180386155Y-77075519D01*
X181212460Y-77076240D01*
X181976143Y-76760693D01*
X182560939Y-76176916D01*
X182877819Y-75413785D01*
X182878540Y-74587480D01*
X182562993Y-73823797D01*
X181979216Y-73239001D01*
X181216085Y-72922121D01*
X180389780Y-72921400D01*
X179626097Y-73236947D01*
X179041301Y-73820724D01*
X178724421Y-74583855D01*
X178723700Y-75410160D01*
X154527000Y-75410160D01*
X154527000Y-70627000D01*
X185073000Y-70627000D01*
X185073000Y-119273000D01*
X185073000Y-119273000D01*
G37*
X185073000Y-119273000D02*
X106627000Y-119273000D01*
X106627000Y-117096760D01*
X161980561Y-117096760D01*
X162096883Y-117333276D01*
X162733344Y-117466430D01*
X163372314Y-117345886D01*
X163402757Y-117333276D01*
X163519079Y-117096760D01*
X162749820Y-116327502D01*
X161980561Y-117096760D01*
X106627000Y-117096760D01*
X106627000Y-115410080D01*
X108723840Y-115410080D01*
X109039387Y-116173763D01*
X109623164Y-116758559D01*
X110386295Y-117075439D01*
X111212600Y-117076160D01*
X111976283Y-116760613D01*
X112561079Y-116176836D01*
X112724396Y-115783524D01*
X161083390Y-115783524D01*
X161203934Y-116422494D01*
X161216544Y-116452937D01*
X161453060Y-116569259D01*
X162222318Y-115800000D01*
X163277322Y-115800000D01*
X164046580Y-116569259D01*
X164283096Y-116452937D01*
X164364738Y-116062697D01*
X164923221Y-116062697D01*
X165124741Y-116550414D01*
X165497563Y-116923887D01*
X165984927Y-117126259D01*
X166512637Y-117126719D01*
X167000354Y-116925199D01*
X167373827Y-116552377D01*
X167576199Y-116065013D01*
X167576201Y-116062697D01*
X168423341Y-116062697D01*
X168624861Y-116550414D01*
X168997683Y-116923887D01*
X169485047Y-117126259D01*
X170012757Y-117126719D01*
X170500474Y-116925199D01*
X170873947Y-116552377D01*
X171076319Y-116065013D01*
X171076321Y-116062697D01*
X171923461Y-116062697D01*
X172124981Y-116550414D01*
X172497803Y-116923887D01*
X172985167Y-117126259D01*
X173512877Y-117126719D01*
X174000594Y-116925199D01*
X174374067Y-116552377D01*
X174576439Y-116065013D01*
X174576899Y-115537303D01*
X174524332Y-115410080D01*
X178723700Y-115410080D01*
X179039247Y-116173763D01*
X179623024Y-116758559D01*
X180386155Y-117075439D01*
X181212460Y-117076160D01*
X181976143Y-116760613D01*
X182560939Y-116176836D01*
X182877819Y-115413705D01*
X182878540Y-114587400D01*
X182562993Y-113823717D01*
X181979216Y-113238921D01*
X181216085Y-112922041D01*
X180389780Y-112921320D01*
X179626097Y-113236867D01*
X179041301Y-113820644D01*
X178724421Y-114583775D01*
X178723700Y-115410080D01*
X174524332Y-115410080D01*
X174375379Y-115049586D01*
X174002557Y-114676113D01*
X173515193Y-114473741D01*
X172987483Y-114473281D01*
X172499766Y-114674801D01*
X172126293Y-115047623D01*
X171923921Y-115534987D01*
X171923461Y-116062697D01*
X171076321Y-116062697D01*
X171076779Y-115537303D01*
X170875259Y-115049586D01*
X170502437Y-114676113D01*
X170015073Y-114473741D01*
X169487363Y-114473281D01*
X168999646Y-114674801D01*
X168626173Y-115047623D01*
X168423801Y-115534987D01*
X168423341Y-116062697D01*
X167576201Y-116062697D01*
X167576659Y-115537303D01*
X167375139Y-115049586D01*
X167002317Y-114676113D01*
X166514953Y-114473741D01*
X165987243Y-114473281D01*
X165499526Y-114674801D01*
X165126053Y-115047623D01*
X164923681Y-115534987D01*
X164923221Y-116062697D01*
X164364738Y-116062697D01*
X164416250Y-115816476D01*
X164295706Y-115177506D01*
X164283096Y-115147063D01*
X164046580Y-115030741D01*
X163277322Y-115800000D01*
X162222318Y-115800000D01*
X161453060Y-115030741D01*
X161216544Y-115147063D01*
X161083390Y-115783524D01*
X112724396Y-115783524D01*
X112877959Y-115413705D01*
X112878680Y-114587400D01*
X112563133Y-113823717D01*
X111979356Y-113238921D01*
X111216225Y-112922041D01*
X110389920Y-112921320D01*
X109626237Y-113236867D01*
X109041441Y-113820644D01*
X108724561Y-114583775D01*
X108723840Y-115410080D01*
X106627000Y-115410080D01*
X106627000Y-110807353D01*
X120797880Y-110807353D01*
X120893134Y-111037885D01*
X121069358Y-111214417D01*
X121299724Y-111310073D01*
X121412755Y-111310172D01*
X124322989Y-114220407D01*
X124368145Y-114329693D01*
X124544369Y-114506225D01*
X124774735Y-114601881D01*
X125024171Y-114602099D01*
X125254703Y-114506845D01*
X125431235Y-114330621D01*
X125526891Y-114100255D01*
X125527109Y-113850819D01*
X125431855Y-113620287D01*
X125255631Y-113443755D01*
X125025265Y-113348099D01*
X124775829Y-113347881D01*
X124742630Y-113361598D01*
X122052000Y-110670969D01*
X122052098Y-110559011D01*
X121956844Y-110328479D01*
X121780620Y-110151947D01*
X121550254Y-110056291D01*
X121300818Y-110056073D01*
X121070286Y-110151327D01*
X120893754Y-110327551D01*
X120798098Y-110557917D01*
X120797880Y-110807353D01*
X106627000Y-110807353D01*
X106627000Y-103594491D01*
X122926411Y-103594491D01*
X123021665Y-103825023D01*
X123197889Y-104001555D01*
X123428255Y-104097211D01*
X123541286Y-104097310D01*
X131263588Y-111819612D01*
X131410227Y-111917594D01*
X131583200Y-111952000D01*
X139165272Y-111952000D01*
X139244369Y-112031235D01*
X139474735Y-112126891D01*
X139724171Y-112127109D01*
X139954703Y-112031855D01*
X140131235Y-111855631D01*
X140226891Y-111625265D01*
X140227109Y-111375829D01*
X140131855Y-111145297D01*
X139955631Y-110968765D01*
X139725265Y-110873109D01*
X139475829Y-110872891D01*
X139245297Y-110968145D01*
X139165302Y-111048000D01*
X131770424Y-111048000D01*
X128046595Y-107324171D01*
X130372891Y-107324171D01*
X130468145Y-107554703D01*
X130644369Y-107731235D01*
X130874735Y-107826891D01*
X130987766Y-107826990D01*
X133518637Y-110357862D01*
X133665276Y-110455843D01*
X133838249Y-110490249D01*
X138661751Y-110490249D01*
X138834724Y-110455843D01*
X138981363Y-110357861D01*
X139312213Y-110027011D01*
X139424171Y-110027109D01*
X139654703Y-109931855D01*
X139831235Y-109755631D01*
X139926891Y-109525265D01*
X139927109Y-109275829D01*
X139831855Y-109045297D01*
X139655631Y-108868765D01*
X139425265Y-108773109D01*
X139175829Y-108772891D01*
X138945297Y-108868145D01*
X138768765Y-109044369D01*
X138673109Y-109274735D01*
X138673010Y-109387765D01*
X138474527Y-109586249D01*
X134025474Y-109586249D01*
X131627011Y-107187787D01*
X131627109Y-107075829D01*
X131531855Y-106845297D01*
X131355631Y-106668765D01*
X131125265Y-106573109D01*
X130875829Y-106572891D01*
X130645297Y-106668145D01*
X130468765Y-106844369D01*
X130373109Y-107074735D01*
X130372891Y-107324171D01*
X128046595Y-107324171D01*
X126917275Y-106194851D01*
X133716543Y-106194851D01*
X133811797Y-106425383D01*
X133891652Y-106505378D01*
X133891652Y-107734610D01*
X133926058Y-107907583D01*
X134024040Y-108054222D01*
X134652756Y-108682939D01*
X134652658Y-108794896D01*
X134747912Y-109025428D01*
X134924136Y-109201960D01*
X135154502Y-109297616D01*
X135403938Y-109297834D01*
X135634470Y-109202580D01*
X135811002Y-109026356D01*
X135906658Y-108795990D01*
X135906876Y-108546554D01*
X135811622Y-108316022D01*
X135635398Y-108139490D01*
X135405032Y-108043834D01*
X135292002Y-108043735D01*
X135128765Y-107880498D01*
X138744596Y-107880498D01*
X138839850Y-108111030D01*
X139016074Y-108287562D01*
X139246440Y-108383218D01*
X139495876Y-108383436D01*
X139726408Y-108288182D01*
X139806403Y-108208327D01*
X142134559Y-108208327D01*
X142068791Y-108273980D01*
X141973135Y-108504346D01*
X141973036Y-108617377D01*
X141700529Y-108889884D01*
X141602547Y-109036523D01*
X141568141Y-109209496D01*
X141568141Y-110379746D01*
X141602547Y-110552719D01*
X141700529Y-110699358D01*
X142025528Y-111024358D01*
X142091060Y-111068145D01*
X142172168Y-111122340D01*
X142345141Y-111156746D01*
X143757153Y-111156746D01*
X143835288Y-111141204D01*
X142380388Y-112596104D01*
X142282406Y-112742743D01*
X142248000Y-112915716D01*
X142248000Y-113565272D01*
X142168765Y-113644369D01*
X142073109Y-113874735D01*
X142072891Y-114124171D01*
X142168145Y-114354703D01*
X142344369Y-114531235D01*
X142574735Y-114626891D01*
X142824171Y-114627109D01*
X143054703Y-114531855D01*
X143083368Y-114503240D01*
X161980561Y-114503240D01*
X162749820Y-115272498D01*
X163519079Y-114503240D01*
X163402757Y-114266724D01*
X162766296Y-114133570D01*
X162127326Y-114254114D01*
X162096883Y-114266724D01*
X161980561Y-114503240D01*
X143083368Y-114503240D01*
X143231235Y-114355631D01*
X143326891Y-114125265D01*
X143327109Y-113875829D01*
X143231855Y-113645297D01*
X143152000Y-113565302D01*
X143152000Y-113102940D01*
X144562326Y-111692614D01*
X144674284Y-111692712D01*
X144904816Y-111597458D01*
X145081348Y-111421234D01*
X145177004Y-111190868D01*
X145177222Y-110941432D01*
X145157042Y-110892593D01*
X145347873Y-110892593D01*
X145471344Y-111016064D01*
X145345297Y-111068145D01*
X145168765Y-111244369D01*
X145073109Y-111474735D01*
X145072891Y-111724171D01*
X145168145Y-111954703D01*
X145248000Y-112034698D01*
X145248000Y-113290291D01*
X145168774Y-113369379D01*
X145073118Y-113599745D01*
X145072900Y-113849181D01*
X145168154Y-114079713D01*
X145344378Y-114256245D01*
X145574744Y-114351901D01*
X145824180Y-114352119D01*
X146054712Y-114256865D01*
X146231244Y-114080641D01*
X146326900Y-113850275D01*
X146327118Y-113600839D01*
X146231864Y-113370307D01*
X146152000Y-113290303D01*
X146152000Y-112034728D01*
X146231235Y-111955631D01*
X146283953Y-111828673D01*
X148521057Y-114065777D01*
X148667696Y-114163759D01*
X148840669Y-114198165D01*
X149200309Y-114198165D01*
X149279406Y-114277400D01*
X149509772Y-114373056D01*
X149759208Y-114373274D01*
X149989740Y-114278020D01*
X150166272Y-114101796D01*
X150261928Y-113871430D01*
X150262146Y-113621994D01*
X150166892Y-113391462D01*
X149990668Y-113214930D01*
X149771081Y-113123750D01*
X149771215Y-112970123D01*
X149675961Y-112739591D01*
X149499737Y-112563059D01*
X149269371Y-112467403D01*
X149019935Y-112467185D01*
X148958076Y-112492745D01*
X146136300Y-109670970D01*
X145989661Y-109572988D01*
X145816688Y-109538582D01*
X144943079Y-109538582D01*
X144962904Y-109490837D01*
X144963122Y-109241401D01*
X144867868Y-109010869D01*
X144691644Y-108834337D01*
X144461278Y-108738681D01*
X144348248Y-108738582D01*
X143046380Y-107436715D01*
X142899741Y-107338733D01*
X142726768Y-107304327D01*
X139806433Y-107304327D01*
X139727336Y-107225092D01*
X139496970Y-107129436D01*
X139247534Y-107129218D01*
X139017002Y-107224472D01*
X138840470Y-107400696D01*
X138744814Y-107631062D01*
X138744596Y-107880498D01*
X135128765Y-107880498D01*
X134795652Y-107547386D01*
X134795652Y-106505408D01*
X134874887Y-106426311D01*
X134970543Y-106195945D01*
X134970761Y-105946509D01*
X134875507Y-105715977D01*
X134699283Y-105539445D01*
X134468917Y-105443789D01*
X134219481Y-105443571D01*
X133988949Y-105538825D01*
X133812417Y-105715049D01*
X133716761Y-105945415D01*
X133716543Y-106194851D01*
X126917275Y-106194851D01*
X124180531Y-103458107D01*
X124180629Y-103346149D01*
X124085375Y-103115617D01*
X123970656Y-103000697D01*
X141569581Y-103000697D01*
X141569581Y-106186334D01*
X141603987Y-106359307D01*
X141701969Y-106505946D01*
X142208241Y-107012218D01*
X142354880Y-107110200D01*
X142527853Y-107144606D01*
X144692263Y-107144606D01*
X148141506Y-110593849D01*
X148288145Y-110691831D01*
X148461118Y-110726237D01*
X148739889Y-110726237D01*
X148818986Y-110805472D01*
X149049352Y-110901128D01*
X149298788Y-110901346D01*
X149529320Y-110806092D01*
X149533466Y-110801954D01*
X149615156Y-110883787D01*
X149845522Y-110979443D01*
X149965648Y-110979548D01*
X149965639Y-110989299D01*
X150060893Y-111219831D01*
X150237117Y-111396363D01*
X150467483Y-111492019D01*
X150716919Y-111492237D01*
X150719703Y-111491087D01*
X151155769Y-111927154D01*
X151155671Y-112039111D01*
X151250925Y-112269643D01*
X151427149Y-112446175D01*
X151657515Y-112541831D01*
X151906951Y-112542049D01*
X152137483Y-112446795D01*
X152314015Y-112270571D01*
X152409671Y-112040205D01*
X152409751Y-111948975D01*
X152472989Y-112012213D01*
X152472891Y-112124171D01*
X152568145Y-112354703D01*
X152744369Y-112531235D01*
X152974735Y-112626891D01*
X153224171Y-112627109D01*
X153454703Y-112531855D01*
X153631235Y-112355631D01*
X153726891Y-112125265D01*
X153727109Y-111875829D01*
X153631855Y-111645297D01*
X153455631Y-111468765D01*
X153225265Y-111373109D01*
X153112234Y-111373010D01*
X151472165Y-109732941D01*
X151325526Y-109634959D01*
X151152553Y-109600553D01*
X150270786Y-109600553D01*
X150097813Y-109634959D01*
X149962243Y-109725544D01*
X149846616Y-109725443D01*
X149616084Y-109820697D01*
X149611938Y-109824835D01*
X149530248Y-109743002D01*
X149299882Y-109647346D01*
X149050446Y-109647128D01*
X148819914Y-109742382D01*
X148739919Y-109822237D01*
X148648342Y-109822237D01*
X146888701Y-108062596D01*
X147881558Y-108062596D01*
X147976812Y-108293128D01*
X148153036Y-108469660D01*
X148383402Y-108565316D01*
X148632838Y-108565534D01*
X148863370Y-108470280D01*
X149039902Y-108294056D01*
X149057366Y-108251999D01*
X158300001Y-108251999D01*
X158472974Y-108217593D01*
X158608543Y-108127008D01*
X158724171Y-108127109D01*
X158954703Y-108031855D01*
X159131235Y-107855631D01*
X159226891Y-107625265D01*
X159227109Y-107375829D01*
X159131855Y-107145297D01*
X158955631Y-106968765D01*
X158725265Y-106873109D01*
X158475829Y-106872891D01*
X158245297Y-106968145D01*
X158068765Y-107144369D01*
X157984211Y-107347999D01*
X148721750Y-107347999D01*
X148633932Y-107311534D01*
X148384496Y-107311316D01*
X148153964Y-107406570D01*
X147977432Y-107582794D01*
X147881776Y-107813160D01*
X147881558Y-108062596D01*
X146888701Y-108062596D01*
X145306595Y-106480490D01*
X159040442Y-106480490D01*
X159119539Y-106559725D01*
X159349905Y-106655381D01*
X159599341Y-106655599D01*
X159829873Y-106560345D01*
X160006405Y-106384121D01*
X160102061Y-106153755D01*
X160102279Y-105904319D01*
X160007025Y-105673787D01*
X159830801Y-105497255D01*
X159600435Y-105401599D01*
X159350999Y-105401381D01*
X159120467Y-105496635D01*
X159040472Y-105576490D01*
X143702277Y-105576490D01*
X143493019Y-105367232D01*
X143493117Y-105255274D01*
X143397863Y-105024742D01*
X143221639Y-104848210D01*
X142991273Y-104752554D01*
X142741837Y-104752336D01*
X142511305Y-104847590D01*
X142473581Y-104885248D01*
X142473581Y-104424171D01*
X144672891Y-104424171D01*
X144768145Y-104654703D01*
X144944369Y-104831235D01*
X145174735Y-104926891D01*
X145424171Y-104927109D01*
X145654703Y-104831855D01*
X145734698Y-104752000D01*
X146765272Y-104752000D01*
X146844369Y-104831235D01*
X147074735Y-104926891D01*
X147324171Y-104927109D01*
X147391810Y-104899161D01*
X148172891Y-104899161D01*
X148268145Y-105129693D01*
X148444369Y-105306225D01*
X148674735Y-105401881D01*
X148924171Y-105402099D01*
X149154703Y-105306845D01*
X149234698Y-105226990D01*
X152565272Y-105226990D01*
X152644369Y-105306225D01*
X152874735Y-105401881D01*
X153124171Y-105402099D01*
X153354703Y-105306845D01*
X153531235Y-105130621D01*
X153626891Y-104900255D01*
X153627109Y-104650819D01*
X153531855Y-104420287D01*
X153355631Y-104243755D01*
X153125265Y-104148099D01*
X152875829Y-104147881D01*
X152645297Y-104243135D01*
X152565302Y-104322990D01*
X149234728Y-104322990D01*
X149155631Y-104243755D01*
X148925265Y-104148099D01*
X148675829Y-104147881D01*
X148445297Y-104243135D01*
X148268765Y-104419359D01*
X148173109Y-104649725D01*
X148172891Y-104899161D01*
X147391810Y-104899161D01*
X147554703Y-104831855D01*
X147731235Y-104655631D01*
X147826891Y-104425265D01*
X147827109Y-104175829D01*
X147731855Y-103945297D01*
X147555631Y-103768765D01*
X147325265Y-103673109D01*
X147075829Y-103672891D01*
X146845297Y-103768145D01*
X146765302Y-103848000D01*
X145734728Y-103848000D01*
X145655631Y-103768765D01*
X145425265Y-103673109D01*
X145175829Y-103672891D01*
X144945297Y-103768145D01*
X144768765Y-103944369D01*
X144673109Y-104174735D01*
X144672891Y-104424171D01*
X142473581Y-104424171D01*
X142473581Y-103316308D01*
X142676283Y-103232553D01*
X142852815Y-103056329D01*
X142948471Y-102825963D01*
X142948689Y-102576527D01*
X142853435Y-102345995D01*
X142677211Y-102169463D01*
X142446845Y-102073807D01*
X142197409Y-102073589D01*
X141966877Y-102168843D01*
X141790345Y-102345067D01*
X141694689Y-102575433D01*
X141694587Y-102692133D01*
X141603987Y-102827724D01*
X141569581Y-103000697D01*
X123970656Y-103000697D01*
X123909151Y-102939085D01*
X123678785Y-102843429D01*
X123429349Y-102843211D01*
X123198817Y-102938465D01*
X123022285Y-103114689D01*
X122926629Y-103345055D01*
X122926411Y-103594491D01*
X106627000Y-103594491D01*
X106627000Y-101527000D01*
X168300000Y-101527000D01*
X168349410Y-101516994D01*
X168391035Y-101488553D01*
X168418315Y-101446159D01*
X168427000Y-101400000D01*
X168427000Y-99446820D01*
X180730741Y-99446820D01*
X180847063Y-99683336D01*
X181483524Y-99816490D01*
X182122494Y-99695946D01*
X182152937Y-99683336D01*
X182269259Y-99446820D01*
X181500000Y-98677562D01*
X180730741Y-99446820D01*
X168427000Y-99446820D01*
X168427000Y-98133584D01*
X179833570Y-98133584D01*
X179954114Y-98772554D01*
X179966724Y-98802997D01*
X180203240Y-98919319D01*
X180972498Y-98150060D01*
X182027502Y-98150060D01*
X182796760Y-98919319D01*
X183033276Y-98802997D01*
X183166430Y-98166536D01*
X183045886Y-97527566D01*
X183033276Y-97497123D01*
X182796760Y-97380801D01*
X182027502Y-98150060D01*
X180972498Y-98150060D01*
X180203240Y-97380801D01*
X179966724Y-97497123D01*
X179833570Y-98133584D01*
X168427000Y-98133584D01*
X168427000Y-96853300D01*
X180730741Y-96853300D01*
X181500000Y-97622558D01*
X182269259Y-96853300D01*
X182152937Y-96616784D01*
X181516476Y-96483630D01*
X180877506Y-96604174D01*
X180847063Y-96616784D01*
X180730741Y-96853300D01*
X168427000Y-96853300D01*
X168427000Y-95200000D01*
X168416994Y-95150590D01*
X168388553Y-95108965D01*
X168346159Y-95081685D01*
X168300000Y-95073000D01*
X154527000Y-95073000D01*
X154527000Y-94912637D01*
X180173281Y-94912637D01*
X180374801Y-95400354D01*
X180747623Y-95773827D01*
X181234987Y-95976199D01*
X181762697Y-95976659D01*
X182250414Y-95775139D01*
X182623887Y-95402317D01*
X182826259Y-94914953D01*
X182826719Y-94387243D01*
X182625199Y-93899526D01*
X182252377Y-93526053D01*
X181765013Y-93323681D01*
X181237303Y-93323221D01*
X180749586Y-93524741D01*
X180376113Y-93897563D01*
X180173741Y-94384927D01*
X180173281Y-94912637D01*
X154527000Y-94912637D01*
X154527000Y-87746820D01*
X180730741Y-87746820D01*
X180847063Y-87983336D01*
X181483524Y-88116490D01*
X182122494Y-87995946D01*
X182152937Y-87983336D01*
X182269259Y-87746820D01*
X181500000Y-86977562D01*
X180730741Y-87746820D01*
X154527000Y-87746820D01*
X154527000Y-86433584D01*
X179833570Y-86433584D01*
X179954114Y-87072554D01*
X179966724Y-87102997D01*
X180203240Y-87219319D01*
X180972498Y-86450060D01*
X182027502Y-86450060D01*
X182796760Y-87219319D01*
X183033276Y-87102997D01*
X183166430Y-86466536D01*
X183045886Y-85827566D01*
X183033276Y-85797123D01*
X182796760Y-85680801D01*
X182027502Y-86450060D01*
X180972498Y-86450060D01*
X180203240Y-85680801D01*
X179966724Y-85797123D01*
X179833570Y-86433584D01*
X154527000Y-86433584D01*
X154527000Y-85153300D01*
X180730741Y-85153300D01*
X181500000Y-85922558D01*
X182269259Y-85153300D01*
X182152937Y-84916784D01*
X181516476Y-84783630D01*
X180877506Y-84904174D01*
X180847063Y-84916784D01*
X180730741Y-85153300D01*
X154527000Y-85153300D01*
X154527000Y-83212637D01*
X180173281Y-83212637D01*
X180374801Y-83700354D01*
X180747623Y-84073827D01*
X181234987Y-84276199D01*
X181762697Y-84276659D01*
X182250414Y-84075139D01*
X182623887Y-83702317D01*
X182826259Y-83214953D01*
X182826719Y-82687243D01*
X182625199Y-82199526D01*
X182252377Y-81826053D01*
X181765013Y-81623681D01*
X181237303Y-81623221D01*
X180749586Y-81824741D01*
X180376113Y-82197563D01*
X180173741Y-82684927D01*
X180173281Y-83212637D01*
X154527000Y-83212637D01*
X154527000Y-75410160D01*
X178723700Y-75410160D01*
X179039247Y-76173843D01*
X179623024Y-76758639D01*
X180386155Y-77075519D01*
X181212460Y-77076240D01*
X181976143Y-76760693D01*
X182560939Y-76176916D01*
X182877819Y-75413785D01*
X182878540Y-74587480D01*
X182562993Y-73823797D01*
X181979216Y-73239001D01*
X181216085Y-72922121D01*
X180389780Y-72921400D01*
X179626097Y-73236947D01*
X179041301Y-73820724D01*
X178724421Y-74583855D01*
X178723700Y-75410160D01*
X154527000Y-75410160D01*
X154527000Y-70627000D01*
X185073000Y-70627000D01*
X185073000Y-119273000D01*
G36*
X120173000Y-78047394D02*
X115347394Y-82873000D01*
X109300000Y-82873000D01*
X109250590Y-82883006D01*
X109208965Y-82911447D01*
X109181685Y-82953841D01*
X109173000Y-83000000D01*
X109173000Y-95500000D01*
X109183006Y-95549410D01*
X109211447Y-95591035D01*
X109253841Y-95618315D01*
X109300000Y-95627000D01*
X167873000Y-95627000D01*
X167873000Y-100973000D01*
X106627000Y-100973000D01*
X106627000Y-75410160D01*
X108723840Y-75410160D01*
X109039387Y-76173843D01*
X109623164Y-76758639D01*
X110386295Y-77075519D01*
X111212600Y-77076240D01*
X111976283Y-76760693D01*
X112561079Y-76176916D01*
X112877959Y-75413785D01*
X112878680Y-74587480D01*
X112563133Y-73823797D01*
X111979356Y-73239001D01*
X111216225Y-72922121D01*
X110389920Y-72921400D01*
X109626237Y-73236947D01*
X109041441Y-73820724D01*
X108724561Y-74583855D01*
X108723840Y-75410160D01*
X106627000Y-75410160D01*
X106627000Y-70627000D01*
X120173000Y-70627000D01*
X120173000Y-78047394D01*
X120173000Y-78047394D01*
G37*
X120173000Y-78047394D02*
X115347394Y-82873000D01*
X109300000Y-82873000D01*
X109250590Y-82883006D01*
X109208965Y-82911447D01*
X109181685Y-82953841D01*
X109173000Y-83000000D01*
X109173000Y-95500000D01*
X109183006Y-95549410D01*
X109211447Y-95591035D01*
X109253841Y-95618315D01*
X109300000Y-95627000D01*
X167873000Y-95627000D01*
X167873000Y-100973000D01*
X106627000Y-100973000D01*
X106627000Y-75410160D01*
X108723840Y-75410160D01*
X109039387Y-76173843D01*
X109623164Y-76758639D01*
X110386295Y-77075519D01*
X111212600Y-77076240D01*
X111976283Y-76760693D01*
X112561079Y-76176916D01*
X112877959Y-75413785D01*
X112878680Y-74587480D01*
X112563133Y-73823797D01*
X111979356Y-73239001D01*
X111216225Y-72922121D01*
X110389920Y-72921400D01*
X109626237Y-73236947D01*
X109041441Y-73820724D01*
X108724561Y-74583855D01*
X108723840Y-75410160D01*
X106627000Y-75410160D01*
X106627000Y-70627000D01*
X120173000Y-70627000D01*
X120173000Y-78047394D01*
G36*
X136473000Y-78000000D02*
X136483006Y-78049410D01*
X136510197Y-78089803D01*
X141710197Y-83289803D01*
X141752211Y-83317666D01*
X141800000Y-83327000D01*
X147973000Y-83327000D01*
X147973000Y-90173000D01*
X128727000Y-90173000D01*
X128727000Y-70627000D01*
X136473000Y-70627000D01*
X136473000Y-78000000D01*
X136473000Y-78000000D01*
G37*
X136473000Y-78000000D02*
X136483006Y-78049410D01*
X136510197Y-78089803D01*
X141710197Y-83289803D01*
X141752211Y-83317666D01*
X141800000Y-83327000D01*
X147973000Y-83327000D01*
X147973000Y-90173000D01*
X128727000Y-90173000D01*
X128727000Y-70627000D01*
X136473000Y-70627000D01*
X136473000Y-78000000D01*
M02*
