G04 #@! TF.FileFunction,Legend,Top*
%FSLAX46Y46*%
G04 Gerber Fmt 4.6, Leading zero omitted, Abs format (unit mm)*
G04 Created by KiCad (PCBNEW 4.0.5) date 10/06/17 09:47:02*
%MOMM*%
%LPD*%
G01*
G04 APERTURE LIST*
%ADD10C,0.100000*%
%ADD11C,0.200000*%
%ADD12C,0.250000*%
%ADD13C,0.300000*%
%ADD14C,0.150000*%
%ADD15C,0.120000*%
G04 APERTURE END LIST*
D10*
D11*
X140741421Y-104500000D02*
G75*
G03X140741421Y-104500000I-141421J0D01*
G01*
X120200000Y-104000000D02*
X108400000Y-104000000D01*
X120200000Y-108000000D02*
X120200000Y-104000000D01*
X108400000Y-108000000D02*
X120200000Y-108000000D01*
X108400000Y-104000000D02*
X108400000Y-108000000D01*
X164500000Y-111100000D02*
X164500000Y-105300000D01*
X168100000Y-111100000D02*
X168100000Y-105400000D01*
X171300000Y-111000000D02*
X171300000Y-105400000D01*
X182900000Y-78100000D02*
X185300000Y-78100000D01*
X182800000Y-103000000D02*
X185500000Y-103000000D01*
D12*
X172352381Y-111014286D02*
X173352381Y-110680953D01*
X172352381Y-110347619D01*
X173352381Y-109442857D02*
X172876190Y-109776191D01*
X173352381Y-110014286D02*
X172352381Y-110014286D01*
X172352381Y-109633333D01*
X172400000Y-109538095D01*
X172447619Y-109490476D01*
X172542857Y-109442857D01*
X172685714Y-109442857D01*
X172780952Y-109490476D01*
X172828571Y-109538095D01*
X172876190Y-109633333D01*
X172876190Y-110014286D01*
X172828571Y-109014286D02*
X172828571Y-108680952D01*
X173352381Y-108538095D02*
X173352381Y-109014286D01*
X172352381Y-109014286D01*
X172352381Y-108538095D01*
X172828571Y-107776190D02*
X172828571Y-108109524D01*
X173352381Y-108109524D02*
X172352381Y-108109524D01*
X172352381Y-107633333D01*
X170157143Y-110423809D02*
X170204762Y-110471428D01*
X170252381Y-110614285D01*
X170252381Y-110709523D01*
X170204762Y-110852381D01*
X170109524Y-110947619D01*
X170014286Y-110995238D01*
X169823810Y-111042857D01*
X169680952Y-111042857D01*
X169490476Y-110995238D01*
X169395238Y-110947619D01*
X169300000Y-110852381D01*
X169252381Y-110709523D01*
X169252381Y-110614285D01*
X169300000Y-110471428D01*
X169347619Y-110423809D01*
X170252381Y-109519047D02*
X170252381Y-109995238D01*
X169252381Y-109995238D01*
X170252381Y-109185714D02*
X169252381Y-109185714D01*
X170252381Y-108614285D02*
X169680952Y-109042857D01*
X169252381Y-108614285D02*
X169823810Y-109185714D01*
X169252381Y-107995238D02*
X169252381Y-107804761D01*
X169300000Y-107709523D01*
X169395238Y-107614285D01*
X169585714Y-107566666D01*
X169919048Y-107566666D01*
X170109524Y-107614285D01*
X170204762Y-107709523D01*
X170252381Y-107804761D01*
X170252381Y-107995238D01*
X170204762Y-108090476D01*
X170109524Y-108185714D01*
X169919048Y-108233333D01*
X169585714Y-108233333D01*
X169395238Y-108185714D01*
X169300000Y-108090476D01*
X169252381Y-107995238D01*
X169252381Y-107138095D02*
X170061905Y-107138095D01*
X170157143Y-107090476D01*
X170204762Y-107042857D01*
X170252381Y-106947619D01*
X170252381Y-106757142D01*
X170204762Y-106661904D01*
X170157143Y-106614285D01*
X170061905Y-106566666D01*
X169252381Y-106566666D01*
X169252381Y-106233333D02*
X169252381Y-105661904D01*
X170252381Y-105947619D02*
X169252381Y-105947619D01*
X166752381Y-110995238D02*
X165752381Y-110995238D01*
X166704762Y-110566667D02*
X166752381Y-110423810D01*
X166752381Y-110185714D01*
X166704762Y-110090476D01*
X166657143Y-110042857D01*
X166561905Y-109995238D01*
X166466667Y-109995238D01*
X166371429Y-110042857D01*
X166323810Y-110090476D01*
X166276190Y-110185714D01*
X166228571Y-110376191D01*
X166180952Y-110471429D01*
X166133333Y-110519048D01*
X166038095Y-110566667D01*
X165942857Y-110566667D01*
X165847619Y-110519048D01*
X165800000Y-110471429D01*
X165752381Y-110376191D01*
X165752381Y-110138095D01*
X165800000Y-109995238D01*
X166752381Y-109566667D02*
X165752381Y-109566667D01*
X166466667Y-109233333D01*
X165752381Y-108900000D01*
X166752381Y-108900000D01*
X165752381Y-108233334D02*
X165752381Y-108042857D01*
X165800000Y-107947619D01*
X165895238Y-107852381D01*
X166085714Y-107804762D01*
X166419048Y-107804762D01*
X166609524Y-107852381D01*
X166704762Y-107947619D01*
X166752381Y-108042857D01*
X166752381Y-108233334D01*
X166704762Y-108328572D01*
X166609524Y-108423810D01*
X166419048Y-108471429D01*
X166085714Y-108471429D01*
X165895238Y-108423810D01*
X165800000Y-108328572D01*
X165752381Y-108233334D01*
X166752381Y-107376191D02*
X165752381Y-107376191D01*
X166752381Y-106804762D01*
X165752381Y-106804762D01*
X162300000Y-110461904D02*
X162252381Y-110557142D01*
X162252381Y-110699999D01*
X162300000Y-110842857D01*
X162395238Y-110938095D01*
X162490476Y-110985714D01*
X162680952Y-111033333D01*
X162823810Y-111033333D01*
X163014286Y-110985714D01*
X163109524Y-110938095D01*
X163204762Y-110842857D01*
X163252381Y-110699999D01*
X163252381Y-110604761D01*
X163204762Y-110461904D01*
X163157143Y-110414285D01*
X162823810Y-110414285D01*
X162823810Y-110604761D01*
X163252381Y-109985714D02*
X162252381Y-109985714D01*
X163252381Y-109414285D01*
X162252381Y-109414285D01*
X163252381Y-108938095D02*
X162252381Y-108938095D01*
X162252381Y-108700000D01*
X162300000Y-108557142D01*
X162395238Y-108461904D01*
X162490476Y-108414285D01*
X162680952Y-108366666D01*
X162823810Y-108366666D01*
X163014286Y-108414285D01*
X163109524Y-108461904D01*
X163204762Y-108557142D01*
X163252381Y-108700000D01*
X163252381Y-108938095D01*
X183719048Y-102196429D02*
X184480953Y-102196429D01*
X184100001Y-102577381D02*
X184100001Y-101815476D01*
X183338096Y-103375000D02*
X183242858Y-103327381D01*
X183100001Y-103327381D01*
X182957143Y-103375000D01*
X182861905Y-103470238D01*
X182814286Y-103565476D01*
X182766667Y-103755952D01*
X182766667Y-103898810D01*
X182814286Y-104089286D01*
X182861905Y-104184524D01*
X182957143Y-104279762D01*
X183100001Y-104327381D01*
X183195239Y-104327381D01*
X183338096Y-104279762D01*
X183385715Y-104232143D01*
X183385715Y-103898810D01*
X183195239Y-103898810D01*
X183814286Y-104327381D02*
X183814286Y-103327381D01*
X184385715Y-104327381D01*
X184385715Y-103327381D01*
X184861905Y-104327381D02*
X184861905Y-103327381D01*
X185100000Y-103327381D01*
X185242858Y-103375000D01*
X185338096Y-103470238D01*
X185385715Y-103565476D01*
X185433334Y-103755952D01*
X185433334Y-103898810D01*
X185385715Y-104089286D01*
X185338096Y-104184524D01*
X185242858Y-104279762D01*
X185100000Y-104327381D01*
X184861905Y-104327381D01*
X183719048Y-77396429D02*
X184480953Y-77396429D01*
X184100001Y-77777381D02*
X184100001Y-77015476D01*
X183338096Y-78575000D02*
X183242858Y-78527381D01*
X183100001Y-78527381D01*
X182957143Y-78575000D01*
X182861905Y-78670238D01*
X182814286Y-78765476D01*
X182766667Y-78955952D01*
X182766667Y-79098810D01*
X182814286Y-79289286D01*
X182861905Y-79384524D01*
X182957143Y-79479762D01*
X183100001Y-79527381D01*
X183195239Y-79527381D01*
X183338096Y-79479762D01*
X183385715Y-79432143D01*
X183385715Y-79098810D01*
X183195239Y-79098810D01*
X183814286Y-79527381D02*
X183814286Y-78527381D01*
X184385715Y-79527381D01*
X184385715Y-78527381D01*
X184861905Y-79527381D02*
X184861905Y-78527381D01*
X185100000Y-78527381D01*
X185242858Y-78575000D01*
X185338096Y-78670238D01*
X185385715Y-78765476D01*
X185433334Y-78955952D01*
X185433334Y-79098810D01*
X185385715Y-79289286D01*
X185338096Y-79384524D01*
X185242858Y-79479762D01*
X185100000Y-79527381D01*
X184861905Y-79527381D01*
X109366667Y-104677381D02*
X109176190Y-104677381D01*
X109080952Y-104725000D01*
X109033333Y-104772619D01*
X108938095Y-104915476D01*
X108890476Y-105105952D01*
X108890476Y-105486905D01*
X108938095Y-105582143D01*
X108985714Y-105629762D01*
X109080952Y-105677381D01*
X109271429Y-105677381D01*
X109366667Y-105629762D01*
X109414286Y-105582143D01*
X109461905Y-105486905D01*
X109461905Y-105248810D01*
X109414286Y-105153571D01*
X109366667Y-105105952D01*
X109271429Y-105058333D01*
X109080952Y-105058333D01*
X108985714Y-105105952D01*
X108938095Y-105153571D01*
X108890476Y-105248810D01*
X110080952Y-104677381D02*
X110176191Y-104677381D01*
X110271429Y-104725000D01*
X110319048Y-104772619D01*
X110366667Y-104867857D01*
X110414286Y-105058333D01*
X110414286Y-105296429D01*
X110366667Y-105486905D01*
X110319048Y-105582143D01*
X110271429Y-105629762D01*
X110176191Y-105677381D01*
X110080952Y-105677381D01*
X109985714Y-105629762D01*
X109938095Y-105582143D01*
X109890476Y-105486905D01*
X109842857Y-105296429D01*
X109842857Y-105058333D01*
X109890476Y-104867857D01*
X109938095Y-104772619D01*
X109985714Y-104725000D01*
X110080952Y-104677381D01*
X110700000Y-104677381D02*
X111033333Y-105677381D01*
X111366667Y-104677381D01*
X111700000Y-105296429D02*
X112461905Y-105296429D01*
X113271429Y-105153571D02*
X113414286Y-105201190D01*
X113461905Y-105248810D01*
X113509524Y-105344048D01*
X113509524Y-105486905D01*
X113461905Y-105582143D01*
X113414286Y-105629762D01*
X113319048Y-105677381D01*
X112938095Y-105677381D01*
X112938095Y-104677381D01*
X113271429Y-104677381D01*
X113366667Y-104725000D01*
X113414286Y-104772619D01*
X113461905Y-104867857D01*
X113461905Y-104963095D01*
X113414286Y-105058333D01*
X113366667Y-105105952D01*
X113271429Y-105153571D01*
X112938095Y-105153571D01*
X114366667Y-105010714D02*
X114366667Y-105677381D01*
X113938095Y-105010714D02*
X113938095Y-105534524D01*
X113985714Y-105629762D01*
X114080952Y-105677381D01*
X114223810Y-105677381D01*
X114319048Y-105629762D01*
X114366667Y-105582143D01*
X115176191Y-105153571D02*
X115319048Y-105201190D01*
X115366667Y-105248810D01*
X115414286Y-105344048D01*
X115414286Y-105486905D01*
X115366667Y-105582143D01*
X115319048Y-105629762D01*
X115223810Y-105677381D01*
X114842857Y-105677381D01*
X114842857Y-104677381D01*
X115176191Y-104677381D01*
X115271429Y-104725000D01*
X115319048Y-104772619D01*
X115366667Y-104867857D01*
X115366667Y-104963095D01*
X115319048Y-105058333D01*
X115271429Y-105105952D01*
X115176191Y-105153571D01*
X114842857Y-105153571D01*
X115985714Y-105677381D02*
X115890476Y-105629762D01*
X115842857Y-105582143D01*
X115795238Y-105486905D01*
X115795238Y-105201190D01*
X115842857Y-105105952D01*
X115890476Y-105058333D01*
X115985714Y-105010714D01*
X116128572Y-105010714D01*
X116223810Y-105058333D01*
X116271429Y-105105952D01*
X116319048Y-105201190D01*
X116319048Y-105486905D01*
X116271429Y-105582143D01*
X116223810Y-105629762D01*
X116128572Y-105677381D01*
X115985714Y-105677381D01*
X116747619Y-105296429D02*
X117509524Y-105296429D01*
X117842857Y-104677381D02*
X118176190Y-105677381D01*
X118509524Y-104677381D01*
X119366667Y-105677381D02*
X118795238Y-105677381D01*
X119080952Y-105677381D02*
X119080952Y-104677381D01*
X118985714Y-104820238D01*
X118890476Y-104915476D01*
X118795238Y-104963095D01*
X108938095Y-107427381D02*
X108938095Y-106427381D01*
X109509524Y-107427381D01*
X109509524Y-106427381D01*
X109985714Y-107427381D02*
X109985714Y-106427381D01*
X110319048Y-107141667D01*
X110652381Y-106427381D01*
X110652381Y-107427381D01*
X111128571Y-107046429D02*
X111890476Y-107046429D01*
X112890476Y-107427381D02*
X112319047Y-107427381D01*
X112604761Y-107427381D02*
X112604761Y-106427381D01*
X112509523Y-106570238D01*
X112414285Y-106665476D01*
X112319047Y-106713095D01*
X113509523Y-106427381D02*
X113604762Y-106427381D01*
X113700000Y-106475000D01*
X113747619Y-106522619D01*
X113795238Y-106617857D01*
X113842857Y-106808333D01*
X113842857Y-107046429D01*
X113795238Y-107236905D01*
X113747619Y-107332143D01*
X113700000Y-107379762D01*
X113604762Y-107427381D01*
X113509523Y-107427381D01*
X113414285Y-107379762D01*
X113366666Y-107332143D01*
X113319047Y-107236905D01*
X113271428Y-107046429D01*
X113271428Y-106808333D01*
X113319047Y-106617857D01*
X113366666Y-106522619D01*
X113414285Y-106475000D01*
X113509523Y-106427381D01*
X114271428Y-107332143D02*
X114319047Y-107379762D01*
X114271428Y-107427381D01*
X114223809Y-107379762D01*
X114271428Y-107332143D01*
X114271428Y-107427381D01*
X114699999Y-106522619D02*
X114747618Y-106475000D01*
X114842856Y-106427381D01*
X115080952Y-106427381D01*
X115176190Y-106475000D01*
X115223809Y-106522619D01*
X115271428Y-106617857D01*
X115271428Y-106713095D01*
X115223809Y-106855952D01*
X114652380Y-107427381D01*
X115271428Y-107427381D01*
X115890475Y-106427381D02*
X115985714Y-106427381D01*
X116080952Y-106475000D01*
X116128571Y-106522619D01*
X116176190Y-106617857D01*
X116223809Y-106808333D01*
X116223809Y-107046429D01*
X116176190Y-107236905D01*
X116128571Y-107332143D01*
X116080952Y-107379762D01*
X115985714Y-107427381D01*
X115890475Y-107427381D01*
X115795237Y-107379762D01*
X115747618Y-107332143D01*
X115699999Y-107236905D01*
X115652380Y-107046429D01*
X115652380Y-106808333D01*
X115699999Y-106617857D01*
X115747618Y-106522619D01*
X115795237Y-106475000D01*
X115890475Y-106427381D01*
X117176190Y-107427381D02*
X116604761Y-107427381D01*
X116890475Y-107427381D02*
X116890475Y-106427381D01*
X116795237Y-106570238D01*
X116699999Y-106665476D01*
X116604761Y-106713095D01*
X117509523Y-106427381D02*
X118176190Y-106427381D01*
X117747618Y-107427381D01*
D13*
X178700000Y-77778571D02*
X178985714Y-77778571D01*
X179128572Y-77850000D01*
X179271429Y-77992857D01*
X179342857Y-78278571D01*
X179342857Y-78778571D01*
X179271429Y-79064286D01*
X179128572Y-79207143D01*
X178985714Y-79278571D01*
X178700000Y-79278571D01*
X178557143Y-79207143D01*
X178414286Y-79064286D01*
X178342857Y-78778571D01*
X178342857Y-78278571D01*
X178414286Y-77992857D01*
X178557143Y-77850000D01*
X178700000Y-77778571D01*
X179985715Y-77778571D02*
X179985715Y-78992857D01*
X180057143Y-79135714D01*
X180128572Y-79207143D01*
X180271429Y-79278571D01*
X180557143Y-79278571D01*
X180700001Y-79207143D01*
X180771429Y-79135714D01*
X180842858Y-78992857D01*
X180842858Y-77778571D01*
X181342858Y-77778571D02*
X182200001Y-77778571D01*
X181771430Y-79278571D02*
X181771430Y-77778571D01*
X180514286Y-103778571D02*
X180514286Y-102278571D01*
X181228572Y-103778571D02*
X181228572Y-102278571D01*
X182085715Y-103778571D01*
X182085715Y-102278571D01*
D14*
X176249920Y-118251100D02*
X159750080Y-118251100D01*
X162749820Y-111550580D02*
X162749820Y-113348900D01*
X162749820Y-113348900D02*
X171749040Y-113348900D01*
X171749040Y-111550580D02*
X171749040Y-113348900D01*
X176249920Y-113348900D02*
X173750560Y-113348900D01*
X173750560Y-113348900D02*
X173750560Y-111598840D01*
X168000000Y-111550580D02*
X176249920Y-111550580D01*
X176249920Y-111550580D02*
X176249920Y-120049420D01*
X176249920Y-120049420D02*
X159750080Y-120049420D01*
X159750080Y-120049420D02*
X159750080Y-111550580D01*
X159750080Y-111550580D02*
X168000000Y-111550580D01*
X157200000Y-92425000D02*
X152000000Y-92425000D01*
X152000000Y-88775000D02*
X157200000Y-88775000D01*
X159475000Y-114500000D02*
X159475000Y-115700000D01*
X157725000Y-115700000D02*
X157725000Y-114500000D01*
X154850001Y-104525000D02*
X156050001Y-104525000D01*
X156050001Y-106275000D02*
X154850001Y-106275000D01*
X156050001Y-108475000D02*
X154850001Y-108475000D01*
X154850001Y-106725000D02*
X156050001Y-106725000D01*
X154850000Y-111225000D02*
X156050000Y-111225000D01*
X156050000Y-112975000D02*
X154850000Y-112975000D01*
X151175000Y-107950001D02*
X151175000Y-109150001D01*
X149425000Y-109150001D02*
X149425000Y-107950001D01*
X149425000Y-105750000D02*
X149425000Y-104550000D01*
X151175000Y-104550000D02*
X151175000Y-105750000D01*
X141700000Y-101925000D02*
X142900000Y-101925000D01*
X142900000Y-103675000D02*
X141700000Y-103675000D01*
X136250000Y-104625000D02*
X137450000Y-104625000D01*
X137450000Y-106375000D02*
X136250000Y-106375000D01*
X128125000Y-112700000D02*
X128125000Y-111500000D01*
X129875000Y-111500000D02*
X129875000Y-112700000D01*
X128125000Y-109300000D02*
X128125000Y-108100000D01*
X129875000Y-108100000D02*
X129875000Y-109300000D01*
X124625000Y-112700000D02*
X124625000Y-111500000D01*
X126375000Y-111500000D02*
X126375000Y-112700000D01*
X124625000Y-109300000D02*
X124625000Y-108100000D01*
X126375000Y-108100000D02*
X126375000Y-109300000D01*
X137700000Y-110975000D02*
X136500000Y-110975000D01*
X136500000Y-109225000D02*
X137700000Y-109225000D01*
X155100000Y-110650000D02*
X156100000Y-110650000D01*
X156100000Y-108950000D02*
X155100000Y-108950000D01*
X154800000Y-95575000D02*
X152800000Y-95575000D01*
X152800000Y-97625000D02*
X154800000Y-97625000D01*
X151200000Y-115850000D02*
X150200000Y-115850000D01*
X150200000Y-117550000D02*
X151200000Y-117550000D01*
X137400000Y-117450000D02*
X138400000Y-117450000D01*
X138400000Y-115750000D02*
X137400000Y-115750000D01*
X133700000Y-117450000D02*
X134700000Y-117450000D01*
X134700000Y-115750000D02*
X133700000Y-115750000D01*
X151150000Y-101700000D02*
X151150000Y-100700000D01*
X149450000Y-100700000D02*
X149450000Y-101700000D01*
X140350000Y-102500000D02*
X140350000Y-101500000D01*
X138650000Y-101500000D02*
X138650000Y-102500000D01*
X137200000Y-102550000D02*
X136200000Y-102550000D01*
X136200000Y-104250000D02*
X137200000Y-104250000D01*
X132025000Y-102500000D02*
X132025000Y-100500000D01*
X129975000Y-100500000D02*
X129975000Y-102500000D01*
X129425000Y-102500000D02*
X129425000Y-100500000D01*
X127375000Y-100500000D02*
X127375000Y-102500000D01*
X123850000Y-112700000D02*
X123850000Y-111700000D01*
X122150000Y-111700000D02*
X122150000Y-112700000D01*
X133000000Y-110450000D02*
X132000000Y-110450000D01*
X132000000Y-112150000D02*
X133000000Y-112150000D01*
X152100000Y-77975000D02*
X157300000Y-77975000D01*
X157300000Y-81625000D02*
X152100000Y-81625000D01*
X171000000Y-100125000D02*
X165800000Y-100125000D01*
X165800000Y-96475000D02*
X171000000Y-96475000D01*
X183750440Y-79950200D02*
X183750440Y-89449800D01*
X177250580Y-84948920D02*
X179249560Y-84948920D01*
X179249560Y-84948920D02*
X179249560Y-86450060D01*
X179249560Y-86450060D02*
X177250580Y-86450060D01*
X179249560Y-79950200D02*
X179249560Y-82949940D01*
X179249560Y-82949940D02*
X177298840Y-82949940D01*
X177250580Y-89449800D02*
X185749420Y-89449800D01*
X185749420Y-89449800D02*
X185749420Y-79950200D01*
X185749420Y-79950200D02*
X177250580Y-79950200D01*
X177250580Y-79950200D02*
X177250580Y-89449800D01*
X183750440Y-91650200D02*
X183750440Y-101149800D01*
X177250580Y-96648920D02*
X179249560Y-96648920D01*
X179249560Y-96648920D02*
X179249560Y-98150060D01*
X179249560Y-98150060D02*
X177250580Y-98150060D01*
X179249560Y-91650200D02*
X179249560Y-94649940D01*
X179249560Y-94649940D02*
X177298840Y-94649940D01*
X177250580Y-101149800D02*
X185749420Y-101149800D01*
X185749420Y-101149800D02*
X185749420Y-91650200D01*
X185749420Y-91650200D02*
X177250580Y-91650200D01*
X177250580Y-91650200D02*
X177250580Y-101149800D01*
X128600000Y-92200000D02*
X117600000Y-92200000D01*
X117600000Y-92200000D02*
X117600000Y-78700000D01*
X117600000Y-78700000D02*
X139600000Y-78700000D01*
X139600000Y-78700000D02*
X139600000Y-92200000D01*
X139600000Y-92200000D02*
X128600000Y-92200000D01*
X160800000Y-76000000D02*
X160800000Y-77000000D01*
X176800000Y-94000000D02*
X160800000Y-94000000D01*
X160800000Y-77000000D02*
X160800000Y-94000000D01*
X176800000Y-94000000D02*
X176800000Y-76000000D01*
X168800000Y-76000000D02*
X176800000Y-76000000D01*
X160800000Y-76000000D02*
X168800000Y-76000000D01*
X146725000Y-104625000D02*
X146725000Y-104732500D01*
X146725000Y-114575000D02*
X146725000Y-114467500D01*
X142075000Y-114575000D02*
X142075000Y-114467500D01*
X141000000Y-104575000D02*
X146725000Y-104575000D01*
X142075000Y-114575000D02*
X146725000Y-114575000D01*
D15*
X140000000Y-115900000D02*
X140000000Y-117500000D01*
X140000000Y-117500000D02*
X142600000Y-117500000D01*
X140000000Y-115900000D02*
X142600000Y-115900000D01*
X148650000Y-117600000D02*
X148650000Y-116000000D01*
X148650000Y-116000000D02*
X146050000Y-116000000D01*
X148650000Y-117600000D02*
X146050000Y-117600000D01*
D14*
X126725000Y-103500000D02*
X126725000Y-101500000D01*
X124675000Y-101500000D02*
X124675000Y-103500000D01*
X110292000Y-86112000D02*
X110292000Y-92208000D01*
X110292000Y-92208000D02*
X115118000Y-92208000D01*
X115118000Y-92208000D02*
X115118000Y-86112000D01*
X115118000Y-86112000D02*
X110292000Y-86112000D01*
X110392000Y-78712000D02*
X110392000Y-84808000D01*
X110392000Y-84808000D02*
X115218000Y-84808000D01*
X115218000Y-84808000D02*
X115218000Y-78712000D01*
X115218000Y-78712000D02*
X110392000Y-78712000D01*
X142092000Y-78812000D02*
X142092000Y-84908000D01*
X142092000Y-84908000D02*
X146918000Y-84908000D01*
X146918000Y-84908000D02*
X146918000Y-78812000D01*
X146918000Y-78812000D02*
X142092000Y-78812000D01*
X142092000Y-86112000D02*
X142092000Y-92208000D01*
X142092000Y-92208000D02*
X146918000Y-92208000D01*
X146918000Y-92208000D02*
X146918000Y-86112000D01*
X146918000Y-86112000D02*
X142092000Y-86112000D01*
X176561905Y-119752381D02*
X176561905Y-118752381D01*
X176942858Y-118752381D01*
X177038096Y-118800000D01*
X177085715Y-118847619D01*
X177133334Y-118942857D01*
X177133334Y-119085714D01*
X177085715Y-119180952D01*
X177038096Y-119228571D01*
X176942858Y-119276190D01*
X176561905Y-119276190D01*
X177466667Y-118752381D02*
X178085715Y-118752381D01*
X177752381Y-119133333D01*
X177895239Y-119133333D01*
X177990477Y-119180952D01*
X178038096Y-119228571D01*
X178085715Y-119323810D01*
X178085715Y-119561905D01*
X178038096Y-119657143D01*
X177990477Y-119704762D01*
X177895239Y-119752381D01*
X177609524Y-119752381D01*
X177514286Y-119704762D01*
X177466667Y-119657143D01*
X153857143Y-88452381D02*
X153523809Y-87976190D01*
X153285714Y-88452381D02*
X153285714Y-87452381D01*
X153666667Y-87452381D01*
X153761905Y-87500000D01*
X153809524Y-87547619D01*
X153857143Y-87642857D01*
X153857143Y-87785714D01*
X153809524Y-87880952D01*
X153761905Y-87928571D01*
X153666667Y-87976190D01*
X153285714Y-87976190D01*
X154809524Y-88452381D02*
X154238095Y-88452381D01*
X154523809Y-88452381D02*
X154523809Y-87452381D01*
X154428571Y-87595238D01*
X154333333Y-87690476D01*
X154238095Y-87738095D01*
X155428571Y-87452381D02*
X155523810Y-87452381D01*
X155619048Y-87500000D01*
X155666667Y-87547619D01*
X155714286Y-87642857D01*
X155761905Y-87833333D01*
X155761905Y-88071429D01*
X155714286Y-88261905D01*
X155666667Y-88357143D01*
X155619048Y-88404762D01*
X155523810Y-88452381D01*
X155428571Y-88452381D01*
X155333333Y-88404762D01*
X155285714Y-88357143D01*
X155238095Y-88261905D01*
X155190476Y-88071429D01*
X155190476Y-87833333D01*
X155238095Y-87642857D01*
X155285714Y-87547619D01*
X155333333Y-87500000D01*
X155428571Y-87452381D01*
X159052381Y-118642857D02*
X158576190Y-118976191D01*
X159052381Y-119214286D02*
X158052381Y-119214286D01*
X158052381Y-118833333D01*
X158100000Y-118738095D01*
X158147619Y-118690476D01*
X158242857Y-118642857D01*
X158385714Y-118642857D01*
X158480952Y-118690476D01*
X158528571Y-118738095D01*
X158576190Y-118833333D01*
X158576190Y-119214286D01*
X159052381Y-117690476D02*
X159052381Y-118261905D01*
X159052381Y-117976191D02*
X158052381Y-117976191D01*
X158195238Y-118071429D01*
X158290476Y-118166667D01*
X158338095Y-118261905D01*
X158052381Y-116833333D02*
X158052381Y-117023810D01*
X158100000Y-117119048D01*
X158147619Y-117166667D01*
X158290476Y-117261905D01*
X158480952Y-117309524D01*
X158861905Y-117309524D01*
X158957143Y-117261905D01*
X159004762Y-117214286D01*
X159052381Y-117119048D01*
X159052381Y-116928571D01*
X159004762Y-116833333D01*
X158957143Y-116785714D01*
X158861905Y-116738095D01*
X158623810Y-116738095D01*
X158528571Y-116785714D01*
X158480952Y-116833333D01*
X158433333Y-116928571D01*
X158433333Y-117119048D01*
X158480952Y-117214286D01*
X158528571Y-117261905D01*
X158623810Y-117309524D01*
X157857143Y-105852381D02*
X157523809Y-105376190D01*
X157285714Y-105852381D02*
X157285714Y-104852381D01*
X157666667Y-104852381D01*
X157761905Y-104900000D01*
X157809524Y-104947619D01*
X157857143Y-105042857D01*
X157857143Y-105185714D01*
X157809524Y-105280952D01*
X157761905Y-105328571D01*
X157666667Y-105376190D01*
X157285714Y-105376190D01*
X158809524Y-105852381D02*
X158238095Y-105852381D01*
X158523809Y-105852381D02*
X158523809Y-104852381D01*
X158428571Y-104995238D01*
X158333333Y-105090476D01*
X158238095Y-105138095D01*
X159714286Y-104852381D02*
X159238095Y-104852381D01*
X159190476Y-105328571D01*
X159238095Y-105280952D01*
X159333333Y-105233333D01*
X159571429Y-105233333D01*
X159666667Y-105280952D01*
X159714286Y-105328571D01*
X159761905Y-105423810D01*
X159761905Y-105661905D01*
X159714286Y-105757143D01*
X159666667Y-105804762D01*
X159571429Y-105852381D01*
X159333333Y-105852381D01*
X159238095Y-105804762D01*
X159190476Y-105757143D01*
X157857143Y-108052381D02*
X157523809Y-107576190D01*
X157285714Y-108052381D02*
X157285714Y-107052381D01*
X157666667Y-107052381D01*
X157761905Y-107100000D01*
X157809524Y-107147619D01*
X157857143Y-107242857D01*
X157857143Y-107385714D01*
X157809524Y-107480952D01*
X157761905Y-107528571D01*
X157666667Y-107576190D01*
X157285714Y-107576190D01*
X158809524Y-108052381D02*
X158238095Y-108052381D01*
X158523809Y-108052381D02*
X158523809Y-107052381D01*
X158428571Y-107195238D01*
X158333333Y-107290476D01*
X158238095Y-107338095D01*
X159666667Y-107385714D02*
X159666667Y-108052381D01*
X159428571Y-107004762D02*
X159190476Y-107719048D01*
X159809524Y-107719048D01*
X154957143Y-114352381D02*
X154623809Y-113876190D01*
X154385714Y-114352381D02*
X154385714Y-113352381D01*
X154766667Y-113352381D01*
X154861905Y-113400000D01*
X154909524Y-113447619D01*
X154957143Y-113542857D01*
X154957143Y-113685714D01*
X154909524Y-113780952D01*
X154861905Y-113828571D01*
X154766667Y-113876190D01*
X154385714Y-113876190D01*
X155909524Y-114352381D02*
X155338095Y-114352381D01*
X155623809Y-114352381D02*
X155623809Y-113352381D01*
X155528571Y-113495238D01*
X155433333Y-113590476D01*
X155338095Y-113638095D01*
X156242857Y-113352381D02*
X156861905Y-113352381D01*
X156528571Y-113733333D01*
X156671429Y-113733333D01*
X156766667Y-113780952D01*
X156814286Y-113828571D01*
X156861905Y-113923810D01*
X156861905Y-114161905D01*
X156814286Y-114257143D01*
X156766667Y-114304762D01*
X156671429Y-114352381D01*
X156385714Y-114352381D01*
X156290476Y-114304762D01*
X156242857Y-114257143D01*
X152552381Y-109142857D02*
X152076190Y-109476191D01*
X152552381Y-109714286D02*
X151552381Y-109714286D01*
X151552381Y-109333333D01*
X151600000Y-109238095D01*
X151647619Y-109190476D01*
X151742857Y-109142857D01*
X151885714Y-109142857D01*
X151980952Y-109190476D01*
X152028571Y-109238095D01*
X152076190Y-109333333D01*
X152076190Y-109714286D01*
X152552381Y-108190476D02*
X152552381Y-108761905D01*
X152552381Y-108476191D02*
X151552381Y-108476191D01*
X151695238Y-108571429D01*
X151790476Y-108666667D01*
X151838095Y-108761905D01*
X152552381Y-107238095D02*
X152552381Y-107809524D01*
X152552381Y-107523810D02*
X151552381Y-107523810D01*
X151695238Y-107619048D01*
X151790476Y-107714286D01*
X151838095Y-107809524D01*
X152552381Y-105266666D02*
X152076190Y-105600000D01*
X152552381Y-105838095D02*
X151552381Y-105838095D01*
X151552381Y-105457142D01*
X151600000Y-105361904D01*
X151647619Y-105314285D01*
X151742857Y-105266666D01*
X151885714Y-105266666D01*
X151980952Y-105314285D01*
X152028571Y-105361904D01*
X152076190Y-105457142D01*
X152076190Y-105838095D01*
X152552381Y-104790476D02*
X152552381Y-104600000D01*
X152504762Y-104504761D01*
X152457143Y-104457142D01*
X152314286Y-104361904D01*
X152123810Y-104314285D01*
X151742857Y-104314285D01*
X151647619Y-104361904D01*
X151600000Y-104409523D01*
X151552381Y-104504761D01*
X151552381Y-104695238D01*
X151600000Y-104790476D01*
X151647619Y-104838095D01*
X151742857Y-104885714D01*
X151980952Y-104885714D01*
X152076190Y-104838095D01*
X152123810Y-104790476D01*
X152171429Y-104695238D01*
X152171429Y-104504761D01*
X152123810Y-104409523D01*
X152076190Y-104361904D01*
X151980952Y-104314285D01*
X142233334Y-101552381D02*
X141900000Y-101076190D01*
X141661905Y-101552381D02*
X141661905Y-100552381D01*
X142042858Y-100552381D01*
X142138096Y-100600000D01*
X142185715Y-100647619D01*
X142233334Y-100742857D01*
X142233334Y-100885714D01*
X142185715Y-100980952D01*
X142138096Y-101028571D01*
X142042858Y-101076190D01*
X141661905Y-101076190D01*
X142804762Y-100980952D02*
X142709524Y-100933333D01*
X142661905Y-100885714D01*
X142614286Y-100790476D01*
X142614286Y-100742857D01*
X142661905Y-100647619D01*
X142709524Y-100600000D01*
X142804762Y-100552381D01*
X142995239Y-100552381D01*
X143090477Y-100600000D01*
X143138096Y-100647619D01*
X143185715Y-100742857D01*
X143185715Y-100790476D01*
X143138096Y-100885714D01*
X143090477Y-100933333D01*
X142995239Y-100980952D01*
X142804762Y-100980952D01*
X142709524Y-101028571D01*
X142661905Y-101076190D01*
X142614286Y-101171429D01*
X142614286Y-101361905D01*
X142661905Y-101457143D01*
X142709524Y-101504762D01*
X142804762Y-101552381D01*
X142995239Y-101552381D01*
X143090477Y-101504762D01*
X143138096Y-101457143D01*
X143185715Y-101361905D01*
X143185715Y-101171429D01*
X143138096Y-101076190D01*
X143090477Y-101028571D01*
X142995239Y-100980952D01*
X139233334Y-106052381D02*
X138900000Y-105576190D01*
X138661905Y-106052381D02*
X138661905Y-105052381D01*
X139042858Y-105052381D01*
X139138096Y-105100000D01*
X139185715Y-105147619D01*
X139233334Y-105242857D01*
X139233334Y-105385714D01*
X139185715Y-105480952D01*
X139138096Y-105528571D01*
X139042858Y-105576190D01*
X138661905Y-105576190D01*
X139566667Y-105052381D02*
X140233334Y-105052381D01*
X139804762Y-106052381D01*
X129552381Y-114766666D02*
X129076190Y-115100000D01*
X129552381Y-115338095D02*
X128552381Y-115338095D01*
X128552381Y-114957142D01*
X128600000Y-114861904D01*
X128647619Y-114814285D01*
X128742857Y-114766666D01*
X128885714Y-114766666D01*
X128980952Y-114814285D01*
X129028571Y-114861904D01*
X129076190Y-114957142D01*
X129076190Y-115338095D01*
X128552381Y-113909523D02*
X128552381Y-114100000D01*
X128600000Y-114195238D01*
X128647619Y-114242857D01*
X128790476Y-114338095D01*
X128980952Y-114385714D01*
X129361905Y-114385714D01*
X129457143Y-114338095D01*
X129504762Y-114290476D01*
X129552381Y-114195238D01*
X129552381Y-114004761D01*
X129504762Y-113909523D01*
X129457143Y-113861904D01*
X129361905Y-113814285D01*
X129123810Y-113814285D01*
X129028571Y-113861904D01*
X128980952Y-113909523D01*
X128933333Y-114004761D01*
X128933333Y-114195238D01*
X128980952Y-114290476D01*
X129028571Y-114338095D01*
X129123810Y-114385714D01*
X131252381Y-108866666D02*
X130776190Y-109200000D01*
X131252381Y-109438095D02*
X130252381Y-109438095D01*
X130252381Y-109057142D01*
X130300000Y-108961904D01*
X130347619Y-108914285D01*
X130442857Y-108866666D01*
X130585714Y-108866666D01*
X130680952Y-108914285D01*
X130728571Y-108961904D01*
X130776190Y-109057142D01*
X130776190Y-109438095D01*
X130252381Y-107961904D02*
X130252381Y-108438095D01*
X130728571Y-108485714D01*
X130680952Y-108438095D01*
X130633333Y-108342857D01*
X130633333Y-108104761D01*
X130680952Y-108009523D01*
X130728571Y-107961904D01*
X130823810Y-107914285D01*
X131061905Y-107914285D01*
X131157143Y-107961904D01*
X131204762Y-108009523D01*
X131252381Y-108104761D01*
X131252381Y-108342857D01*
X131204762Y-108438095D01*
X131157143Y-108485714D01*
X126052381Y-115066666D02*
X125576190Y-115400000D01*
X126052381Y-115638095D02*
X125052381Y-115638095D01*
X125052381Y-115257142D01*
X125100000Y-115161904D01*
X125147619Y-115114285D01*
X125242857Y-115066666D01*
X125385714Y-115066666D01*
X125480952Y-115114285D01*
X125528571Y-115161904D01*
X125576190Y-115257142D01*
X125576190Y-115638095D01*
X125385714Y-114209523D02*
X126052381Y-114209523D01*
X125004762Y-114447619D02*
X125719048Y-114685714D01*
X125719048Y-114066666D01*
X124252381Y-108866666D02*
X123776190Y-109200000D01*
X124252381Y-109438095D02*
X123252381Y-109438095D01*
X123252381Y-109057142D01*
X123300000Y-108961904D01*
X123347619Y-108914285D01*
X123442857Y-108866666D01*
X123585714Y-108866666D01*
X123680952Y-108914285D01*
X123728571Y-108961904D01*
X123776190Y-109057142D01*
X123776190Y-109438095D01*
X123252381Y-108533333D02*
X123252381Y-107914285D01*
X123633333Y-108247619D01*
X123633333Y-108104761D01*
X123680952Y-108009523D01*
X123728571Y-107961904D01*
X123823810Y-107914285D01*
X124061905Y-107914285D01*
X124157143Y-107961904D01*
X124204762Y-108009523D01*
X124252381Y-108104761D01*
X124252381Y-108390476D01*
X124204762Y-108485714D01*
X124157143Y-108533333D01*
X136933334Y-112352381D02*
X136600000Y-111876190D01*
X136361905Y-112352381D02*
X136361905Y-111352381D01*
X136742858Y-111352381D01*
X136838096Y-111400000D01*
X136885715Y-111447619D01*
X136933334Y-111542857D01*
X136933334Y-111685714D01*
X136885715Y-111780952D01*
X136838096Y-111828571D01*
X136742858Y-111876190D01*
X136361905Y-111876190D01*
X137314286Y-111447619D02*
X137361905Y-111400000D01*
X137457143Y-111352381D01*
X137695239Y-111352381D01*
X137790477Y-111400000D01*
X137838096Y-111447619D01*
X137885715Y-111542857D01*
X137885715Y-111638095D01*
X137838096Y-111780952D01*
X137266667Y-112352381D01*
X137885715Y-112352381D01*
X158157143Y-110157143D02*
X158109524Y-110204762D01*
X157966667Y-110252381D01*
X157871429Y-110252381D01*
X157728571Y-110204762D01*
X157633333Y-110109524D01*
X157585714Y-110014286D01*
X157538095Y-109823810D01*
X157538095Y-109680952D01*
X157585714Y-109490476D01*
X157633333Y-109395238D01*
X157728571Y-109300000D01*
X157871429Y-109252381D01*
X157966667Y-109252381D01*
X158109524Y-109300000D01*
X158157143Y-109347619D01*
X159109524Y-110252381D02*
X158538095Y-110252381D01*
X158823809Y-110252381D02*
X158823809Y-109252381D01*
X158728571Y-109395238D01*
X158633333Y-109490476D01*
X158538095Y-109538095D01*
X159442857Y-109252381D02*
X160061905Y-109252381D01*
X159728571Y-109633333D01*
X159871429Y-109633333D01*
X159966667Y-109680952D01*
X160014286Y-109728571D01*
X160061905Y-109823810D01*
X160061905Y-110061905D01*
X160014286Y-110157143D01*
X159966667Y-110204762D01*
X159871429Y-110252381D01*
X159585714Y-110252381D01*
X159490476Y-110204762D01*
X159442857Y-110157143D01*
X153257143Y-98957143D02*
X153209524Y-99004762D01*
X153066667Y-99052381D01*
X152971429Y-99052381D01*
X152828571Y-99004762D01*
X152733333Y-98909524D01*
X152685714Y-98814286D01*
X152638095Y-98623810D01*
X152638095Y-98480952D01*
X152685714Y-98290476D01*
X152733333Y-98195238D01*
X152828571Y-98100000D01*
X152971429Y-98052381D01*
X153066667Y-98052381D01*
X153209524Y-98100000D01*
X153257143Y-98147619D01*
X154209524Y-99052381D02*
X153638095Y-99052381D01*
X153923809Y-99052381D02*
X153923809Y-98052381D01*
X153828571Y-98195238D01*
X153733333Y-98290476D01*
X153638095Y-98338095D01*
X154590476Y-98147619D02*
X154638095Y-98100000D01*
X154733333Y-98052381D01*
X154971429Y-98052381D01*
X155066667Y-98100000D01*
X155114286Y-98147619D01*
X155161905Y-98242857D01*
X155161905Y-98338095D01*
X155114286Y-98480952D01*
X154542857Y-99052381D01*
X155161905Y-99052381D01*
X150157143Y-118757143D02*
X150109524Y-118804762D01*
X149966667Y-118852381D01*
X149871429Y-118852381D01*
X149728571Y-118804762D01*
X149633333Y-118709524D01*
X149585714Y-118614286D01*
X149538095Y-118423810D01*
X149538095Y-118280952D01*
X149585714Y-118090476D01*
X149633333Y-117995238D01*
X149728571Y-117900000D01*
X149871429Y-117852381D01*
X149966667Y-117852381D01*
X150109524Y-117900000D01*
X150157143Y-117947619D01*
X151109524Y-118852381D02*
X150538095Y-118852381D01*
X150823809Y-118852381D02*
X150823809Y-117852381D01*
X150728571Y-117995238D01*
X150633333Y-118090476D01*
X150538095Y-118138095D01*
X152061905Y-118852381D02*
X151490476Y-118852381D01*
X151776190Y-118852381D02*
X151776190Y-117852381D01*
X151680952Y-117995238D01*
X151585714Y-118090476D01*
X151490476Y-118138095D01*
X137357143Y-118857143D02*
X137309524Y-118904762D01*
X137166667Y-118952381D01*
X137071429Y-118952381D01*
X136928571Y-118904762D01*
X136833333Y-118809524D01*
X136785714Y-118714286D01*
X136738095Y-118523810D01*
X136738095Y-118380952D01*
X136785714Y-118190476D01*
X136833333Y-118095238D01*
X136928571Y-118000000D01*
X137071429Y-117952381D01*
X137166667Y-117952381D01*
X137309524Y-118000000D01*
X137357143Y-118047619D01*
X138309524Y-118952381D02*
X137738095Y-118952381D01*
X138023809Y-118952381D02*
X138023809Y-117952381D01*
X137928571Y-118095238D01*
X137833333Y-118190476D01*
X137738095Y-118238095D01*
X138928571Y-117952381D02*
X139023810Y-117952381D01*
X139119048Y-118000000D01*
X139166667Y-118047619D01*
X139214286Y-118142857D01*
X139261905Y-118333333D01*
X139261905Y-118571429D01*
X139214286Y-118761905D01*
X139166667Y-118857143D01*
X139119048Y-118904762D01*
X139023810Y-118952381D01*
X138928571Y-118952381D01*
X138833333Y-118904762D01*
X138785714Y-118857143D01*
X138738095Y-118761905D01*
X138690476Y-118571429D01*
X138690476Y-118333333D01*
X138738095Y-118142857D01*
X138785714Y-118047619D01*
X138833333Y-118000000D01*
X138928571Y-117952381D01*
X134033334Y-118757143D02*
X133985715Y-118804762D01*
X133842858Y-118852381D01*
X133747620Y-118852381D01*
X133604762Y-118804762D01*
X133509524Y-118709524D01*
X133461905Y-118614286D01*
X133414286Y-118423810D01*
X133414286Y-118280952D01*
X133461905Y-118090476D01*
X133509524Y-117995238D01*
X133604762Y-117900000D01*
X133747620Y-117852381D01*
X133842858Y-117852381D01*
X133985715Y-117900000D01*
X134033334Y-117947619D01*
X134509524Y-118852381D02*
X134700000Y-118852381D01*
X134795239Y-118804762D01*
X134842858Y-118757143D01*
X134938096Y-118614286D01*
X134985715Y-118423810D01*
X134985715Y-118042857D01*
X134938096Y-117947619D01*
X134890477Y-117900000D01*
X134795239Y-117852381D01*
X134604762Y-117852381D01*
X134509524Y-117900000D01*
X134461905Y-117947619D01*
X134414286Y-118042857D01*
X134414286Y-118280952D01*
X134461905Y-118376190D01*
X134509524Y-118423810D01*
X134604762Y-118471429D01*
X134795239Y-118471429D01*
X134890477Y-118423810D01*
X134938096Y-118376190D01*
X134985715Y-118280952D01*
X150757143Y-98566666D02*
X150804762Y-98614285D01*
X150852381Y-98757142D01*
X150852381Y-98852380D01*
X150804762Y-98995238D01*
X150709524Y-99090476D01*
X150614286Y-99138095D01*
X150423810Y-99185714D01*
X150280952Y-99185714D01*
X150090476Y-99138095D01*
X149995238Y-99090476D01*
X149900000Y-98995238D01*
X149852381Y-98852380D01*
X149852381Y-98757142D01*
X149900000Y-98614285D01*
X149947619Y-98566666D01*
X150280952Y-97995238D02*
X150233333Y-98090476D01*
X150185714Y-98138095D01*
X150090476Y-98185714D01*
X150042857Y-98185714D01*
X149947619Y-98138095D01*
X149900000Y-98090476D01*
X149852381Y-97995238D01*
X149852381Y-97804761D01*
X149900000Y-97709523D01*
X149947619Y-97661904D01*
X150042857Y-97614285D01*
X150090476Y-97614285D01*
X150185714Y-97661904D01*
X150233333Y-97709523D01*
X150280952Y-97804761D01*
X150280952Y-97995238D01*
X150328571Y-98090476D01*
X150376190Y-98138095D01*
X150471429Y-98185714D01*
X150661905Y-98185714D01*
X150757143Y-98138095D01*
X150804762Y-98090476D01*
X150852381Y-97995238D01*
X150852381Y-97804761D01*
X150804762Y-97709523D01*
X150757143Y-97661904D01*
X150661905Y-97614285D01*
X150471429Y-97614285D01*
X150376190Y-97661904D01*
X150328571Y-97709523D01*
X150280952Y-97804761D01*
X139957143Y-99466666D02*
X140004762Y-99514285D01*
X140052381Y-99657142D01*
X140052381Y-99752380D01*
X140004762Y-99895238D01*
X139909524Y-99990476D01*
X139814286Y-100038095D01*
X139623810Y-100085714D01*
X139480952Y-100085714D01*
X139290476Y-100038095D01*
X139195238Y-99990476D01*
X139100000Y-99895238D01*
X139052381Y-99752380D01*
X139052381Y-99657142D01*
X139100000Y-99514285D01*
X139147619Y-99466666D01*
X139052381Y-98609523D02*
X139052381Y-98800000D01*
X139100000Y-98895238D01*
X139147619Y-98942857D01*
X139290476Y-99038095D01*
X139480952Y-99085714D01*
X139861905Y-99085714D01*
X139957143Y-99038095D01*
X140004762Y-98990476D01*
X140052381Y-98895238D01*
X140052381Y-98704761D01*
X140004762Y-98609523D01*
X139957143Y-98561904D01*
X139861905Y-98514285D01*
X139623810Y-98514285D01*
X139528571Y-98561904D01*
X139480952Y-98609523D01*
X139433333Y-98704761D01*
X139433333Y-98895238D01*
X139480952Y-98990476D01*
X139528571Y-99038095D01*
X139623810Y-99085714D01*
X135733334Y-102057143D02*
X135685715Y-102104762D01*
X135542858Y-102152381D01*
X135447620Y-102152381D01*
X135304762Y-102104762D01*
X135209524Y-102009524D01*
X135161905Y-101914286D01*
X135114286Y-101723810D01*
X135114286Y-101580952D01*
X135161905Y-101390476D01*
X135209524Y-101295238D01*
X135304762Y-101200000D01*
X135447620Y-101152381D01*
X135542858Y-101152381D01*
X135685715Y-101200000D01*
X135733334Y-101247619D01*
X136638096Y-101152381D02*
X136161905Y-101152381D01*
X136114286Y-101628571D01*
X136161905Y-101580952D01*
X136257143Y-101533333D01*
X136495239Y-101533333D01*
X136590477Y-101580952D01*
X136638096Y-101628571D01*
X136685715Y-101723810D01*
X136685715Y-101961905D01*
X136638096Y-102057143D01*
X136590477Y-102104762D01*
X136495239Y-102152381D01*
X136257143Y-102152381D01*
X136161905Y-102104762D01*
X136114286Y-102057143D01*
X131357143Y-98466666D02*
X131404762Y-98514285D01*
X131452381Y-98657142D01*
X131452381Y-98752380D01*
X131404762Y-98895238D01*
X131309524Y-98990476D01*
X131214286Y-99038095D01*
X131023810Y-99085714D01*
X130880952Y-99085714D01*
X130690476Y-99038095D01*
X130595238Y-98990476D01*
X130500000Y-98895238D01*
X130452381Y-98752380D01*
X130452381Y-98657142D01*
X130500000Y-98514285D01*
X130547619Y-98466666D01*
X130785714Y-97609523D02*
X131452381Y-97609523D01*
X130404762Y-97847619D02*
X131119048Y-98085714D01*
X131119048Y-97466666D01*
X128757143Y-98466666D02*
X128804762Y-98514285D01*
X128852381Y-98657142D01*
X128852381Y-98752380D01*
X128804762Y-98895238D01*
X128709524Y-98990476D01*
X128614286Y-99038095D01*
X128423810Y-99085714D01*
X128280952Y-99085714D01*
X128090476Y-99038095D01*
X127995238Y-98990476D01*
X127900000Y-98895238D01*
X127852381Y-98752380D01*
X127852381Y-98657142D01*
X127900000Y-98514285D01*
X127947619Y-98466666D01*
X127852381Y-98133333D02*
X127852381Y-97514285D01*
X128233333Y-97847619D01*
X128233333Y-97704761D01*
X128280952Y-97609523D01*
X128328571Y-97561904D01*
X128423810Y-97514285D01*
X128661905Y-97514285D01*
X128757143Y-97561904D01*
X128804762Y-97609523D01*
X128852381Y-97704761D01*
X128852381Y-97990476D01*
X128804762Y-98085714D01*
X128757143Y-98133333D01*
X123357143Y-115266666D02*
X123404762Y-115314285D01*
X123452381Y-115457142D01*
X123452381Y-115552380D01*
X123404762Y-115695238D01*
X123309524Y-115790476D01*
X123214286Y-115838095D01*
X123023810Y-115885714D01*
X122880952Y-115885714D01*
X122690476Y-115838095D01*
X122595238Y-115790476D01*
X122500000Y-115695238D01*
X122452381Y-115552380D01*
X122452381Y-115457142D01*
X122500000Y-115314285D01*
X122547619Y-115266666D01*
X122547619Y-114885714D02*
X122500000Y-114838095D01*
X122452381Y-114742857D01*
X122452381Y-114504761D01*
X122500000Y-114409523D01*
X122547619Y-114361904D01*
X122642857Y-114314285D01*
X122738095Y-114314285D01*
X122880952Y-114361904D01*
X123452381Y-114933333D01*
X123452381Y-114314285D01*
X132333334Y-113457143D02*
X132285715Y-113504762D01*
X132142858Y-113552381D01*
X132047620Y-113552381D01*
X131904762Y-113504762D01*
X131809524Y-113409524D01*
X131761905Y-113314286D01*
X131714286Y-113123810D01*
X131714286Y-112980952D01*
X131761905Y-112790476D01*
X131809524Y-112695238D01*
X131904762Y-112600000D01*
X132047620Y-112552381D01*
X132142858Y-112552381D01*
X132285715Y-112600000D01*
X132333334Y-112647619D01*
X133285715Y-113552381D02*
X132714286Y-113552381D01*
X133000000Y-113552381D02*
X133000000Y-112552381D01*
X132904762Y-112695238D01*
X132809524Y-112790476D01*
X132714286Y-112838095D01*
X153957143Y-77552381D02*
X153623809Y-77076190D01*
X153385714Y-77552381D02*
X153385714Y-76552381D01*
X153766667Y-76552381D01*
X153861905Y-76600000D01*
X153909524Y-76647619D01*
X153957143Y-76742857D01*
X153957143Y-76885714D01*
X153909524Y-76980952D01*
X153861905Y-77028571D01*
X153766667Y-77076190D01*
X153385714Y-77076190D01*
X154909524Y-77552381D02*
X154338095Y-77552381D01*
X154623809Y-77552381D02*
X154623809Y-76552381D01*
X154528571Y-76695238D01*
X154433333Y-76790476D01*
X154338095Y-76838095D01*
X155290476Y-76647619D02*
X155338095Y-76600000D01*
X155433333Y-76552381D01*
X155671429Y-76552381D01*
X155766667Y-76600000D01*
X155814286Y-76647619D01*
X155861905Y-76742857D01*
X155861905Y-76838095D01*
X155814286Y-76980952D01*
X155242857Y-77552381D01*
X155861905Y-77552381D01*
X168233334Y-101652381D02*
X167900000Y-101176190D01*
X167661905Y-101652381D02*
X167661905Y-100652381D01*
X168042858Y-100652381D01*
X168138096Y-100700000D01*
X168185715Y-100747619D01*
X168233334Y-100842857D01*
X168233334Y-100985714D01*
X168185715Y-101080952D01*
X168138096Y-101128571D01*
X168042858Y-101176190D01*
X167661905Y-101176190D01*
X169185715Y-101652381D02*
X168614286Y-101652381D01*
X168900000Y-101652381D02*
X168900000Y-100652381D01*
X168804762Y-100795238D01*
X168709524Y-100890476D01*
X168614286Y-100938095D01*
X147061905Y-101652381D02*
X147061905Y-100652381D01*
X147442858Y-100652381D01*
X147538096Y-100700000D01*
X147585715Y-100747619D01*
X147633334Y-100842857D01*
X147633334Y-100985714D01*
X147585715Y-101080952D01*
X147538096Y-101128571D01*
X147442858Y-101176190D01*
X147061905Y-101176190D01*
X148204762Y-101080952D02*
X148109524Y-101033333D01*
X148061905Y-100985714D01*
X148014286Y-100890476D01*
X148014286Y-100842857D01*
X148061905Y-100747619D01*
X148109524Y-100700000D01*
X148204762Y-100652381D01*
X148395239Y-100652381D01*
X148490477Y-100700000D01*
X148538096Y-100747619D01*
X148585715Y-100842857D01*
X148585715Y-100890476D01*
X148538096Y-100985714D01*
X148490477Y-101033333D01*
X148395239Y-101080952D01*
X148204762Y-101080952D01*
X148109524Y-101128571D01*
X148061905Y-101176190D01*
X148014286Y-101271429D01*
X148014286Y-101461905D01*
X148061905Y-101557143D01*
X148109524Y-101604762D01*
X148204762Y-101652381D01*
X148395239Y-101652381D01*
X148490477Y-101604762D01*
X148538096Y-101557143D01*
X148585715Y-101461905D01*
X148585715Y-101271429D01*
X148538096Y-101176190D01*
X148490477Y-101128571D01*
X148395239Y-101080952D01*
X144561905Y-101552381D02*
X144561905Y-100552381D01*
X144942858Y-100552381D01*
X145038096Y-100600000D01*
X145085715Y-100647619D01*
X145133334Y-100742857D01*
X145133334Y-100885714D01*
X145085715Y-100980952D01*
X145038096Y-101028571D01*
X144942858Y-101076190D01*
X144561905Y-101076190D01*
X145466667Y-100552381D02*
X146133334Y-100552381D01*
X145704762Y-101552381D01*
X130461905Y-106752381D02*
X130461905Y-105752381D01*
X130842858Y-105752381D01*
X130938096Y-105800000D01*
X130985715Y-105847619D01*
X131033334Y-105942857D01*
X131033334Y-106085714D01*
X130985715Y-106180952D01*
X130938096Y-106228571D01*
X130842858Y-106276190D01*
X130461905Y-106276190D01*
X131890477Y-105752381D02*
X131700000Y-105752381D01*
X131604762Y-105800000D01*
X131557143Y-105847619D01*
X131461905Y-105990476D01*
X131414286Y-106180952D01*
X131414286Y-106561905D01*
X131461905Y-106657143D01*
X131509524Y-106704762D01*
X131604762Y-106752381D01*
X131795239Y-106752381D01*
X131890477Y-106704762D01*
X131938096Y-106657143D01*
X131985715Y-106561905D01*
X131985715Y-106323810D01*
X131938096Y-106228571D01*
X131890477Y-106180952D01*
X131795239Y-106133333D01*
X131604762Y-106133333D01*
X131509524Y-106180952D01*
X131461905Y-106228571D01*
X131414286Y-106323810D01*
X156861905Y-73752381D02*
X156861905Y-72752381D01*
X157242858Y-72752381D01*
X157338096Y-72800000D01*
X157385715Y-72847619D01*
X157433334Y-72942857D01*
X157433334Y-73085714D01*
X157385715Y-73180952D01*
X157338096Y-73228571D01*
X157242858Y-73276190D01*
X156861905Y-73276190D01*
X158338096Y-72752381D02*
X157861905Y-72752381D01*
X157814286Y-73228571D01*
X157861905Y-73180952D01*
X157957143Y-73133333D01*
X158195239Y-73133333D01*
X158290477Y-73180952D01*
X158338096Y-73228571D01*
X158385715Y-73323810D01*
X158385715Y-73561905D01*
X158338096Y-73657143D01*
X158290477Y-73704762D01*
X158195239Y-73752381D01*
X157957143Y-73752381D01*
X157861905Y-73704762D01*
X157814286Y-73657143D01*
X134261905Y-97052381D02*
X134261905Y-96052381D01*
X134642858Y-96052381D01*
X134738096Y-96100000D01*
X134785715Y-96147619D01*
X134833334Y-96242857D01*
X134833334Y-96385714D01*
X134785715Y-96480952D01*
X134738096Y-96528571D01*
X134642858Y-96576190D01*
X134261905Y-96576190D01*
X135690477Y-96385714D02*
X135690477Y-97052381D01*
X135452381Y-96004762D02*
X135214286Y-96719048D01*
X135833334Y-96719048D01*
X178552381Y-91138095D02*
X177552381Y-91138095D01*
X177552381Y-90757142D01*
X177600000Y-90661904D01*
X177647619Y-90614285D01*
X177742857Y-90566666D01*
X177885714Y-90566666D01*
X177980952Y-90614285D01*
X178028571Y-90661904D01*
X178076190Y-90757142D01*
X178076190Y-91138095D01*
X177647619Y-90185714D02*
X177600000Y-90138095D01*
X177552381Y-90042857D01*
X177552381Y-89804761D01*
X177600000Y-89709523D01*
X177647619Y-89661904D01*
X177742857Y-89614285D01*
X177838095Y-89614285D01*
X177980952Y-89661904D01*
X178552381Y-90233333D01*
X178552381Y-89614285D01*
X178252381Y-102838095D02*
X177252381Y-102838095D01*
X177252381Y-102457142D01*
X177300000Y-102361904D01*
X177347619Y-102314285D01*
X177442857Y-102266666D01*
X177585714Y-102266666D01*
X177680952Y-102314285D01*
X177728571Y-102361904D01*
X177776190Y-102457142D01*
X177776190Y-102838095D01*
X178252381Y-101314285D02*
X178252381Y-101885714D01*
X178252381Y-101600000D02*
X177252381Y-101600000D01*
X177395238Y-101695238D01*
X177490476Y-101790476D01*
X177538095Y-101885714D01*
X118233334Y-78252381D02*
X117757143Y-78252381D01*
X117757143Y-77252381D01*
X119090477Y-78252381D02*
X118519048Y-78252381D01*
X118804762Y-78252381D02*
X118804762Y-77252381D01*
X118709524Y-77395238D01*
X118614286Y-77490476D01*
X118519048Y-77538095D01*
X168157143Y-73857143D02*
X168109524Y-73904762D01*
X167966667Y-73952381D01*
X167871429Y-73952381D01*
X167728571Y-73904762D01*
X167633333Y-73809524D01*
X167585714Y-73714286D01*
X167538095Y-73523810D01*
X167538095Y-73380952D01*
X167585714Y-73190476D01*
X167633333Y-73095238D01*
X167728571Y-73000000D01*
X167871429Y-72952381D01*
X167966667Y-72952381D01*
X168109524Y-73000000D01*
X168157143Y-73047619D01*
X169109524Y-73952381D02*
X168538095Y-73952381D01*
X168823809Y-73952381D02*
X168823809Y-72952381D01*
X168728571Y-73095238D01*
X168633333Y-73190476D01*
X168538095Y-73238095D01*
X169966667Y-73285714D02*
X169966667Y-73952381D01*
X169728571Y-72904762D02*
X169490476Y-73619048D01*
X170109524Y-73619048D01*
X139138095Y-113952381D02*
X139138095Y-114761905D01*
X139185714Y-114857143D01*
X139233333Y-114904762D01*
X139328571Y-114952381D01*
X139519048Y-114952381D01*
X139614286Y-114904762D01*
X139661905Y-114857143D01*
X139709524Y-114761905D01*
X139709524Y-113952381D01*
X140709524Y-114952381D02*
X140138095Y-114952381D01*
X140423809Y-114952381D02*
X140423809Y-113952381D01*
X140328571Y-114095238D01*
X140233333Y-114190476D01*
X140138095Y-114238095D01*
X140761905Y-118852381D02*
X140761905Y-117852381D01*
X141000000Y-117852381D01*
X141142858Y-117900000D01*
X141238096Y-117995238D01*
X141285715Y-118090476D01*
X141333334Y-118280952D01*
X141333334Y-118423810D01*
X141285715Y-118614286D01*
X141238096Y-118709524D01*
X141142858Y-118804762D01*
X141000000Y-118852381D01*
X140761905Y-118852381D01*
X141714286Y-117947619D02*
X141761905Y-117900000D01*
X141857143Y-117852381D01*
X142095239Y-117852381D01*
X142190477Y-117900000D01*
X142238096Y-117947619D01*
X142285715Y-118042857D01*
X142285715Y-118138095D01*
X142238096Y-118280952D01*
X141666667Y-118852381D01*
X142285715Y-118852381D01*
X146661905Y-118952381D02*
X146661905Y-117952381D01*
X146900000Y-117952381D01*
X147042858Y-118000000D01*
X147138096Y-118095238D01*
X147185715Y-118190476D01*
X147233334Y-118380952D01*
X147233334Y-118523810D01*
X147185715Y-118714286D01*
X147138096Y-118809524D01*
X147042858Y-118904762D01*
X146900000Y-118952381D01*
X146661905Y-118952381D01*
X148185715Y-118952381D02*
X147614286Y-118952381D01*
X147900000Y-118952381D02*
X147900000Y-117952381D01*
X147804762Y-118095238D01*
X147709524Y-118190476D01*
X147614286Y-118238095D01*
X126157143Y-98366666D02*
X126204762Y-98414285D01*
X126252381Y-98557142D01*
X126252381Y-98652380D01*
X126204762Y-98795238D01*
X126109524Y-98890476D01*
X126014286Y-98938095D01*
X125823810Y-98985714D01*
X125680952Y-98985714D01*
X125490476Y-98938095D01*
X125395238Y-98890476D01*
X125300000Y-98795238D01*
X125252381Y-98652380D01*
X125252381Y-98557142D01*
X125300000Y-98414285D01*
X125347619Y-98366666D01*
X125252381Y-98033333D02*
X125252381Y-97366666D01*
X126252381Y-97795238D01*
X111004762Y-93747619D02*
X110909524Y-93700000D01*
X110814286Y-93604762D01*
X110671429Y-93461905D01*
X110576190Y-93414286D01*
X110480952Y-93414286D01*
X110528571Y-93652381D02*
X110433333Y-93604762D01*
X110338095Y-93509524D01*
X110290476Y-93319048D01*
X110290476Y-92985714D01*
X110338095Y-92795238D01*
X110433333Y-92700000D01*
X110528571Y-92652381D01*
X110719048Y-92652381D01*
X110814286Y-92700000D01*
X110909524Y-92795238D01*
X110957143Y-92985714D01*
X110957143Y-93319048D01*
X110909524Y-93509524D01*
X110814286Y-93604762D01*
X110719048Y-93652381D01*
X110528571Y-93652381D01*
X111338095Y-92747619D02*
X111385714Y-92700000D01*
X111480952Y-92652381D01*
X111719048Y-92652381D01*
X111814286Y-92700000D01*
X111861905Y-92747619D01*
X111909524Y-92842857D01*
X111909524Y-92938095D01*
X111861905Y-93080952D01*
X111290476Y-93652381D01*
X111909524Y-93652381D01*
X111104762Y-78247619D02*
X111009524Y-78200000D01*
X110914286Y-78104762D01*
X110771429Y-77961905D01*
X110676190Y-77914286D01*
X110580952Y-77914286D01*
X110628571Y-78152381D02*
X110533333Y-78104762D01*
X110438095Y-78009524D01*
X110390476Y-77819048D01*
X110390476Y-77485714D01*
X110438095Y-77295238D01*
X110533333Y-77200000D01*
X110628571Y-77152381D01*
X110819048Y-77152381D01*
X110914286Y-77200000D01*
X111009524Y-77295238D01*
X111057143Y-77485714D01*
X111057143Y-77819048D01*
X111009524Y-78009524D01*
X110914286Y-78104762D01*
X110819048Y-78152381D01*
X110628571Y-78152381D01*
X112009524Y-78152381D02*
X111438095Y-78152381D01*
X111723809Y-78152381D02*
X111723809Y-77152381D01*
X111628571Y-77295238D01*
X111533333Y-77390476D01*
X111438095Y-77438095D01*
X142804762Y-78347619D02*
X142709524Y-78300000D01*
X142614286Y-78204762D01*
X142471429Y-78061905D01*
X142376190Y-78014286D01*
X142280952Y-78014286D01*
X142328571Y-78252381D02*
X142233333Y-78204762D01*
X142138095Y-78109524D01*
X142090476Y-77919048D01*
X142090476Y-77585714D01*
X142138095Y-77395238D01*
X142233333Y-77300000D01*
X142328571Y-77252381D01*
X142519048Y-77252381D01*
X142614286Y-77300000D01*
X142709524Y-77395238D01*
X142757143Y-77585714D01*
X142757143Y-77919048D01*
X142709524Y-78109524D01*
X142614286Y-78204762D01*
X142519048Y-78252381D01*
X142328571Y-78252381D01*
X143090476Y-77252381D02*
X143709524Y-77252381D01*
X143376190Y-77633333D01*
X143519048Y-77633333D01*
X143614286Y-77680952D01*
X143661905Y-77728571D01*
X143709524Y-77823810D01*
X143709524Y-78061905D01*
X143661905Y-78157143D01*
X143614286Y-78204762D01*
X143519048Y-78252381D01*
X143233333Y-78252381D01*
X143138095Y-78204762D01*
X143090476Y-78157143D01*
X142804762Y-93847619D02*
X142709524Y-93800000D01*
X142614286Y-93704762D01*
X142471429Y-93561905D01*
X142376190Y-93514286D01*
X142280952Y-93514286D01*
X142328571Y-93752381D02*
X142233333Y-93704762D01*
X142138095Y-93609524D01*
X142090476Y-93419048D01*
X142090476Y-93085714D01*
X142138095Y-92895238D01*
X142233333Y-92800000D01*
X142328571Y-92752381D01*
X142519048Y-92752381D01*
X142614286Y-92800000D01*
X142709524Y-92895238D01*
X142757143Y-93085714D01*
X142757143Y-93419048D01*
X142709524Y-93609524D01*
X142614286Y-93704762D01*
X142519048Y-93752381D01*
X142328571Y-93752381D01*
X143614286Y-93085714D02*
X143614286Y-93752381D01*
X143376190Y-92704762D02*
X143138095Y-93419048D01*
X143757143Y-93419048D01*
M02*
