M48
;DRILL file {KiCad 4.0.5} date 10/06/17 09:47:04
;FORMAT={-:-/ absolute / metric / decimal}
FMAT,2
METRIC,TZ
T1C0.300
T2C0.400
T3C1.199
%
G90
G05
M71
T1
X110.8Y-87.636
X110.8Y-88.271
X110.8Y-88.906
X110.8Y-89.541
X110.9Y-80.236
X110.9Y-80.871
X110.9Y-81.506
X110.9Y-82.141
X111.435Y-87.636
X111.435Y-88.271
X111.435Y-88.906
X111.435Y-89.541
X111.535Y-80.236
X111.535Y-80.871
X111.535Y-81.506
X111.535Y-82.141
X112.07Y-87.636
X112.07Y-88.271
X112.07Y-88.906
X112.07Y-89.541
X112.17Y-80.236
X112.17Y-80.871
X112.17Y-81.506
X112.17Y-82.141
X112.705Y-87.636
X112.705Y-88.271
X112.705Y-88.906
X112.705Y-89.541
X112.805Y-80.236
X112.805Y-80.871
X112.805Y-81.506
X112.805Y-82.141
X113.34Y-87.636
X113.34Y-88.271
X113.34Y-88.906
X113.34Y-89.541
X113.44Y-80.236
X113.44Y-80.871
X113.44Y-81.506
X113.44Y-82.141
X113.975Y-87.636
X113.975Y-88.271
X113.975Y-88.906
X113.975Y-89.541
X114.075Y-80.236
X114.075Y-80.871
X114.075Y-81.506
X114.075Y-82.141
X114.61Y-87.636
X114.61Y-88.271
X114.61Y-88.906
X114.61Y-89.541
X114.71Y-80.236
X114.71Y-80.871
X114.71Y-81.506
X114.71Y-82.141
X115.Y-73.5
X115.Y-74.135
X115.Y-74.77
X115.Y-75.405
X115.Y-76.04
X115.635Y-73.5
X115.635Y-74.135
X115.635Y-74.77
X115.635Y-75.405
X115.635Y-76.04
X116.Y-91.4
X116.Y-92.035
X116.Y-92.67
X116.Y-93.305
X116.Y-93.94
X116.27Y-73.5
X116.27Y-74.135
X116.27Y-74.77
X116.27Y-75.405
X116.27Y-76.04
X116.635Y-91.4
X116.635Y-92.035
X116.635Y-92.67
X116.635Y-93.305
X116.635Y-93.94
X116.905Y-73.5
X116.905Y-74.135
X116.905Y-74.77
X116.905Y-75.405
X116.905Y-76.04
X117.27Y-91.4
X117.27Y-92.035
X117.27Y-92.67
X117.27Y-93.305
X117.27Y-93.94
X117.54Y-73.5
X117.54Y-74.135
X117.54Y-74.77
X117.54Y-75.405
X117.54Y-76.04
X117.905Y-91.4
X117.905Y-92.035
X117.905Y-92.67
X117.905Y-93.305
X117.905Y-93.94
X118.54Y-91.4
X118.54Y-92.035
X118.54Y-92.67
X118.54Y-93.305
X118.54Y-93.94
X119.2Y-91.4
X119.2Y-92.035
X119.2Y-92.67
X119.2Y-93.305
X119.2Y-93.94
X119.835Y-91.4
X119.835Y-92.035
X119.835Y-92.67
X119.835Y-93.305
X119.835Y-93.94
X120.47Y-91.4
X120.47Y-92.035
X120.47Y-92.67
X120.47Y-93.305
X120.47Y-93.94
X121.105Y-91.4
X121.105Y-92.035
X121.105Y-92.67
X121.105Y-93.305
X121.105Y-93.94
X121.74Y-91.4
X121.74Y-92.035
X121.74Y-92.67
X121.74Y-93.305
X121.74Y-93.94
X123.1Y-75.5
X123.1Y-76.135
X123.1Y-76.77
X123.1Y-77.405
X123.1Y-78.04
X123.1Y-80.5
X123.1Y-81.135
X123.1Y-81.77
X123.1Y-82.405
X123.1Y-83.04
X123.1Y-83.6
X123.1Y-84.235
X123.1Y-84.87
X123.1Y-85.505
X123.1Y-86.14
X123.1Y-86.7
X123.1Y-87.335
X123.1Y-87.97
X123.1Y-88.605
X123.1Y-89.24
X123.735Y-75.5
X123.735Y-76.135
X123.735Y-76.77
X123.735Y-77.405
X123.735Y-78.04
X123.735Y-80.5
X123.735Y-81.135
X123.735Y-81.77
X123.735Y-82.405
X123.735Y-83.04
X123.735Y-83.6
X123.735Y-84.235
X123.735Y-84.87
X123.735Y-85.505
X123.735Y-86.14
X123.735Y-86.7
X123.735Y-87.335
X123.735Y-87.97
X123.735Y-88.605
X123.735Y-89.24
X124.37Y-75.5
X124.37Y-76.135
X124.37Y-76.77
X124.37Y-77.405
X124.37Y-78.04
X124.37Y-80.5
X124.37Y-81.135
X124.37Y-81.77
X124.37Y-82.405
X124.37Y-83.04
X124.37Y-83.6
X124.37Y-84.235
X124.37Y-84.87
X124.37Y-85.505
X124.37Y-86.14
X124.37Y-86.7
X124.37Y-87.335
X124.37Y-87.97
X124.37Y-88.605
X124.37Y-89.24
X125.005Y-75.5
X125.005Y-76.135
X125.005Y-76.77
X125.005Y-77.405
X125.005Y-78.04
X125.005Y-80.5
X125.005Y-81.135
X125.005Y-81.77
X125.005Y-82.405
X125.005Y-83.04
X125.005Y-83.6
X125.005Y-84.235
X125.005Y-84.87
X125.005Y-85.505
X125.005Y-86.14
X125.005Y-86.7
X125.005Y-87.335
X125.005Y-87.97
X125.005Y-88.605
X125.005Y-89.24
X125.64Y-75.5
X125.64Y-76.135
X125.64Y-76.77
X125.64Y-77.405
X125.64Y-78.04
X125.64Y-80.5
X125.64Y-81.135
X125.64Y-81.77
X125.64Y-82.405
X125.64Y-83.04
X125.64Y-83.6
X125.64Y-84.235
X125.64Y-84.87
X125.64Y-85.505
X125.64Y-86.14
X125.64Y-86.7
X125.64Y-87.335
X125.64Y-87.97
X125.64Y-88.605
X125.64Y-89.24
X131.5Y-75.4
X131.5Y-76.035
X131.5Y-76.67
X131.5Y-77.305
X131.5Y-77.94
X131.5Y-80.4
X131.5Y-81.035
X131.5Y-81.67
X131.5Y-82.305
X131.5Y-82.94
X131.5Y-83.6
X131.5Y-84.235
X131.5Y-84.87
X131.5Y-85.505
X131.5Y-86.14
X131.5Y-86.8
X131.5Y-87.435
X131.5Y-88.07
X131.5Y-88.705
X131.5Y-89.34
X132.135Y-75.4
X132.135Y-76.035
X132.135Y-76.67
X132.135Y-77.305
X132.135Y-77.94
X132.135Y-80.4
X132.135Y-81.035
X132.135Y-81.67
X132.135Y-82.305
X132.135Y-82.94
X132.135Y-83.6
X132.135Y-84.235
X132.135Y-84.87
X132.135Y-85.505
X132.135Y-86.14
X132.135Y-86.8
X132.135Y-87.435
X132.135Y-88.07
X132.135Y-88.705
X132.135Y-89.34
X132.77Y-75.4
X132.77Y-76.035
X132.77Y-76.67
X132.77Y-77.305
X132.77Y-77.94
X132.77Y-80.4
X132.77Y-81.035
X132.77Y-81.67
X132.77Y-82.305
X132.77Y-82.94
X132.77Y-83.6
X132.77Y-84.235
X132.77Y-84.87
X132.77Y-85.505
X132.77Y-86.14
X132.77Y-86.8
X132.77Y-87.435
X132.77Y-88.07
X132.77Y-88.705
X132.77Y-89.34
X133.405Y-75.4
X133.405Y-76.035
X133.405Y-76.67
X133.405Y-77.305
X133.405Y-77.94
X133.405Y-80.4
X133.405Y-81.035
X133.405Y-81.67
X133.405Y-82.305
X133.405Y-82.94
X133.405Y-83.6
X133.405Y-84.235
X133.405Y-84.87
X133.405Y-85.505
X133.405Y-86.14
X133.405Y-86.8
X133.405Y-87.435
X133.405Y-88.07
X133.405Y-88.705
X133.405Y-89.34
X134.04Y-75.4
X134.04Y-76.035
X134.04Y-76.67
X134.04Y-77.305
X134.04Y-77.94
X134.04Y-80.4
X134.04Y-81.035
X134.04Y-81.67
X134.04Y-82.305
X134.04Y-82.94
X134.04Y-83.6
X134.04Y-84.235
X134.04Y-84.87
X134.04Y-85.505
X134.04Y-86.14
X134.04Y-86.8
X134.04Y-87.435
X134.04Y-88.07
X134.04Y-88.705
X134.04Y-89.34
X138.8Y-91.6
X138.8Y-92.235
X138.8Y-92.87
X138.8Y-93.505
X138.8Y-94.14
X139.435Y-91.6
X139.435Y-92.235
X139.435Y-92.87
X139.435Y-93.505
X139.435Y-94.14
X140.07Y-91.6
X140.07Y-92.235
X140.07Y-92.87
X140.07Y-93.505
X140.07Y-94.14
X140.705Y-91.6
X140.705Y-92.235
X140.705Y-92.87
X140.705Y-93.505
X140.705Y-94.14
X141.34Y-91.6
X141.34Y-92.235
X141.34Y-92.87
X141.34Y-93.505
X141.34Y-94.14
X142.6Y-80.336
X142.6Y-80.971
X142.6Y-81.606
X142.6Y-82.241
X142.6Y-87.636
X142.6Y-88.271
X142.6Y-88.906
X142.6Y-89.541
X143.235Y-80.336
X143.235Y-80.971
X143.235Y-81.606
X143.235Y-82.241
X143.235Y-87.636
X143.235Y-88.271
X143.235Y-88.906
X143.235Y-89.541
X143.87Y-80.336
X143.87Y-80.971
X143.87Y-81.606
X143.87Y-82.241
X143.87Y-87.636
X143.87Y-88.271
X143.87Y-88.906
X143.87Y-89.541
X144.5Y-73.8
X144.5Y-74.435
X144.5Y-75.07
X144.5Y-75.705
X144.5Y-76.34
X144.505Y-80.336
X144.505Y-80.971
X144.505Y-81.606
X144.505Y-82.241
X144.505Y-87.636
X144.505Y-88.271
X144.505Y-88.906
X144.505Y-89.541
X145.135Y-73.8
X145.135Y-74.435
X145.135Y-75.07
X145.135Y-75.705
X145.135Y-76.34
X145.14Y-80.336
X145.14Y-80.971
X145.14Y-81.606
X145.14Y-82.241
X145.14Y-87.636
X145.14Y-88.271
X145.14Y-88.906
X145.14Y-89.541
X145.77Y-73.8
X145.77Y-74.435
X145.77Y-75.07
X145.77Y-75.705
X145.77Y-76.34
X145.775Y-80.336
X145.775Y-80.971
X145.775Y-81.606
X145.775Y-82.241
X145.775Y-87.636
X145.775Y-88.271
X145.775Y-88.906
X145.775Y-89.541
X146.405Y-73.8
X146.405Y-74.435
X146.405Y-75.07
X146.405Y-75.705
X146.405Y-76.34
X146.41Y-80.336
X146.41Y-80.971
X146.41Y-81.606
X146.41Y-82.241
X146.41Y-87.636
X146.41Y-88.271
X146.41Y-88.906
X146.41Y-89.541
X147.04Y-73.8
X147.04Y-74.435
X147.04Y-75.07
X147.04Y-75.705
X147.04Y-76.34
X147.7Y-73.8
X147.7Y-74.435
X147.7Y-75.07
X147.7Y-75.705
X147.7Y-76.34
X148.335Y-73.8
X148.335Y-74.435
X148.335Y-75.07
X148.335Y-75.705
X148.335Y-76.34
X148.97Y-73.8
X148.97Y-74.435
X148.97Y-75.07
X148.97Y-75.705
X148.97Y-76.34
X149.6Y-84.4
X149.6Y-85.035
X149.6Y-85.67
X149.6Y-86.305
X149.6Y-86.94
X149.605Y-73.8
X149.605Y-74.435
X149.605Y-75.07
X149.605Y-75.705
X149.605Y-76.34
X150.235Y-84.4
X150.235Y-85.035
X150.235Y-85.67
X150.235Y-86.305
X150.235Y-86.94
X150.24Y-73.8
X150.24Y-74.435
X150.24Y-75.07
X150.24Y-75.705
X150.24Y-76.34
X150.8Y-73.8
X150.8Y-74.435
X150.8Y-75.07
X150.8Y-75.705
X150.8Y-76.34
X150.87Y-84.4
X150.87Y-85.035
X150.87Y-85.67
X150.87Y-86.305
X150.87Y-86.94
X151.435Y-73.8
X151.435Y-74.435
X151.435Y-75.07
X151.435Y-75.705
X151.435Y-76.34
X151.505Y-84.4
X151.505Y-85.035
X151.505Y-85.67
X151.505Y-86.305
X151.505Y-86.94
X152.07Y-73.8
X152.07Y-74.435
X152.07Y-75.07
X152.07Y-75.705
X152.07Y-76.34
X152.14Y-84.4
X152.14Y-85.035
X152.14Y-85.67
X152.14Y-86.305
X152.14Y-86.94
X152.705Y-73.8
X152.705Y-74.435
X152.705Y-75.07
X152.705Y-75.705
X152.705Y-76.34
X153.34Y-73.8
X153.34Y-74.435
X153.34Y-75.07
X153.34Y-75.705
X153.34Y-76.34
X159.2Y-96.9
X159.2Y-97.535
X159.2Y-98.17
X159.2Y-98.805
X159.2Y-99.44
X159.835Y-96.9
X159.835Y-97.535
X159.835Y-98.17
X159.835Y-98.805
X159.835Y-99.44
X160.47Y-96.9
X160.47Y-97.535
X160.47Y-98.17
X160.47Y-98.805
X160.47Y-99.44
X161.105Y-96.9
X161.105Y-97.535
X161.105Y-98.17
X161.105Y-98.805
X161.105Y-99.44
X161.74Y-96.9
X161.74Y-97.535
X161.74Y-98.17
X161.74Y-98.805
X161.74Y-99.44
X167.6Y-89.9
X167.6Y-90.535
X167.6Y-91.17
X167.6Y-91.805
X167.6Y-92.44
X168.235Y-89.9
X168.235Y-90.535
X168.235Y-91.17
X168.235Y-91.805
X168.235Y-92.44
X168.87Y-89.9
X168.87Y-90.535
X168.87Y-91.17
X168.87Y-91.805
X168.87Y-92.44
X169.505Y-89.9
X169.505Y-90.535
X169.505Y-91.17
X169.505Y-91.805
X169.505Y-92.44
X170.14Y-89.9
X170.14Y-90.535
X170.14Y-91.17
X170.14Y-91.805
X170.14Y-92.44
X176.1Y-87.5
X176.1Y-88.135
X176.1Y-88.77
X176.1Y-89.405
X176.1Y-90.04
X176.735Y-87.5
X176.735Y-88.135
X176.735Y-88.77
X176.735Y-89.405
X176.735Y-90.04
X177.37Y-87.5
X177.37Y-88.135
X177.37Y-88.77
X177.37Y-89.405
X177.37Y-90.04
X178.005Y-87.5
X178.005Y-88.135
X178.005Y-88.77
X178.005Y-89.405
X178.005Y-90.04
X178.64Y-87.5
X178.64Y-88.135
X178.64Y-88.77
X178.64Y-89.405
X178.64Y-90.04
T2
X121.425Y-110.683
X123.325Y-114.316
X123.554Y-103.47
X124.9Y-113.975
X125.8Y-98.1
X127.3Y-113.1
X128.4Y-104.5
X128.7Y-98.1
X131.Y-107.2
X131.2Y-98.
X131.8Y-116.7
X134.344Y-106.071
X135.28Y-108.671
X137.1Y-102.
X139.3Y-109.4
X139.372Y-107.756
X139.6Y-111.5
X139.9Y-112.975
X142.322Y-102.701
X142.6Y-108.63
X142.645Y-110.08
X142.7Y-114.
X142.866Y-105.379
X144.336Y-109.366
X144.55Y-111.066
X145.3Y-104.3
X145.7Y-111.6
X145.7Y-113.725
X147.2Y-104.3
X148.506Y-107.095
X148.509Y-107.938
X148.534Y-114.443
X148.8Y-104.775
X149.1Y-103.2
X149.134Y-109.461
X149.144Y-113.094
X149.175Y-110.274
X149.635Y-113.746
X149.971Y-110.353
X150.593Y-110.865
X151.783Y-111.915
X153.Y-104.775
X153.1Y-112.
X156.1Y-102.2
X156.425Y-103.847
X158.6Y-107.5
X159.475Y-106.028
T3
X162.75Y-115.8
X166.25Y-115.8
X169.75Y-115.8
X173.25Y-115.8
X181.5Y-82.95
X181.5Y-86.45
X181.5Y-94.65
X181.5Y-98.15
T0
M30
