%FSLAX45Y45*%
G04 Gerber Fmt 4.5, Leading zero omitted, Abs format (unit mm)*
G04 Created by KiCad (PCBNEW 4.0.4-stable) date 12/05/16 22:10:51*
%MOMM*%
%LPD*%
G01*
G04 APERTURE LIST*
%ADD10C,0.127000*%
%ADD11C,0.200000*%
%ADD12C,0.300000*%
G04 APERTURE END LIST*
D10*
D11*
X267000Y-1642000D02*
X297000Y-1672000D01*
X297000Y-1642000D02*
X267000Y-1672000D01*
X267000Y-2913000D02*
X297000Y-2943000D01*
X297000Y-2913000D02*
X267000Y-2943000D01*
X269000Y-1019000D02*
X299000Y-1049000D01*
X299000Y-1019000D02*
X269000Y-1049000D01*
X269000Y-4059000D02*
X299000Y-4089000D01*
X299000Y-4059000D02*
X269000Y-4089000D01*
X270000Y-1906000D02*
X300000Y-1936000D01*
X300000Y-1906000D02*
X270000Y-1936000D01*
X270000Y-2662000D02*
X300000Y-2692000D01*
X300000Y-2662000D02*
X270000Y-2692000D01*
X271000Y-1136000D02*
X301000Y-1166000D01*
X301000Y-1136000D02*
X271000Y-1166000D01*
X272000Y-3043000D02*
X302000Y-3073000D01*
X302000Y-3043000D02*
X272000Y-3073000D01*
X272000Y-4186000D02*
X302000Y-4216000D01*
X302000Y-4186000D02*
X272000Y-4216000D01*
X273000Y-1264000D02*
X303000Y-1294000D01*
X303000Y-1264000D02*
X273000Y-1294000D01*
X273000Y-1520000D02*
X303000Y-1550000D01*
X303000Y-1520000D02*
X273000Y-1550000D01*
X273000Y-1772000D02*
X303000Y-1802000D01*
X303000Y-1772000D02*
X273000Y-1802000D01*
X274000Y-2795000D02*
X304000Y-2825000D01*
X304000Y-2795000D02*
X274000Y-2825000D01*
X274000Y-3299000D02*
X304000Y-3329000D01*
X304000Y-3299000D02*
X274000Y-3329000D01*
X275000Y-376000D02*
X305000Y-406000D01*
X305000Y-376000D02*
X275000Y-406000D01*
X276000Y-760000D02*
X306000Y-790000D01*
X306000Y-760000D02*
X276000Y-790000D01*
X276000Y-3171000D02*
X306000Y-3201000D01*
X306000Y-3171000D02*
X276000Y-3201000D01*
X277000Y-884000D02*
X307000Y-914000D01*
X307000Y-884000D02*
X277000Y-914000D01*
X277000Y-1395000D02*
X307000Y-1425000D01*
X307000Y-1395000D02*
X277000Y-1425000D01*
X277000Y-4319000D02*
X307000Y-4349000D01*
X307000Y-4319000D02*
X277000Y-4349000D01*
X278000Y-2038000D02*
X308000Y-2068000D01*
X308000Y-2038000D02*
X278000Y-2068000D01*
X278000Y-2408000D02*
X308000Y-2438000D01*
X308000Y-2408000D02*
X278000Y-2438000D01*
X278000Y-2541000D02*
X308000Y-2571000D01*
X308000Y-2541000D02*
X278000Y-2571000D01*
X278000Y-3679000D02*
X308000Y-3709000D01*
X308000Y-3679000D02*
X278000Y-3709000D01*
X278000Y-3807000D02*
X308000Y-3837000D01*
X308000Y-3807000D02*
X278000Y-3837000D01*
X278000Y-3933000D02*
X308000Y-3963000D01*
X308000Y-3933000D02*
X278000Y-3963000D01*
X279000Y-2157000D02*
X309000Y-2187000D01*
X309000Y-2157000D02*
X279000Y-2187000D01*
X279000Y-2287000D02*
X309000Y-2317000D01*
X309000Y-2287000D02*
X279000Y-2317000D01*
X280000Y-631000D02*
X310000Y-661000D01*
X310000Y-631000D02*
X280000Y-661000D01*
X281000Y-497000D02*
X311000Y-527000D01*
X311000Y-497000D02*
X281000Y-527000D01*
X281000Y-3551000D02*
X311000Y-3581000D01*
X311000Y-3551000D02*
X281000Y-3581000D01*
X285000Y-3425000D02*
X315000Y-3455000D01*
X315000Y-3425000D02*
X285000Y-3455000D01*
X807000Y-1079000D02*
X837000Y-1109000D01*
X837000Y-1079000D02*
X807000Y-1109000D01*
X813000Y-1332000D02*
X843000Y-1362000D01*
X843000Y-1332000D02*
X813000Y-1362000D01*
X814000Y-346000D02*
X844000Y-376000D01*
X844000Y-346000D02*
X814000Y-376000D01*
X820000Y-466000D02*
X850000Y-496000D01*
X850000Y-466000D02*
X820000Y-496000D01*
X822000Y-1460000D02*
X852000Y-1490000D01*
X852000Y-1460000D02*
X822000Y-1490000D01*
X831000Y-1193000D02*
X861000Y-1223000D01*
X861000Y-1193000D02*
X831000Y-1223000D01*
X833000Y-1836000D02*
X863000Y-1866000D01*
X863000Y-1836000D02*
X833000Y-1866000D01*
X834000Y-737000D02*
X864000Y-767000D01*
X864000Y-737000D02*
X834000Y-767000D01*
X834000Y-1962000D02*
X864000Y-1992000D01*
X864000Y-1962000D02*
X834000Y-1992000D01*
X835000Y-595000D02*
X865000Y-625000D01*
X865000Y-595000D02*
X835000Y-625000D01*
X836000Y-2095000D02*
X866000Y-2125000D01*
X866000Y-2095000D02*
X836000Y-2125000D01*
X836000Y-2852000D02*
X866000Y-2882000D01*
X866000Y-2852000D02*
X836000Y-2882000D01*
X836000Y-3736000D02*
X866000Y-3766000D01*
X866000Y-3736000D02*
X836000Y-3766000D01*
X837000Y-852000D02*
X867000Y-882000D01*
X867000Y-852000D02*
X837000Y-882000D01*
X837000Y-1705000D02*
X867000Y-1735000D01*
X867000Y-1705000D02*
X837000Y-1735000D01*
X838000Y-2214000D02*
X868000Y-2244000D01*
X868000Y-2214000D02*
X838000Y-2244000D01*
X839000Y-2970000D02*
X869000Y-3000000D01*
X869000Y-2970000D02*
X839000Y-3000000D01*
X839000Y-3099000D02*
X869000Y-3129000D01*
X869000Y-3099000D02*
X839000Y-3129000D01*
X839000Y-3865000D02*
X869000Y-3895000D01*
X869000Y-3865000D02*
X839000Y-3895000D01*
X840000Y-1576000D02*
X870000Y-1606000D01*
X870000Y-1576000D02*
X840000Y-1606000D01*
X842000Y-3994000D02*
X872000Y-4024000D01*
X872000Y-3994000D02*
X842000Y-4024000D01*
X843000Y-2346000D02*
X873000Y-2376000D01*
X873000Y-2346000D02*
X843000Y-2376000D01*
X843000Y-2719000D02*
X873000Y-2749000D01*
X873000Y-2719000D02*
X843000Y-2749000D01*
X843000Y-3608000D02*
X873000Y-3638000D01*
X873000Y-3608000D02*
X843000Y-3638000D01*
X845000Y-2466000D02*
X875000Y-2496000D01*
X875000Y-2466000D02*
X845000Y-2496000D01*
X845000Y-3363000D02*
X875000Y-3393000D01*
X875000Y-3363000D02*
X845000Y-3393000D01*
X846000Y-2602000D02*
X876000Y-2632000D01*
X876000Y-2602000D02*
X846000Y-2632000D01*
X846000Y-3485000D02*
X876000Y-3515000D01*
X876000Y-3485000D02*
X846000Y-3515000D01*
X846000Y-4245000D02*
X876000Y-4275000D01*
X876000Y-4245000D02*
X846000Y-4275000D01*
X847000Y-4116000D02*
X877000Y-4146000D01*
X877000Y-4116000D02*
X847000Y-4146000D01*
X848000Y-3229000D02*
X878000Y-3259000D01*
X878000Y-3229000D02*
X848000Y-3259000D01*
X893000Y-965000D02*
X923000Y-995000D01*
X923000Y-965000D02*
X893000Y-995000D01*
X1150000Y-915000D02*
X1180000Y-945000D01*
X1180000Y-915000D02*
X1150000Y-945000D01*
X1150000Y-1144000D02*
X1180000Y-1174000D01*
X1180000Y-1144000D02*
X1150000Y-1174000D01*
X1153000Y-1029000D02*
X1183000Y-1059000D01*
X1183000Y-1029000D02*
X1153000Y-1059000D01*
X1153000Y-1266000D02*
X1183000Y-1296000D01*
X1183000Y-1266000D02*
X1153000Y-1296000D01*
X1154000Y-659000D02*
X1184000Y-689000D01*
X1184000Y-659000D02*
X1154000Y-689000D01*
X1154000Y-2918000D02*
X1184000Y-2948000D01*
X1184000Y-2918000D02*
X1154000Y-2948000D01*
X1156000Y-3043000D02*
X1186000Y-3073000D01*
X1186000Y-3043000D02*
X1156000Y-3073000D01*
X1157000Y-1400000D02*
X1187000Y-1430000D01*
X1187000Y-1400000D02*
X1157000Y-1430000D01*
X1157000Y-1776000D02*
X1187000Y-1806000D01*
X1187000Y-1776000D02*
X1157000Y-1806000D01*
X1158000Y-405000D02*
X1188000Y-435000D01*
X1188000Y-405000D02*
X1158000Y-435000D01*
X1158000Y-795000D02*
X1188000Y-825000D01*
X1188000Y-795000D02*
X1158000Y-825000D01*
X1159000Y-1908000D02*
X1189000Y-1938000D01*
X1189000Y-1908000D02*
X1159000Y-1938000D01*
X1159000Y-3167000D02*
X1189000Y-3197000D01*
X1189000Y-3167000D02*
X1159000Y-3197000D01*
X1163000Y-1520000D02*
X1193000Y-1550000D01*
X1193000Y-1520000D02*
X1163000Y-1550000D01*
X1163000Y-2536000D02*
X1193000Y-2566000D01*
X1193000Y-2536000D02*
X1163000Y-2566000D01*
X1163000Y-2794000D02*
X1193000Y-2824000D01*
X1193000Y-2794000D02*
X1163000Y-2824000D01*
X1163000Y-3675000D02*
X1193000Y-3705000D01*
X1193000Y-3675000D02*
X1163000Y-3705000D01*
X1165000Y-520000D02*
X1195000Y-550000D01*
X1195000Y-520000D02*
X1165000Y-550000D01*
X1165000Y-1645000D02*
X1195000Y-1675000D01*
X1195000Y-1645000D02*
X1165000Y-1675000D01*
X1165000Y-2036000D02*
X1195000Y-2066000D01*
X1195000Y-2036000D02*
X1165000Y-2066000D01*
X1165000Y-2676000D02*
X1195000Y-2706000D01*
X1195000Y-2676000D02*
X1165000Y-2706000D01*
X1165000Y-3291000D02*
X1195000Y-3321000D01*
X1195000Y-3291000D02*
X1165000Y-3321000D01*
X1165000Y-3425000D02*
X1195000Y-3455000D01*
X1195000Y-3425000D02*
X1165000Y-3455000D01*
X1165000Y-3544000D02*
X1195000Y-3574000D01*
X1195000Y-3544000D02*
X1165000Y-3574000D01*
X1165000Y-3800000D02*
X1195000Y-3830000D01*
X1195000Y-3800000D02*
X1165000Y-3830000D01*
X1167000Y-2155000D02*
X1197000Y-2185000D01*
X1197000Y-2155000D02*
X1167000Y-2185000D01*
X1167000Y-3937000D02*
X1197000Y-3967000D01*
X1197000Y-3937000D02*
X1167000Y-3967000D01*
X1170000Y-4316000D02*
X1200000Y-4346000D01*
X1200000Y-4316000D02*
X1170000Y-4346000D01*
X1174000Y-4056000D02*
X1204000Y-4086000D01*
X1204000Y-4056000D02*
X1174000Y-4086000D01*
X1174000Y-4180000D02*
X1204000Y-4210000D01*
X1204000Y-4180000D02*
X1174000Y-4210000D01*
X1175000Y-2289000D02*
X1205000Y-2319000D01*
X1205000Y-2289000D02*
X1175000Y-2319000D01*
X1175000Y-2413000D02*
X1205000Y-2443000D01*
X1205000Y-2413000D02*
X1175000Y-2443000D01*
X1578590Y-3609999D02*
X1608590Y-3639999D01*
X1608590Y-3609999D02*
X1578590Y-3639999D01*
X1623965Y-3759999D02*
X1653965Y-3789999D01*
X1653965Y-3759999D02*
X1623965Y-3789999D01*
X1636608Y-1698109D02*
X1666608Y-1728109D01*
X1666608Y-1698109D02*
X1636608Y-1728109D01*
X1641863Y-2091001D02*
X1671863Y-2121001D01*
X1671863Y-2091001D02*
X1641863Y-2121001D01*
X1646608Y-1825608D02*
X1676608Y-1855608D01*
X1676608Y-1825608D02*
X1646608Y-1855608D01*
X1647087Y-3519313D02*
X1677087Y-3549313D01*
X1677087Y-3519313D02*
X1647087Y-3549313D01*
X1653232Y-2480999D02*
X1683232Y-2510999D01*
X1683232Y-2480999D02*
X1653232Y-2510999D01*
X1654108Y-1958108D02*
X1684108Y-1988108D01*
X1684108Y-1958108D02*
X1654108Y-1988108D01*
X1667366Y-2231639D02*
X1697366Y-2261639D01*
X1697366Y-2231639D02*
X1667366Y-2261639D01*
X1671426Y-2876175D02*
X1701426Y-2906175D01*
X1701426Y-2876175D02*
X1671426Y-2906175D01*
X1680332Y-1588991D02*
X1710332Y-1618991D01*
X1710332Y-1588991D02*
X1680332Y-1618991D01*
X1687722Y-3400764D02*
X1717722Y-3430764D01*
X1717722Y-3400764D02*
X1687722Y-3430764D01*
X1696000Y-3879999D02*
X1726000Y-3909999D01*
X1726000Y-3879999D02*
X1696000Y-3909999D01*
X1696485Y-2739999D02*
X1726485Y-2769999D01*
X1726485Y-2739999D02*
X1696485Y-2769999D01*
X1696632Y-2619999D02*
X1726632Y-2649999D01*
X1726632Y-2619999D02*
X1696632Y-2649999D01*
X1696787Y-1478990D02*
X1726787Y-1508990D01*
X1726787Y-1478990D02*
X1696787Y-1508990D01*
X1702193Y-3290762D02*
X1732193Y-3320762D01*
X1732193Y-3290762D02*
X1702193Y-3320762D01*
X1703000Y-3109999D02*
X1733000Y-3139999D01*
X1733000Y-3109999D02*
X1703000Y-3139999D01*
X1710000Y-307299D02*
X1740000Y-337299D01*
X1740000Y-307299D02*
X1710000Y-337299D01*
X1711246Y-4043463D02*
X1741246Y-4073463D01*
X1741246Y-4043463D02*
X1711246Y-4073463D01*
X1712000Y-462299D02*
X1742000Y-492299D01*
X1742000Y-462299D02*
X1712000Y-492299D01*
X1712612Y-2349999D02*
X1742612Y-2379999D01*
X1742612Y-2349999D02*
X1712612Y-2379999D01*
X1715000Y-595000D02*
X1745000Y-625000D01*
X1745000Y-595000D02*
X1715000Y-625000D01*
X1717000Y-1258988D02*
X1747000Y-1288988D01*
X1747000Y-1258988D02*
X1717000Y-1288988D01*
X1717664Y-2987999D02*
X1747664Y-3017999D01*
X1747664Y-2987999D02*
X1717664Y-3017999D01*
X1719597Y-1368989D02*
X1749597Y-1398989D01*
X1749597Y-1368989D02*
X1719597Y-1398989D01*
X1720000Y-761000D02*
X1750000Y-791000D01*
X1750000Y-761000D02*
X1720000Y-791000D01*
X1721000Y-1113000D02*
X1751000Y-1143000D01*
X1751000Y-1113000D02*
X1721000Y-1143000D01*
X1723000Y-999000D02*
X1753000Y-1029000D01*
X1753000Y-999000D02*
X1723000Y-1029000D01*
X1724000Y-882000D02*
X1754000Y-912000D01*
X1754000Y-882000D02*
X1724000Y-912000D01*
X1727000Y-4316000D02*
X1757000Y-4346000D01*
X1757000Y-4316000D02*
X1727000Y-4346000D01*
X1740364Y-4179999D02*
X1770364Y-4209999D01*
X1770364Y-4179999D02*
X1740364Y-4209999D01*
X519000Y-171000D02*
G75*
G03X519000Y-171000I-80000J0D01*
G01*
X519000Y-4550000D02*
G75*
G03X519000Y-4550000I-80000J0D01*
G01*
X1662000Y-171000D02*
G75*
G03X1662000Y-171000I-80000J0D01*
G01*
X1662000Y-4550000D02*
G75*
G03X1662000Y-4550000I-80000J0D01*
G01*
D12*
X-6328571Y5734286D02*
X-6328571Y6034286D01*
X-6257143Y6034286D01*
X-6214286Y6020000D01*
X-6185714Y5991429D01*
X-6171429Y5962857D01*
X-6157143Y5905714D01*
X-6157143Y5862857D01*
X-6171429Y5805714D01*
X-6185714Y5777143D01*
X-6214286Y5748571D01*
X-6257143Y5734286D01*
X-6328571Y5734286D01*
X-6028571Y5734286D02*
X-6028571Y5934286D01*
X-6028571Y5877143D02*
X-6014286Y5905714D01*
X-6000000Y5920000D01*
X-5971429Y5934286D01*
X-5942857Y5934286D01*
X-5842857Y5734286D02*
X-5842857Y5934286D01*
X-5842857Y6034286D02*
X-5857143Y6020000D01*
X-5842857Y6005714D01*
X-5828571Y6020000D01*
X-5842857Y6034286D01*
X-5842857Y6005714D01*
X-5657143Y5734286D02*
X-5685714Y5748571D01*
X-5700000Y5777143D01*
X-5700000Y6034286D01*
X-5500000Y5734286D02*
X-5528571Y5748571D01*
X-5542857Y5777143D01*
X-5542857Y6034286D01*
X-5157143Y5734286D02*
X-5157143Y6034286D01*
X-5057143Y5820000D01*
X-4957143Y6034286D01*
X-4957143Y5734286D01*
X-4685714Y5734286D02*
X-4685714Y5891429D01*
X-4700000Y5920000D01*
X-4728571Y5934286D01*
X-4785714Y5934286D01*
X-4814286Y5920000D01*
X-4685714Y5748571D02*
X-4714286Y5734286D01*
X-4785714Y5734286D01*
X-4814286Y5748571D01*
X-4828571Y5777143D01*
X-4828571Y5805714D01*
X-4814286Y5834286D01*
X-4785714Y5848571D01*
X-4714286Y5848571D01*
X-4685714Y5862857D01*
X-4542857Y5934286D02*
X-4542857Y5634286D01*
X-4542857Y5920000D02*
X-4514286Y5934286D01*
X-4457143Y5934286D01*
X-4428571Y5920000D01*
X-4414286Y5905714D01*
X-4400000Y5877143D01*
X-4400000Y5791429D01*
X-4414286Y5762857D01*
X-4428571Y5748571D01*
X-4457143Y5734286D01*
X-4514286Y5734286D01*
X-4542857Y5748571D01*
X-4271429Y5762857D02*
X-4257143Y5748571D01*
X-4271429Y5734286D01*
X-4285714Y5748571D01*
X-4271429Y5762857D01*
X-4271429Y5734286D01*
X-4271429Y5920000D02*
X-4257143Y5905714D01*
X-4271429Y5891429D01*
X-4285714Y5905714D01*
X-4271429Y5920000D01*
X-4271429Y5891429D01*
X-6630000Y5255000D02*
X-6600000Y5225000D01*
X-6600000Y5255000D02*
X-6630000Y5225000D01*
X-6271429Y5404286D02*
X-6242857Y5404286D01*
X-6214286Y5390000D01*
X-6200000Y5375714D01*
X-6185714Y5347143D01*
X-6171429Y5290000D01*
X-6171429Y5218571D01*
X-6185714Y5161429D01*
X-6200000Y5132857D01*
X-6214286Y5118571D01*
X-6242857Y5104286D01*
X-6271429Y5104286D01*
X-6300000Y5118571D01*
X-6314286Y5132857D01*
X-6328571Y5161429D01*
X-6342857Y5218571D01*
X-6342857Y5290000D01*
X-6328571Y5347143D01*
X-6314286Y5375714D01*
X-6300000Y5390000D01*
X-6271429Y5404286D01*
X-6042857Y5132857D02*
X-6028571Y5118571D01*
X-6042857Y5104286D01*
X-6057143Y5118571D01*
X-6042857Y5132857D01*
X-6042857Y5104286D01*
X-5928571Y5404286D02*
X-5742857Y5404286D01*
X-5842857Y5290000D01*
X-5800000Y5290000D01*
X-5771429Y5275714D01*
X-5757143Y5261429D01*
X-5742857Y5232857D01*
X-5742857Y5161429D01*
X-5757143Y5132857D01*
X-5771429Y5118571D01*
X-5800000Y5104286D01*
X-5885714Y5104286D01*
X-5914286Y5118571D01*
X-5928571Y5132857D01*
X-5557143Y5404286D02*
X-5528571Y5404286D01*
X-5500000Y5390000D01*
X-5485714Y5375714D01*
X-5471429Y5347143D01*
X-5457143Y5290000D01*
X-5457143Y5218571D01*
X-5471429Y5161429D01*
X-5485714Y5132857D01*
X-5500000Y5118571D01*
X-5528571Y5104286D01*
X-5557143Y5104286D01*
X-5585714Y5118571D01*
X-5600000Y5132857D01*
X-5614286Y5161429D01*
X-5628571Y5218571D01*
X-5628571Y5290000D01*
X-5614286Y5347143D01*
X-5600000Y5375714D01*
X-5585714Y5390000D01*
X-5557143Y5404286D01*
X-5328571Y5104286D02*
X-5328571Y5304286D01*
X-5328571Y5275714D02*
X-5314286Y5290000D01*
X-5285714Y5304286D01*
X-5242857Y5304286D01*
X-5214286Y5290000D01*
X-5200000Y5261429D01*
X-5200000Y5104286D01*
X-5200000Y5261429D02*
X-5185714Y5290000D01*
X-5157143Y5304286D01*
X-5114286Y5304286D01*
X-5085714Y5290000D01*
X-5071429Y5261429D01*
X-5071429Y5104286D01*
X-4928571Y5104286D02*
X-4928571Y5304286D01*
X-4928571Y5275714D02*
X-4914286Y5290000D01*
X-4885714Y5304286D01*
X-4842857Y5304286D01*
X-4814286Y5290000D01*
X-4800000Y5261429D01*
X-4800000Y5104286D01*
X-4800000Y5261429D02*
X-4785714Y5290000D01*
X-4757143Y5304286D01*
X-4714286Y5304286D01*
X-4685714Y5290000D01*
X-4671429Y5261429D01*
X-4671429Y5104286D01*
X-4085714Y5418571D02*
X-4342857Y5032857D01*
X-3700000Y5404286D02*
X-3671429Y5404286D01*
X-3642857Y5390000D01*
X-3628571Y5375714D01*
X-3614286Y5347143D01*
X-3600000Y5290000D01*
X-3600000Y5218571D01*
X-3614286Y5161429D01*
X-3628571Y5132857D01*
X-3642857Y5118571D01*
X-3671429Y5104286D01*
X-3700000Y5104286D01*
X-3728571Y5118571D01*
X-3742857Y5132857D01*
X-3757143Y5161429D01*
X-3771429Y5218571D01*
X-3771429Y5290000D01*
X-3757143Y5347143D01*
X-3742857Y5375714D01*
X-3728571Y5390000D01*
X-3700000Y5404286D01*
X-3471429Y5132857D02*
X-3457143Y5118571D01*
X-3471429Y5104286D01*
X-3485714Y5118571D01*
X-3471429Y5132857D01*
X-3471429Y5104286D01*
X-3271429Y5404286D02*
X-3242857Y5404286D01*
X-3214286Y5390000D01*
X-3200000Y5375714D01*
X-3185714Y5347143D01*
X-3171429Y5290000D01*
X-3171429Y5218571D01*
X-3185714Y5161429D01*
X-3200000Y5132857D01*
X-3214286Y5118571D01*
X-3242857Y5104286D01*
X-3271429Y5104286D01*
X-3300000Y5118571D01*
X-3314286Y5132857D01*
X-3328571Y5161429D01*
X-3342857Y5218571D01*
X-3342857Y5290000D01*
X-3328571Y5347143D01*
X-3314286Y5375714D01*
X-3300000Y5390000D01*
X-3271429Y5404286D01*
X-2885714Y5104286D02*
X-3057143Y5104286D01*
X-2971429Y5104286D02*
X-2971429Y5404286D01*
X-3000000Y5361429D01*
X-3028571Y5332857D01*
X-3057143Y5318571D01*
X-2771429Y5375714D02*
X-2757143Y5390000D01*
X-2728572Y5404286D01*
X-2657143Y5404286D01*
X-2628572Y5390000D01*
X-2614286Y5375714D01*
X-2600000Y5347143D01*
X-2600000Y5318571D01*
X-2614286Y5275714D01*
X-2785714Y5104286D01*
X-2600000Y5104286D01*
X-2485714Y5404286D02*
X-2485714Y5347143D01*
X-2371429Y5404286D02*
X-2371429Y5347143D01*
X-1928571Y4990000D02*
X-1942857Y5004286D01*
X-1971429Y5047143D01*
X-1985714Y5075714D01*
X-2000000Y5118571D01*
X-2014286Y5190000D01*
X-2014286Y5247143D01*
X-2000000Y5318571D01*
X-1985714Y5361429D01*
X-1971429Y5390000D01*
X-1942857Y5432857D01*
X-1928571Y5447143D01*
X-1657143Y5104286D02*
X-1828571Y5104286D01*
X-1742857Y5104286D02*
X-1742857Y5404286D01*
X-1771429Y5361429D01*
X-1800000Y5332857D01*
X-1828571Y5318571D01*
X-1542857Y5375714D02*
X-1528571Y5390000D01*
X-1500000Y5404286D01*
X-1428571Y5404286D01*
X-1400000Y5390000D01*
X-1385714Y5375714D01*
X-1371429Y5347143D01*
X-1371429Y5318571D01*
X-1385714Y5275714D01*
X-1557143Y5104286D01*
X-1371429Y5104286D01*
X-1200000Y5275714D02*
X-1228572Y5290000D01*
X-1242857Y5304286D01*
X-1257143Y5332857D01*
X-1257143Y5347143D01*
X-1242857Y5375714D01*
X-1228572Y5390000D01*
X-1200000Y5404286D01*
X-1142857Y5404286D01*
X-1114286Y5390000D01*
X-1100000Y5375714D01*
X-1085714Y5347143D01*
X-1085714Y5332857D01*
X-1100000Y5304286D01*
X-1114286Y5290000D01*
X-1142857Y5275714D01*
X-1200000Y5275714D01*
X-1228572Y5261429D01*
X-1242857Y5247143D01*
X-1257143Y5218571D01*
X-1257143Y5161429D01*
X-1242857Y5132857D01*
X-1228572Y5118571D01*
X-1200000Y5104286D01*
X-1142857Y5104286D01*
X-1114286Y5118571D01*
X-1100000Y5132857D01*
X-1085714Y5161429D01*
X-1085714Y5218571D01*
X-1100000Y5247143D01*
X-1114286Y5261429D01*
X-1142857Y5275714D01*
X-728571Y5104286D02*
X-728571Y5404286D01*
X-600000Y5104286D02*
X-600000Y5261429D01*
X-614286Y5290000D01*
X-642857Y5304286D01*
X-685714Y5304286D01*
X-714286Y5290000D01*
X-728571Y5275714D01*
X-414286Y5104286D02*
X-442857Y5118571D01*
X-457143Y5132857D01*
X-471429Y5161429D01*
X-471429Y5247143D01*
X-457143Y5275714D01*
X-442857Y5290000D01*
X-414286Y5304286D01*
X-371429Y5304286D01*
X-342857Y5290000D01*
X-328572Y5275714D01*
X-314286Y5247143D01*
X-314286Y5161429D01*
X-328572Y5132857D01*
X-342857Y5118571D01*
X-371429Y5104286D01*
X-414286Y5104286D01*
X-142857Y5104286D02*
X-171429Y5118571D01*
X-185714Y5147143D01*
X-185714Y5404286D01*
X85714Y5118571D02*
X57143Y5104286D01*
X0Y5104286D01*
X-28571Y5118571D01*
X-42857Y5147143D01*
X-42857Y5261429D01*
X-28571Y5290000D01*
X0Y5304286D01*
X57143Y5304286D01*
X85714Y5290000D01*
X100000Y5261429D01*
X100000Y5232857D01*
X-42857Y5204286D01*
X214286Y5118571D02*
X242857Y5104286D01*
X300000Y5104286D01*
X328572Y5118571D01*
X342857Y5147143D01*
X342857Y5161429D01*
X328572Y5190000D01*
X300000Y5204286D01*
X257143Y5204286D01*
X228571Y5218571D01*
X214286Y5247143D01*
X214286Y5261429D01*
X228571Y5290000D01*
X257143Y5304286D01*
X300000Y5304286D01*
X328572Y5290000D01*
X442857Y4990000D02*
X457143Y5004286D01*
X485714Y5047143D01*
X500000Y5075714D01*
X514286Y5118571D01*
X528571Y5190000D01*
X528571Y5247143D01*
X514286Y5318571D01*
X500000Y5361429D01*
X485714Y5390000D01*
X457143Y5432857D01*
X442857Y5447143D01*
X-6600000Y4844000D02*
G75*
G03X-6600000Y4844000I-80000J0D01*
G01*
X-6171429Y4708286D02*
X-6342857Y4708286D01*
X-6257143Y4708286D02*
X-6257143Y5008286D01*
X-6285714Y4965429D01*
X-6314286Y4936857D01*
X-6342857Y4922571D01*
X-6042857Y4736857D02*
X-6028571Y4722571D01*
X-6042857Y4708286D01*
X-6057143Y4722571D01*
X-6042857Y4736857D01*
X-6042857Y4708286D01*
X-5771429Y5008286D02*
X-5828571Y5008286D01*
X-5857143Y4994000D01*
X-5871429Y4979714D01*
X-5900000Y4936857D01*
X-5914286Y4879714D01*
X-5914286Y4765429D01*
X-5900000Y4736857D01*
X-5885714Y4722571D01*
X-5857143Y4708286D01*
X-5800000Y4708286D01*
X-5771429Y4722571D01*
X-5757143Y4736857D01*
X-5742857Y4765429D01*
X-5742857Y4836857D01*
X-5757143Y4865429D01*
X-5771429Y4879714D01*
X-5800000Y4894000D01*
X-5857143Y4894000D01*
X-5885714Y4879714D01*
X-5900000Y4865429D01*
X-5914286Y4836857D01*
X-5557143Y5008286D02*
X-5528571Y5008286D01*
X-5500000Y4994000D01*
X-5485714Y4979714D01*
X-5471429Y4951143D01*
X-5457143Y4894000D01*
X-5457143Y4822571D01*
X-5471429Y4765429D01*
X-5485714Y4736857D01*
X-5500000Y4722571D01*
X-5528571Y4708286D01*
X-5557143Y4708286D01*
X-5585714Y4722571D01*
X-5600000Y4736857D01*
X-5614286Y4765429D01*
X-5628571Y4822571D01*
X-5628571Y4894000D01*
X-5614286Y4951143D01*
X-5600000Y4979714D01*
X-5585714Y4994000D01*
X-5557143Y5008286D01*
X-5328571Y4708286D02*
X-5328571Y4908286D01*
X-5328571Y4879714D02*
X-5314286Y4894000D01*
X-5285714Y4908286D01*
X-5242857Y4908286D01*
X-5214286Y4894000D01*
X-5200000Y4865429D01*
X-5200000Y4708286D01*
X-5200000Y4865429D02*
X-5185714Y4894000D01*
X-5157143Y4908286D01*
X-5114286Y4908286D01*
X-5085714Y4894000D01*
X-5071429Y4865429D01*
X-5071429Y4708286D01*
X-4928571Y4708286D02*
X-4928571Y4908286D01*
X-4928571Y4879714D02*
X-4914286Y4894000D01*
X-4885714Y4908286D01*
X-4842857Y4908286D01*
X-4814286Y4894000D01*
X-4800000Y4865429D01*
X-4800000Y4708286D01*
X-4800000Y4865429D02*
X-4785714Y4894000D01*
X-4757143Y4908286D01*
X-4714286Y4908286D01*
X-4685714Y4894000D01*
X-4671429Y4865429D01*
X-4671429Y4708286D01*
X-4085714Y5022571D02*
X-4342857Y4636857D01*
X-3700000Y5008286D02*
X-3671429Y5008286D01*
X-3642857Y4994000D01*
X-3628571Y4979714D01*
X-3614286Y4951143D01*
X-3600000Y4894000D01*
X-3600000Y4822571D01*
X-3614286Y4765429D01*
X-3628571Y4736857D01*
X-3642857Y4722571D01*
X-3671429Y4708286D01*
X-3700000Y4708286D01*
X-3728571Y4722571D01*
X-3742857Y4736857D01*
X-3757143Y4765429D01*
X-3771429Y4822571D01*
X-3771429Y4894000D01*
X-3757143Y4951143D01*
X-3742857Y4979714D01*
X-3728571Y4994000D01*
X-3700000Y5008286D01*
X-3471429Y4736857D02*
X-3457143Y4722571D01*
X-3471429Y4708286D01*
X-3485714Y4722571D01*
X-3471429Y4736857D01*
X-3471429Y4708286D01*
X-3271429Y5008286D02*
X-3242857Y5008286D01*
X-3214286Y4994000D01*
X-3200000Y4979714D01*
X-3185714Y4951143D01*
X-3171429Y4894000D01*
X-3171429Y4822571D01*
X-3185714Y4765429D01*
X-3200000Y4736857D01*
X-3214286Y4722571D01*
X-3242857Y4708286D01*
X-3271429Y4708286D01*
X-3300000Y4722571D01*
X-3314286Y4736857D01*
X-3328571Y4765429D01*
X-3342857Y4822571D01*
X-3342857Y4894000D01*
X-3328571Y4951143D01*
X-3314286Y4979714D01*
X-3300000Y4994000D01*
X-3271429Y5008286D01*
X-2914286Y5008286D02*
X-2971429Y5008286D01*
X-3000000Y4994000D01*
X-3014286Y4979714D01*
X-3042857Y4936857D01*
X-3057143Y4879714D01*
X-3057143Y4765429D01*
X-3042857Y4736857D01*
X-3028571Y4722571D01*
X-3000000Y4708286D01*
X-2942857Y4708286D01*
X-2914286Y4722571D01*
X-2900000Y4736857D01*
X-2885714Y4765429D01*
X-2885714Y4836857D01*
X-2900000Y4865429D01*
X-2914286Y4879714D01*
X-2942857Y4894000D01*
X-3000000Y4894000D01*
X-3028571Y4879714D01*
X-3042857Y4865429D01*
X-3057143Y4836857D01*
X-2785714Y5008286D02*
X-2600000Y5008286D01*
X-2700000Y4894000D01*
X-2657143Y4894000D01*
X-2628572Y4879714D01*
X-2614286Y4865429D01*
X-2600000Y4836857D01*
X-2600000Y4765429D01*
X-2614286Y4736857D01*
X-2628572Y4722571D01*
X-2657143Y4708286D01*
X-2742857Y4708286D01*
X-2771429Y4722571D01*
X-2785714Y4736857D01*
X-2485714Y5008286D02*
X-2485714Y4951143D01*
X-2371429Y5008286D02*
X-2371429Y4951143D01*
X-1928571Y4594000D02*
X-1942857Y4608286D01*
X-1971429Y4651143D01*
X-1985714Y4679714D01*
X-2000000Y4722571D01*
X-2014286Y4794000D01*
X-2014286Y4851143D01*
X-2000000Y4922571D01*
X-1985714Y4965429D01*
X-1971429Y4994000D01*
X-1942857Y5036857D01*
X-1928571Y5051143D01*
X-1685714Y4908286D02*
X-1685714Y4708286D01*
X-1757143Y5022571D02*
X-1828571Y4808286D01*
X-1642857Y4808286D01*
X-1300000Y4708286D02*
X-1300000Y5008286D01*
X-1171429Y4708286D02*
X-1171429Y4865429D01*
X-1185714Y4894000D01*
X-1214286Y4908286D01*
X-1257143Y4908286D01*
X-1285714Y4894000D01*
X-1300000Y4879714D01*
X-985714Y4708286D02*
X-1014286Y4722571D01*
X-1028571Y4736857D01*
X-1042857Y4765429D01*
X-1042857Y4851143D01*
X-1028571Y4879714D01*
X-1014286Y4894000D01*
X-985714Y4908286D01*
X-942857Y4908286D01*
X-914286Y4894000D01*
X-900000Y4879714D01*
X-885714Y4851143D01*
X-885714Y4765429D01*
X-900000Y4736857D01*
X-914286Y4722571D01*
X-942857Y4708286D01*
X-985714Y4708286D01*
X-714286Y4708286D02*
X-742857Y4722571D01*
X-757143Y4751143D01*
X-757143Y5008286D01*
X-485714Y4722571D02*
X-514286Y4708286D01*
X-571429Y4708286D01*
X-600000Y4722571D01*
X-614286Y4751143D01*
X-614286Y4865429D01*
X-600000Y4894000D01*
X-571429Y4908286D01*
X-514286Y4908286D01*
X-485714Y4894000D01*
X-471429Y4865429D01*
X-471429Y4836857D01*
X-614286Y4808286D01*
X-357143Y4722571D02*
X-328571Y4708286D01*
X-271429Y4708286D01*
X-242857Y4722571D01*
X-228571Y4751143D01*
X-228571Y4765429D01*
X-242857Y4794000D01*
X-271429Y4808286D01*
X-314286Y4808286D01*
X-342857Y4822571D01*
X-357143Y4851143D01*
X-357143Y4865429D01*
X-342857Y4894000D01*
X-314286Y4908286D01*
X-271429Y4908286D01*
X-242857Y4894000D01*
X-128571Y4594000D02*
X-114286Y4608286D01*
X-85714Y4651143D01*
X-71429Y4679714D01*
X-57143Y4722571D01*
X-42857Y4794000D01*
X-42857Y4851143D01*
X-57143Y4922571D01*
X-71429Y4965429D01*
X-85714Y4994000D01*
X-114286Y5036857D01*
X-128571Y5051143D01*
M02*
