M48
;DRILL file {KiCad 4.0.4-stable} date 12/05/16 22:10:51
;FORMAT={-:-/ absolute / metric / decimal}
FMAT,2
METRIC,TZ
T1C0.300
T2C1.600
%
G90
G05
M71
T1
X2.82Y-16.57
X2.82Y-29.28
X2.84Y-10.34
X2.84Y-40.74
X2.85Y-19.21
X2.85Y-26.77
X2.86Y-11.51
X2.87Y-30.58
X2.87Y-42.01
X2.88Y-12.79
X2.88Y-15.35
X2.88Y-17.87
X2.89Y-28.1
X2.89Y-33.14
X2.9Y-3.91
X2.91Y-7.75
X2.91Y-31.86
X2.92Y-8.99
X2.92Y-14.1
X2.92Y-43.34
X2.93Y-20.53
X2.93Y-24.23
X2.93Y-25.56
X2.93Y-36.94
X2.93Y-38.22
X2.93Y-39.48
X2.94Y-21.72
X2.94Y-23.02
X2.95Y-6.46
X2.96Y-5.12
X2.96Y-35.66
X3.Y-34.4
X8.22Y-10.94
X8.28Y-13.47
X8.29Y-3.61
X8.35Y-4.81
X8.37Y-14.75
X8.46Y-12.08
X8.48Y-18.51
X8.49Y-7.52
X8.49Y-19.77
X8.5Y-6.1
X8.51Y-21.1
X8.51Y-28.67
X8.51Y-37.51
X8.52Y-8.67
X8.52Y-17.2
X8.53Y-22.29
X8.54Y-29.85
X8.54Y-31.14
X8.54Y-38.8
X8.55Y-15.91
X8.57Y-40.09
X8.58Y-23.61
X8.58Y-27.34
X8.58Y-36.23
X8.6Y-24.81
X8.6Y-33.78
X8.61Y-26.17
X8.61Y-35.
X8.61Y-42.6
X8.62Y-41.31
X8.63Y-32.44
X9.08Y-9.8
X11.65Y-9.3
X11.65Y-11.59
X11.68Y-10.44
X11.68Y-12.81
X11.69Y-6.74
X11.69Y-29.33
X11.71Y-30.58
X11.72Y-14.15
X11.72Y-17.91
X11.73Y-4.2
X11.73Y-8.1
X11.74Y-19.23
X11.74Y-31.82
X11.78Y-15.35
X11.78Y-25.51
X11.78Y-28.09
X11.78Y-36.9
X11.8Y-5.35
X11.8Y-16.6
X11.8Y-20.51
X11.8Y-26.91
X11.8Y-33.06
X11.8Y-34.4
X11.8Y-35.59
X11.8Y-38.15
X11.82Y-21.7
X11.82Y-39.52
X11.85Y-43.31
X11.89Y-40.71
X11.89Y-41.95
X11.9Y-23.04
X11.9Y-24.28
X15.936Y-36.25
X16.39Y-37.75
X16.516Y-17.131
X16.569Y-21.06
X16.616Y-18.406
X16.621Y-35.343
X16.682Y-24.96
X16.691Y-19.731
X16.824Y-22.466
X16.864Y-28.912
X16.953Y-16.04
X17.027Y-34.158
X17.11Y-38.95
X17.115Y-27.55
X17.116Y-26.35
X17.118Y-14.94
X17.172Y-33.058
X17.18Y-31.25
X17.25Y-3.223
X17.262Y-40.585
X17.27Y-4.773
X17.276Y-23.65
X17.3Y-6.1
X17.32Y-12.74
X17.327Y-30.03
X17.346Y-13.84
X17.35Y-7.76
X17.36Y-11.28
X17.38Y-10.14
X17.39Y-8.97
X17.42Y-43.31
X17.554Y-41.95
T2
X4.39Y-1.71
X4.39Y-45.5
X15.82Y-1.71
X15.82Y-45.5
T0
M30
