G04 #@! TF.FileFunction,Copper,L2,Bot,Signal*
%FSLAX46Y46*%
G04 Gerber Fmt 4.6, Leading zero omitted, Abs format (unit mm)*
G04 Created by KiCad (PCBNEW 4.0.4-stable) date 12/05/16 22:10:46*
%MOMM*%
%LPD*%
G01*
G04 APERTURE LIST*
%ADD10C,0.150000*%
%ADD11C,1.600000*%
%ADD12C,0.500000*%
%ADD13C,0.200000*%
%ADD14C,0.254000*%
G04 APERTURE END LIST*
D10*
D11*
X15820000Y-1710000D03*
X15820000Y-45500000D03*
X4390000Y-1710000D03*
X4390000Y-45500000D03*
D12*
X2920000Y-43340000D03*
X11850000Y-43310000D03*
X16389647Y-37749990D03*
X8510000Y-37510000D03*
X2930000Y-36940000D03*
X11780000Y-36900000D03*
X15935901Y-36249990D03*
X8580000Y-36230000D03*
X2960000Y-35660000D03*
X11800000Y-35590000D03*
X16620874Y-35343129D03*
X8610000Y-35000000D03*
X3000000Y-34400000D03*
X11800000Y-34400000D03*
X17027216Y-34157636D03*
X8600000Y-33780000D03*
X2890000Y-33140000D03*
X11800000Y-33060000D03*
X17171930Y-33057624D03*
X8630000Y-32440000D03*
X2910000Y-31860000D03*
X11740000Y-31820000D03*
X17420000Y-43310000D03*
X8610000Y-42600000D03*
X17180000Y-31249990D03*
X8540000Y-31140000D03*
X2870000Y-30580000D03*
X11710000Y-30580000D03*
X17326636Y-30029990D03*
X8540000Y-29850000D03*
X2820000Y-29280000D03*
X11690000Y-29330000D03*
X16864258Y-28911752D03*
X8510000Y-28670000D03*
X2890000Y-28100000D03*
X11780000Y-28090000D03*
X17114850Y-27549990D03*
X8580000Y-27340000D03*
X2850000Y-26770000D03*
X11800000Y-26910000D03*
X17116324Y-26349990D03*
X8610000Y-26170000D03*
X2930000Y-25560000D03*
X11780000Y-25510000D03*
X2870000Y-42010000D03*
X11890000Y-41950000D03*
X16682319Y-24959990D03*
X8600000Y-24810000D03*
X2930000Y-24230000D03*
X11900000Y-24280000D03*
X17276123Y-23649990D03*
X8580000Y-23610000D03*
X11900000Y-23040000D03*
X2940000Y-23020000D03*
X16823657Y-22466389D03*
X8530000Y-22290000D03*
X2940000Y-21720000D03*
X11820000Y-21700000D03*
X16568629Y-21060010D03*
X8510000Y-21100000D03*
X2930000Y-20530000D03*
X11800000Y-20510000D03*
X16691084Y-19731084D03*
X8490000Y-19770000D03*
X2850000Y-19210000D03*
X11740000Y-19230000D03*
X17553643Y-41949990D03*
X8620000Y-41310000D03*
X16616084Y-18406084D03*
X8480000Y-18510000D03*
X2880000Y-17870000D03*
X11720000Y-17910000D03*
X16516080Y-17131092D03*
X8520000Y-17200000D03*
X11800000Y-16600000D03*
X2820000Y-16570000D03*
X16953319Y-16039915D03*
X8550000Y-15910000D03*
X2880000Y-15350000D03*
X11780000Y-15350000D03*
X17117873Y-14939903D03*
X8370000Y-14750000D03*
X2920000Y-14100000D03*
X11720000Y-14150000D03*
X17345966Y-13839891D03*
X8280000Y-13470000D03*
X2880000Y-12790000D03*
X11680000Y-12810000D03*
X2840000Y-40740000D03*
X11890000Y-40710000D03*
X17320000Y-12739880D03*
X8460000Y-12080000D03*
X11650000Y-11590000D03*
X2860000Y-11510000D03*
X8220000Y-10940000D03*
X17360000Y-11280000D03*
X2840000Y-10340000D03*
X11680000Y-10440000D03*
X9080000Y-9800000D03*
X17380000Y-10140000D03*
X11650000Y-9300000D03*
X2920000Y-8990000D03*
X8520000Y-8670000D03*
X17390000Y-8970000D03*
X2910000Y-7750000D03*
X11730000Y-8100000D03*
X17350000Y-7760000D03*
X8490000Y-7520000D03*
X2950000Y-6460000D03*
X11690000Y-6740000D03*
X17262459Y-40584627D03*
X8570000Y-40090000D03*
X8500000Y-6100000D03*
X17300000Y-6100000D03*
X2960000Y-5120000D03*
X11800000Y-5350000D03*
X17270000Y-4772990D03*
X8350000Y-4810000D03*
X2900000Y-3910000D03*
X11730000Y-4200000D03*
X17250000Y-3222990D03*
X8290000Y-3610000D03*
X2930000Y-39480000D03*
X11820000Y-39520000D03*
X17110000Y-38949990D03*
X8540000Y-38800000D03*
X2930000Y-38220000D03*
X11800000Y-38150000D03*
D13*
X11820000Y-43340000D02*
X2920000Y-43340000D01*
X11850000Y-43310000D02*
X11820000Y-43340000D01*
X16149657Y-37510000D02*
X16389647Y-37749990D01*
X8510000Y-37510000D02*
X16149657Y-37510000D01*
X11740000Y-36940000D02*
X2930000Y-36940000D01*
X11780000Y-36900000D02*
X11740000Y-36940000D01*
X8580000Y-36230000D02*
X15915911Y-36230000D01*
X15915911Y-36230000D02*
X15935901Y-36249990D01*
X11730000Y-35660000D02*
X2960000Y-35660000D01*
X11800000Y-35590000D02*
X11730000Y-35660000D01*
X16520046Y-35343129D02*
X16620874Y-35343129D01*
X16176917Y-35000000D02*
X16520046Y-35343129D01*
X8610000Y-35000000D02*
X16176917Y-35000000D01*
X11800000Y-34400000D02*
X12153553Y-34400000D01*
X11800000Y-34400000D02*
X3000000Y-34400000D01*
X16830478Y-34157636D02*
X17027216Y-34157636D01*
X14205996Y-33780000D02*
X14235998Y-33749998D01*
X16422840Y-33749998D02*
X16830478Y-34157636D01*
X14235998Y-33749998D02*
X16422840Y-33749998D01*
X8600000Y-33780000D02*
X14205996Y-33780000D01*
X11720000Y-33140000D02*
X2890000Y-33140000D01*
X11800000Y-33060000D02*
X11720000Y-33140000D01*
X16921931Y-32807625D02*
X17171930Y-33057624D01*
X16554306Y-32440000D02*
X16921931Y-32807625D01*
X8630000Y-32440000D02*
X16554306Y-32440000D01*
X11700000Y-31860000D02*
X2910000Y-31860000D01*
X11740000Y-31820000D02*
X11700000Y-31860000D01*
X8610000Y-42600000D02*
X16434300Y-42600000D01*
X16894301Y-43060001D02*
X17170001Y-43060001D01*
X16434300Y-42600000D02*
X16894301Y-43060001D01*
X17170001Y-43060001D02*
X17420000Y-43310000D01*
X17070010Y-31140000D02*
X17180000Y-31249990D01*
X8540000Y-31140000D02*
X17070010Y-31140000D01*
X11710000Y-30580000D02*
X2870000Y-30580000D01*
X8893553Y-29850000D02*
X9073543Y-30029990D01*
X16973083Y-30029990D02*
X17326636Y-30029990D01*
X8540000Y-29850000D02*
X8893553Y-29850000D01*
X9073543Y-30029990D02*
X16973083Y-30029990D01*
X11640000Y-29280000D02*
X2820000Y-29280000D01*
X11690000Y-29330000D02*
X11640000Y-29280000D01*
X14335998Y-28649998D02*
X16602504Y-28649998D01*
X16614259Y-28661753D02*
X16864258Y-28911752D01*
X14315996Y-28670000D02*
X14335998Y-28649998D01*
X8510000Y-28670000D02*
X14315996Y-28670000D01*
X16602504Y-28649998D02*
X16614259Y-28661753D01*
X11770000Y-28100000D02*
X2890000Y-28100000D01*
X11780000Y-28090000D02*
X11770000Y-28100000D01*
X16761297Y-27549990D02*
X17114850Y-27549990D01*
X16731307Y-27520000D02*
X16761297Y-27549990D01*
X8580000Y-27340000D02*
X8933553Y-27340000D01*
X9113553Y-27520000D02*
X16731307Y-27520000D01*
X8933553Y-27340000D02*
X9113553Y-27520000D01*
X11660000Y-26770000D02*
X2850000Y-26770000D01*
X11800000Y-26910000D02*
X11660000Y-26770000D01*
X16936334Y-26170000D02*
X17116324Y-26349990D01*
X8610000Y-26170000D02*
X16936334Y-26170000D01*
X12133553Y-25510000D02*
X11780000Y-25510000D01*
X11730000Y-25560000D02*
X2930000Y-25560000D01*
X11780000Y-25510000D02*
X11730000Y-25560000D01*
X11830000Y-42010000D02*
X2870000Y-42010000D01*
X11890000Y-41950000D02*
X11830000Y-42010000D01*
X16328766Y-24959990D02*
X16682319Y-24959990D01*
X9103543Y-24959990D02*
X16328766Y-24959990D01*
X8600000Y-24810000D02*
X8953553Y-24810000D01*
X8953553Y-24810000D02*
X9103543Y-24959990D01*
X11850000Y-24230000D02*
X2930000Y-24230000D01*
X11900000Y-24280000D02*
X11850000Y-24230000D01*
X17236133Y-23610000D02*
X17276123Y-23649990D01*
X8580000Y-23610000D02*
X17236133Y-23610000D01*
X11880000Y-23020000D02*
X2940000Y-23020000D01*
X11900000Y-23040000D02*
X11880000Y-23020000D01*
X16647268Y-22290000D02*
X16823657Y-22466389D01*
X8530000Y-22290000D02*
X16647268Y-22290000D01*
X11800000Y-21720000D02*
X2940000Y-21720000D01*
X11820000Y-21700000D02*
X11800000Y-21720000D01*
X16528639Y-21100000D02*
X16568629Y-21060010D01*
X8510000Y-21100000D02*
X16528639Y-21100000D01*
X11780000Y-20530000D02*
X2930000Y-20530000D01*
X11800000Y-20510000D02*
X11780000Y-20530000D01*
X16337531Y-19731084D02*
X16691084Y-19731084D01*
X16137531Y-19931084D02*
X16337531Y-19731084D01*
X9004637Y-19931084D02*
X16137531Y-19931084D01*
X8490000Y-19770000D02*
X8843553Y-19770000D01*
X8843553Y-19770000D02*
X9004637Y-19931084D01*
X11720000Y-19210000D02*
X2850000Y-19210000D01*
X11740000Y-19230000D02*
X11720000Y-19210000D01*
X16575700Y-41310000D02*
X17215690Y-41949990D01*
X8620000Y-41310000D02*
X16575700Y-41310000D01*
X17215690Y-41949990D02*
X17553643Y-41949990D01*
X16512168Y-18510000D02*
X16616084Y-18406084D01*
X8480000Y-18510000D02*
X16512168Y-18510000D01*
X11680000Y-17870000D02*
X2880000Y-17870000D01*
X11720000Y-17910000D02*
X11680000Y-17870000D01*
X8520000Y-17200000D02*
X16447172Y-17200000D01*
X16447172Y-17200000D02*
X16516080Y-17131092D01*
X11800000Y-16600000D02*
X2850000Y-16600000D01*
X2850000Y-16600000D02*
X2820000Y-16570000D01*
X8550000Y-15910000D02*
X13037901Y-15910000D01*
X16589691Y-16049990D02*
X16599766Y-16039915D01*
X13037901Y-15910000D02*
X13177891Y-16049990D01*
X13177891Y-16049990D02*
X16589691Y-16049990D01*
X16599766Y-16039915D02*
X16953319Y-16039915D01*
X11780000Y-15350000D02*
X2880000Y-15350000D01*
X16764320Y-14939903D02*
X17117873Y-14939903D01*
X14164004Y-14750000D02*
X14353907Y-14939903D01*
X8370000Y-14750000D02*
X14164004Y-14750000D01*
X14353907Y-14939903D02*
X16764320Y-14939903D01*
X12073553Y-14150000D02*
X11720000Y-14150000D01*
X11670000Y-14100000D02*
X2920000Y-14100000D01*
X11720000Y-14150000D02*
X11670000Y-14100000D01*
X16992413Y-13839891D02*
X17345966Y-13839891D01*
X16940635Y-13839891D02*
X16992413Y-13839891D01*
X8280000Y-13470000D02*
X16570744Y-13470000D01*
X16570744Y-13470000D02*
X16940635Y-13839891D01*
X12033553Y-12810000D02*
X11680000Y-12810000D01*
X11660000Y-12790000D02*
X2880000Y-12790000D01*
X11680000Y-12810000D02*
X11660000Y-12790000D01*
X11860000Y-40740000D02*
X2840000Y-40740000D01*
X11890000Y-40710000D02*
X11860000Y-40740000D01*
X16730120Y-12150000D02*
X17070001Y-12489881D01*
X8460000Y-12080000D02*
X8813553Y-12080000D01*
X8813553Y-12080000D02*
X8883553Y-12150000D01*
X8883553Y-12150000D02*
X16730120Y-12150000D01*
X17070001Y-12489881D02*
X17320000Y-12739880D01*
X11650000Y-11590000D02*
X11570000Y-11510000D01*
X11570000Y-11510000D02*
X2860000Y-11510000D01*
X8290000Y-11010000D02*
X8220000Y-10940000D01*
X12030000Y-11010000D02*
X8290000Y-11010000D01*
X12080000Y-10960000D02*
X12030000Y-11010000D01*
X16670000Y-10960000D02*
X12080000Y-10960000D01*
X16850000Y-11140000D02*
X16670000Y-10960000D01*
X17220000Y-11140000D02*
X16850000Y-11140000D01*
X17360000Y-11280000D02*
X17220000Y-11140000D01*
X11680000Y-10440000D02*
X11760000Y-10520000D01*
D14*
X2860000Y-10360000D02*
X2840000Y-10340000D01*
X8670000Y-10360000D02*
X2860000Y-10360000D01*
X8780000Y-10470000D02*
X8670000Y-10360000D01*
X11650000Y-10470000D02*
X8780000Y-10470000D01*
X11680000Y-10440000D02*
X11650000Y-10470000D01*
D13*
X9140000Y-9860000D02*
X9080000Y-9800000D01*
X11910000Y-9860000D02*
X9140000Y-9860000D01*
X12140000Y-10090000D02*
X11910000Y-9860000D01*
X17330000Y-10090000D02*
X12140000Y-10090000D01*
X17380000Y-10140000D02*
X17330000Y-10090000D01*
X11590000Y-9240000D02*
X11650000Y-9300000D01*
X3170000Y-9240000D02*
X11590000Y-9240000D01*
X2920000Y-8990000D02*
X3170000Y-9240000D01*
D14*
X8550000Y-8700000D02*
X8520000Y-8670000D01*
X12150000Y-8700000D02*
X8550000Y-8700000D01*
X12500000Y-9050000D02*
X12150000Y-8700000D01*
X17310000Y-9050000D02*
X12500000Y-9050000D01*
X17390000Y-8970000D02*
X17310000Y-9050000D01*
D13*
X2910000Y-7760000D02*
X2910000Y-7750000D01*
X3250000Y-8100000D02*
X2910000Y-7760000D01*
X11730000Y-8100000D02*
X3250000Y-8100000D01*
X13760000Y-7760000D02*
X13520000Y-7520000D01*
X13520000Y-7520000D02*
X8490000Y-7520000D01*
X17350000Y-7760000D02*
X13760000Y-7760000D01*
X3360000Y-6870000D02*
X2950000Y-6460000D01*
X11560000Y-6870000D02*
X3360000Y-6870000D01*
X11690000Y-6740000D02*
X11560000Y-6870000D01*
X16767832Y-40090000D02*
X17012460Y-40334628D01*
X8570000Y-40090000D02*
X16767832Y-40090000D01*
X17012460Y-40334628D02*
X17262459Y-40584627D01*
X17300000Y-6100000D02*
X8500000Y-6100000D01*
X3220000Y-5380000D02*
X2960000Y-5120000D01*
X11770000Y-5380000D02*
X3220000Y-5380000D01*
X11800000Y-5350000D02*
X11770000Y-5380000D01*
X8350000Y-4810000D02*
X8703553Y-4810000D01*
X8740563Y-4772990D02*
X13771126Y-4772990D01*
X13771126Y-4772990D02*
X13842638Y-4844502D01*
X13842638Y-4844502D02*
X16844935Y-4844502D01*
X16844935Y-4844502D02*
X16916447Y-4772990D01*
X16916447Y-4772990D02*
X17270000Y-4772990D01*
X8703553Y-4810000D02*
X8740563Y-4772990D01*
X3220000Y-4230000D02*
X2900000Y-3910000D01*
X11700000Y-4230000D02*
X3220000Y-4230000D01*
X11730000Y-4200000D02*
X11700000Y-4230000D01*
X8927009Y-2972991D02*
X17000001Y-2972991D01*
X8290000Y-3610000D02*
X8927009Y-2972991D01*
X17000001Y-2972991D02*
X17250000Y-3222990D01*
X11780000Y-39480000D02*
X2930000Y-39480000D01*
X11820000Y-39520000D02*
X11780000Y-39480000D01*
X8540000Y-38800000D02*
X16960010Y-38800000D01*
X16960010Y-38800000D02*
X17110000Y-38949990D01*
X11730000Y-38220000D02*
X2930000Y-38220000D01*
X11800000Y-38150000D02*
X11730000Y-38220000D01*
M02*
